<svg width="62" height="18" viewBox="0 0 62 18" fill="none" xmlns="http://www.w3.org/2000/svg">
<path d="M7.624 13.144C7.008 13.144 6.468 13.036 6.004 12.82C5.54 12.604 5.176 12.296 4.912 11.896C4.656 11.496 4.524 11.02 4.516 10.468H5.86C5.868 10.916 6.024 11.296 6.328 11.608C6.632 11.92 7.06 12.076 7.612 12.076C8.1 12.076 8.48 11.96 8.752 11.728C9.032 11.488 9.172 11.184 9.172 10.816C9.172 10.52 9.104 10.28 8.968 10.096C8.84 9.912 8.66 9.76 8.428 9.64C8.204 9.52 7.944 9.412 7.648 9.316C7.352 9.22 7.04 9.116 6.712 9.004C6.064 8.788 5.576 8.508 5.248 8.164C4.928 7.82 4.768 7.368 4.768 6.808C4.76 6.336 4.868 5.924 5.092 5.572C5.324 5.22 5.644 4.948 6.052 4.756C6.468 4.556 6.952 4.456 7.504 4.456C8.048 4.456 8.524 4.556 8.932 4.756C9.348 4.956 9.672 5.236 9.904 5.596C10.136 5.948 10.256 6.36 10.264 6.832H8.92C8.92 6.616 8.864 6.412 8.752 6.22C8.64 6.02 8.476 5.856 8.26 5.728C8.044 5.6 7.78 5.536 7.468 5.536C7.068 5.528 6.736 5.628 6.472 5.836C6.216 6.044 6.088 6.332 6.088 6.7C6.088 7.028 6.184 7.28 6.376 7.456C6.568 7.632 6.832 7.78 7.168 7.9C7.504 8.012 7.888 8.144 8.32 8.296C8.736 8.432 9.108 8.596 9.436 8.788C9.764 8.98 10.024 9.232 10.216 9.544C10.416 9.856 10.516 10.252 10.516 10.732C10.516 11.156 10.408 11.552 10.192 11.92C9.976 12.28 9.652 12.576 9.22 12.808C8.788 13.032 8.256 13.144 7.624 13.144ZM15.0507 13.144C14.4507 13.144 13.9067 13.028 13.4187 12.796C12.9387 12.556 12.5547 12.192 12.2667 11.704C11.9867 11.216 11.8467 10.596 11.8467 9.844V4.6H13.1187V9.856C13.1187 10.592 13.2947 11.132 13.6467 11.476C13.9987 11.82 14.4747 11.992 15.0747 11.992C15.6667 11.992 16.1387 11.82 16.4907 11.476C16.8427 11.132 17.0187 10.592 17.0187 9.856V4.6H18.2907V9.844C18.2907 10.596 18.1427 11.216 17.8467 11.704C17.5587 12.192 17.1667 12.556 16.6707 12.796C16.1827 13.028 15.6427 13.144 15.0507 13.144ZM23.6663 13.144C22.8343 13.144 22.1143 12.964 21.5063 12.604C20.9063 12.236 20.4423 11.728 20.1143 11.08C19.7863 10.424 19.6223 9.668 19.6223 8.812C19.6223 7.948 19.7863 7.192 20.1143 6.544C20.4423 5.888 20.9063 5.376 21.5063 5.008C22.1143 4.64 22.8343 4.456 23.6663 4.456C24.6503 4.456 25.4543 4.696 26.0783 5.176C26.7023 5.656 27.0983 6.328 27.2663 7.192H25.8503C25.7383 6.704 25.4983 6.316 25.1303 6.028C24.7623 5.74 24.2703 5.596 23.6543 5.596C22.8143 5.596 22.1503 5.884 21.6623 6.46C21.1743 7.028 20.9303 7.812 20.9303 8.812C20.9303 9.804 21.1743 10.584 21.6623 11.152C22.1503 11.72 22.8143 12.004 23.6543 12.004C24.2703 12.004 24.7623 11.868 25.1303 11.596C25.4983 11.324 25.7383 10.952 25.8503 10.48H27.2663C27.0983 11.312 26.7023 11.964 26.0783 12.436C25.4543 12.908 24.6503 13.144 23.6663 13.144ZM32.4085 13.144C31.5765 13.144 30.8565 12.964 30.2485 12.604C29.6485 12.236 29.1845 11.728 28.8565 11.08C28.5285 10.424 28.3645 9.668 28.3645 8.812C28.3645 7.948 28.5285 7.192 28.8565 6.544C29.1845 5.888 29.6485 5.376 30.2485 5.008C30.8565 4.64 31.5765 4.456 32.4085 4.456C33.3925 4.456 34.1965 4.696 34.8205 5.176C35.4445 5.656 35.8405 6.328 36.0085 7.192H34.5925C34.4805 6.704 34.2405 6.316 33.8725 6.028C33.5045 5.74 33.0125 5.596 32.3965 5.596C31.5565 5.596 30.8925 5.884 30.4045 6.46C29.9165 7.028 29.6725 7.812 29.6725 8.812C29.6725 9.804 29.9165 10.584 30.4045 11.152C30.8925 11.72 31.5565 12.004 32.3965 12.004C33.0125 12.004 33.5045 11.868 33.8725 11.596C34.2405 11.324 34.4805 10.952 34.5925 10.48H36.0085C35.8405 11.312 35.4445 11.964 34.8205 12.436C34.1965 12.908 33.3925 13.144 32.4085 13.144ZM37.4067 13V4.6H42.7467V5.632H38.6787V8.248H42.3867V9.256H38.6787V11.968H42.7467V13H37.4067ZM47.0342 13.144C46.4182 13.144 45.8782 13.036 45.4142 12.82C44.9502 12.604 44.5862 12.296 44.3222 11.896C44.0662 11.496 43.9342 11.02 43.9262 10.468H45.2702C45.2782 10.916 45.4342 11.296 45.7382 11.608C46.0422 11.92 46.4702 12.076 47.0222 12.076C47.5102 12.076 47.8902 11.96 48.1622 11.728C48.4422 11.488 48.5822 11.184 48.5822 10.816C48.5822 10.52 48.5142 10.28 48.3782 10.096C48.2502 9.912 48.0702 9.76 47.8382 9.64C47.6142 9.52 47.3542 9.412 47.0582 9.316C46.7622 9.22 46.4502 9.116 46.1222 9.004C45.4742 8.788 44.9862 8.508 44.6582 8.164C44.3382 7.82 44.1782 7.368 44.1782 6.808C44.1702 6.336 44.2782 5.924 44.5022 5.572C44.7342 5.22 45.0542 4.948 45.4622 4.756C45.8782 4.556 46.3622 4.456 46.9142 4.456C47.4582 4.456 47.9342 4.556 48.3422 4.756C48.7582 4.956 49.0822 5.236 49.3142 5.596C49.5462 5.948 49.6662 6.36 49.6742 6.832H48.3302C48.3302 6.616 48.2742 6.412 48.1622 6.22C48.0502 6.02 47.8862 5.856 47.6702 5.728C47.4542 5.6 47.1902 5.536 46.8782 5.536C46.4782 5.528 46.1462 5.628 45.8822 5.836C45.6262 6.044 45.4982 6.332 45.4982 6.7C45.4982 7.028 45.5942 7.28 45.7862 7.456C45.9782 7.632 46.2422 7.78 46.5782 7.9C46.9142 8.012 47.2982 8.144 47.7302 8.296C48.1462 8.432 48.5182 8.596 48.8462 8.788C49.1742 8.98 49.4342 9.232 49.6262 9.544C49.8262 9.856 49.9262 10.252 49.9262 10.732C49.9262 11.156 49.8182 11.552 49.6022 11.92C49.3862 12.28 49.0622 12.576 48.6302 12.808C48.1982 13.032 47.6662 13.144 47.0342 13.144ZM54.0888 13.144C53.4728 13.144 52.9328 13.036 52.4688 12.82C52.0048 12.604 51.6408 12.296 51.3768 11.896C51.1208 11.496 50.9888 11.02 50.9808 10.468H52.3248C52.3328 10.916 52.4888 11.296 52.7928 11.608C53.0968 11.92 53.5248 12.076 54.0768 12.076C54.5648 12.076 54.9448 11.96 55.2168 11.728C55.4968 11.488 55.6368 11.184 55.6368 10.816C55.6368 10.52 55.5688 10.28 55.4328 10.096C55.3048 9.912 55.1248 9.76 54.8928 9.64C54.6688 9.52 54.4088 9.412 54.1128 9.316C53.8168 9.22 53.5048 9.116 53.1768 9.004C52.5288 8.788 52.0408 8.508 51.7128 8.164C51.3928 7.82 51.2328 7.368 51.2328 6.808C51.2248 6.336 51.3328 5.924 51.5568 5.572C51.7888 5.22 52.1088 4.948 52.5168 4.756C52.9328 4.556 53.4168 4.456 53.9688 4.456C54.5128 4.456 54.9888 4.556 55.3968 4.756C55.8128 4.956 56.1368 5.236 56.3688 5.596C56.6008 5.948 56.7208 6.36 56.7288 6.832H55.3848C55.3848 6.616 55.3288 6.412 55.2168 6.22C55.1048 6.02 54.9408 5.856 54.7248 5.728C54.5088 5.6 54.2448 5.536 53.9328 5.536C53.5328 5.528 53.2008 5.628 52.9368 5.836C52.6808 6.044 52.5528 6.332 52.5528 6.7C52.5528 7.028 52.6488 7.28 52.8408 7.456C53.0328 7.632 53.2968 7.78 53.6328 7.9C53.9688 8.012 54.3528 8.144 54.7848 8.296C55.2008 8.432 55.5728 8.596 55.9008 8.788C56.2288 8.98 56.4888 9.232 56.6808 9.544C56.8808 9.856 56.9808 10.252 56.9808 10.732C56.9808 11.156 56.8728 11.552 56.6568 11.92C56.4408 12.28 56.1168 12.576 55.6848 12.808C55.2528 13.032 54.7208 13.144 54.0888 13.144Z" fill="#2CAE51"/>
<rect x="0.5" y="0.5" width="61" height="17" stroke="#2CAE51"/>
</svg>
