<svg width="81" height="18" viewBox="0 0 81 18" fill="none" xmlns="http://www.w3.org/2000/svg">
<path d="M6.82 13V5.632H4.336V4.6H10.564V5.632H8.092V13H6.82ZM11.7543 13V4.6H17.0943V5.632H13.0263V8.248H16.7343V9.256H13.0263V11.968H17.0943V13H11.7543ZM18.6098 13V4.6H21.5018C22.1658 4.6 22.7098 4.712 23.1338 4.936C23.5658 5.16 23.8858 5.464 24.0938 5.848C24.3018 6.224 24.4058 6.644 24.4058 7.108C24.4058 7.628 24.2658 8.1 23.9858 8.524C23.7138 8.948 23.2858 9.252 22.7018 9.436L24.4898 13H23.0138L21.3818 9.616H19.8818V13H18.6098ZM19.8818 8.656H21.4298C22.0058 8.656 22.4258 8.516 22.6898 8.236C22.9618 7.956 23.0978 7.592 23.0978 7.144C23.0978 6.696 22.9658 6.34 22.7018 6.076C22.4378 5.804 22.0098 5.668 21.4178 5.668H19.8818V8.656ZM25.9106 13V4.6H27.4106L30.2546 10.192L33.0866 4.6H34.5866V13H33.3146V6.796L30.7466 11.8H29.7626L27.1826 6.808V13H25.9106ZM36.2934 13V4.6H37.5654V13H36.2934ZM39.27 13V4.6H40.542L44.754 10.924V4.6H46.026V13H44.754L40.542 6.676V13H39.27ZM47.1909 13L50.2869 4.6H51.6789L54.7509 13H53.4069L52.6869 10.948H49.2549L48.5349 13H47.1909ZM49.6149 9.94H52.3269L50.9709 6.112L49.6149 9.94ZM56.9763 13V5.632H54.4923V4.6H60.7203V5.632H58.2483V13H56.9763ZM61.9106 13V4.6H67.2506V5.632H63.1826V8.248H66.8906V9.256H63.1826V11.968H67.2506V13H61.9106ZM68.7661 13V4.6H71.4901C72.4741 4.6 73.2821 4.772 73.9141 5.116C74.5541 5.46 75.0261 5.948 75.3301 6.58C75.6421 7.204 75.7981 7.948 75.7981 8.812C75.7981 9.668 75.6421 10.412 75.3301 11.044C75.0261 11.668 74.5541 12.152 73.9141 12.496C73.2821 12.832 72.4741 13 71.4901 13H68.7661ZM70.0381 11.92H71.4421C72.2021 11.92 72.8021 11.796 73.2421 11.548C73.6901 11.3 74.0101 10.944 74.2021 10.48C74.4021 10.016 74.5021 9.46 74.5021 8.812C74.5021 8.164 74.4021 7.604 74.2021 7.132C74.0101 6.66 73.6901 6.3 73.2421 6.052C72.8021 5.796 72.2021 5.668 71.4421 5.668H70.0381V11.92Z" fill="#AE2C2C"/>
<rect x="0.5" y="0.5" width="80" height="17" stroke="#AE2C2C"/>
</svg>
