<svg width="18" height="17" viewBox="0 0 18 17" fill="none" xmlns="http://www.w3.org/2000/svg">
<path d="M11.7609 12.6957H14.1957V10.2609C14.1957 10.1802 14.2277 10.1027 14.2848 10.0457C14.3419 9.98859 14.4193 9.95652 14.5 9.95652C14.5807 9.95652 14.6581 9.98859 14.7152 10.0457C14.7723 10.1027 14.8043 10.1802 14.8043 10.2609V12.6957H17.2391C17.3198 12.6957 17.3973 12.7277 17.4543 12.7848C17.5114 12.8419 17.5435 12.9193 17.5435 13C17.5435 13.0807 17.5114 13.1581 17.4543 13.2152C17.3973 13.2723 17.3198 13.3043 17.2391 13.3043H14.8043V15.7391C14.8043 15.8198 14.7723 15.8973 14.7152 15.9543C14.6581 16.0114 14.5807 16.0435 14.5 16.0435C14.4193 16.0435 14.3419 16.0114 14.2848 15.9543C14.2277 15.8973 14.1957 15.8198 14.1957 15.7391V13.3043H11.7609C11.6802 13.3043 11.6027 13.2723 11.5457 13.2152C11.4886 13.1581 11.4565 13.0807 11.4565 13C11.4565 12.9193 11.4886 12.8419 11.5457 12.7848C11.6027 12.7277 11.6802 12.6957 11.7609 12.6957Z" fill="#BD6A8D"/>
<path fill-rule="evenodd" clip-rule="evenodd" d="M14.1957 10.2609C14.1957 10.1802 14.2277 10.1027 14.2848 10.0457C14.3419 9.98859 14.4193 9.95652 14.5 9.95652C14.5807 9.95652 14.6581 9.98859 14.7152 10.0457C14.7723 10.1027 14.8043 10.1802 14.8043 10.2609V12.6957H17.2391C17.3198 12.6957 17.3973 12.7277 17.4543 12.7848C17.5114 12.8419 17.5435 12.9193 17.5435 13C17.5435 13.0807 17.5114 13.1581 17.4543 13.2152C17.3973 13.2723 17.3198 13.3043 17.2391 13.3043H14.8043V15.7391C14.8043 15.8198 14.7723 15.8973 14.7152 15.9543C14.6581 16.0114 14.5807 16.0435 14.5 16.0435C14.4193 16.0435 14.3419 16.0114 14.2848 15.9543C14.2277 15.8973 14.1957 15.8198 14.1957 15.7391V13.3043H11.7609C11.6802 13.3043 11.6027 13.2723 11.5457 13.2152C11.4886 13.1581 11.4565 13.0807 11.4565 13C11.4565 12.9193 11.4886 12.8419 11.5457 12.7848C11.6027 12.7277 11.6802 12.6957 11.7609 12.6957H14.1957V10.2609ZM13.7391 12.2391V10.2609C13.7391 10.0591 13.8193 9.86554 13.962 9.72285C14.1047 9.58016 14.2982 9.5 14.5 9.5C14.7018 9.5 14.8953 9.58016 15.038 9.72285C15.1807 9.86554 15.2609 10.0591 15.2609 10.2609V12.2391H17.2391C17.4409 12.2391 17.6345 12.3193 17.7771 12.462C17.9198 12.6047 18 12.7982 18 13C18 13.2018 17.9198 13.3953 17.7771 13.538C17.6345 13.6807 17.4409 13.7609 17.2391 13.7609H15.2609V15.7391C15.2609 15.9409 15.1807 16.1345 15.038 16.2771C14.8953 16.4198 14.7018 16.5 14.5 16.5C14.2982 16.5 14.1047 16.4198 13.962 16.2771C13.8193 16.1345 13.7391 15.9409 13.7391 15.7391V13.7609H11.7609C11.5591 13.7609 11.3655 13.6807 11.2229 13.538C11.0802 13.3953 11 13.2018 11 13C11 12.7982 11.0802 12.6047 11.2229 12.462C11.3655 12.3193 11.5591 12.2391 11.7609 12.2391H13.7391Z" fill="#BD6A8D"/>
<mask id="path-2-inside-1_2384_10111" fill="white">
<path fill-rule="evenodd" clip-rule="evenodd" d="M6.66667 0C4.36548 0 2.5 1.86548 2.5 4.16667C2.5 6.46785 4.36548 8.33333 6.66667 8.33333C8.96785 8.33333 10.8333 6.46785 10.8333 4.16667C10.8333 1.86548 8.96785 0 6.66667 0ZM9.16667 4.16667C9.16667 5.54738 8.04738 6.66667 6.66667 6.66667C5.28595 6.66667 4.16667 5.54738 4.16667 4.16667C4.16667 2.78595 5.28595 1.66667 6.66667 1.66667C8.04738 1.66667 9.16667 2.78595 9.16667 4.16667ZM0 15.8333C0 14.0652 0.702379 12.3695 1.95262 11.1193C3.20286 9.86905 4.89856 9.16667 6.66667 9.16667C8.1051 9.16667 9.49561 9.63154 10.6373 10.4781C10.3314 10.6144 10.05 10.8064 9.80864 11.0478C9.63502 11.2214 9.48692 11.4158 9.36673 11.625C8.56726 11.1121 7.63133 10.8333 6.66667 10.8333C5.34058 10.8333 4.06881 11.3601 3.13113 12.2978C2.19345 13.2355 1.66667 14.5073 1.66667 15.8333H0ZM11.6661 15.7592C11.6665 15.7839 11.6667 15.8086 11.6667 15.8333H11.7407C11.7399 15.8092 11.7394 15.785 11.7392 15.7608C11.7148 15.7606 11.6904 15.7601 11.6661 15.7592ZM12.2815 12.2391C12.5858 12.7145 12.8281 13.226 13.003 13.7609H11.7609C11.5591 13.7609 11.3655 13.6807 11.2229 13.538C11.0802 13.3953 11 13.2018 11 13C11 12.7982 11.0802 12.6047 11.2229 12.462C11.3655 12.3193 11.5591 12.2391 11.7609 12.2391H12.2815Z"/>
</mask>
<path fill-rule="evenodd" clip-rule="evenodd" d="M6.66667 0C4.36548 0 2.5 1.86548 2.5 4.16667C2.5 6.46785 4.36548 8.33333 6.66667 8.33333C8.96785 8.33333 10.8333 6.46785 10.8333 4.16667C10.8333 1.86548 8.96785 0 6.66667 0ZM9.16667 4.16667C9.16667 5.54738 8.04738 6.66667 6.66667 6.66667C5.28595 6.66667 4.16667 5.54738 4.16667 4.16667C4.16667 2.78595 5.28595 1.66667 6.66667 1.66667C8.04738 1.66667 9.16667 2.78595 9.16667 4.16667ZM0 15.8333C0 14.0652 0.702379 12.3695 1.95262 11.1193C3.20286 9.86905 4.89856 9.16667 6.66667 9.16667C8.1051 9.16667 9.49561 9.63154 10.6373 10.4781C10.3314 10.6144 10.05 10.8064 9.80864 11.0478C9.63502 11.2214 9.48692 11.4158 9.36673 11.625C8.56726 11.1121 7.63133 10.8333 6.66667 10.8333C5.34058 10.8333 4.06881 11.3601 3.13113 12.2978C2.19345 13.2355 1.66667 14.5073 1.66667 15.8333H0ZM11.6661 15.7592C11.6665 15.7839 11.6667 15.8086 11.6667 15.8333H11.7407C11.7399 15.8092 11.7394 15.785 11.7392 15.7608C11.7148 15.7606 11.6904 15.7601 11.6661 15.7592ZM12.2815 12.2391C12.5858 12.7145 12.8281 13.226 13.003 13.7609H11.7609C11.5591 13.7609 11.3655 13.6807 11.2229 13.538C11.0802 13.3953 11 13.2018 11 13C11 12.7982 11.0802 12.6047 11.2229 12.462C11.3655 12.3193 11.5591 12.2391 11.7609 12.2391H12.2815Z" fill="#BD6A8D"/>
<path d="M0 15.8333H-0.4V16.2333H0V15.8333ZM10.6373 10.4781L10.8001 10.8435L11.4258 10.5647L10.8756 10.1568L10.6373 10.4781ZM9.36673 11.625L9.15074 11.9617L9.50437 12.1886L9.71361 11.8242L9.36673 11.625ZM3.13113 12.2978L2.84829 12.015L3.13113 12.2978ZM1.66667 15.8333V16.2333H2.06667V15.8333H1.66667ZM11.6661 15.7592L11.6798 15.3595L11.2599 15.3451L11.2662 15.7652L11.6661 15.7592ZM11.6667 15.8333H11.2667V16.2333H11.6667V15.8333ZM11.7407 15.8333V16.2333H12.1546L12.1405 15.8197L11.7407 15.8333ZM11.7392 15.7608L12.1392 15.7576L12.1361 15.3639L11.7423 15.3608L11.7392 15.7608ZM13.003 13.7609V14.1609H13.5547L13.3832 13.6365L13.003 13.7609ZM12.2815 12.2391L12.6184 12.0235L12.5004 11.8391H12.2815V12.2391ZM2.9 4.16667C2.9 2.08639 4.58639 0.4 6.66667 0.4V-0.4C4.14457 -0.4 2.1 1.64457 2.1 4.16667H2.9ZM6.66667 7.93333C4.58639 7.93333 2.9 6.24694 2.9 4.16667H2.1C2.1 6.68877 4.14457 8.73333 6.66667 8.73333V7.93333ZM10.4333 4.16667C10.4333 6.24694 8.74694 7.93333 6.66667 7.93333V8.73333C9.18877 8.73333 11.2333 6.68877 11.2333 4.16667H10.4333ZM6.66667 0.4C8.74694 0.4 10.4333 2.08639 10.4333 4.16667H11.2333C11.2333 1.64457 9.18877 -0.4 6.66667 -0.4V0.4ZM6.66667 7.06667C8.26829 7.06667 9.56667 5.76829 9.56667 4.16667H8.76667C8.76667 5.32646 7.82646 6.26667 6.66667 6.26667V7.06667ZM3.76667 4.16667C3.76667 5.76829 5.06504 7.06667 6.66667 7.06667V6.26667C5.50687 6.26667 4.56667 5.32646 4.56667 4.16667H3.76667ZM6.66667 1.26667C5.06504 1.26667 3.76667 2.56504 3.76667 4.16667H4.56667C4.56667 3.00687 5.50687 2.06667 6.66667 2.06667V1.26667ZM9.56667 4.16667C9.56667 2.56504 8.26829 1.26667 6.66667 1.26667V2.06667C7.82646 2.06667 8.76667 3.00687 8.76667 4.16667H9.56667ZM1.66978 10.8364C0.344522 12.1617 -0.4 13.9591 -0.4 15.8333H0.4C0.4 14.1713 1.06024 12.5774 2.23546 11.4021L1.66978 10.8364ZM6.66667 8.76667C4.79247 8.76667 2.99504 9.51119 1.66978 10.8364L2.23546 11.4021C3.41069 10.2269 5.00464 9.56667 6.66667 9.56667V8.76667ZM10.8756 10.1568C9.66535 9.25944 8.19142 8.76667 6.66667 8.76667V9.56667C8.01878 9.56667 9.32586 10.0036 10.3991 10.7994L10.8756 10.1568ZM10.4746 10.1127C10.1244 10.2687 9.80212 10.4886 9.5258 10.7649L10.0915 11.3306C10.2979 11.1242 10.5385 10.96 10.8001 10.8435L10.4746 10.1127ZM9.5258 10.7649C9.32704 10.9637 9.15746 11.1862 9.01986 11.4258L9.71361 11.8242C9.81637 11.6453 9.943 11.4791 10.0915 11.3306L9.5258 10.7649ZM6.66667 11.2333C7.55414 11.2333 8.41519 11.4898 9.15074 11.9617L9.58273 11.2884C8.71932 10.7344 7.70852 10.4333 6.66667 10.4333V11.2333ZM3.41398 12.5806C4.27664 11.718 5.44667 11.2333 6.66667 11.2333V10.4333C5.2345 10.4333 3.86099 11.0023 2.84829 12.015L3.41398 12.5806ZM2.06667 15.8333C2.06667 14.6133 2.55131 13.4433 3.41398 12.5806L2.84829 12.015C1.83559 13.0277 1.26667 14.4012 1.26667 15.8333H2.06667ZM0 16.2333H1.66667V15.4333H0V16.2333ZM11.2662 15.7652C11.2665 15.7879 11.2667 15.8106 11.2667 15.8333H12.0667C12.0667 15.8066 12.0665 15.78 12.0661 15.7533L11.2662 15.7652ZM11.6667 16.2333H11.7407V15.4333H11.6667V16.2333ZM11.3392 15.7639C11.3394 15.7916 11.34 15.8193 11.341 15.847L12.1405 15.8197C12.1398 15.7991 12.1394 15.7784 12.1392 15.7576L11.3392 15.7639ZM11.6524 16.159C11.6802 16.16 11.7081 16.1606 11.7361 16.1608L11.7423 15.3608C11.7215 15.3606 11.7007 15.3602 11.6798 15.3595L11.6524 16.159ZM13.3832 13.6365C13.1978 13.0696 12.941 12.5274 12.6184 12.0235L11.9446 12.4548C12.2307 12.9016 12.4584 13.3824 12.6228 13.8852L13.3832 13.6365ZM13.003 13.3609H11.7609V14.1609H13.003V13.3609ZM11.7609 13.3609C11.6652 13.3609 11.5734 13.3229 11.5057 13.2552L10.94 13.8209C11.1577 14.0386 11.453 14.1609 11.7609 14.1609V13.3609ZM11.5057 13.2552C11.438 13.1875 11.4 13.0957 11.4 13H10.6C10.6 13.3079 10.7223 13.6032 10.94 13.8209L11.5057 13.2552ZM11.4 13C11.4 12.9043 11.438 12.8125 11.5057 12.7448L10.94 12.1791C10.7223 12.3968 10.6 12.6921 10.6 13H11.4ZM11.5057 12.7448C11.5734 12.6771 11.6652 12.6391 11.7609 12.6391V11.8391C11.453 11.8391 11.1577 11.9614 10.94 12.1791L11.5057 12.7448ZM11.7609 12.6391H12.2815V11.8391H11.7609V12.6391Z" fill="#BD6A8D" mask="url(#path-2-inside-1_2384_10111)"/>
</svg>
