<svg width="91" height="44" viewBox="0 0 91 44" fill="none" xmlns="http://www.w3.org/2000/svg">
<rect width="86" height="44" rx="6" fill="#FFE0F2"/>
<path fill-rule="evenodd" clip-rule="evenodd" d="M31.3333 23.3332H23.3333V31.3332H20.6667V23.3332H12.6667V20.6665H20.6667V12.6665H23.3333V20.6665H31.3333V23.3332Z" fill="#FF1A84" stroke="#FFE0F2"/>
<path d="M39.136 27.5V16.3H42.768C44.08 16.3 45.1573 16.5293 46 16.988C46.8533 17.4467 47.4827 18.0973 47.888 18.94C48.304 19.772 48.512 20.764 48.512 21.916C48.512 23.0573 48.304 24.0493 47.888 24.892C47.4827 25.724 46.8533 26.3693 46 26.828C45.1573 27.276 44.08 27.5 42.768 27.5H39.136ZM40.832 26.06H42.704C43.7173 26.06 44.5173 25.8947 45.104 25.564C45.7013 25.2333 46.128 24.7587 46.384 24.14C46.6507 23.5213 46.784 22.78 46.784 21.916C46.784 21.052 46.6507 20.3053 46.384 19.676C46.128 19.0467 45.7013 18.5667 45.104 18.236C44.5173 17.8947 43.7173 17.724 42.704 17.724H40.832V26.06ZM53.01 27.692C52.338 27.692 51.7833 27.58 51.346 27.356C50.9087 27.132 50.5833 26.8387 50.37 26.476C50.1567 26.1027 50.05 25.6973 50.05 25.26C50.05 24.492 50.3487 23.884 50.946 23.436C51.5433 22.988 52.3967 22.764 53.506 22.764H55.586V22.62C55.586 22.0013 55.4153 21.5373 55.074 21.228C54.7433 20.9187 54.3113 20.764 53.778 20.764C53.3087 20.764 52.898 20.8813 52.546 21.116C52.2047 21.34 51.9967 21.676 51.922 22.124H50.226C50.2793 21.548 50.4713 21.0573 50.802 20.652C51.1433 20.236 51.57 19.9213 52.082 19.708C52.6047 19.484 53.1753 19.372 53.794 19.372C54.9033 19.372 55.762 19.6653 56.37 20.252C56.978 20.828 57.282 21.6173 57.282 22.62V27.5H55.81L55.666 26.14C55.442 26.5773 55.1167 26.9453 54.69 27.244C54.2633 27.5427 53.7033 27.692 53.01 27.692ZM53.346 26.316C53.8047 26.316 54.1887 26.2093 54.498 25.996C54.818 25.772 55.0633 25.4787 55.234 25.116C55.4153 24.7533 55.5273 24.3533 55.57 23.916H53.682C53.01 23.916 52.53 24.0333 52.242 24.268C51.9647 24.5027 51.826 24.796 51.826 25.148C51.826 25.5107 51.9593 25.7987 52.226 26.012C52.5033 26.2147 52.8767 26.316 53.346 26.316ZM59.9375 31.02L61.8415 26.844H61.3775L58.2415 19.564H60.0815L62.5135 25.436L65.0575 19.564H66.8495L61.7295 31.02H59.9375Z" fill="#FF1A84"/>
<rect x="0.5" y="0.5" width="85" height="43" rx="5.5" stroke="#FF0D8C" stroke-opacity="0.4" stroke-dasharray="3 3"/>
</svg>
