<svg width="293" height="44" viewBox="0 0 293 44" fill="none" xmlns="http://www.w3.org/2000/svg">
<rect width="293" height="44" rx="6" fill="#FFF9FC"/>
<path fill-rule="evenodd" clip-rule="evenodd" d="M31.3334 23.3334H23.3334V31.3334H20.6667V23.3334H12.6667V20.6667H20.6667V12.6667H23.3334V20.6667H31.3334V23.3334Z" fill="#FF1A84" stroke="white"/>
<path d="M38.416 27.5L42.544 16.3H44.4L48.496 27.5H46.704L45.744 24.764H41.168L40.208 27.5H38.416ZM41.648 23.42H45.264L43.456 18.316L41.648 23.42ZM53.2036 27.692C52.4356 27.692 51.7583 27.5107 51.1716 27.148C50.585 26.7853 50.1263 26.2893 49.7956 25.66C49.465 25.0307 49.2996 24.316 49.2996 23.516C49.2996 22.716 49.465 22.0067 49.7956 21.388C50.1263 20.7587 50.585 20.268 51.1716 19.916C51.769 19.5533 52.4516 19.372 53.2196 19.372C53.849 19.372 54.3983 19.4947 54.8676 19.74C55.3476 19.9853 55.721 20.332 55.9876 20.78V15.98H57.6836V27.5H56.1636L55.9876 26.268C55.7316 26.6413 55.3796 26.972 54.9316 27.26C54.4836 27.548 53.9076 27.692 53.2036 27.692ZM53.5076 26.22C54.233 26.22 54.825 25.9693 55.2836 25.468C55.753 24.9667 55.9876 24.3213 55.9876 23.532C55.9876 22.732 55.753 22.0867 55.2836 21.596C54.825 21.0947 54.233 20.844 53.5076 20.844C52.7823 20.844 52.185 21.0947 51.7156 21.596C51.2463 22.0867 51.0116 22.732 51.0116 23.532C51.0116 24.0547 51.1183 24.5187 51.3316 24.924C51.545 25.3293 51.8383 25.6493 52.2116 25.884C52.5956 26.108 53.0276 26.22 53.5076 26.22ZM63.438 27.692C62.67 27.692 61.9927 27.5107 61.406 27.148C60.8193 26.7853 60.3607 26.2893 60.03 25.66C59.6993 25.0307 59.534 24.316 59.534 23.516C59.534 22.716 59.6993 22.0067 60.03 21.388C60.3607 20.7587 60.8193 20.268 61.406 19.916C62.0033 19.5533 62.686 19.372 63.454 19.372C64.0833 19.372 64.6327 19.4947 65.102 19.74C65.582 19.9853 65.9553 20.332 66.222 20.78V15.98H67.918V27.5H66.398L66.222 26.268C65.966 26.6413 65.614 26.972 65.166 27.26C64.718 27.548 64.142 27.692 63.438 27.692ZM63.742 26.22C64.4673 26.22 65.0593 25.9693 65.518 25.468C65.9873 24.9667 66.222 24.3213 66.222 23.532C66.222 22.732 65.9873 22.0867 65.518 21.596C65.0593 21.0947 64.4673 20.844 63.742 20.844C63.0167 20.844 62.4193 21.0947 61.95 21.596C61.4807 22.0867 61.246 22.732 61.246 23.532C61.246 24.0547 61.3527 24.5187 61.566 24.924C61.7793 25.3293 62.0727 25.6493 62.446 25.884C62.83 26.108 63.262 26.22 63.742 26.22ZM76.7756 27.5V17.676H73.4636V16.3H81.7676V17.676H78.4716V27.5H76.7756ZM85.5653 27.692C84.7866 27.692 84.0933 27.5213 83.4853 27.18C82.8879 26.828 82.4186 26.3427 82.0773 25.724C81.7359 25.1053 81.5653 24.3853 81.5653 23.564C81.5653 22.732 81.7306 22.0013 82.0613 21.372C82.4026 20.7427 82.8719 20.252 83.4693 19.9C84.0773 19.548 84.7813 19.372 85.5813 19.372C86.3599 19.372 87.0373 19.548 87.6133 19.9C88.1893 20.2413 88.6373 20.7 88.9573 21.276C89.2773 21.852 89.4373 22.4867 89.4373 23.18C89.4373 23.2867 89.4319 23.404 89.4213 23.532C89.4213 23.6493 89.4159 23.7827 89.4053 23.932H83.2293C83.2826 24.7 83.5333 25.2867 83.9813 25.692C84.4399 26.0867 84.9679 26.284 85.5653 26.284C86.0453 26.284 86.4453 26.1773 86.7653 25.964C87.0959 25.74 87.3413 25.4413 87.5013 25.068H89.1973C88.9839 25.8147 88.5573 26.4387 87.9173 26.94C87.2879 27.4413 86.5039 27.692 85.5653 27.692ZM85.5653 20.764C84.9999 20.764 84.4986 20.9347 84.0613 21.276C83.6239 21.6067 83.3573 22.108 83.2613 22.78H87.7413C87.7093 22.1613 87.4906 21.6707 87.0853 21.308C86.6799 20.9453 86.1733 20.764 85.5653 20.764ZM93.885 27.692C93.213 27.692 92.6583 27.58 92.221 27.356C91.7837 27.132 91.4583 26.8387 91.245 26.476C91.0317 26.1027 90.925 25.6973 90.925 25.26C90.925 24.492 91.2237 23.884 91.821 23.436C92.4183 22.988 93.2717 22.764 94.381 22.764H96.461V22.62C96.461 22.0013 96.2903 21.5373 95.949 21.228C95.6183 20.9187 95.1863 20.764 94.653 20.764C94.1837 20.764 93.773 20.8813 93.421 21.116C93.0797 21.34 92.8717 21.676 92.797 22.124H91.101C91.1543 21.548 91.3463 21.0573 91.677 20.652C92.0183 20.236 92.445 19.9213 92.957 19.708C93.4797 19.484 94.0503 19.372 94.669 19.372C95.7783 19.372 96.637 19.6653 97.245 20.252C97.853 20.828 98.157 21.6173 98.157 22.62V27.5H96.685L96.541 26.14C96.317 26.5773 95.9917 26.9453 95.565 27.244C95.1383 27.5427 94.5783 27.692 93.885 27.692ZM94.221 26.316C94.6797 26.316 95.0637 26.2093 95.373 25.996C95.693 25.772 95.9383 25.4787 96.109 25.116C96.2903 24.7533 96.4023 24.3533 96.445 23.916H94.557C93.885 23.916 93.405 24.0333 93.117 24.268C92.8397 24.5027 92.701 24.796 92.701 25.148C92.701 25.5107 92.8343 25.7987 93.101 26.012C93.3783 26.2147 93.7517 26.316 94.221 26.316ZM100.135 27.5V19.564H101.639L101.783 20.684C102.039 20.2787 102.375 19.9587 102.791 19.724C103.217 19.4893 103.708 19.372 104.263 19.372C105.521 19.372 106.396 19.868 106.887 20.86C107.175 20.4013 107.559 20.0387 108.039 19.772C108.529 19.5053 109.057 19.372 109.623 19.372C110.615 19.372 111.393 19.6707 111.959 20.268C112.524 20.8653 112.807 21.756 112.807 22.94V27.5H111.111V23.116C111.111 21.58 110.524 20.812 109.351 20.812C108.753 20.812 108.263 21.036 107.878 21.484C107.505 21.932 107.319 22.572 107.319 23.404V27.5H105.623V23.116C105.623 21.58 105.031 20.812 103.847 20.812C103.26 20.812 102.775 21.036 102.391 21.484C102.017 21.932 101.831 22.572 101.831 23.404V27.5H100.135Z" fill="#FF1A84"/>
<rect x="0.5" y="0.5" width="292" height="43" rx="5.5" stroke="#FF0D8C" stroke-opacity="0.4" stroke-dasharray="3 3"/>
</svg>
