<svg width="20" height="21" viewBox="0 0 20 21" fill="none" xmlns="http://www.w3.org/2000/svg">
<path d="M13.7609 14.1957H16.1957V11.7609C16.1957 11.6802 16.2277 11.6027 16.2848 11.5457C16.3419 11.4886 16.4193 11.4565 16.5 11.4565C16.5807 11.4565 16.6581 11.4886 16.7152 11.5457C16.7723 11.6027 16.8043 11.6802 16.8043 11.7609V14.1957H19.2391C19.3198 14.1957 19.3973 14.2277 19.4543 14.2848C19.5114 14.3419 19.5435 14.4193 19.5435 14.5C19.5435 14.5807 19.5114 14.6581 19.4543 14.7152C19.3973 14.7723 19.3198 14.8043 19.2391 14.8043H16.8043V17.2391C16.8043 17.3198 16.7723 17.3973 16.7152 17.4543C16.6581 17.5114 16.5807 17.5435 16.5 17.5435C16.4193 17.5435 16.3419 17.5114 16.2848 17.4543C16.2277 17.3973 16.1957 17.3198 16.1957 17.2391V14.8043H13.7609C13.6802 14.8043 13.6027 14.7723 13.5457 14.7152C13.4886 14.6581 13.4565 14.5807 13.4565 14.5C13.4565 14.4193 13.4886 14.3419 13.5457 14.2848C13.6027 14.2277 13.6802 14.1957 13.7609 14.1957Z" fill="#FF1A84"/>
<path fill-rule="evenodd" clip-rule="evenodd" d="M16.1957 11.7609C16.1957 11.6802 16.2277 11.6027 16.2848 11.5457C16.3419 11.4886 16.4193 11.4565 16.5 11.4565C16.5807 11.4565 16.6581 11.4886 16.7152 11.5457C16.7723 11.6027 16.8043 11.6802 16.8043 11.7609V14.1957H19.2391C19.3198 14.1957 19.3973 14.2277 19.4543 14.2848C19.5114 14.3419 19.5435 14.4193 19.5435 14.5C19.5435 14.5807 19.5114 14.6581 19.4543 14.7152C19.3973 14.7723 19.3198 14.8043 19.2391 14.8043H16.8043V17.2391C16.8043 17.3198 16.7723 17.3973 16.7152 17.4543C16.6581 17.5114 16.5807 17.5435 16.5 17.5435C16.4193 17.5435 16.3419 17.5114 16.2848 17.4543C16.2277 17.3973 16.1957 17.3198 16.1957 17.2391V14.8043H13.7609C13.6802 14.8043 13.6027 14.7723 13.5457 14.7152C13.4886 14.6581 13.4565 14.5807 13.4565 14.5C13.4565 14.4193 13.4886 14.3419 13.5457 14.2848C13.6027 14.2277 13.6802 14.1957 13.7609 14.1957H16.1957V11.7609ZM15.7391 13.7391V11.7609C15.7391 11.5591 15.8193 11.3655 15.962 11.2229C16.1047 11.0802 16.2982 11 16.5 11C16.7018 11 16.8953 11.0802 17.038 11.2229C17.1807 11.3655 17.2609 11.5591 17.2609 11.7609V13.7391H19.2391C19.4409 13.7391 19.6345 13.8193 19.7771 13.962C19.9198 14.1047 20 14.2982 20 14.5C20 14.7018 19.9198 14.8953 19.7771 15.038C19.6345 15.1807 19.4409 15.2609 19.2391 15.2609H17.2609V17.2391C17.2609 17.4409 17.1807 17.6345 17.038 17.7771C16.8953 17.9198 16.7018 18 16.5 18C16.2982 18 16.1047 17.9198 15.962 17.7771C15.8193 17.6345 15.7391 17.4409 15.7391 17.2391V15.2609H13.7609C13.5591 15.2609 13.3655 15.1807 13.2229 15.038C13.0802 14.8953 13 14.7018 13 14.5C13 14.2982 13.0802 14.1047 13.2229 13.962C13.3655 13.8193 13.5591 13.7391 13.7609 13.7391H15.7391Z" fill="#FF1A84"/>
<mask id="path-2-inside-1_626_12677" fill="white">
<path fill-rule="evenodd" clip-rule="evenodd" d="M8.66667 1.5C6.36548 1.5 4.5 3.36548 4.5 5.66667C4.5 7.96785 6.36548 9.83333 8.66667 9.83333C10.9679 9.83333 12.8333 7.96785 12.8333 5.66667C12.8333 3.36548 10.9679 1.5 8.66667 1.5ZM11.1667 5.66667C11.1667 7.04738 10.0474 8.16667 8.66667 8.16667C7.28595 8.16667 6.16667 7.04738 6.16667 5.66667C6.16667 4.28595 7.28595 3.16667 8.66667 3.16667C10.0474 3.16667 11.1667 4.28595 11.1667 5.66667ZM2 17.3333C2 15.5652 2.70238 13.8695 3.95262 12.6193C5.20286 11.369 6.89856 10.6667 8.66667 10.6667C10.1051 10.6667 11.4956 11.1315 12.6373 11.9781C12.3314 12.1144 12.05 12.3064 11.8086 12.5478C11.635 12.7214 11.4869 12.9158 11.3667 13.125C10.5673 12.6121 9.63133 12.3333 8.66667 12.3333C7.34058 12.3333 6.06881 12.8601 5.13113 13.7978C4.19345 14.7355 3.66667 16.0073 3.66667 17.3333H2ZM13.6661 17.2592C13.6665 17.2839 13.6667 17.3086 13.6667 17.3333H13.7407C13.7399 17.3092 13.7394 17.285 13.7392 17.2608C13.7148 17.2606 13.6904 17.2601 13.6661 17.2592ZM14.2815 13.7391C14.5858 14.2145 14.8281 14.726 15.003 15.2609H13.7609C13.5591 15.2609 13.3655 15.1807 13.2229 15.038C13.0802 14.8953 13 14.7018 13 14.5C13 14.2982 13.0802 14.1047 13.2229 13.962C13.3655 13.8193 13.5591 13.7391 13.7609 13.7391H14.2815Z"/>
</mask>
<path fill-rule="evenodd" clip-rule="evenodd" d="M8.66667 1.5C6.36548 1.5 4.5 3.36548 4.5 5.66667C4.5 7.96785 6.36548 9.83333 8.66667 9.83333C10.9679 9.83333 12.8333 7.96785 12.8333 5.66667C12.8333 3.36548 10.9679 1.5 8.66667 1.5ZM11.1667 5.66667C11.1667 7.04738 10.0474 8.16667 8.66667 8.16667C7.28595 8.16667 6.16667 7.04738 6.16667 5.66667C6.16667 4.28595 7.28595 3.16667 8.66667 3.16667C10.0474 3.16667 11.1667 4.28595 11.1667 5.66667ZM2 17.3333C2 15.5652 2.70238 13.8695 3.95262 12.6193C5.20286 11.369 6.89856 10.6667 8.66667 10.6667C10.1051 10.6667 11.4956 11.1315 12.6373 11.9781C12.3314 12.1144 12.05 12.3064 11.8086 12.5478C11.635 12.7214 11.4869 12.9158 11.3667 13.125C10.5673 12.6121 9.63133 12.3333 8.66667 12.3333C7.34058 12.3333 6.06881 12.8601 5.13113 13.7978C4.19345 14.7355 3.66667 16.0073 3.66667 17.3333H2ZM13.6661 17.2592C13.6665 17.2839 13.6667 17.3086 13.6667 17.3333H13.7407C13.7399 17.3092 13.7394 17.285 13.7392 17.2608C13.7148 17.2606 13.6904 17.2601 13.6661 17.2592ZM14.2815 13.7391C14.5858 14.2145 14.8281 14.726 15.003 15.2609H13.7609C13.5591 15.2609 13.3655 15.1807 13.2229 15.038C13.0802 14.8953 13 14.7018 13 14.5C13 14.2982 13.0802 14.1047 13.2229 13.962C13.3655 13.8193 13.5591 13.7391 13.7609 13.7391H14.2815Z" fill="#FF1A84"/>
<path d="M2 17.3333H1.6V17.7333H2V17.3333ZM12.6373 11.9781L12.8001 12.3435L13.4258 12.0647L12.8756 11.6568L12.6373 11.9781ZM11.3667 13.125L11.1507 13.4617L11.5044 13.6886L11.7136 13.3242L11.3667 13.125ZM5.13113 13.7978L4.84829 13.515L5.13113 13.7978ZM3.66667 17.3333V17.7333H4.06667V17.3333H3.66667ZM13.6661 17.2592L13.6798 16.8595L13.2599 16.8451L13.2662 17.2652L13.6661 17.2592ZM13.6667 17.3333H13.2667V17.7333H13.6667V17.3333ZM13.7407 17.3333V17.7333H14.1546L14.1405 17.3197L13.7407 17.3333ZM13.7392 17.2608L14.1392 17.2576L14.1361 16.8639L13.7423 16.8608L13.7392 17.2608ZM15.003 15.2609V15.6609H15.5547L15.3832 15.1365L15.003 15.2609ZM14.2815 13.7391L14.6184 13.5235L14.5004 13.3391H14.2815V13.7391ZM4.9 5.66667C4.9 3.58639 6.58639 1.9 8.66667 1.9V1.1C6.14457 1.1 4.1 3.14457 4.1 5.66667H4.9ZM8.66667 9.43333C6.58639 9.43333 4.9 7.74694 4.9 5.66667H4.1C4.1 8.18877 6.14457 10.2333 8.66667 10.2333V9.43333ZM12.4333 5.66667C12.4333 7.74694 10.7469 9.43333 8.66667 9.43333V10.2333C11.1888 10.2333 13.2333 8.18877 13.2333 5.66667H12.4333ZM8.66667 1.9C10.7469 1.9 12.4333 3.58639 12.4333 5.66667H13.2333C13.2333 3.14457 11.1888 1.1 8.66667 1.1V1.9ZM8.66667 8.56667C10.2683 8.56667 11.5667 7.26829 11.5667 5.66667H10.7667C10.7667 6.82646 9.82646 7.76667 8.66667 7.76667V8.56667ZM5.76667 5.66667C5.76667 7.26829 7.06504 8.56667 8.66667 8.56667V7.76667C7.50687 7.76667 6.56667 6.82646 6.56667 5.66667H5.76667ZM8.66667 2.76667C7.06504 2.76667 5.76667 4.06504 5.76667 5.66667H6.56667C6.56667 4.50687 7.50687 3.56667 8.66667 3.56667V2.76667ZM11.5667 5.66667C11.5667 4.06504 10.2683 2.76667 8.66667 2.76667V3.56667C9.82646 3.56667 10.7667 4.50687 10.7667 5.66667H11.5667ZM3.66978 12.3364C2.34452 13.6617 1.6 15.4591 1.6 17.3333H2.4C2.4 15.6713 3.06024 14.0774 4.23546 12.9021L3.66978 12.3364ZM8.66667 10.2667C6.79247 10.2667 4.99504 11.0112 3.66978 12.3364L4.23546 12.9021C5.41069 11.7269 7.00464 11.0667 8.66667 11.0667V10.2667ZM12.8756 11.6568C11.6654 10.7594 10.1914 10.2667 8.66667 10.2667V11.0667C10.0188 11.0667 11.3259 11.5036 12.3991 12.2994L12.8756 11.6568ZM12.4746 11.6127C12.1244 11.7687 11.8021 11.9886 11.5258 12.2649L12.0915 12.8306C12.2979 12.6242 12.5385 12.46 12.8001 12.3435L12.4746 11.6127ZM11.5258 12.2649C11.327 12.4637 11.1575 12.6862 11.0199 12.9258L11.7136 13.3242C11.8164 13.1453 11.943 12.9791 12.0915 12.8306L11.5258 12.2649ZM8.66667 12.7333C9.55414 12.7333 10.4152 12.9898 11.1507 13.4617L11.5827 12.7884C10.7193 12.2344 9.70852 11.9333 8.66667 11.9333V12.7333ZM5.41398 14.0806C6.27664 13.218 7.44667 12.7333 8.66667 12.7333V11.9333C7.2345 11.9333 5.86099 12.5023 4.84829 13.515L5.41398 14.0806ZM4.06667 17.3333C4.06667 16.1133 4.55131 14.9433 5.41398 14.0806L4.84829 13.515C3.83559 14.5277 3.26667 15.9012 3.26667 17.3333H4.06667ZM2 17.7333H3.66667V16.9333H2V17.7333ZM13.2662 17.2652C13.2665 17.2879 13.2667 17.3106 13.2667 17.3333H14.0667C14.0667 17.3066 14.0665 17.28 14.0661 17.2533L13.2662 17.2652ZM13.6667 17.7333H13.7407V16.9333H13.6667V17.7333ZM13.3392 17.2639C13.3394 17.2916 13.34 17.3193 13.341 17.347L14.1405 17.3197C14.1398 17.2991 14.1394 17.2784 14.1392 17.2576L13.3392 17.2639ZM13.6524 17.659C13.6802 17.66 13.7081 17.6606 13.7361 17.6608L13.7423 16.8608C13.7215 16.8606 13.7007 16.8602 13.6798 16.8595L13.6524 17.659ZM15.3832 15.1365C15.1978 14.5696 14.941 14.0274 14.6184 13.5235L13.9446 13.9548C14.2307 14.4016 14.4584 14.8824 14.6228 15.3852L15.3832 15.1365ZM15.003 14.8609H13.7609V15.6609H15.003V14.8609ZM13.7609 14.8609C13.6652 14.8609 13.5734 14.8229 13.5057 14.7552L12.94 15.3209C13.1577 15.5386 13.453 15.6609 13.7609 15.6609V14.8609ZM13.5057 14.7552C13.438 14.6875 13.4 14.5957 13.4 14.5H12.6C12.6 14.8079 12.7223 15.1032 12.94 15.3209L13.5057 14.7552ZM13.4 14.5C13.4 14.4043 13.438 14.3125 13.5057 14.2448L12.94 13.6791C12.7223 13.8968 12.6 14.1921 12.6 14.5H13.4ZM13.5057 14.2448C13.5734 14.1771 13.6652 14.1391 13.7609 14.1391V13.3391C13.453 13.3391 13.1577 13.4614 12.94 13.6791L13.5057 14.2448ZM13.7609 14.1391H14.2815V13.3391H13.7609V14.1391Z" fill="#FF1A84" mask="url(#path-2-inside-1_626_12677)"/>
</svg>
