<svg width="19" height="20" viewBox="0 0 19 20" fill="none" xmlns="http://www.w3.org/2000/svg">
<path fill-rule="evenodd" clip-rule="evenodd" d="M18.3221 11.7986V3.26892C17.9995 2.32964 17.4109 1.65203 16.3999 1.49436C15.9262 1.44213 15.4491 1.42867 14.9732 1.45411C14.6582 1.44412 14.4994 1.44404 14.4194 1.36461C14.3381 1.28392 14.3381 1.12131 14.3381 0.783199C14.3455 0.687182 14.3455 0.590726 14.3381 0.494708C14.3174 0.350047 14.2431 0.218686 14.1301 0.127156C14.0172 0.0356263 13.874 -0.00925027 13.7295 0.00159035C13.5877 -0.0049867 13.4489 0.0441041 13.3423 0.138554C13.2356 0.233005 13.1694 0.365467 13.1575 0.508126C13.1379 0.698827 13.1379 0.891053 13.1575 1.08175C13.1708 1.34341 13.0644 1.44404 12.8016 1.44404H11.4448H5.65833C5.32577 1.4474 5.16282 1.34341 5.19275 0.981117C5.20733 0.837247 5.20733 0.692251 5.19275 0.548381C5.17723 0.400931 5.10818 0.264486 4.99889 0.165325C4.8896 0.0661636 4.7478 0.0112999 4.6008 0.0112999C4.4538 0.0112999 4.312 0.0661636 4.20271 0.165325C4.09342 0.264486 4.02436 0.400931 4.00885 0.548381V0.655726C3.99228 1.04667 3.98397 1.24291 3.88161 1.34141C3.77844 1.44069 3.57974 1.44069 3.18078 1.44069H2.35937C2.04908 1.4398 1.74169 1.50095 1.45498 1.62062C1.16827 1.74029 0.907912 1.9161 0.688969 2.13789C0.470026 2.35967 0.296838 2.62304 0.179415 2.91275C0.061993 3.20247 0.00266632 3.51279 0.0048651 3.82577V15.9692C-0.0291966 16.5041 0.116343 17.035 0.418011 17.4762C0.71968 17.9174 1.15989 18.2433 1.66765 18.4013L1.82062 18.4885H9.50378C9.46635 18.3818 9.43219 18.2739 9.40138 18.1648C9.3207 17.8792 9.26366 17.588 9.23048 17.2943H2.6753C1.66432 17.2943 1.20207 16.8313 1.20207 15.825V6.88847C1.20207 6.39535 1.20539 6.39535 1.71088 6.39535H9.21336H16.6427C17.1515 6.39535 17.1515 6.39871 17.1515 6.88847V10.126C17.5641 10.6676 17.9546 11.2255 18.3221 11.7986ZM16.6327 5.18772H9.18343L1.7009 5.17765C1.22202 5.17765 1.22202 5.17094 1.22202 4.6946V3.90293C1.21758 3.73977 1.2456 3.57738 1.30444 3.42534C1.36328 3.2733 1.45174 3.1347 1.5646 3.01774C1.67745 2.90078 1.8124 2.80783 1.96148 2.74437C2.11055 2.68092 2.27073 2.64826 2.43253 2.64833H3.7162C3.92571 2.64833 4.01882 2.74225 4.01882 2.95359C4.00957 3.06521 4.00957 3.17742 4.01882 3.28904C4.0375 3.43364 4.1077 3.56644 4.21632 3.66266C4.32494 3.75887 4.46455 3.81193 4.60911 3.81193C4.75367 3.81193 4.89329 3.75887 5.00191 3.66266C5.11053 3.56644 5.18073 3.43364 5.1994 3.28904C5.20997 3.19318 5.20997 3.09642 5.1994 3.00055C5.17945 2.72883 5.31247 2.64833 5.56521 2.64833H7.84988H12.6686C13.0078 2.64497 13.1708 2.71877 13.1542 3.10454C13.1342 3.5507 13.3736 3.80229 13.7428 3.80229C13.8297 3.80582 13.9163 3.78952 13.9962 3.75462C14.076 3.71972 14.147 3.6671 14.2039 3.60069C14.2608 3.53428 14.3021 3.45579 14.3247 3.37105C14.3474 3.28631 14.3508 3.19751 14.3347 3.11125C14.3181 2.73554 14.4744 2.65168 14.8169 2.65168H15.8512C16.0219 2.64265 16.1925 2.66968 16.3522 2.73104C16.5119 2.7924 16.6572 2.88674 16.7787 3.00801C16.9001 3.12928 16.9952 3.2748 17.0576 3.43526C17.1201 3.59573 17.1487 3.76758 17.1415 3.93983V4.66105C17.1415 4.92741 17.1415 5.05906 17.0757 5.12413C17.0114 5.18772 16.8842 5.18772 16.6327 5.18772Z" fill="#9B4E78"/>
<path d="M11.5051 14.8643C11.1639 15.3467 10.9591 15.9168 10.9133 16.5114C10.8675 17.1061 10.9826 17.7022 11.2458 18.2338C11.509 18.7654 11.91 19.2117 12.4045 19.5234C12.899 19.8352 13.4677 20.0002 14.0477 20.0001H15.1662C15.7462 20.0002 16.3149 19.8352 16.8094 19.5234C17.3039 19.2117 17.7049 18.7654 17.9681 18.2338C18.2312 17.7022 18.3463 17.1061 18.3005 16.5114C18.2548 15.9168 18.05 15.3467 17.7088 14.8643L14.6069 10.4771L11.5051 14.8643ZM14.2578 18.6907C13.8173 18.6911 13.385 18.5682 13.0073 18.3351C12.6296 18.1019 12.3208 17.7674 12.1139 17.3675C12.056 17.256 12.0436 17.1254 12.0794 17.0045C12.1152 16.8836 12.1962 16.7822 12.3046 16.7228C12.413 16.6633 12.54 16.6505 12.6575 16.6873C12.7751 16.7241 12.8736 16.8074 12.9315 16.9189C13.0592 17.1666 13.2502 17.3738 13.484 17.5182C13.7177 17.6626 13.9852 17.7387 14.2578 17.7384C14.3806 17.7384 14.4984 17.7886 14.5852 17.8779C14.672 17.9672 14.7208 18.0883 14.7208 18.2145C14.7208 18.3408 14.672 18.4619 14.5852 18.5512C14.4984 18.6405 14.3806 18.6907 14.2578 18.6907Z" fill="#C789AB"/>
</svg>
