<svg width="18" height="18" viewBox="0 0 18 18" fill="none" xmlns="http://www.w3.org/2000/svg">
<path d="M17.838 3.18255V16.2462C17.7149 16.6609 17.4916 17.0383 17.1881 17.3445C16.8847 17.6506 16.5105 17.8759 16.0994 18H1.77252L1.62359 17.9151C1.12925 17.7613 0.700665 17.444 0.406967 17.0145C0.113269 16.5849 -0.0284252 16.068 0.00473656 15.5473C0.00473656 11.6064 0.00473656 7.66556 0.00473656 3.72469C0.00259588 3.41997 0.0603551 3.11785 0.174675 2.83579C0.288995 2.55373 0.457608 2.29733 0.670766 2.0814C0.883924 1.86547 1.1374 1.69431 1.41654 1.5778C1.69568 1.46129 1.99494 1.40175 2.29703 1.40263H3.09674C3.87055 1.40263 3.87055 1.40263 3.90293 0.638402C3.90293 0.602476 3.90293 0.566551 3.90293 0.533892C3.91804 0.390338 3.98527 0.257498 4.09167 0.160957C4.19807 0.0644155 4.33613 0.0110013 4.47924 0.0110013C4.62235 0.0110013 4.76041 0.0644155 4.86681 0.160957C4.97322 0.257498 5.04045 0.390338 5.05555 0.533892C5.06975 0.673961 5.06975 0.815126 5.05555 0.955195C5.02641 1.30791 5.18506 1.40916 5.50883 1.40589C7.3867 1.40589 9.26456 1.40589 11.1424 1.40589C11.5828 1.40589 12.0231 1.40589 12.4634 1.40589C12.7192 1.40589 12.8228 1.30791 12.8098 1.05317C12.7908 0.867511 12.7908 0.680363 12.8098 0.494701C12.8214 0.355811 12.8859 0.226849 12.9897 0.134894C13.0936 0.0429388 13.2287 -0.00485494 13.3667 0.00154833C13.5074 -0.00900587 13.6468 0.034685 13.7568 0.123796C13.8668 0.212908 13.9391 0.340799 13.9592 0.481638C13.9665 0.575118 13.9665 0.669026 13.9592 0.762506C13.9592 1.41569 13.9592 1.39609 14.5776 1.41569C15.0409 1.39092 15.5054 1.40403 15.9666 1.45488C16.9509 1.60838 17.5239 2.26809 17.838 3.18255ZM8.96993 6.22638H1.66568C1.17355 6.22638 1.17031 6.22638 1.17031 6.70647C1.17031 9.6066 1.17031 12.5067 1.17031 15.4069C1.17031 16.3866 1.62035 16.8373 2.60461 16.8373H15.264C16.2353 16.8373 16.6983 16.3866 16.6983 15.4069C16.6983 12.5067 16.6983 9.6066 16.6983 6.70647C16.6983 6.22965 16.6983 6.22638 16.203 6.22638H8.96993ZM8.94079 5.05065H16.1932C16.6886 5.05065 16.6886 5.05065 16.6886 4.5379C16.6886 4.30276 16.6886 4.07088 16.6886 3.83573C16.6956 3.66804 16.6678 3.50072 16.607 3.3445C16.5461 3.18828 16.4536 3.0466 16.3354 2.92853C16.2171 2.81047 16.0757 2.71863 15.9202 2.65889C15.7647 2.59915 15.5985 2.57283 15.4324 2.58162C15.1086 2.58162 14.7589 2.58162 14.4255 2.58162C14.092 2.58162 13.9398 2.66327 13.956 3.02905C13.9716 3.11303 13.9683 3.19948 13.9463 3.28198C13.9242 3.36448 13.884 3.4409 13.8286 3.50556C13.7732 3.57021 13.7041 3.62144 13.6264 3.65542C13.5486 3.6894 13.4643 3.70526 13.3797 3.70183C13.0203 3.70183 12.7872 3.45689 12.8066 3.02252C12.8228 2.64694 12.6642 2.57509 12.3339 2.57835C10.7701 2.57835 9.20629 2.57835 7.64248 2.57835C6.90104 2.57835 6.15961 2.57835 5.41817 2.57835C5.17211 2.57835 5.0426 2.65674 5.06203 2.92127C5.07232 3.01461 5.07232 3.10881 5.06203 3.20214C5.04385 3.34292 4.9755 3.47221 4.86975 3.56588C4.764 3.65956 4.62807 3.71122 4.48734 3.71122C4.3466 3.71122 4.21067 3.65956 4.10492 3.56588C3.99917 3.47221 3.93082 3.34292 3.91264 3.20214C3.90363 3.09347 3.90363 2.98423 3.91264 2.87555C3.91264 2.6698 3.82199 2.57835 3.61801 2.57835C3.20035 2.57835 2.78268 2.57835 2.36826 2.57835C2.21073 2.57829 2.05479 2.61009 1.90965 2.67187C1.76451 2.73364 1.63313 2.82414 1.52326 2.93801C1.41339 3.05188 1.32726 3.18682 1.26998 3.33484C1.21269 3.48286 1.18541 3.64096 1.18974 3.79981C1.18974 4.05781 1.18974 4.31255 1.18974 4.57056C1.18974 5.03432 1.18974 5.04085 1.65596 5.04085L8.94079 5.05065Z" fill="#FF1A84"/>
</svg>
