<svg width="32" height="35" viewBox="0 0 32 35" fill="none" xmlns="http://www.w3.org/2000/svg">
<g clip-path="url(#clip0_425_10672)">
<path d="M28.8518 5.1465V26.2818C28.6527 26.9528 28.2914 27.5633 27.8004 28.0586C27.3094 28.5539 26.7041 28.9183 26.0389 29.1192H2.86002L2.61906 28.9818C1.81928 28.733 1.12589 28.2197 0.650729 27.5247C0.175564 26.8297 -0.0536787 25.9935 -2.73017e-05 25.151C-2.73017e-05 18.7752 -2.73017e-05 12.3994 -2.73017e-05 6.02361C-0.00349065 5.53063 0.0899561 5.04183 0.274911 4.5855C0.459865 4.12916 0.732659 3.71433 1.07752 3.36499C1.42238 3.01565 1.83247 2.73873 2.28408 2.55023C2.73569 2.36174 3.21986 2.26541 3.7086 2.26682H5.00243C6.25435 2.26682 6.25435 2.26682 6.30673 1.03041C6.30673 0.972286 6.30673 0.914164 6.30673 0.861326C6.33117 0.629073 6.43994 0.414156 6.61209 0.257965C6.78424 0.101774 7.00759 0.0153573 7.23913 0.0153573C7.47067 0.0153573 7.69402 0.101774 7.86617 0.257965C8.03831 0.414156 8.14708 0.629073 8.17152 0.861326C8.1945 1.08794 8.1945 1.31632 8.17152 1.54294C8.12438 2.11359 8.38105 2.27739 8.90487 2.2721C11.943 2.2721 14.9811 2.2721 18.0193 2.2721C18.7317 2.2721 19.4441 2.2721 20.1565 2.2721C20.5703 2.2721 20.7379 2.11359 20.7169 1.70145C20.6861 1.40108 20.6861 1.0983 20.7169 0.79792C20.7357 0.573214 20.84 0.36457 21.008 0.215799C21.176 0.0670279 21.3946 -0.0102961 21.6179 6.35891e-05C21.8455 -0.0170117 22.071 0.0536744 22.249 0.197845C22.4269 0.342015 22.544 0.548926 22.5765 0.776785C22.5882 0.928024 22.5882 1.07995 22.5765 1.23119C22.5765 2.28796 22.5765 2.25625 23.577 2.28796C24.3265 2.24789 25.078 2.26909 25.8242 2.35136C27.4166 2.5997 28.3437 3.66703 28.8518 5.1465ZM14.5045 10.071H2.68716C1.89095 10.071 1.88571 10.071 1.88571 10.8477C1.88571 15.5398 1.88571 20.2318 1.88571 24.9238C1.88571 26.509 2.61382 27.2381 4.20623 27.2381H24.6875C26.2589 27.2381 27.008 26.509 27.008 24.9238C27.008 20.2318 27.008 15.5398 27.008 10.8477C27.008 10.0763 27.008 10.071 26.2066 10.071H14.5045ZM14.4573 8.16884H26.1908C26.9923 8.16884 26.9923 8.16884 26.9923 7.33928C26.9923 6.95885 26.9923 6.5837 26.9923 6.20326C27.0036 5.93196 26.9586 5.66126 26.8602 5.40852C26.7618 5.15577 26.6121 4.92655 26.4208 4.73554C26.2294 4.54453 26.0006 4.39594 25.7491 4.29929C25.4975 4.20263 25.2287 4.16006 24.9599 4.17428C24.4361 4.17428 23.8703 4.17428 23.3308 4.17428C22.7913 4.17428 22.5451 4.30637 22.5713 4.89816C22.5966 5.03403 22.5912 5.1739 22.5555 5.30737C22.5198 5.44085 22.4548 5.56449 22.3652 5.66909C22.2755 5.77369 22.1637 5.85657 22.038 5.91154C21.9122 5.96652 21.7758 5.99218 21.6389 5.98663C21.0574 5.98663 20.6803 5.59034 20.7117 4.88759C20.7379 4.27995 20.4812 4.16371 19.9469 4.16899C17.4169 4.16899 14.8869 4.16899 12.3568 4.16899C11.1573 4.16899 9.95774 4.16899 8.7582 4.16899C8.3601 4.16899 8.15057 4.29581 8.182 4.7238C8.19865 4.8748 8.19865 5.0272 8.182 5.1782C8.15258 5.40596 8.04201 5.61513 7.87092 5.76669C7.69983 5.91824 7.47992 6.00182 7.25222 6.00182C7.02453 6.00182 6.80461 5.91824 6.63352 5.76669C6.46243 5.61513 6.35186 5.40596 6.32245 5.1782C6.30787 5.00238 6.30787 4.82564 6.32245 4.64982C6.32245 4.31694 6.17578 4.16899 5.84577 4.16899C5.17005 4.16899 4.49433 4.16899 3.82384 4.16899C3.56898 4.1689 3.31669 4.22034 3.08187 4.32028C2.84706 4.42023 2.63449 4.56664 2.45674 4.75087C2.27898 4.9351 2.13965 5.15341 2.04697 5.39289C1.95429 5.63237 1.91014 5.88816 1.91714 6.14514C1.91714 6.56256 1.91714 6.9747 1.91714 7.39212C1.91714 8.14242 1.91714 8.15299 2.67144 8.15299L14.4573 8.16884Z" fill="#FF1A84"/>
<path d="M23.247 13.1357C22.7095 13.1473 22.1823 13.2858 21.7075 13.5399C21.2326 13.7941 20.8234 14.1569 20.5126 14.5994L20.4236 14.7156C18.6462 16.9162 17.0684 19.2735 15.7092 21.7589L15.6202 21.928L15.5521 22.1024C15.4892 22.2609 15.4159 22.4194 15.3478 22.5832C14.9454 23.4166 14.6733 24.3078 14.5411 25.2251C14.4019 26.3594 14.4901 27.5104 14.8006 28.6096C15.111 29.7088 15.6373 30.7338 16.3483 31.6238C17.177 32.6768 18.2305 33.5278 19.4303 34.1133C20.6302 34.6987 21.9455 35.0037 23.2784 35.0055C24.5484 35.0028 25.8016 34.712 26.9451 34.1548C28.4513 33.4537 29.7264 32.3312 30.6187 30.9206C31.5111 29.51 31.9832 27.8706 31.979 26.1973V25.9331C31.8955 24.7154 31.5732 23.5265 31.0309 22.4353C29.6744 19.6917 28.0081 17.1154 26.0651 14.7579L25.976 14.6416C25.6678 14.191 25.2576 13.8208 24.7794 13.5617C24.3012 13.3026 23.7687 13.162 23.226 13.1516L23.247 13.1357Z" fill="white"/>
<path d="M18.1142 23.4105C17.5768 24.1703 17.2542 25.0682 17.1821 26.0049C17.11 26.9416 17.2913 27.8805 17.7058 28.7178C18.1203 29.5551 18.752 30.2581 19.5309 30.7492C20.3098 31.2402 21.2056 31.5001 22.1191 31.5H23.8809C24.7945 31.5001 25.6903 31.2402 26.4692 30.7492C27.248 30.2581 27.8797 29.5551 28.2942 28.7178C28.7087 27.8805 28.89 26.9416 28.8179 26.0049C28.7458 25.0682 28.4232 24.1703 27.8858 23.4105L23 16.5L18.1142 23.4105ZM22.4502 29.4375C21.7563 29.4382 21.0754 29.2445 20.4805 28.8773C19.8855 28.5101 19.399 27.9833 19.0732 27.3533C18.9821 27.1776 18.9626 26.9719 19.0189 26.7815C19.0752 26.5911 19.2028 26.4314 19.3736 26.3377C19.5444 26.2441 19.7443 26.224 19.9295 26.2819C20.1147 26.3399 20.2699 26.4711 20.361 26.6468C20.5622 27.0369 20.8631 27.3632 21.2312 27.5907C21.5993 27.8181 22.0208 27.938 22.4502 27.9375C22.6436 27.9375 22.8291 28.0165 22.9658 28.1572C23.1026 28.2978 23.1794 28.4886 23.1794 28.6875C23.1794 28.8864 23.1026 29.0772 22.9658 29.2178C22.8291 29.3585 22.6436 29.4375 22.4502 29.4375Z" fill="#FF1A84"/>
</g>
<defs>
<clipPath id="clip0_425_10672">
<rect width="32" height="35" fill="white"/>
</clipPath>
</defs>
</svg>
