<svg width="22" height="21" viewBox="0 0 22 21" fill="none" xmlns="http://www.w3.org/2000/svg">
<path fill-rule="evenodd" clip-rule="evenodd" d="M1.99033 3.37254C2.30665 2.84878 4.0495 0.943765 5.29322 1.00127C5.665 1.03208 5.99364 1.25699 6.26067 1.51784C6.87379 2.11656 8.62897 4.38101 8.72859 4.85753C8.97096 6.02621 7.57833 6.6999 8.00454 7.87783C9.09112 10.5366 10.9634 12.4088 13.6233 13.4943C14.8003 13.9205 15.474 12.5279 16.6428 12.7713C17.1183 12.8709 19.3839 14.626 19.9826 15.2391C20.2425 15.5051 20.4684 15.8347 20.4992 16.2065C20.5454 17.5159 18.5222 19.2833 18.1278 19.5092C17.1974 20.1747 15.9834 20.1634 14.5035 19.4753C10.3739 17.7572 3.77426 11.2822 2.02422 6.99669C1.35461 5.52505 1.30839 4.30297 1.99033 3.37254Z" stroke="#BD6A8D" stroke-width="1.5" stroke-linecap="round" stroke-linejoin="round"/>
</svg>
