<svg width="40" height="40" viewBox="0 0 40 40" fill="none" xmlns="http://www.w3.org/2000/svg">
<path fill-rule="evenodd" clip-rule="evenodd" d="M29.3963 11.8498V11.8498C28.7747 11.8498 28.2113 11.4915 27.9463 10.9315C27.468 9.91816 26.8597 8.62316 26.4997 7.91816C25.968 6.86983 25.1063 6.25983 23.913 6.25149C23.893 6.24983 16.1063 6.24983 16.0863 6.25149C14.893 6.25983 14.033 6.86983 13.4997 7.91816C13.1413 8.62316 12.533 9.91816 12.0547 10.9315C11.7897 11.4915 11.2247 11.8498 10.6047 11.8498V11.8498C7.27801 11.8498 4.58301 14.5448 4.58301 17.8698V27.7632C4.58301 31.0865 7.27801 33.7832 10.6047 33.7832H29.3963C32.7213 33.7832 35.4163 31.0865 35.4163 27.7632V17.8698C35.4163 14.5448 32.7213 11.8498 29.3963 11.8498Z" stroke="#822156" stroke-opacity="0.8" stroke-width="1.5" stroke-linecap="round" stroke-linejoin="round"/>
<path opacity="0.4" fill-rule="evenodd" clip-rule="evenodd" d="M14.7023 22.2241C14.7007 25.1458 17.0857 27.5358 20.0023 27.5341C22.914 27.5308 25.2923 25.1508 25.2973 22.2358C25.3023 19.3091 22.9257 16.9241 20.0057 16.9208C17.069 16.9174 14.679 19.3424 14.7023 22.2241Z" stroke="#822156" stroke-opacity="0.8" stroke-width="1.5" stroke-linecap="round" stroke-linejoin="round"/>
<path opacity="0.4" d="M28.1708 18.3251C28.0098 18.3086 27.8507 18.2666 27.6726 18.1949C27.4745 18.1069 27.3029 17.9949 27.1371 17.8264C26.8392 17.5095 26.6666 17.095 26.6666 16.6675C26.6666 16.4404 26.7131 16.2153 26.8037 16.0113C26.8946 15.8048 27.0023 15.6305 27.1969 15.4409C27.345 15.312 27.4967 15.2082 27.704 15.1169C28.3188 14.8733 29.0501 15.0188 29.5072 15.4757C29.6442 15.6106 29.7595 15.7735 29.8235 15.9109L29.8615 16.0082C29.9535 16.2153 30 16.4404 30 16.6675C30 17.1037 29.8296 17.5071 29.5135 17.8429C29.2403 18.118 28.8814 18.2872 28.4986 18.3252L28.3333 18.3333L28.1708 18.3251Z" fill="#822156" fill-opacity="0.8"/>
</svg>
