<svg width="20" height="20" viewBox="0 0 20 20" fill="none" xmlns="http://www.w3.org/2000/svg">
<path d="M14.3032 12.4022L11.1024 16.7629C10.7264 17.2752 10.2541 17.7083 9.71242 18.0374C9.17076 18.3666 8.57037 18.5853 7.94553 18.6811C7.32069 18.7769 6.68364 18.7479 6.07075 18.5957C5.45786 18.4436 4.88114 18.1713 4.37352 17.7944C3.34836 17.0332 2.6669 15.892 2.47905 14.6221C2.2912 13.3522 2.61235 12.0574 3.37184 11.0227L6.57352 6.66176L14.3032 12.4022Z" fill="#36C8C8"/>
<path d="M16.8403 9.0042L13.6396 13.3648L5.90861 7.62419L9.11068 3.26372C9.48673 2.75135 9.9591 2.31824 10.5008 1.98912C11.0425 1.66001 11.643 1.44133 12.2678 1.34559C12.8927 1.24984 13.5298 1.2789 14.1427 1.4311C14.7556 1.5833 15.3324 1.85566 15.84 2.23264C16.8649 2.99411 17.546 4.13529 17.7336 5.40517C17.9212 6.67506 17.5999 7.96965 16.8403 9.0042Z" fill="#822156" fill-opacity="0.8"/>
<g opacity="0.3">
<path opacity="0.62" d="M14.624 7.23374L8.99576 15.081C8.39396 15.92 7.5531 16.5399 6.59652 16.8497C5.63995 17.1595 4.61802 17.143 3.68067 16.8025C3.95266 17.1914 4.27954 17.5348 4.65046 17.8213C5.13892 18.1988 5.69539 18.4712 6.2881 18.6228C6.88081 18.7745 7.49815 18.8024 8.10486 18.705C8.71157 18.6076 9.29576 18.3868 9.82409 18.0553C10.3524 17.7237 10.8145 17.2878 11.184 16.7726L16.8115 8.92471C17.5577 7.88414 17.8815 6.58332 17.7117 5.30842C17.5418 4.03351 16.8922 2.88894 15.9057 2.12648C15.535 1.83978 15.1244 1.61319 14.6876 1.45421C15.2707 2.28869 15.5792 3.30019 15.5677 4.34034C15.5563 5.38048 15.2255 6.39453 14.624 7.23374Z" fill="#17292D"/>
</g>
</svg>
