<svg width="64" height="64" viewBox="0 0 64 64" fill="none" xmlns="http://www.w3.org/2000/svg">
<circle cx="32" cy="32" r="28.5" stroke="#FF1A84" stroke-width="3"/>
<path d="M21.4142 30.0403C20.6332 29.2593 19.3668 29.2593 18.5858 30.0403C17.8047 30.8214 17.8047 32.0877 18.5858 32.8688L21.4142 30.0403ZM28.5454 40L27.1312 41.4142C27.5101 41.7931 28.0251 42.0041 28.5608 41.9999C29.0966 41.9958 29.6083 41.7769 29.9812 41.3923L28.5454 40ZM47.4358 23.3923C48.2047 22.5993 48.1852 21.3331 47.3923 20.5642C46.5993 19.7953 45.3331 19.8147 44.5642 20.6077L47.4358 23.3923ZM18.5858 32.8688C20.2544 34.5374 22.3907 36.6737 24.11 38.3929C24.9696 39.2525 25.7249 40.0079 26.2653 40.5483C26.5355 40.8185 26.752 41.035 26.9009 41.1839C26.9754 41.2584 27.033 41.3159 27.0719 41.3549C27.0914 41.3744 27.1062 41.3892 27.1162 41.3992C27.1212 41.4042 27.1249 41.4079 27.1274 41.4104C27.1287 41.4117 27.1296 41.4126 27.1303 41.4133C27.1305 41.4134 27.131 41.4139 27.131 41.414C27.1311 41.4141 27.1311 41.4141 27.1312 41.4142C27.1312 41.4142 27.1312 41.4142 28.5454 40C29.9597 38.5858 29.9596 38.5858 29.9596 38.5857C29.9596 38.5857 29.9595 38.5856 29.9594 38.5856C29.9592 38.5853 29.9591 38.5852 29.9587 38.5848C29.9581 38.5842 29.9571 38.5833 29.9559 38.582C29.9534 38.5795 29.9496 38.5757 29.9446 38.5707C29.9347 38.5608 29.9198 38.546 29.9004 38.5265C29.8614 38.4875 29.8038 38.4299 29.7293 38.3555C29.5804 38.2065 29.3639 37.9901 29.0937 37.7199C28.5533 37.1794 27.798 36.4241 26.9384 35.5645C25.2192 33.8453 23.0828 31.7089 21.4142 30.0403L18.5858 32.8688ZM29.9812 41.3923L47.4358 23.3923L44.5642 20.6077L27.1096 38.6077L29.9812 41.3923Z" fill="#FF1A84"/>
</svg>
