<svg width="293" height="44" viewBox="0 0 293 44" fill="none" xmlns="http://www.w3.org/2000/svg">
<rect width="293" height="44" rx="6" fill="#FFF9FC"/>
<path fill-rule="evenodd" clip-rule="evenodd" d="M31.3334 23.3334H23.3334V31.3334H20.6667V23.3334H12.6667V20.6667H20.6667V12.6667H23.3334V20.6667H31.3334V23.3334Z" fill="#FF1A84" stroke="white"/>
<path d="M44.128 27.692C43.0187 27.692 42.0587 27.452 41.248 26.972C40.448 26.4813 39.8293 25.804 39.392 24.94C38.9547 24.0653 38.736 23.0573 38.736 21.916C38.736 20.764 38.9547 19.756 39.392 18.892C39.8293 18.0173 40.448 17.3347 41.248 16.844C42.0587 16.3533 43.0187 16.108 44.128 16.108C45.44 16.108 46.512 16.428 47.344 17.068C48.176 17.708 48.704 18.604 48.928 19.756H47.04C46.8907 19.1053 46.5707 18.588 46.08 18.204C45.5893 17.82 44.9333 17.628 44.112 17.628C42.992 17.628 42.1067 18.012 41.456 18.78C40.8053 19.5373 40.48 20.5827 40.48 21.916C40.48 23.2387 40.8053 24.2787 41.456 25.036C42.1067 25.7933 42.992 26.172 44.112 26.172C44.9333 26.172 45.5893 25.9907 46.08 25.628C46.5707 25.2653 46.8907 24.7693 47.04 24.14H48.928C48.704 25.2493 48.176 26.1187 47.344 26.748C46.512 27.3773 45.44 27.692 44.128 27.692ZM54.4403 27.692C53.6829 27.692 53.0003 27.5213 52.3923 27.18C51.7949 26.828 51.3203 26.3427 50.9683 25.724C50.6163 25.0947 50.4403 24.364 50.4403 23.532C50.4403 22.7 50.6163 21.9747 50.9683 21.356C51.3309 20.7267 51.8163 20.2413 52.4243 19.9C53.0323 19.548 53.7096 19.372 54.4563 19.372C55.2136 19.372 55.8909 19.548 56.4883 19.9C57.0963 20.2413 57.5763 20.7267 57.9283 21.356C58.2909 21.9747 58.4722 22.7 58.4722 23.532C58.4722 24.364 58.2909 25.0947 57.9283 25.724C57.5763 26.3427 57.0963 26.828 56.4883 27.18C55.8803 27.5213 55.1976 27.692 54.4403 27.692ZM54.4403 26.236C54.8456 26.236 55.2189 26.1347 55.5603 25.932C55.9123 25.7293 56.1949 25.4307 56.4083 25.036C56.6216 24.6307 56.7283 24.1293 56.7283 23.532C56.7283 22.9347 56.6216 22.4387 56.4083 22.044C56.2056 21.6387 55.9283 21.3347 55.5763 21.132C55.2349 20.9293 54.8616 20.828 54.4563 20.828C54.0509 20.828 53.6723 20.9293 53.3203 21.132C52.9789 21.3347 52.7016 21.6387 52.4883 22.044C52.2749 22.4387 52.1683 22.9347 52.1683 23.532C52.1683 24.1293 52.2749 24.6307 52.4883 25.036C52.7016 25.4307 52.9789 25.7293 53.3203 25.932C53.6616 26.1347 54.0349 26.236 54.4403 26.236ZM64.4016 27.5V16.3H68.3216C69.1963 16.3 69.9216 16.4493 70.4976 16.748C71.0736 17.036 71.5003 17.436 71.7776 17.948C72.0656 18.4493 72.2096 19.02 72.2096 19.66C72.2096 20.268 72.071 20.828 71.7936 21.34C71.527 21.8413 71.1056 22.2413 70.5296 22.54C69.9536 22.8387 69.2176 22.988 68.3216 22.988H66.0976V27.5H64.4016ZM66.0976 21.596H68.2416C69.0416 21.596 69.6123 21.4253 69.9536 21.084C70.3056 20.732 70.4816 20.2573 70.4816 19.66C70.4816 19.0413 70.3056 18.5613 69.9536 18.22C69.6123 17.868 69.0416 17.692 68.2416 17.692H66.0976V21.596ZM76.0725 27.692C75.4005 27.692 74.8458 27.58 74.4085 27.356C73.9712 27.132 73.6458 26.8387 73.4325 26.476C73.2192 26.1027 73.1125 25.6973 73.1125 25.26C73.1125 24.492 73.4112 23.884 74.0085 23.436C74.6058 22.988 75.4592 22.764 76.5685 22.764H78.6485V22.62C78.6485 22.0013 78.4778 21.5373 78.1365 21.228C77.8058 20.9187 77.3738 20.764 76.8405 20.764C76.3712 20.764 75.9605 20.8813 75.6085 21.116C75.2672 21.34 75.0592 21.676 74.9845 22.124H73.2885C73.3418 21.548 73.5338 21.0573 73.8645 20.652C74.2058 20.236 74.6325 19.9213 75.1445 19.708C75.6672 19.484 76.2378 19.372 76.8565 19.372C77.9658 19.372 78.8245 19.6653 79.4325 20.252C80.0405 20.828 80.3445 21.6173 80.3445 22.62V27.5H78.8725L78.7285 26.14C78.5045 26.5773 78.1792 26.9453 77.7525 27.244C77.3258 27.5427 76.7658 27.692 76.0725 27.692ZM76.4085 26.316C76.8672 26.316 77.2512 26.2093 77.5605 25.996C77.8805 25.772 78.1258 25.4787 78.2965 25.116C78.4778 24.7533 78.5898 24.3533 78.6325 23.916H76.7445C76.0725 23.916 75.5925 24.0333 75.3045 24.268C75.0272 24.5027 74.8885 24.796 74.8885 25.148C74.8885 25.5107 75.0218 25.7987 75.2885 26.012C75.5658 26.2147 75.9392 26.316 76.4085 26.316ZM85.4938 27.5C84.7151 27.5 84.0964 27.3133 83.6378 26.94C83.1791 26.556 82.9498 25.8787 82.9498 24.908V20.988H81.5898V19.564H82.9498L83.1578 17.548H84.6458V19.564H86.8858V20.988H84.6458V24.908C84.6458 25.3453 84.7364 25.6493 84.9178 25.82C85.1098 25.98 85.4351 26.06 85.8938 26.06H86.8058V27.5H85.4938ZM89.5945 18.06C89.2745 18.06 89.0078 17.964 88.7945 17.772C88.5918 17.5693 88.4905 17.3187 88.4905 17.02C88.4905 16.7213 88.5918 16.476 88.7945 16.284C89.0078 16.0813 89.2745 15.98 89.5945 15.98C89.9145 15.98 90.1758 16.0813 90.3785 16.284C90.5918 16.476 90.6985 16.7213 90.6985 17.02C90.6985 17.3187 90.5918 17.5693 90.3785 17.772C90.1758 17.964 89.9145 18.06 89.5945 18.06ZM88.7465 27.5V19.564H90.4425V27.5H88.7465ZM96.3934 27.692C95.6147 27.692 94.9214 27.5213 94.3134 27.18C93.716 26.828 93.2467 26.3427 92.9054 25.724C92.564 25.1053 92.3934 24.3853 92.3934 23.564C92.3934 22.732 92.5587 22.0013 92.8894 21.372C93.2307 20.7427 93.7 20.252 94.2974 19.9C94.9054 19.548 95.6094 19.372 96.4094 19.372C97.188 19.372 97.8654 19.548 98.4414 19.9C99.0174 20.2413 99.4654 20.7 99.7854 21.276C100.105 21.852 100.265 22.4867 100.265 23.18C100.265 23.2867 100.26 23.404 100.249 23.532C100.249 23.6493 100.244 23.7827 100.233 23.932H94.0574C94.1107 24.7 94.3614 25.2867 94.8094 25.692C95.268 26.0867 95.796 26.284 96.3934 26.284C96.8734 26.284 97.2734 26.1773 97.5934 25.964C97.924 25.74 98.1694 25.4413 98.3294 25.068H100.025C99.812 25.8147 99.3854 26.4387 98.7454 26.94C98.116 27.4413 97.332 27.692 96.3934 27.692ZM96.3934 20.764C95.828 20.764 95.3267 20.9347 94.8894 21.276C94.452 21.6067 94.1854 22.108 94.0894 22.78H98.5694C98.5374 22.1613 98.3187 21.6707 97.9134 21.308C97.508 20.9453 97.0014 20.764 96.3934 20.764ZM102.025 27.5V19.564H103.529L103.657 20.956C103.902 20.4653 104.26 20.0813 104.729 19.804C105.209 19.516 105.758 19.372 106.377 19.372C107.337 19.372 108.089 19.6707 108.633 20.268C109.188 20.8653 109.465 21.756 109.465 22.94V27.5H107.785V23.116C107.785 21.58 107.156 20.812 105.897 20.812C105.268 20.812 104.745 21.036 104.329 21.484C103.924 21.932 103.721 22.572 103.721 23.404V27.5H102.025ZM114.791 27.5C114.012 27.5 113.393 27.3133 112.935 26.94C112.476 26.556 112.247 25.8787 112.247 24.908V20.988H110.887V19.564H112.247L112.455 17.548H113.943V19.564H116.183V20.988H113.943V24.908C113.943 25.3453 114.033 25.6493 114.215 25.82C114.407 25.98 114.732 26.06 115.191 26.06H116.103V27.5H114.791ZM126.058 27.5V16.3H127.754L133.37 24.732V16.3H135.066V27.5H133.37L127.754 19.068V27.5H126.058ZM139.963 27.692C139.291 27.692 138.736 27.58 138.299 27.356C137.862 27.132 137.536 26.8387 137.323 26.476C137.11 26.1027 137.003 25.6973 137.003 25.26C137.003 24.492 137.302 23.884 137.899 23.436C138.496 22.988 139.35 22.764 140.459 22.764H142.539V22.62C142.539 22.0013 142.368 21.5373 142.027 21.228C141.696 20.9187 141.264 20.764 140.731 20.764C140.262 20.764 139.851 20.8813 139.499 21.116C139.158 21.34 138.95 21.676 138.875 22.124H137.179C137.232 21.548 137.424 21.0573 137.755 20.652C138.096 20.236 138.523 19.9213 139.035 19.708C139.558 19.484 140.128 19.372 140.747 19.372C141.856 19.372 142.715 19.6653 143.323 20.252C143.931 20.828 144.235 21.6173 144.235 22.62V27.5H142.763L142.619 26.14C142.395 26.5773 142.07 26.9453 141.643 27.244C141.216 27.5427 140.656 27.692 139.963 27.692ZM140.299 26.316C140.758 26.316 141.142 26.2093 141.451 25.996C141.771 25.772 142.016 25.4787 142.187 25.116C142.368 24.7533 142.48 24.3533 142.523 23.916H140.635C139.963 23.916 139.483 24.0333 139.195 24.268C138.918 24.5027 138.779 24.796 138.779 25.148C138.779 25.5107 138.912 25.7987 139.179 26.012C139.456 26.2147 139.83 26.316 140.299 26.316ZM146.213 27.5V19.564H147.717L147.861 20.684C148.117 20.2787 148.453 19.9587 148.869 19.724C149.295 19.4893 149.786 19.372 150.341 19.372C151.599 19.372 152.474 19.868 152.965 20.86C153.253 20.4013 153.637 20.0387 154.117 19.772C154.607 19.5053 155.135 19.372 155.701 19.372C156.693 19.372 157.471 19.6707 158.037 20.268C158.602 20.8653 158.885 21.756 158.885 22.94V27.5H157.189V23.116C157.189 21.58 156.602 20.812 155.429 20.812C154.831 20.812 154.341 21.036 153.957 21.484C153.583 21.932 153.397 22.572 153.397 23.404V27.5H151.701V23.116C151.701 21.58 151.109 20.812 149.925 20.812C149.338 20.812 148.853 21.036 148.469 21.484C148.095 21.932 147.909 22.572 147.909 23.404V27.5H146.213ZM164.581 27.692C163.802 27.692 163.109 27.5213 162.501 27.18C161.904 26.828 161.434 26.3427 161.093 25.724C160.752 25.1053 160.581 24.3853 160.581 23.564C160.581 22.732 160.746 22.0013 161.077 21.372C161.418 20.7427 161.888 20.252 162.485 19.9C163.093 19.548 163.797 19.372 164.597 19.372C165.376 19.372 166.053 19.548 166.629 19.9C167.205 20.2413 167.653 20.7 167.973 21.276C168.293 21.852 168.453 22.4867 168.453 23.18C168.453 23.2867 168.448 23.404 168.437 23.532C168.437 23.6493 168.432 23.7827 168.421 23.932H162.245C162.298 24.7 162.549 25.2867 162.997 25.692C163.456 26.0867 163.984 26.284 164.581 26.284C165.061 26.284 165.461 26.1773 165.781 25.964C166.112 25.74 166.357 25.4413 166.517 25.068H168.213C168 25.8147 167.573 26.4387 166.933 26.94C166.304 27.4413 165.52 27.692 164.581 27.692ZM164.581 20.764C164.016 20.764 163.514 20.9347 163.077 21.276C162.64 21.6067 162.373 22.108 162.277 22.78H166.757C166.725 22.1613 166.506 21.6707 166.101 21.308C165.696 20.9453 165.189 20.764 164.581 20.764Z" fill="#FF1A84"/>
<rect x="0.5" y="0.5" width="292" height="43" rx="5.5" stroke="#FF0D8C" stroke-opacity="0.4" stroke-dasharray="3 3"/>
</svg>
