<svg width="18" height="24" viewBox="0 0 18 24" fill="none" xmlns="http://www.w3.org/2000/svg">
<path d="M1.67133 11.1157C0.865182 12.2555 0.381282 13.6023 0.27316 15.0073C0.165039 16.4123 0.436911 17.8207 1.0587 19.0767C1.68049 20.3326 2.62796 21.3872 3.7963 22.1238C4.96464 22.8603 6.3083 23.2501 7.67865 23.25H10.3213C11.6917 23.2501 13.0354 22.8603 14.2037 22.1238C15.372 21.3872 16.3195 20.3326 16.9413 19.0767C17.5631 17.8207 17.835 16.4123 17.7268 15.0073C17.6187 13.6023 17.1348 12.2555 16.3287 11.1157L9 0.75L1.67133 11.1157ZM8.17525 20.1562C7.13449 20.1572 6.1131 19.8668 5.22069 19.316C4.32828 18.7652 3.59852 17.9749 3.10972 17.0299C2.97308 16.7664 2.9438 16.4579 3.02831 16.1723C3.11283 15.8866 3.30422 15.6472 3.56038 15.5066C3.81654 15.3661 4.11648 15.336 4.39423 15.4229C4.67199 15.5098 4.90479 15.7067 5.04142 15.9701C5.34331 16.5554 5.79461 17.0449 6.34678 17.386C6.89896 17.7272 7.53111 17.907 8.17525 17.9062C8.46535 17.9062 8.74357 18.0248 8.94871 18.2358C9.15384 18.4467 9.26908 18.7329 9.26908 19.0312C9.26908 19.3296 9.15384 19.6158 8.94871 19.8267C8.74357 20.0377 8.46535 20.1562 8.17525 20.1562Z" fill="#FF0D0D"/>
</svg>
