<svg width="36" height="36" viewBox="0 0 36 36" fill="none" xmlns="http://www.w3.org/2000/svg">
<path d="M34.5 18C34.5 27.1127 27.1127 34.5 18 34.5C8.8873 34.5 1.5 27.1127 1.5 18C1.5 8.8873 8.8873 1.5 18 1.5C27.1127 1.5 34.5 8.8873 34.5 18Z" fill="white" stroke="#FEBECA" stroke-width="3"/>
<path d="M6.60562 16.5086C6.77242 14.2079 7.69738 12.0274 9.23579 10.3081C10.9943 8.24482 13.4676 6.92174 16.1604 6.60374C18.0804 6.349 19.737 6.86188 20.8596 8.52742C21.9652 10.1666 22.039 11.8961 21.0958 13.651C20.9067 13.977 20.6703 14.2732 20.3943 14.53C18.4544 16.4667 16.5153 18.4039 14.5768 20.3417C13.7791 21.1233 12.7292 21.5956 11.615 21.6743C10.5008 21.753 9.39494 21.4328 8.49523 20.7711C7.22546 19.8353 6.60065 18.5831 6.60562 16.5086Z" fill="#FB7C90"/>
<path d="M18.9992 29.324C17.1496 29.3445 15.7358 28.5533 14.8649 26.9275C14.4276 26.1718 14.2145 25.3074 14.2505 24.4351C14.2865 23.5629 14.5701 22.7189 15.0682 22.0019C15.2026 21.802 15.358 21.6172 15.5319 21.4505C17.5096 19.4676 19.4768 17.4734 21.4769 15.5131C22.8361 14.1808 24.4876 13.9078 26.245 14.496C27.0712 14.7364 27.8076 15.216 28.3616 15.8741C28.9156 16.5323 29.2622 17.3397 29.3578 18.1945C29.5187 19.6267 29.2884 21.0757 28.6915 22.3875C27.029 26.3988 24.0084 28.6883 19.7214 29.3187C19.4811 29.3379 19.2397 29.3397 18.9992 29.324Z" fill="#F65E7B"/>
<path d="M11.4675 13.5405C11.4674 13.254 11.5254 12.9705 11.6379 12.7071C11.7505 12.4436 11.9152 12.2057 12.1223 12.0076C12.3293 11.8095 12.5743 11.6554 12.8425 11.5546C13.1108 11.4538 13.3967 11.4084 13.683 11.421C13.9696 11.4239 14.2527 11.4837 14.5159 11.597C14.7791 11.7103 15.0172 11.8748 15.2162 12.0809C15.4152 12.2871 15.5712 12.5307 15.6751 12.7977C15.779 13.0647 15.8288 13.3497 15.8215 13.6361C15.8037 14.2059 15.5659 14.7468 15.1581 15.1453C14.7502 15.5439 14.2039 15.7692 13.6336 15.7742C13.3432 15.7747 13.0557 15.7167 12.7882 15.6038C12.5207 15.4908 12.2786 15.3252 12.0765 15.1168C11.8744 14.9083 11.7163 14.6613 11.6116 14.3905C11.507 14.1197 11.458 13.8307 11.4675 13.5405Z" fill="#FFE1F3"/>
<path d="M24.5377 22.3049C24.5424 22.5913 24.4897 22.8758 24.3828 23.1416C24.2759 23.4074 24.1169 23.6491 23.9152 23.8526C23.7134 24.056 23.473 24.2171 23.2081 24.3263C22.9432 24.4356 22.659 24.4907 22.3725 24.4886C22.0859 24.491 21.8018 24.4368 21.5363 24.3292C21.2707 24.2216 21.029 24.0627 20.8251 23.8615C20.6211 23.6603 20.4589 23.4209 20.3477 23.1569C20.2365 22.8929 20.1785 22.6096 20.1771 22.3232C20.1794 21.745 20.4089 21.1909 20.8161 20.7804C21.2234 20.3699 21.7758 20.1359 22.3542 20.1289C22.6407 20.1275 22.9247 20.1828 23.1899 20.2915C23.455 20.4003 23.696 20.5604 23.8989 20.7626C24.1019 20.9649 24.2628 21.2053 24.3724 21.47C24.4821 21.7346 24.5382 22.0184 24.5377 22.3049Z" fill="#FFE1F3"/>
</svg>
