<svg width="110" height="97" viewBox="0 0 110 97" fill="none" xmlns="http://www.w3.org/2000/svg">
<path d="M122.667 33C122.667 65.4007 96.4007 91.6667 64 91.6667C31.5993 91.6667 5.33333 65.4007 5.33333 33C5.33333 0.599295 31.5993 -25.6667 64 -25.6667C96.4007 -25.6667 122.667 0.599295 122.667 33Z" fill="white" stroke="#FEBECA" stroke-width="10.6667"/>
<path d="M23.4869 27.697C24.0799 19.5168 27.3687 11.7638 32.8386 5.65081C39.0911 -1.68524 47.885 -6.38954 57.4595 -7.52021C64.2862 -8.42594 70.176 -6.60238 74.1677 -0.680436C78.0986 5.14773 78.3613 11.2969 75.0075 17.5366C74.3351 18.6958 73.4946 19.749 72.5134 20.662C65.616 27.5481 58.7212 34.436 51.829 41.3259C48.9926 44.1047 45.2597 45.7843 41.2981 46.064C37.3365 46.3437 33.4045 45.2054 30.2055 42.8527C25.6907 39.5254 23.4692 35.073 23.4869 27.697Z" fill="#FB7C90"/>
<path d="M67.5528 73.2632C60.9765 73.336 55.9498 70.5229 52.8532 64.7422C51.2983 62.0554 50.5406 58.9818 50.6686 55.8805C50.7966 52.7793 51.8051 49.7785 53.576 47.2289C54.0539 46.5184 54.6065 45.8612 55.2247 45.2685C62.2567 38.218 69.2512 31.1278 76.3627 24.1578C81.1952 19.4207 87.0673 18.4499 93.3158 20.5415C96.2532 21.3963 98.8718 23.1012 100.841 25.4414C102.811 27.7816 104.044 30.6523 104.384 33.6916C104.956 38.7839 104.137 43.9359 102.014 48.6002C96.1035 62.8623 85.3634 71.0028 70.1208 73.2445C69.2664 73.3126 68.4081 73.3188 67.5528 73.2632Z" fill="#F65E7B"/>
<path d="M40.7732 17.1439C40.773 16.1254 40.9792 15.1173 41.3793 14.1806C41.7794 13.2438 42.3652 12.3978 43.1014 11.6935C43.8375 10.9893 44.7087 10.4415 45.6624 10.083C46.6161 9.72457 47.6327 9.56295 48.6506 9.60795C49.6695 9.61815 50.6762 9.83089 51.6121 10.2337C52.5479 10.6365 53.3944 11.2214 54.102 11.9544C54.8096 12.6873 55.3643 13.5536 55.7338 14.5029C56.1033 15.4522 56.2803 16.4654 56.2543 17.4837C56.1908 19.5099 55.3454 21.4329 53.8953 22.85C52.4452 24.2671 50.5029 25.0683 48.4751 25.0858C47.4426 25.0876 46.4203 24.8815 45.4691 24.4799C44.5179 24.0783 43.6573 23.4895 42.9386 22.7484C42.2199 22.0073 41.6578 21.1291 41.2858 20.1663C40.9138 19.2034 40.7394 18.1756 40.7732 17.1439Z" fill="#FFE1F3"/>
<path d="M87.2452 48.3061C87.2619 49.3245 87.0746 50.336 86.6945 51.2811C86.3144 52.2261 85.749 53.0856 85.0317 53.809C84.3144 54.5324 83.4597 55.1052 82.5177 55.4935C81.5757 55.8819 80.5655 56.078 79.5466 56.0703C78.5279 56.0789 77.5176 55.8864 76.5734 55.5038C75.6293 55.1212 74.77 54.556 74.0448 53.8408C73.3197 53.1255 72.7428 52.2741 72.3474 51.3355C71.9521 50.3969 71.746 49.3896 71.741 48.3712C71.7489 46.3155 72.565 44.3454 74.0131 42.8858C75.4612 41.4263 77.4253 40.5943 79.4815 40.5694C80.5004 40.5643 81.5103 40.7608 82.4529 41.1475C83.3955 41.5342 84.2525 42.1035 84.9741 42.8226C85.6957 43.5417 86.2678 44.3964 86.6576 45.3375C87.0474 46.2786 87.2471 47.2875 87.2452 48.3061Z" fill="#FFE1F3"/>
</svg>
