<svg width="67" height="24" viewBox="0 0 67 24" fill="none" xmlns="http://www.w3.org/2000/svg">
<path d="M8 5.3335V9.3335H8.00667L8 9.34016L10.6667 12.0002L8 14.6668L8.00667 14.6735H8V18.6668H16V14.6735H15.9933L16 14.6668L13.3333 12.0002L16 9.34016L15.9933 9.3335H16V5.3335H8Z" fill="#4A25F8"/>
<path d="M25.6501 16V8.3H30.5451V9.246H26.8161V11.644H30.2151V12.568H26.8161V15.054H30.5451V16H25.6501ZM31.8903 16V10.544H32.9243L33.0123 11.501C33.181 11.1637 33.4267 10.8997 33.7493 10.709C34.0793 10.511 34.457 10.412 34.8823 10.412C35.5423 10.412 36.0593 10.6173 36.4333 11.028C36.8147 11.4387 37.0053 12.051 37.0053 12.865V16H35.8503V12.986C35.8503 11.93 35.4177 11.402 34.5523 11.402C34.1197 11.402 33.7603 11.556 33.4743 11.864C33.1957 12.172 33.0563 12.612 33.0563 13.184V16H31.8903ZM38.3786 16V10.544H39.4236L39.5226 11.578C39.7133 11.2187 39.9773 10.9363 40.3146 10.731C40.6593 10.5183 41.0736 10.412 41.5576 10.412V11.633H41.2386C40.9159 11.633 40.6263 11.688 40.3696 11.798C40.1203 11.9007 39.9186 12.0803 39.7646 12.337C39.6179 12.5863 39.5446 12.9347 39.5446 13.382V16H38.3786ZM44.9589 16.132C44.4383 16.132 43.9689 16.0147 43.5509 15.78C43.1403 15.538 42.8139 15.2043 42.5719 14.779C42.3299 14.3463 42.2089 13.844 42.2089 13.272C42.2089 12.7 42.3299 12.2013 42.5719 11.776C42.8213 11.3433 43.1549 11.0097 43.5729 10.775C43.9909 10.533 44.4566 10.412 44.9699 10.412C45.4906 10.412 45.9563 10.533 46.3669 10.775C46.7849 11.0097 47.1149 11.3433 47.3569 11.776C47.6063 12.2013 47.7309 12.7 47.7309 13.272C47.7309 13.844 47.6063 14.3463 47.3569 14.779C47.1149 15.2043 46.7849 15.538 46.3669 15.78C45.9489 16.0147 45.4796 16.132 44.9589 16.132ZM44.9589 15.131C45.2376 15.131 45.4943 15.0613 45.7289 14.922C45.9709 14.7827 46.1653 14.5773 46.3119 14.306C46.4586 14.0273 46.5319 13.6827 46.5319 13.272C46.5319 12.8613 46.4586 12.5203 46.3119 12.249C46.1726 11.9703 45.9819 11.7613 45.7399 11.622C45.5053 11.4827 45.2486 11.413 44.9699 11.413C44.6913 11.413 44.4309 11.4827 44.1889 11.622C43.9543 11.7613 43.7636 11.9703 43.6169 12.249C43.4703 12.5203 43.3969 12.8613 43.3969 13.272C43.3969 13.6827 43.4703 14.0273 43.6169 14.306C43.7636 14.5773 43.9543 14.7827 44.1889 14.922C44.4236 15.0613 44.6803 15.131 44.9589 15.131ZM48.9919 16V8.08H50.1579V16H48.9919ZM51.6345 16V8.08H52.8005V16H51.6345ZM56.829 16.132C56.2937 16.132 55.817 16.0147 55.399 15.78C54.9884 15.538 54.6657 15.2043 54.431 14.779C54.1964 14.3537 54.079 13.8587 54.079 13.294C54.079 12.722 54.1927 12.2197 54.42 11.787C54.6547 11.3543 54.9774 11.017 55.388 10.775C55.806 10.533 56.29 10.412 56.84 10.412C57.3754 10.412 57.841 10.533 58.237 10.775C58.633 11.0097 58.941 11.325 59.161 11.721C59.381 12.117 59.491 12.5533 59.491 13.03C59.491 13.1033 59.4874 13.184 59.48 13.272C59.48 13.3527 59.4764 13.4443 59.469 13.547H55.223C55.2597 14.075 55.432 14.4783 55.74 14.757C56.0554 15.0283 56.4184 15.164 56.829 15.164C57.159 15.164 57.434 15.0907 57.654 14.944C57.8814 14.79 58.05 14.5847 58.16 14.328H59.326C59.1794 14.8413 58.886 15.2703 58.446 15.615C58.0134 15.9597 57.4744 16.132 56.829 16.132ZM56.829 11.369C56.4404 11.369 56.0957 11.4863 55.795 11.721C55.4944 11.9483 55.311 12.293 55.245 12.755H58.325C58.303 12.3297 58.1527 11.9923 57.874 11.743C57.5954 11.4937 57.247 11.369 56.829 11.369ZM63.1869 16.132C62.6589 16.132 62.1932 16.0073 61.7899 15.758C61.3865 15.5087 61.0712 15.1677 60.8439 14.735C60.6165 14.3023 60.5029 13.811 60.5029 13.261C60.5029 12.711 60.6165 12.2233 60.8439 11.798C61.0712 11.3653 61.3865 11.028 61.7899 10.786C62.2005 10.5367 62.6699 10.412 63.1979 10.412C63.6305 10.412 64.0082 10.4963 64.3309 10.665C64.6609 10.8337 64.9175 11.072 65.1009 11.38V8.08H66.2669V16H65.2219L65.1009 15.153C64.9249 15.4097 64.6829 15.637 64.3749 15.835C64.0669 16.033 63.6709 16.132 63.1869 16.132ZM63.3959 15.12C63.8945 15.12 64.3015 14.9477 64.6169 14.603C64.9395 14.2583 65.1009 13.8147 65.1009 13.272C65.1009 12.722 64.9395 12.2783 64.6169 11.941C64.3015 11.5963 63.8945 11.424 63.3959 11.424C62.8972 11.424 62.4865 11.5963 62.1639 11.941C61.8412 12.2783 61.6799 12.722 61.6799 13.272C61.6799 13.6313 61.7532 13.9503 61.8999 14.229C62.0465 14.5077 62.2482 14.7277 62.5049 14.889C62.7689 15.043 63.0659 15.12 63.3959 15.12Z" fill="#4A25F8"/>
</svg>
