<svg width="360" height="193" viewBox="0 0 360 193" fill="none" xmlns="http://www.w3.org/2000/svg">
<g filter="url(#filter0_ddi_921_13828)">
<path d="M0 -4H360V142C360 159.673 345.673 174 328 174H32C14.3269 174 0 159.673 0 142V-4Z" fill="#F29D88"/>
<path d="M291.631 70.1807L300.77 67.6717L302.917 51.9868C302.917 51.9868 295.983 50.6704 296.122 51.0784C296.26 51.4864 291.631 70.1807 291.631 70.1807Z" fill="#152777"/>
<path d="M266.511 85.6572C266.637 86.3443 265.434 87.1722 263.465 87.9027C261.966 88.4468 260.42 88.8639 258.844 89.1493C258.545 89.2084 258.238 89.2612 257.925 89.3134C256.877 89.4956 255.82 89.6251 254.758 89.7013C254.427 89.7158 254.121 89.7308 253.846 89.7308C252.007 89.7227 251.284 89.2606 251.143 88.4848C251.001 87.6865 251.504 86.7542 253.304 85.9784C253.621 85.841 253.946 85.7212 254.278 85.6194C255.21 85.3321 256.163 85.1127 257.13 84.9631C257.61 84.8896 258.074 84.8141 258.537 84.7626C259.911 84.5782 261.299 84.4959 262.687 84.5162C264.892 84.5614 266.384 84.9556 266.511 85.6572Z" fill="#B3D1FA"/>
<path d="M295.869 69.6997C294.266 73.1529 286.651 90.5496 280.255 102.755C277.787 107.462 275.493 111.4 273.803 113.468C273.468 113.887 273.091 114.274 272.677 114.624C266.885 119.226 265.463 119.368 263.962 118.278C263.027 117.607 261.188 117.242 259.302 115.392C257.823 113.843 256.711 112.012 256.041 110.021C253.524 103.328 251.279 89.3929 251.145 88.5285C251.302 89.2672 252.017 89.7141 253.777 89.7298C255.168 89.7015 256.553 89.5616 257.919 89.3118C258.366 89.237 258.807 89.1546 259.231 89.0647C263.536 88.2003 266.704 86.7456 266.508 85.6555C266.508 85.6555 267.821 91.326 268.429 94.7126C269.037 98.0991 269.851 99.3149 269.851 99.3149C269.851 99.3149 276.162 86.1761 279.022 81.844C281.882 77.512 282.228 72.1684 289.198 70.6458C294.212 69.5432 295.453 69.8927 295.869 69.6997Z" fill="#FBFCFE"/>
<path d="M280.254 102.756C277.787 107.463 275.492 111.401 273.802 113.469C273.468 113.888 273.09 114.275 272.677 114.625C266.885 119.227 265.462 119.369 263.962 118.279C263.027 117.609 261.188 117.243 259.302 115.393C259.087 113.332 258.602 111.305 257.856 109.358C255.545 103.644 254.226 93.6318 253.777 89.731C255.168 89.7027 256.553 89.5628 257.919 89.313C258.367 89.2382 258.807 89.1558 259.231 89.0659C260.465 94.065 264.968 110.924 269.212 109.358C271.483 108.53 269.935 107.836 276.717 96.9222C276.718 96.9222 278.738 99.936 280.254 102.756Z" fill="#EEF3FD"/>
<path d="M312.694 69.0971C312.694 69.0971 306.431 85.6936 303.406 94.9825C300.381 104.272 284.727 146.323 284.727 146.323C284.727 146.323 283.823 146.354 282.448 146.286C279.525 146.137 274.479 145.555 271.485 143.339V142.669C271.485 142.669 274.88 123.295 276.31 113.41C277.741 103.526 288.297 73.0445 288.297 73.0445L292.053 72.4403L312.694 69.0971Z" fill="#FF8F58"/>
<path d="M279.021 123.451C279.807 123.921 290.188 126.509 290.188 126.509C290.188 126.509 285.292 138.96 282.447 146.286C279.524 146.137 274.479 145.555 271.485 143.339V142.668C271.485 142.668 274.879 123.293 276.31 113.409C277.74 103.525 288.296 73.0433 288.296 73.0433L292.052 72.4392C292.209 73.5299 292.303 74.6279 292.335 75.7283C286.292 86.4192 285.113 95.1103 283.565 99.0193C282.015 102.943 278.228 122.989 279.021 123.451Z" fill="#EA6C2E"/>
<path d="M326.863 70.0741L326.753 72.0229L326.062 84.4508L324.89 105.546C324.686 105.762 321.04 125.867 319.328 133.186C317.616 140.505 323.823 171.382 323.823 171.382L306.244 172.38L280.806 173.821C278.959 162.302 280.452 150.142 281.882 138.654C282.692 132.156 283.564 125.568 284.664 119.026C285.678 112.947 286.88 106.911 288.405 101.003C288.711 99.8239 289.057 98.6533 289.458 97.5041C291.59 91.2596 294.95 85.4553 299.359 80.3985C303.107 76.0796 306.172 71.4025 310.29 67.3225C310.657 66.9485 311.048 66.5964 311.461 66.2683H311.469C311.898 65.9251 312.395 65.6665 312.93 65.5076C314.586 65.0524 316.317 65.8879 317.739 66.8133C320.647 68.7011 323.563 69.0513 326.863 70.0741Z" fill="#E0E9FB"/>
<path d="M326.863 70.0741L326.753 72.0229C320.113 74.9619 300.467 113.165 297.661 115.806C295.877 117.485 289.284 118.509 284.663 119.028C285.676 112.949 286.878 106.913 288.404 101.004C288.71 99.8258 289.056 98.6552 289.456 97.506C291.589 91.2615 294.949 85.4572 299.358 80.4004C303.106 76.0815 306.171 71.4043 310.289 67.3244C310.656 66.9497 311.048 66.5969 311.461 66.2683H311.469C311.898 65.9251 312.395 65.6665 312.93 65.5076C314.586 65.0524 316.318 65.8879 317.739 66.8133C320.647 68.7011 323.562 69.0513 326.863 70.0741Z" fill="#E0E9FB"/>
<path d="M319.326 133.185C317.613 140.495 323.822 171.381 323.822 171.381L306.242 172.38C304.175 163.667 300.985 148.694 302.588 145.181C304.891 140.146 311.782 119.6 311.782 119.6C311.782 119.6 316.646 104.338 318.706 99.4435C319.688 97.0936 322.902 90.6028 326.061 84.4483L324.89 105.546C324.687 105.761 321.04 125.866 319.326 133.185Z" fill="#FBFCFE"/>
<path d="M304.514 78.8625C304.769 80.5836 305.198 82.2775 305.795 83.9206C305.795 83.9206 292.467 93.7747 289.457 97.5045C291.59 91.26 294.949 85.4557 299.359 80.3989C303.107 76.08 306.172 71.4029 310.29 67.3229C310.657 66.9495 311.048 66.598 311.461 66.2705H311.469C311.469 66.2705 312.176 76.2661 312.553 76.6257C309.694 77.5743 307.822 77.9201 304.514 78.8625Z" fill="#FBFCFE"/>
<path d="M291.059 74.2564C291.678 74.8103 294.772 74.8706 298.245 74.8964C297.988 71.7324 298.208 68.569 297.356 65.4037C295.965 66.9697 290.23 73.5153 291.059 74.2564Z" fill="#DB9A81"/>
<path d="M307.822 73.7903C305.347 69.6701 302.176 65.8423 297.583 63.3327C297.644 63.9102 297.669 64.4906 297.657 65.0709C297.653 65.0753 297.543 65.1967 297.357 65.4079C298.21 68.5719 297.988 71.7353 298.246 74.9005C300.074 74.915 302.004 74.9194 303.739 74.9804C305.204 75.045 306.647 74.6244 307.822 73.7903Z" fill="#FFC2B3"/>
<path d="M297.284 67.7529C297.253 67.7975 297.221 67.8497 297.19 67.8943C294.856 71.5877 292.577 75.2433 290.416 78.9656C288.609 82.0837 286.864 85.2464 285.221 88.4984C284.059 90.7968 282.73 93.1612 281.787 95.5852V95.5928C281.575 96.1234 281.386 96.6615 281.222 97.1977C280.458 99.829 279.849 102.499 279.398 105.194C277.787 114.073 276.726 123.039 275.768 131.991C275.077 138.429 274.165 144.987 274.165 151.469C274.165 158.377 276.311 171.178 276.311 171.178L270.739 168.538C270.739 168.538 268.735 146.849 270.739 135.825C272.743 124.8 273.954 107.582 274.166 98.0326C274.378 88.4834 286.37 74.4732 288.507 71.4223C290.276 68.9008 295.108 68.0427 296.735 67.8189C296.798 67.8136 296.862 67.8037 296.924 67.7894C297.158 67.7686 297.284 67.7529 297.284 67.7529Z" fill="#E0E9FB"/>
<path d="M297.19 67.8943C294.856 71.5877 292.576 75.2433 290.416 78.9656C288.608 82.0837 286.863 85.2464 285.221 88.4984C284.058 90.7968 282.73 93.1612 281.787 95.5852C282.118 89.7822 285.064 80.2782 285.064 80.2782L289.826 78.8606C288.924 77.6357 288.195 76.3043 287.657 74.9C291.1 72.6174 296.073 68.3872 296.733 67.8208C296.788 67.7762 296.812 67.7529 296.812 67.7529L296.922 67.7912L297.19 67.8943Z" fill="#FBFCFE"/>
<path d="M297.658 65.0672C297.658 65.0672 295.15 66.7105 293.856 67.7553C292.563 68.8001 287.007 78.8636 287.007 78.8636C287.007 78.8636 295.568 76.1874 294.926 75.8329C294.284 75.4783 297.658 65.0672 297.658 65.0672Z" fill="#FF8F58"/>
<path d="M294.927 75.834V79.2338L291.061 77.5364L294.927 75.834Z" fill="#EA6C2E"/>
<path d="M297.659 65.0672L297.282 67.7553L296.854 75.5355L294.927 79.232C294.927 79.232 294.596 71.8051 294.927 69.938C295.258 68.0709 297.659 65.0672 297.659 65.0672Z" fill="#EA6C2E"/>
<path d="M279.021 126.681C279.021 126.681 277.324 126.3 275.28 125.763C272.608 125.071 269.331 124.121 268.427 123.428C266.816 122.212 263.751 119.504 263.964 118.28C265.465 119.37 267.524 118.631 273.315 114.021C273.881 114.856 274.378 115.732 274.801 116.64L279.021 126.681Z" fill="#FFC2B3"/>
<path d="M275.28 125.763C272.608 125.071 269.332 124.121 268.428 123.428C266.817 122.212 263.752 119.504 263.964 118.28C265.466 119.37 267.524 118.631 273.316 114.021C272.978 117.766 271.218 119.302 271.115 120.354C271.012 121.407 274.942 122.518 274.942 122.518L275.28 125.763Z" fill="#E5B19F"/>
<path d="M332.922 84.6448C332.274 88.082 331.209 91.4362 329.747 94.6404C328.418 97.6023 326.828 100.452 324.993 103.16C320.451 110.276 314.769 117.52 308.003 122.883C302.298 127.396 297.37 131.149 289.575 131.015C281.662 130.88 273.953 129.934 273.953 129.934C273.397 128.51 273.018 127.031 272.821 125.524C272.404 122.324 272.727 118.05 276.31 115.102C276.31 115.102 290.416 112.185 291.061 112.185C291.706 112.185 300.067 99.7941 304.986 92.2747C308.451 86.9865 310.817 80.5629 315.123 75.8336C317.253 73.4906 318.659 71.4909 321.85 70.4995C322.991 70.1409 324.185 69.9596 325.386 69.9626C326.435 69.9351 327.476 70.1447 328.423 70.574C329.37 71.0034 330.196 71.6402 330.832 72.4319C333.377 75.54 333.511 80.9464 332.922 84.6448Z" fill="#FBFCFE"/>
<path d="M332.922 84.6437C332.274 88.0808 331.209 91.4351 329.747 94.6392C328.418 97.6012 326.828 100.451 324.993 103.159C320.451 110.275 314.769 117.519 308.003 122.882C302.298 127.395 297.37 131.148 289.575 131.014C281.661 130.879 273.953 129.932 273.953 129.932C273.397 128.509 273.017 127.029 272.821 125.523C275.815 125.762 289.425 127.149 295.186 126.158C301.676 125.039 308.836 117.671 313.748 111.424C318.659 105.177 333.174 79.7043 330.833 72.4308C333.377 75.5414 333.511 80.9434 332.922 84.6437Z" fill="#EEF3FD"/>
<path d="M299.636 72.4299C298.59 73.3637 297.657 74.4056 296.855 75.5361C296.038 76.6794 295.39 77.923 294.927 79.2326C300.229 79.3765 303.735 74.9778 303.735 74.9778L299.636 72.4299Z" fill="#EA6C2E"/>
<path d="M311.457 59.8866L312.637 52.8645L297.105 60.5598C297.238 61.1591 297.329 61.766 297.378 62.3767C301.932 64.9504 305.044 68.8222 307.453 72.9764C309.684 71.4676 310.845 68.8335 311.27 67.3883C311.431 66.8395 311.088 66.3013 310.488 65.8053C310.955 65.6287 311.216 65.5061 311.216 65.5061L311.457 59.8866Z" fill="#DB9A81"/>
<path d="M299.636 71.6086C301.354 74.3178 303.673 76.6392 306.432 78.4113C310.339 68.3573 313.763 66.8409 314.19 64.2471C314.618 61.6533 311.622 59.8239 311.622 59.8239C308.412 65.3095 299.636 71.6086 299.636 71.6086Z" fill="#FF8F58"/>
<path d="M290.052 34.5922C290.418 39.5837 290.733 44.5784 290.997 49.5762C291.23 54.0119 290.864 58.4992 290.665 62.952C290.533 65.9167 290.511 68.9871 291.732 71.7871C292.65 73.8931 294.683 75.7237 297.082 75.7834C295.442 72.7648 294.555 69.4284 294.491 66.0324C294.437 64.3394 294.492 62.6449 294.659 60.9585C294.799 59.4196 295.31 57.7015 295.104 56.172C294.376 50.7341 293.941 45.2384 293.534 39.7484C293.489 39.1556 292.54 33.162 293.041 32.8716L290.052 34.5922Z" fill="#203197"/>
<path d="M317.404 43.0577C317.378 43.2733 317.35 43.4896 317.316 43.6977C316.909 46.7422 315.875 49.681 314.273 52.3467C313.621 53.4268 312.855 54.4412 311.986 55.3743C310.666 56.7929 309.101 57.9871 307.358 58.9054C305.828 59.7026 304.186 60.2877 302.482 60.643C302.283 60.6845 302.079 60.7273 301.875 60.7618C299.677 61.1485 296.595 61.6577 294.742 60.0873C293.863 59.2369 293.202 58.2065 292.808 57.0754C290.956 52.604 290.11 47.8141 290.323 43.0137C290.37 42.0745 290.368 41.1642 290.359 40.2684C290.349 39.4103 290.345 38.5603 290.374 37.7098C290.408 36.246 290.639 34.7923 291.063 33.3846C292.742 28.0587 297.519 23.0823 303.793 23.4167C304.317 23.4459 304.839 23.509 305.355 23.6053C307.361 24.0231 309.253 24.8368 310.908 25.9936C312.562 27.1503 313.941 28.6244 314.957 30.32C315.97 31.973 316.691 33.7726 317.09 35.6472C317.607 38.086 317.713 40.5873 317.404 43.0577Z" fill="#FFC2B3"/>
<path d="M317.404 43.0564C317.378 43.272 317.35 43.4883 317.315 43.6964C316.827 46.8459 315.561 49.4171 314.273 52.3454C313.621 53.4255 312.854 54.4399 311.986 55.3729C310.666 56.7916 309.101 57.9858 307.358 58.9041C305.828 59.7012 304.186 60.2864 302.482 60.6417C303.404 60.4474 304.507 58.8469 305.084 58.1761C305.852 57.2788 306.481 56.2817 306.952 55.2152C307.812 53.0722 308.308 50.8128 308.419 48.5219C308.856 43.1859 307.844 37.8327 305.478 32.9747C305.12 32.3769 304.9 31.7136 304.833 31.029C304.815 28.6401 309.999 28.6602 311.81 28.3327L317.088 35.6433C317.606 38.0829 317.713 40.5851 317.404 43.0564Z" fill="#DFA48D"/>
<path d="M311.146 24.5471C311.11 24.6761 311.059 24.8006 310.992 24.918C310.446 25.9037 308.769 26.8976 307.813 27.5244C306.296 28.5202 303.649 29.9422 301.689 29.1979C300.34 33.1031 290.365 32.2915 290.282 39.4682C289.601 38.299 289.135 37.0284 288.903 35.7107C288.531 33.6177 288.898 31.4666 289.948 29.5926C291.037 27.6941 292.562 26.0526 294.409 24.7895C296.257 23.5265 298.381 22.6745 300.623 22.2965C303.528 21.7593 306.531 21.9544 309.332 22.8623C310.312 23.1823 311.394 23.6028 311.146 24.5471Z" fill="#152781"/>
<path d="M325.075 69.3979C324.955 69.0013 319.554 67.0524 319.137 67.1348C318.591 67.4865 318.078 67.881 317.601 68.3141C316.814 68.9082 316.103 69.6343 315.37 70.2975C314.318 71.2449 313.274 72.1835 312.152 73.0504C311.747 73.3578 311.333 73.6577 310.913 73.9425C308.22 75.748 304.82 76.9682 301.619 76.2295C302.112 76.3408 304.003 73.8985 304.317 73.5213C305.161 72.489 305.9 71.3826 306.522 70.2171C307.647 67.8899 308.424 65.4247 308.829 62.8933C309.768 57.8486 310.211 52.732 310.153 47.6095C310.257 43.931 308.957 40.3409 306.491 37.5013C305.159 35.9881 303.697 34.5824 302.121 33.2988C300.747 32.1829 299.566 30.3089 300.191 28.5267C300.494 27.7637 300.987 27.082 301.629 26.5402C304.954 23.483 311.176 22.0855 315.168 24.7378C317.415 26.2321 318.936 28.5292 320.046 30.9766C320.665 32.3856 321.188 33.8309 321.612 35.3036C324.213 43.979 322.814 58.1061 324.492 66.9632C324.528 67.1719 324.571 67.3819 324.607 67.5836C324.688 67.9351 324.762 68.2796 324.859 68.6096C324.917 68.8793 324.992 69.1414 325.075 69.3979Z" fill="#203197"/>
<path d="M293.112 44.2724C293.103 44.9155 292.797 45.4323 292.432 45.4279C292.068 45.4235 291.778 44.8967 291.788 44.2542C291.798 43.6117 292.103 43.0943 292.469 43.0994C292.835 43.1044 293.12 43.6306 293.112 44.2724Z" fill="#002B5D"/>
<path d="M301.45 44.3896C301.44 45.0327 301.074 45.5488 300.634 45.5432C300.193 45.5375 299.844 45.0107 299.854 44.3676C299.865 43.7245 300.229 43.2084 300.67 43.2153C301.111 43.2222 301.459 43.7465 301.45 44.3896Z" fill="#002B5D"/>
<path d="M292.769 41.0005C292.342 41.0041 291.92 41.0861 291.525 41.2419C291.346 41.3135 291.174 41.3993 291.01 41.4984C290.922 41.5465 290.84 41.6025 290.763 41.6656C290.692 41.7384 290.63 41.8193 290.58 41.9064C290.569 41.924 290.565 41.9442 290.566 41.9643C290.567 41.9845 290.575 42.0038 290.588 42.02C290.6 42.0362 290.618 42.0485 290.638 42.0555C290.658 42.0624 290.68 42.0637 290.7 42.0592C290.786 42.0397 290.876 42.024 290.96 41.9963C291.056 41.9668 291.145 41.9158 291.237 41.8787C291.392 41.8174 291.553 41.7682 291.716 41.7316C292.057 41.6466 292.408 41.6079 292.76 41.6166C292.847 41.6178 292.93 41.5863 292.992 41.5292C293.054 41.4721 293.089 41.394 293.091 41.312C293.092 41.2301 293.059 41.151 292.999 41.0922C292.938 41.0335 292.856 40.9998 292.77 40.9986L292.769 41.0005Z" fill="#002B5D"/>
<path d="M302.336 42.0847C302.235 41.9512 302.104 41.8404 301.953 41.7603C301.824 41.6739 301.691 41.5944 301.553 41.5221C301.245 41.3722 300.922 41.2518 300.589 41.1625C300.262 41.0729 299.928 41.0098 299.59 40.9739C299.241 40.9393 298.888 40.9511 298.543 41.0091C298.123 41.0719 298.212 41.7257 298.632 41.7125C299.219 41.6798 299.809 41.7174 300.386 41.8244C300.675 41.8885 300.957 41.9754 301.229 42.0841C301.362 42.1331 301.49 42.1796 301.617 42.2362C301.754 42.3167 301.901 42.3789 302.056 42.421C302.252 42.4474 302.453 42.2764 302.336 42.0847Z" fill="#002B5D"/>
<path d="M295.717 50.9022C295.573 50.8975 295.429 50.8796 295.288 50.8487C295.209 50.8341 295.131 50.813 295.056 50.7859L294.977 50.7425L294.947 50.7111L294.964 50.564C295.016 50.4356 295.084 50.3134 295.167 50.2C295.331 49.9323 295.459 49.6464 295.549 49.3488C295.659 49.0371 295.659 48.6998 295.549 48.3882C295.532 48.3598 295.507 48.3362 295.477 48.3196C295.448 48.303 295.414 48.2941 295.379 48.2936C295.345 48.2932 295.311 48.3013 295.281 48.3171C295.251 48.3329 295.225 48.3559 295.207 48.3838C295.12 48.5433 295.053 48.7121 295.009 48.8867C294.947 49.0502 294.887 49.2149 294.82 49.3752C294.681 49.7052 294.432 49.9755 294.29 50.3024C294.205 50.4787 294.186 50.6772 294.235 50.8652C294.285 51.0533 294.4 51.2197 294.563 51.3372C294.908 51.5375 295.303 51.646 295.708 51.6515C295.813 51.653 295.915 51.6147 295.991 51.5451C296.066 51.4754 296.11 51.38 296.111 51.28C296.113 51.18 296.072 51.0834 295.999 51.0116C295.926 50.9398 295.825 50.8987 295.72 50.8972L295.717 50.9022Z" fill="#DB9A81"/>
<path d="M293.693 54.9501C294.067 55.2651 294.541 55.4522 295.04 55.4814C295.524 55.5605 296.016 55.5829 296.506 55.548C297.01 55.5144 297.51 55.4335 297.997 55.3066C298.245 55.2362 298.488 55.1522 298.726 55.0551C298.952 54.9963 299.15 54.8645 299.285 54.6823C299.301 54.6564 299.31 54.6274 299.313 54.5975C299.315 54.5676 299.311 54.5376 299.299 54.5096C299.288 54.4816 299.27 54.4565 299.247 54.436C299.224 54.4155 299.196 54.4002 299.166 54.3913C298.966 54.3438 298.755 54.3565 298.563 54.4277C298.343 54.4843 298.121 54.5289 297.901 54.5811C297.448 54.6986 296.986 54.7814 296.52 54.8288C296.082 54.866 295.641 54.8523 295.207 54.788C294.989 54.7534 294.781 54.6962 294.567 54.6427C294.353 54.5668 294.128 54.5193 293.899 54.5013C293.845 54.5026 293.792 54.5185 293.747 54.5472C293.702 54.5759 293.667 54.6162 293.645 54.6633C293.624 54.7104 293.617 54.7624 293.625 54.8132C293.633 54.8641 293.657 54.9115 293.693 54.9501Z" fill="#DB9A81"/>
<path d="M295.899 56.6265L296.008 56.766L296.09 56.8006L296.178 56.8358C296.264 56.855 296.354 56.8618 296.443 56.8559L296.641 56.861H296.741C296.794 56.8642 296.847 56.8569 296.896 56.8397C296.946 56.8225 296.991 56.7957 297.029 56.761C297.064 56.7281 297.091 56.6877 297.108 56.643C297.124 56.5983 297.129 56.5507 297.122 56.5039L297.085 56.3889L296.97 56.2769C296.854 56.1902 296.697 56.2298 296.563 56.2455L296.36 56.2688L296.263 56.2801L296.213 56.2858L296.109 56.3228L296.03 56.3631C295.98 56.3862 295.939 56.4249 295.916 56.4728C295.892 56.5207 295.886 56.575 295.899 56.6265Z" fill="#DB9A81"/>
<path d="M263.461 87.0804C261.963 87.6245 260.416 88.0417 258.84 88.3271C258.542 88.3861 258.235 88.439 257.921 88.4911C256.874 88.6733 255.817 88.8028 254.754 88.879C254.423 88.8935 254.118 88.9086 253.843 88.9086C253.662 87.655 253.473 86.4097 253.3 85.1561C253.253 84.8726 253.213 84.5966 253.174 84.3131C252.876 82.2021 252.585 80.0904 252.318 77.9788C252.153 76.7334 250.982 74.3389 251.367 73.1677C251.503 72.8063 251.763 72.4986 252.106 72.2939C252.466 72.0756 252.851 71.8957 253.253 71.7576C254.691 71.1254 256.233 70.7342 257.811 70.6016C257.953 70.5966 258.095 70.5991 258.236 70.6091C258.949 70.5885 259.657 70.7348 260.297 71.0352C260.937 71.3356 261.49 71.7808 261.906 72.3316C261.144 73.8467 261.56 75.6672 261.717 77.2848C261.898 79.1208 262.157 80.9488 262.495 82.7685C262.55 83.0828 262.613 83.3871 262.684 83.6932C262.904 84.8282 263.163 85.9572 263.461 87.0804Z" fill="#FFC2B3"/>
<path d="M251.116 70.6032C251.154 70.5968 251.193 70.6044 251.225 70.6245C251.084 70.6327 251.037 70.6245 251.116 70.6032Z" fill="#4268DB"/>
<path d="M258.534 83.9403C258.597 85.8351 258.754 87.4903 258.84 88.3271C258.542 88.3862 258.235 88.439 257.921 88.4911C256.873 88.6733 255.816 88.8028 254.754 88.879C254.636 87.9681 254.456 86.4241 254.275 84.7978C254.055 82.8358 253.842 80.748 253.78 79.4543C253.527 77.0117 252.964 74.607 252.105 72.292C252.466 72.0737 252.851 71.8939 253.253 71.7558C254.691 71.1235 256.233 70.7324 257.811 70.5997C257.953 70.5947 258.094 70.5973 258.236 70.6072L258.904 75.0078L259.566 75.3064C258.55 77.1144 258.424 80.8448 258.534 83.9403Z" fill="#E5B19F"/>
<path d="M250.661 57.1767C250.769 56.9083 250.214 51.7703 250.661 50.2911C251.108 48.8119 252.732 48.7534 253.119 51.0914L250.661 57.1767Z" fill="#FFC2B3"/>
<path d="M250.661 57.1759C250.661 57.1759 249.774 55.4238 248.675 55.9815C248.198 56.2191 247.796 56.5731 247.511 57.007C247.227 57.4409 247.069 57.9391 247.054 58.4502C247.054 59.3108 248.995 61.303 248.995 61.303L250.661 57.1759Z" fill="#FFC2B3"/>
<path d="M254.913 75.6217C254.493 75.7214 254.062 75.7802 253.629 75.7971C252.648 75.8185 251.815 75.0339 251.218 74.3512C249.863 72.7953 249.409 70.6912 248.774 68.8474C248.34 67.5901 248.03 66.2888 247.57 65.0396C247.151 63.9043 244.977 61.2878 246.584 60.2996C247.888 59.4962 248.533 60.4429 248.992 61.3054L263.451 67.6196L260.794 74.6964C259.718 75.7179 258.66 75.1993 257.37 75.1993C256.537 75.2519 255.713 75.3936 254.913 75.6217Z" fill="#FFC2B3"/>
<path d="M259.566 75.3081C254.86 74.0772 258.03 69.0762 259.847 68.3357C256.901 66.8395 249.875 64.2821 249.875 64.2821C249.875 64.2821 251.531 67.9868 253.12 69.5722C254.709 71.1577 256.983 74.0269 254.914 75.623C256.381 77.0337 259.566 75.3081 259.566 75.3081Z" fill="#E5B19F"/>
<path d="M270.934 42.2338L259.918 38.2235C259.148 37.9429 258.283 38.3086 257.988 39.0402L247.893 64.0293C247.597 64.7609 247.982 65.5815 248.753 65.8621L259.768 69.8724C260.539 70.153 261.403 69.7873 261.699 69.0556L271.794 44.0666C272.09 43.3349 271.704 42.5143 270.934 42.2338Z" fill="#203197"/>
<path d="M270.028 43.8895L259.425 40.0294C258.796 39.8005 258.091 40.0988 257.85 40.6956L248.958 62.7075C248.717 63.3043 249.031 63.9737 249.659 64.2025L260.262 68.0626C260.891 68.2915 261.596 67.9933 261.837 67.3964L270.73 45.3845C270.971 44.7877 270.656 44.1184 270.028 43.8895Z" fill="#FBFCFE"/>
<path d="M263.698 64.109C264.036 60.6068 264.177 59.0251 266.116 58.123C268.055 57.2208 267.536 58.9452 267.083 60.5445C266.63 62.1438 267.731 62.3299 266.434 64.9759C265.138 67.6219 263.711 71.0066 263.064 71.9904C262.366 72.936 261.608 73.8404 260.794 74.6987C260.794 74.6987 260.728 71.4372 260.794 71.253C260.86 71.0688 261.859 68.6604 261.859 68.6604L263.698 64.109Z" fill="#FFC2B3"/>
<path d="M42.833 97.228C41.8577 97.228 40.9963 97.0633 40.249 96.734C39.5017 96.392 38.9127 95.9107 38.482 95.29C38.0513 94.6567 37.8297 93.8903 37.817 92.991H40.382C40.4073 93.6117 40.629 94.1373 41.047 94.568C41.4777 94.986 42.0667 95.195 42.814 95.195C43.46 95.195 43.973 95.043 44.353 94.739C44.733 94.4223 44.923 94.0043 44.923 93.485C44.923 92.9403 44.752 92.516 44.41 92.212C44.0807 91.908 43.6373 91.661 43.08 91.471C42.5227 91.281 41.9273 91.0783 41.294 90.863C40.268 90.5083 39.4827 90.0523 38.938 89.495C38.406 88.9377 38.14 88.1967 38.14 87.272C38.1273 86.4867 38.311 85.8153 38.691 85.258C39.0837 84.688 39.6157 84.251 40.287 83.947C40.9583 83.6303 41.731 83.472 42.605 83.472C43.4917 83.472 44.2707 83.6303 44.942 83.947C45.626 84.2637 46.158 84.707 46.538 85.277C46.9307 85.847 47.1397 86.5247 47.165 87.31H44.562C44.5493 86.8413 44.3657 86.4297 44.011 86.075C43.669 85.7077 43.1877 85.524 42.567 85.524C42.035 85.5113 41.5853 85.6443 41.218 85.923C40.8633 86.189 40.686 86.5817 40.686 87.101C40.686 87.5443 40.8253 87.899 41.104 88.165C41.3827 88.4183 41.7627 88.6337 42.244 88.811C42.7253 88.9883 43.2763 89.1783 43.897 89.381C44.5557 89.609 45.1573 89.875 45.702 90.179C46.2467 90.483 46.6837 90.8883 47.013 91.395C47.3423 91.889 47.507 92.5287 47.507 93.314C47.507 94.0107 47.3297 94.6567 46.975 95.252C46.6203 95.8473 46.0947 96.3287 45.398 96.696C44.7013 97.0507 43.8463 97.228 42.833 97.228ZM54.1509 97.228C53.2009 97.228 52.3586 97.0253 51.6239 96.62C50.8892 96.2147 50.3129 95.6447 49.8949 94.91C49.4769 94.1753 49.2679 93.3267 49.2679 92.364C49.2679 91.3887 49.4706 90.521 49.8759 89.761C50.2939 89.001 50.8639 88.412 51.5859 87.994C52.3206 87.5633 53.1819 87.348 54.1699 87.348C55.0946 87.348 55.9116 87.5507 56.6209 87.956C57.3302 88.3613 57.8812 88.9187 58.2739 89.628C58.6792 90.3247 58.8819 91.1037 58.8819 91.965C58.8819 92.1043 58.8756 92.25 58.8629 92.402C58.8629 92.554 58.8566 92.7123 58.8439 92.877H51.6809C51.7316 93.6117 51.9849 94.188 52.4409 94.606C52.9096 95.024 53.4732 95.233 54.1319 95.233C54.6259 95.233 55.0376 95.1253 55.3669 94.91C55.7089 94.682 55.9622 94.3907 56.1269 94.036H58.5969C58.4196 94.6313 58.1219 95.176 57.7039 95.67C57.2986 96.1513 56.7919 96.5313 56.1839 96.81C55.5886 97.0887 54.9109 97.228 54.1509 97.228ZM54.1699 89.324C53.5746 89.324 53.0489 89.495 52.5929 89.837C52.1369 90.1663 51.8456 90.673 51.7189 91.357H56.4119C56.3739 90.7363 56.1459 90.2423 55.7279 89.875C55.3099 89.5077 54.7906 89.324 54.1699 89.324ZM64.9594 97C63.9714 97 63.1797 96.7593 62.5844 96.278C61.9891 95.7967 61.6914 94.9417 61.6914 93.713V89.609H60.0764V87.576H61.6914L61.9764 85.049H64.1234V87.576H66.6694V89.609H64.1234V93.732C64.1234 94.188 64.2184 94.5047 64.4084 94.682C64.6111 94.8467 64.9531 94.929 65.4344 94.929H66.6124V97H64.9594ZM76.8188 97.228C75.6408 97.228 74.7288 96.8607 74.0828 96.126C73.4495 95.3913 73.1328 94.3147 73.1328 92.896V87.576H75.5458V92.668C75.5458 93.4787 75.7105 94.0993 76.0398 94.53C76.3691 94.9607 76.8885 95.176 77.5978 95.176C78.2691 95.176 78.8201 94.9353 79.2508 94.454C79.6941 93.9727 79.9158 93.3013 79.9158 92.44V87.576H82.3478V97H80.2008L80.0108 95.404C79.7195 95.9613 79.2951 96.4047 78.7378 96.734C78.1931 97.0633 77.5535 97.228 76.8188 97.228ZM84.8444 101.18V87.576H87.0104L87.2764 88.925C87.5804 88.507 87.9794 88.1397 88.4734 87.823C88.98 87.5063 89.6324 87.348 90.4304 87.348C91.317 87.348 92.1087 87.5633 92.8054 87.994C93.502 88.4247 94.053 89.0137 94.4584 89.761C94.8637 90.5083 95.0664 91.357 95.0664 92.307C95.0664 93.257 94.8637 94.1057 94.4584 94.853C94.053 95.5877 93.502 96.1703 92.8054 96.601C92.1087 97.019 91.317 97.228 90.4304 97.228C89.721 97.228 89.1004 97.095 88.5684 96.829C88.0364 96.563 87.6057 96.1893 87.2764 95.708V101.18H84.8444ZM89.9174 95.1C90.69 95.1 91.3297 94.8403 91.8364 94.321C92.343 93.8017 92.5964 93.1303 92.5964 92.307C92.5964 91.4837 92.343 90.806 91.8364 90.274C91.3297 89.742 90.69 89.476 89.9174 89.476C89.132 89.476 88.486 89.742 87.9794 90.274C87.4854 90.7933 87.2384 91.4647 87.2384 92.288C87.2384 93.1113 87.4854 93.789 87.9794 94.321C88.486 94.8403 89.132 95.1 89.9174 95.1ZM102.944 101.18L105.129 96.373H104.559L100.892 87.576H103.533L106.174 94.207L108.929 87.576H111.513L105.528 101.18H102.944ZM116.809 97.228C115.897 97.228 115.073 97.019 114.339 96.601C113.617 96.183 113.04 95.6067 112.61 94.872C112.192 94.1247 111.983 93.2633 111.983 92.288C111.983 91.3127 112.198 90.4577 112.629 89.723C113.059 88.9757 113.636 88.393 114.358 87.975C115.092 87.557 115.916 87.348 116.828 87.348C117.727 87.348 118.538 87.557 119.26 87.975C119.994 88.393 120.571 88.9757 120.989 89.723C121.419 90.4577 121.635 91.3127 121.635 92.288C121.635 93.2633 121.419 94.1247 120.989 94.872C120.571 95.6067 119.994 96.183 119.26 96.601C118.525 97.019 117.708 97.228 116.809 97.228ZM116.809 95.119C117.442 95.119 117.993 94.8847 118.462 94.416C118.93 93.9347 119.165 93.2253 119.165 92.288C119.165 91.3507 118.93 90.6477 118.462 90.179C117.993 89.6977 117.448 89.457 116.828 89.457C116.182 89.457 115.624 89.6977 115.156 90.179C114.7 90.6477 114.472 91.3507 114.472 92.288C114.472 93.2253 114.7 93.9347 115.156 94.416C115.624 94.8847 116.175 95.119 116.809 95.119ZM127.343 97.228C126.165 97.228 125.253 96.8607 124.607 96.126C123.974 95.3913 123.657 94.3147 123.657 92.896V87.576H126.07V92.668C126.07 93.4787 126.235 94.0993 126.564 94.53C126.894 94.9607 127.413 95.176 128.122 95.176C128.794 95.176 129.345 94.9353 129.775 94.454C130.219 93.9727 130.44 93.3013 130.44 92.44V87.576H132.872V97H130.725L130.535 95.404C130.244 95.9613 129.82 96.4047 129.262 96.734C128.718 97.0633 128.078 97.228 127.343 97.228ZM135.369 97V87.576H137.535L137.763 89.343C138.105 88.735 138.567 88.2537 139.15 87.899C139.745 87.5317 140.442 87.348 141.24 87.348V89.913H140.556C140.024 89.913 139.549 89.9953 139.131 90.16C138.713 90.3247 138.383 90.6097 138.143 91.015C137.915 91.4203 137.801 91.984 137.801 92.706V97H135.369ZM38.292 122V108.7H42.833C44.391 108.7 45.6703 108.979 46.671 109.536C47.6843 110.081 48.4317 110.853 48.913 111.854C49.407 112.842 49.654 114.007 49.654 115.35C49.654 116.693 49.407 117.864 48.913 118.865C48.4317 119.853 47.6843 120.626 46.671 121.183C45.6703 121.728 44.391 122 42.833 122H38.292ZM40.724 119.91H42.719C43.8337 119.91 44.714 119.733 45.36 119.378C46.006 119.011 46.4683 118.491 46.747 117.82C47.0257 117.136 47.165 116.313 47.165 115.35C47.165 114.4 47.0257 113.583 46.747 112.899C46.4683 112.215 46.006 111.689 45.36 111.322C44.714 110.955 43.8337 110.771 42.719 110.771H40.724V119.91ZM56.2648 122.228C55.3528 122.228 54.5295 122.019 53.7948 121.601C53.0728 121.183 52.4965 120.607 52.0658 119.872C51.6478 119.125 51.4388 118.263 51.4388 117.288C51.4388 116.313 51.6541 115.458 52.0848 114.723C52.5155 113.976 53.0918 113.393 53.8138 112.975C54.5485 112.557 55.3718 112.348 56.2838 112.348C57.1831 112.348 57.9938 112.557 58.7158 112.975C59.4505 113.393 60.0268 113.976 60.4448 114.723C60.8755 115.458 61.0908 116.313 61.0908 117.288C61.0908 118.263 60.8755 119.125 60.4448 119.872C60.0268 120.607 59.4505 121.183 58.7158 121.601C57.9811 122.019 57.1641 122.228 56.2648 122.228ZM56.2648 120.119C56.8981 120.119 57.4491 119.885 57.9178 119.416C58.3865 118.935 58.6208 118.225 58.6208 117.288C58.6208 116.351 58.3865 115.648 57.9178 115.179C57.4491 114.698 56.9045 114.457 56.2838 114.457C55.6378 114.457 55.0805 114.698 54.6118 115.179C54.1558 115.648 53.9278 116.351 53.9278 117.288C53.9278 118.225 54.1558 118.935 54.6118 119.416C55.0805 119.885 55.6315 120.119 56.2648 120.119ZM67.8823 122.228C66.9196 122.228 66.0709 122.019 65.3363 121.601C64.6016 121.183 64.0189 120.6 63.5883 119.853C63.1703 119.106 62.9613 118.251 62.9613 117.288C62.9613 116.325 63.1703 115.47 63.5883 114.723C64.0189 113.976 64.6016 113.393 65.3363 112.975C66.0709 112.557 66.9196 112.348 67.8823 112.348C69.0856 112.348 70.0989 112.665 70.9223 113.298C71.7456 113.919 72.2713 114.78 72.4993 115.882H69.9343C69.8076 115.426 69.5543 115.071 69.1743 114.818C68.8069 114.552 68.3699 114.419 67.8633 114.419C67.1919 114.419 66.6219 114.672 66.1533 115.179C65.6846 115.686 65.4503 116.389 65.4503 117.288C65.4503 118.187 65.6846 118.89 66.1533 119.397C66.6219 119.904 67.1919 120.157 67.8633 120.157C68.3699 120.157 68.8069 120.03 69.1743 119.777C69.5543 119.524 69.8076 119.163 69.9343 118.694H72.4993C72.2713 119.758 71.7456 120.613 70.9223 121.259C70.0989 121.905 69.0856 122.228 67.8823 122.228ZM78.727 122C77.739 122 76.9473 121.759 76.352 121.278C75.7566 120.797 75.459 119.942 75.459 118.713V114.609H73.844V112.576H75.459L75.744 110.049H77.891V112.576H80.437V114.609H77.891V118.732C77.891 119.188 77.986 119.505 78.176 119.682C78.3786 119.847 78.7206 119.929 79.202 119.929H80.38V122H78.727ZM86.8058 122.228C85.8938 122.228 85.0705 122.019 84.3358 121.601C83.6138 121.183 83.0375 120.607 82.6068 119.872C82.1888 119.125 81.9798 118.263 81.9798 117.288C81.9798 116.313 82.1952 115.458 82.6258 114.723C83.0565 113.976 83.6328 113.393 84.3548 112.975C85.0895 112.557 85.9128 112.348 86.8248 112.348C87.7242 112.348 88.5348 112.557 89.2568 112.975C89.9915 113.393 90.5678 113.976 90.9858 114.723C91.4165 115.458 91.6318 116.313 91.6318 117.288C91.6318 118.263 91.4165 119.125 90.9858 119.872C90.5678 120.607 89.9915 121.183 89.2568 121.601C88.5222 122.019 87.7052 122.228 86.8058 122.228ZM86.8058 120.119C87.4392 120.119 87.9902 119.885 88.4588 119.416C88.9275 118.935 89.1618 118.225 89.1618 117.288C89.1618 116.351 88.9275 115.648 88.4588 115.179C87.9902 114.698 87.4455 114.457 86.8248 114.457C86.1788 114.457 85.6215 114.698 85.1528 115.179C84.6968 115.648 84.4688 116.351 84.4688 117.288C84.4688 118.225 84.6968 118.935 85.1528 119.416C85.6215 119.885 86.1725 120.119 86.8058 120.119ZM93.8063 122V112.576H95.9723L96.2003 114.343C96.5423 113.735 97.0046 113.254 97.5873 112.899C98.1826 112.532 98.8793 112.348 99.6773 112.348V114.913H98.9933C98.4613 114.913 97.9863 114.995 97.5683 115.16C97.1503 115.325 96.821 115.61 96.5803 116.015C96.3523 116.42 96.2383 116.984 96.2383 117.706V122H93.8063ZM100.883 113.374L101.928 108.7H104.493L102.555 113.374H100.883ZM109.279 122.228C108.443 122.228 107.709 122.095 107.075 121.829C106.442 121.55 105.935 121.17 105.555 120.689C105.175 120.208 104.947 119.65 104.871 119.017H107.322C107.398 119.384 107.601 119.701 107.93 119.967C108.272 120.22 108.709 120.347 109.241 120.347C109.773 120.347 110.16 120.239 110.4 120.024C110.654 119.809 110.78 119.562 110.78 119.283C110.78 118.878 110.603 118.605 110.248 118.466C109.894 118.314 109.4 118.168 108.766 118.029C108.361 117.94 107.949 117.833 107.531 117.706C107.113 117.579 106.727 117.421 106.372 117.231C106.03 117.028 105.752 116.775 105.536 116.471C105.321 116.154 105.213 115.768 105.213 115.312C105.213 114.476 105.543 113.773 106.201 113.203C106.873 112.633 107.81 112.348 109.013 112.348C110.128 112.348 111.015 112.608 111.673 113.127C112.345 113.646 112.744 114.362 112.87 115.274H110.571C110.432 114.577 109.906 114.229 108.994 114.229C108.538 114.229 108.184 114.318 107.93 114.495C107.69 114.672 107.569 114.894 107.569 115.16C107.569 115.439 107.753 115.66 108.12 115.825C108.488 115.99 108.975 116.142 109.583 116.281C110.242 116.433 110.844 116.604 111.388 116.794C111.946 116.971 112.389 117.244 112.718 117.611C113.048 117.966 113.212 118.479 113.212 119.15C113.225 119.733 113.073 120.258 112.756 120.727C112.44 121.196 111.984 121.563 111.388 121.829C110.793 122.095 110.09 122.228 109.279 122.228ZM119.951 122V108.7H124.872C125.936 108.7 126.817 108.877 127.513 109.232C128.21 109.587 128.729 110.074 129.071 110.695C129.413 111.316 129.584 112.012 129.584 112.785C129.584 113.52 129.42 114.197 129.09 114.818C128.761 115.426 128.248 115.92 127.551 116.3C126.855 116.667 125.962 116.851 124.872 116.851H122.383V122H119.951ZM122.383 114.875H124.72C125.569 114.875 126.177 114.691 126.544 114.324C126.924 113.944 127.114 113.431 127.114 112.785C127.114 112.126 126.924 111.613 126.544 111.246C126.177 110.866 125.569 110.676 124.72 110.676H122.383V114.875ZM131.435 122V112.576H133.601L133.829 114.343C134.171 113.735 134.634 113.254 135.216 112.899C135.812 112.532 136.508 112.348 137.306 112.348V114.913H136.622C136.09 114.913 135.615 114.995 135.197 115.16C134.779 115.325 134.45 115.61 134.209 116.015C133.981 116.42 133.867 116.984 133.867 117.706V122H131.435ZM143.323 122.228C142.411 122.228 141.588 122.019 140.853 121.601C140.131 121.183 139.555 120.607 139.124 119.872C138.706 119.125 138.497 118.263 138.497 117.288C138.497 116.313 138.713 115.458 139.143 114.723C139.574 113.976 140.15 113.393 140.872 112.975C141.607 112.557 142.43 112.348 143.342 112.348C144.242 112.348 145.052 112.557 145.774 112.975C146.509 113.393 147.085 113.976 147.503 114.723C147.934 115.458 148.149 116.313 148.149 117.288C148.149 118.263 147.934 119.125 147.503 119.872C147.085 120.607 146.509 121.183 145.774 121.601C145.04 122.019 144.223 122.228 143.323 122.228ZM143.323 120.119C143.957 120.119 144.508 119.885 144.976 119.416C145.445 118.935 145.679 118.225 145.679 117.288C145.679 116.351 145.445 115.648 144.976 115.179C144.508 114.698 143.963 114.457 143.342 114.457C142.696 114.457 142.139 114.698 141.67 115.179C141.214 115.648 140.986 116.351 140.986 117.288C140.986 118.225 141.214 118.935 141.67 119.416C142.139 119.885 142.69 120.119 143.323 120.119ZM150.761 122V114.609H149.469V112.576H150.761V111.474C150.761 110.334 151.046 109.523 151.616 109.042C152.199 108.561 152.984 108.32 153.972 108.32H155.017V110.391H154.352C153.934 110.391 153.636 110.473 153.459 110.638C153.282 110.803 153.193 111.081 153.193 111.474V112.576H159.273V122H156.841V114.609H153.193V122H150.761ZM158.076 111.227C157.633 111.227 157.265 111.094 156.974 110.828C156.695 110.562 156.556 110.226 156.556 109.821C156.556 109.416 156.695 109.086 156.974 108.833C157.265 108.567 157.633 108.434 158.076 108.434C158.519 108.434 158.88 108.567 159.159 108.833C159.45 109.086 159.596 109.416 159.596 109.821C159.596 110.226 159.45 110.562 159.159 110.828C158.88 111.094 158.519 111.227 158.076 111.227ZM161.846 122V108.32H164.278V122H161.846ZM171.342 122.228C170.392 122.228 169.55 122.025 168.815 121.62C168.081 121.215 167.504 120.645 167.086 119.91C166.668 119.175 166.459 118.327 166.459 117.364C166.459 116.389 166.662 115.521 167.067 114.761C167.485 114.001 168.055 113.412 168.777 112.994C169.512 112.563 170.373 112.348 171.361 112.348C172.286 112.348 173.103 112.551 173.812 112.956C174.522 113.361 175.073 113.919 175.465 114.628C175.871 115.325 176.073 116.104 176.073 116.965C176.073 117.104 176.067 117.25 176.054 117.402C176.054 117.554 176.048 117.712 176.035 117.877H168.872C168.923 118.612 169.176 119.188 169.632 119.606C170.101 120.024 170.665 120.233 171.323 120.233C171.817 120.233 172.229 120.125 172.558 119.91C172.9 119.682 173.154 119.391 173.318 119.036H175.788C175.611 119.631 175.313 120.176 174.895 120.67C174.49 121.151 173.983 121.531 173.375 121.81C172.78 122.089 172.102 122.228 171.342 122.228ZM171.361 114.324C170.766 114.324 170.24 114.495 169.784 114.837C169.328 115.166 169.037 115.673 168.91 116.357H173.603C173.565 115.736 173.337 115.242 172.919 114.875C172.501 114.508 171.982 114.324 171.361 114.324Z" fill="white"/>
<path d="M37.994 63V53.2H39.478V57.4H44.224V53.2H45.708V63H44.224V58.618H39.478V63H37.994ZM48.485 54.74C48.205 54.74 47.9717 54.656 47.785 54.488C47.6077 54.3107 47.519 54.0913 47.519 53.83C47.519 53.5687 47.6077 53.354 47.785 53.186C47.9717 53.0087 48.205 52.92 48.485 52.92C48.765 52.92 48.9937 53.0087 49.171 53.186C49.3577 53.354 49.451 53.5687 49.451 53.83C49.451 54.0913 49.3577 54.3107 49.171 54.488C48.9937 54.656 48.765 54.74 48.485 54.74ZM47.743 63V56.056H49.227V63H47.743ZM50.36 64.652L51.172 61.348H52.642L51.354 64.652H50.36ZM56.9968 63L60.6088 53.2H62.2328L65.8168 63H64.2488L63.4088 60.606H59.4048L58.5648 63H56.9968ZM59.8248 59.43H62.9888L61.4068 54.964L59.8248 59.43ZM67.1275 63V56.056H68.4435L68.5555 57.274C68.7701 56.8447 69.0828 56.5087 69.4935 56.266C69.9135 56.014 70.3941 55.888 70.9355 55.888C71.7755 55.888 72.4335 56.1493 72.9095 56.672C73.3948 57.1947 73.6375 57.974 73.6375 59.01V63H72.1675V59.164C72.1675 57.82 71.6168 57.148 70.5155 57.148C69.9648 57.148 69.5075 57.344 69.1435 57.736C68.7888 58.128 68.6115 58.688 68.6115 59.416V63H67.1275ZM75.3853 63V52.92H76.8693V58.926L79.5293 56.056H81.3073L78.3533 59.206L81.7413 63H79.8653L76.8693 59.444V63H75.3853ZM83.7311 54.74C83.4511 54.74 83.2178 54.656 83.0311 54.488C82.8538 54.3107 82.7651 54.0913 82.7651 53.83C82.7651 53.5687 82.8538 53.354 83.0311 53.186C83.2178 53.0087 83.4511 52.92 83.7311 52.92C84.0111 52.92 84.2398 53.0087 84.4171 53.186C84.6038 53.354 84.6971 53.5687 84.6971 53.83C84.6971 54.0913 84.6038 54.3107 84.4171 54.488C84.2398 54.656 84.0111 54.74 83.7311 54.74ZM82.9891 63V56.056H84.4731V63H82.9891ZM89.3441 63C88.6628 63 88.1215 62.8367 87.7201 62.51C87.3188 62.174 87.1181 61.5813 87.1181 60.732V57.302H85.9281V56.056H87.1181L87.3001 54.292H88.6021V56.056H90.5621V57.302H88.6021V60.732C88.6021 61.1147 88.6815 61.3807 88.8401 61.53C89.0081 61.67 89.2928 61.74 89.6941 61.74H90.4921V63H89.3441ZM92.0923 63V52.92H93.5763V57.176C93.8096 56.7747 94.1316 56.462 94.5423 56.238C94.9623 56.0047 95.4243 55.888 95.9283 55.888C96.759 55.888 97.4123 56.1493 97.8883 56.672C98.3643 57.1947 98.6023 57.974 98.6023 59.01V63H97.1323V59.164C97.1323 57.82 96.5956 57.148 95.5223 57.148C94.9623 57.148 94.4956 57.344 94.1223 57.736C93.7583 58.128 93.5763 58.688 93.5763 59.416V63H92.0923ZM102.702 63.168C102.114 63.168 101.629 63.07 101.246 62.874C100.863 62.678 100.579 62.4213 100.392 62.104C100.205 61.7773 100.112 61.4227 100.112 61.04C100.112 60.368 100.373 59.836 100.896 59.444C101.419 59.052 102.165 58.856 103.136 58.856H104.956V58.73C104.956 58.1887 104.807 57.7827 104.508 57.512C104.219 57.2413 103.841 57.106 103.374 57.106C102.963 57.106 102.604 57.2087 102.296 57.414C101.997 57.61 101.815 57.904 101.75 58.296H100.266C100.313 57.792 100.481 57.3627 100.77 57.008C101.069 56.644 101.442 56.3687 101.89 56.182C102.347 55.986 102.847 55.888 103.388 55.888C104.359 55.888 105.11 56.1447 105.642 56.658C106.174 57.162 106.44 57.8527 106.44 58.73V63H105.152L105.026 61.81C104.83 62.1927 104.545 62.5147 104.172 62.776C103.799 63.0373 103.309 63.168 102.702 63.168ZM102.996 61.964C103.397 61.964 103.733 61.8707 104.004 61.684C104.284 61.488 104.499 61.2313 104.648 60.914C104.807 60.5967 104.905 60.2467 104.942 59.864H103.29C102.702 59.864 102.282 59.9667 102.03 60.172C101.787 60.3773 101.666 60.634 101.666 60.942C101.666 61.2593 101.783 61.5113 102.016 61.698C102.259 61.8753 102.585 61.964 102.996 61.964Z" fill="white"/>
</g>
<defs>
<filter id="filter0_ddi_921_13828" x="-16.3333" y="-20.3333" width="394.708" height="212.708" filterUnits="userSpaceOnUse" color-interpolation-filters="sRGB">
<feFlood flood-opacity="0" result="BackgroundImageFix"/>
<feColorMatrix in="SourceAlpha" type="matrix" values="0 0 0 0 0 0 0 0 0 0 0 0 0 0 0 0 0 0 127 0" result="hardAlpha"/>
<feOffset dx="6.125" dy="6.125"/>
<feGaussianBlur stdDeviation="6.125"/>
<feColorMatrix type="matrix" values="0 0 0 0 0.9125 0 0 0 0 0.775625 0 0 0 0 0.855101 0 0 0 1 0"/>
<feBlend mode="normal" in2="BackgroundImageFix" result="effect1_dropShadow_921_13828"/>
<feColorMatrix in="SourceAlpha" type="matrix" values="0 0 0 0 0 0 0 0 0 0 0 0 0 0 0 0 0 0 127 0" result="hardAlpha"/>
<feOffset dx="-4.08333" dy="-4.08333"/>
<feGaussianBlur stdDeviation="6.125"/>
<feColorMatrix type="matrix" values="0 0 0 0 1 0 0 0 0 1 0 0 0 0 1 0 0 0 1 0"/>
<feBlend mode="normal" in2="effect1_dropShadow_921_13828" result="effect2_dropShadow_921_13828"/>
<feBlend mode="normal" in="SourceGraphic" in2="effect2_dropShadow_921_13828" result="shape"/>
<feColorMatrix in="SourceAlpha" type="matrix" values="0 0 0 0 0 0 0 0 0 0 0 0 0 0 0 0 0 0 127 0" result="hardAlpha"/>
<feMorphology radius="1" operator="erode" in="SourceAlpha" result="effect3_innerShadow_921_13828"/>
<feOffset dy="2"/>
<feComposite in2="hardAlpha" operator="arithmetic" k2="-1" k3="1"/>
<feColorMatrix type="matrix" values="0 0 0 0 1 0 0 0 0 1 0 0 0 0 1 0 0 0 0.2 0"/>
<feBlend mode="normal" in2="shape" result="effect3_innerShadow_921_13828"/>
</filter>
</defs>
</svg>
