<svg width="214" height="298" viewBox="0 0 214 298" fill="none" xmlns="http://www.w3.org/2000/svg">
<path d="M78.7 67.9C73.9 71.7 69.8 76.2 65 79.9C56.4 86.4 45.8 90 37.3 96.8C28.6 103.8 22.6 113.7 18.6 124.2C14.4 135.3 12.2 147.3 14 159C15.8 170.7 21.9 182 31.6 188.7C41 195.1 52.8 196.9 62.7 202.4C73 208.1 80.7 217.6 89.9 224.9C98.7 231.9 109.1 237.1 120 239.8C130.2 242.4 141.1 242.9 151.3 240C161.4 237.1 170.8 230.7 176 221.5C183.2 208.8 181.9 193.1 186.5 179.2C188.7 172.4 192.4 166.2 195.1 159.6C199.8 148 201.5 135.1 199.9 122.6C198.6 112.1 194.7 101.4 186.8 94.3C181.4 89.3 174.4 86.4 167.7 83.3C154.8 77.3 141.4 70.6 130.1 62C120.8 55 110 55 98.8 57.9C91.6 59.8 84.6 63.2 78.7 67.9Z" fill="#FFF2F2"/>
<path d="M108.6 208C108.7 209.8 109.1 211.7 110.2 213.2C113.6 217.8 116.6 213.6 118.8 210.5C127.2 198.4 131.9 184.2 137.3 170.5C150.6 137.2 191.6 78.1 191.6 78.1C191.6 78.1 185.7 83.2 183 85.7C180.1 88.4 177.2 91.1 174.4 94C168.8 99.6 163.5 105.5 158.4 111.6C148.3 123.8 139.2 137 131.4 150.8C126.3 159.8 121.8 169.1 117.8 178.6C115.8 183.3 114 188 112.3 192.8C110.6 197.5 108.4 202.4 108.5 207.5C108.6 207.6 108.6 207.8 108.6 208Z" fill="#FF9999"/>
<path d="M105.6 213C105.5 214.8 105.1 216.7 104 218.2C100.6 222.8 97.6 218.6 95.4 215.5C87 203.4 82.3 189.2 76.9 175.5C63.6 142.2 22.6 83.1 22.6 83.1C22.6 83.1 28.5 88.2 31.2 90.7C34.1 93.4 37 96.1 39.8 99C45.4 104.6 50.7 110.5 55.8 116.6C65.9 128.8 75 142 82.8 155.8C87.9 164.8 92.4 174.1 96.4 183.6C98.4 188.3 100.2 193 101.9 197.8C103.6 202.5 105.8 207.4 105.7 212.5C105.6 212.6 105.6 212.8 105.6 213Z" fill="#FF9999"/>
<path d="M207.4 89.2C207.4 89.2 187.3 116.2 180.8 132C176.7 141.9 172.8 151.8 169.1 161.8C165.1 172.5 161.2 183.4 155.6 193.4C150 203.4 142.6 212.5 133 218C126 222 100.6 229.6 104.1 212.9C106.8 200 113.7 186.8 119.8 175.4C132.6 151.5 149.9 130.3 170.4 113.3C176.2 108.5 182.2 104.1 188.5 100C194.4 96.2 207.4 89.2 207.4 89.2Z" fill="#FFCCCC"/>
<path d="M205.7 89.8999C160.8 121.4 129.2 170.4 109 222.9" stroke="black" stroke-width="0.5" stroke-miterlimit="10" stroke-linecap="round" stroke-linejoin="round"/>
<path d="M0.900024 98.7C0.900024 98.7 21.5 125.3 28.3 141C32.5 150.8 36.6 160.6 40.6 170.6C44.8 181.3 48.9 192 54.7 201.9C60.5 211.7 68.1 220.7 77.8 226.1C84.8 230 110.4 237.1 106.6 220.4C103.6 207.6 96.5 194.5 90.2 183.2C76.9 159.6 59.2 138.7 38.4 122.1C32.5 117.4 26.4 113.1 20.1 109.1C14.1 105.5 0.900024 98.7 0.900024 98.7Z" fill="#FFCCCC"/>
<path d="M2.60004 99.2999C48.1 129.9 80.6 178.3 101.8 230.4" stroke="black" stroke-width="0.5" stroke-miterlimit="10" stroke-linecap="round" stroke-linejoin="round"/>
<path d="M91.7 291.2C123.401 291.2 149.1 265.501 149.1 233.8C149.1 202.099 123.401 176.4 91.7 176.4C59.9989 176.4 34.3 202.099 34.3 233.8C34.3 265.501 59.9989 291.2 91.7 291.2Z" fill="#FFB2B2"/>
<path d="M145 212.5C136.5 225.1 115.9 234 91.7 234C67.6 234 46.9 225.1 38.4 212.5" stroke="black" stroke-width="0.5" stroke-miterlimit="10" stroke-linecap="round" stroke-linejoin="round"/>
<path d="M149 235.3C147.7 253.6 122.5 268.1 91.7 268.1C62.9 268.1 39 255.4 34.9 238.9" stroke="black" stroke-width="0.5" stroke-miterlimit="10" stroke-linecap="round" stroke-linejoin="round"/>
<path d="M119.4 16.9C115.5 8.80001 106.6 4.60002 98.0001 2.10002C91.9001 0.300016 85.4001 -0.899984 79.3001 0.800016C75.3001 1.90002 71.7001 4.50002 69.5001 7.90002C65.0001 8.40002 60.8001 11.8 58.3001 15.7C54.5001 21.7 53.4001 29 53.5001 36.1C53.6001 43.2 54.9001 50.2 55.5001 57.2C55.9001 61.5 56.0001 65.8 55.1001 70C54.1001 74.3 52.0001 78.2 50.3001 82.3C47.6001 89 46.2001 96.8 49.4001 103.2C50.7001 105.7 52.6001 107.9 54.9001 109.4C58.2001 111.6 62.5001 112.7 64.7001 116C66.7001 119.1 66.4001 123.2 68.4001 126.3C70.5001 129.5 74.6001 130.6 78.4001 131.1C81.4001 131.4 84.5001 131.5 87.1001 130.1C90.6001 128.2 92.4001 124.3 95.1001 121.5C100.4 116.1 109.2 115.1 114.2 109.5C118.5 104.6 119 97.4 117.6 91.1C116.5 86.2 114.5 81.3 115.1 76.4C115.7 71.8 118.4 67.7 119.5 63.1C120.6 58.3 119.7 53.3 119.8 48.3C119.8 37.6 123.9 26.4 119.4 16.9Z" fill="#38322E"/>
<path d="M112.1 11C107.3 6.49999 100.9 3.89999 94.3 3.19999C87 2.49999 79.2 3.99999 73.8 8.99999C67.8 14.5 65.8 23.3 65.9 31.5C65.9 34.9 66.3 38.4 67.9 41.4C69.5 44.4 72.6 46.8 76 46.8L76.8 44.6C77.7 40.2 79.8 35.9 83.2 33C85.9 30.7 89.3 29.3 92.6 28.1C96 26.9 99.4 25.9 102.5 24C105.5 22.2 108.2 19.4 109.1 15.9C113.1 19.6 116.5 23.9 119.1 28.7C119.7 22.2 116.8 15.6 112.1 11Z" fill="#FFB2B2"/>
<path d="M145 287.8C145.1 287.1 145.3 286.1 145.5 285C145.6 284.7 145.6 284.4 145.7 284.1C145.8 283.8 145.8 283.5 145.9 283.2C146.7 278.8 147.4 273.2 147.5 270.7C147.5 269.8 147.6 268.9 147.6 267.9C148.6 268.5 149.7 268.9 150.8 269.1C152.6 269.5 154.5 269.5 156.3 269.5C157.8 269.5 159.5 269.4 160.7 268.7C160.7 268.8 160.7 268.9 160.7 269C160.8 273.7 163.7 278.4 165 279.7C165.2 279.9 165.4 280.1 165.6 280.3C166 280.7 166.4 281 166.9 281.4C167.1 281.6 167.4 281.8 167.6 282C169.1 283.3 172.1 285 175.1 286.7C178.1 288.4 181 290.1 181.8 291.2C183.2 292.9 183.6 295.5 181.3 296.5C177.7 298.1 172.5 297.7 168.7 296.9C164.3 296 160 294.3 155.6 293.4C152.9 292.9 144.8 292.9 144.9 288.8C144.8 288.8 144.8 288.4 145 287.8Z" fill="#FFB2B2"/>
<path d="M164 253C162.2 260.9 160.8 266.9 160.7 268.8C159.5 269.5 157.8 269.6 156.3 269.6C154.5 269.6 152.6 269.6 150.8 269.2C149.7 269 148.6 268.5 147.6 268C147.7 263.4 147.4 257.8 147 251.7L164 253Z" fill="#F2B27E"/>
<path d="M149.4 279.1C149.7 280.7 150.7 282.1 152.1 282.9" stroke="black" stroke-width="0.5" stroke-miterlimit="10" stroke-linecap="round" stroke-linejoin="round"/>
<path d="M175.3 284.1C175.4 283.4 175.5 282.4 175.6 281.2C175.6 280.9 175.7 280.6 175.7 280.3C175.7 280 175.8 279.7 175.8 279.4C176.3 275 176.7 269.3 176.7 266.9C176.7 266 176.7 265.1 176.6 264.1C177.6 264.6 178.7 265 179.9 265.1C181.7 265.4 183.6 265.3 185.4 265.2C186.9 265.1 188.6 264.9 189.8 264.1C189.8 264.2 189.8 264.3 189.8 264.4C190.2 269 193.3 273.6 194.7 274.8C194.9 275 195.1 275.2 195.4 275.3C195.8 275.6 196.3 276 196.7 276.3C197 276.5 197.2 276.7 197.5 276.9C199.1 278.1 202.2 279.7 205.2 281.2C208.3 282.8 211.3 284.3 212.2 285.3C213.7 286.9 214.3 289.5 212.1 290.7C208.6 292.6 203.4 292.5 199.5 291.9C195 291.2 190.7 289.8 186.2 289.2C183.5 288.8 175.4 289.4 175.3 285.2C175.2 285.2 175.2 284.7 175.3 284.1Z" fill="#FFB2B2"/>
<path d="M192.2 248.2C190.9 256.2 189.9 262.3 189.8 264.2C188.6 265 186.9 265.2 185.4 265.3C183.6 265.4 181.7 265.5 179.9 265.2C178.8 265 177.7 264.7 176.6 264.2C176.4 259.6 175.7 254 175 248L192.2 248.2Z" fill="#F2B27E"/>
<path d="M179.2 275.2C179.6 276.8 180.7 278.1 182.1 278.8" stroke="black" stroke-width="0.5" stroke-miterlimit="10" stroke-linecap="round" stroke-linejoin="round"/>
<path d="M143.3 146.8L117.9 125C117.9 125 120.7 102.5 119.5 93.2C118.3 84.4 113.7 83.4 104.9 79C97.2001 75.1 93.5001 129.3 97.1001 136.2C100.7 143 137.6 155 137.6 155" fill="#B27449"/>
<path d="M117.8 125C116.6 125.4 115.4 126 114.4 126.8" stroke="black" stroke-width="0.4174" stroke-miterlimit="10" stroke-linecap="round" stroke-linejoin="round"/>
<path d="M102.8 191.9C120.3 202.8 170 193.9 170 193.9C170 193.9 168.1 197.3 168.7 214.3C169.3 231.3 173.5 259.1 173.5 259.1C173.5 259.1 174.9 263 181.7 263.8C188.5 264.6 192.4 261.4 192.4 261.4C192.4 261.4 203.6 191.5 197.9 180.3C192.2 169 131 158.5 131 158.5L102.1 150C102.1 149.9 85.3001 181 102.8 191.9Z" fill="#CF6969"/>
<path d="M79.7001 189.1C96.2001 201.4 146.5 196.9 146.5 196.9C146.5 196.9 144.3 200.1 143.4 217.1C142.5 234.1 144.3 262.1 144.3 262.1C144.3 262.1 145.4 266.1 152.1 267.5C158.8 268.9 163 266.1 163 266.1C163 266.1 178 197.9 177.4 185.9C176.8 173.9 110.8 158.2 110.8 158.2L82.7001 147.2C82.6001 147.2 63.2001 176.7 79.7001 189.1Z" fill="#CF6969"/>
<path d="M169.9 232.6C173.7 213.5 177.6 192.2 177.3 186C177 179.8 158.9 172.5 141.6 167" stroke="black" stroke-width="0.5" stroke-miterlimit="10" stroke-linecap="round" stroke-linejoin="round"/>
<path d="M105.3 102.8C114.3 101.4 107 83.9 104.8 79.1C102.2 77.6 99.7 75.6 98.4 72.1C96.3 66.2 98.4 61.5 98.4 61.5L83.5 53.5C83.5 53.5 86.5 70.4 84.4 75.7C83.8 77.2 82.5 78.3 80.8 79.1C84.4 84.9 96.4 104.1 105.3 102.8Z" fill="#B27449"/>
<path d="M122.5 119.2C123.5 115.5 124.6 110.2 124 106.9C122.9 101.4 113.8 83.5 110.1 81.7C108.6 80.9 106.6 80.1 104.8 79.1C107 84 114.4 101.5 105.3 102.8C96.4001 104.1 84.3001 85 80.8001 79.1C78.9001 80 76.7001 80.7 74.7001 81.3C76.7001 84.8 81.8001 94.8 80.7001 102.7C79.8001 109.1 76.9001 112.2 75.1001 113.5C81.3001 126.2 86.5001 131 83.5001 139.6C80.3001 149 77.0001 153.9 77.0001 153.9C77.0001 153.9 91.7001 167 112.3 168.1C132.8 169.2 141.7 157.8 141.7 144C141.7 131.5 133.4 121.2 122.5 119.2Z" fill="#FFB2B2"/>
<path d="M80.8001 102.6C81.9001 94.7001 76.8001 84.7001 74.8001 81.2001C72.2001 81.9001 70.1 82.5001 69.6 83.4001C68.3 85.7001 66.7 94.6001 73.6 110C74.1 111.2 74.7 112.3 75.2 113.4C77 112.1 79.9001 109.1 80.8001 102.6Z" fill="#B27449"/>
<path d="M103.8 116.5C103.8 116.5 100.3 122.6 91.9 123.1" stroke="black" stroke-width="0.5" stroke-miterlimit="10" stroke-linecap="round" stroke-linejoin="round"/>
<path d="M92.6 144.5C92.6 144.5 102.3 161 114.6 158.8" stroke="black" stroke-width="0.5" stroke-miterlimit="10" stroke-linecap="round" stroke-linejoin="round"/>
<path opacity="0.6" d="M96.5 72.9C97.3 72.9 98 72.7 98.6 72.3C98.6 72.2 98.5 72.1 98.5 72C96.4 66.1 98.5 61.4 98.5 61.4L83.6 53.4C83.6 53.4 84.3 57.5 84.8 62.3C86.7 65.7 91.5 72.9 96.5 72.9Z" fill="#B27449"/>
<path d="M119.4 31.3001C123.6 46.9001 116.8 65.4001 107.6 67.9001C94.7001 71.3001 77.0001 61.0001 72.8001 45.4001C68.6001 29.8001 74.2001 13.1001 87.1001 9.60011C100 6.10011 115.1 15.7001 119.4 31.3001Z" fill="#B27449"/>
<path d="M90.1001 61.4001C94.2975 61.4001 97.7001 57.9974 97.7001 53.8001C97.7001 49.6027 94.2975 46.2001 90.1001 46.2001C85.9028 46.2001 82.5001 49.6027 82.5001 53.8001C82.5001 57.9974 85.9028 61.4001 90.1001 61.4001Z" fill="url(#paint0_radial_921_14737)"/>
<path d="M120.6 61.4001C124.797 61.4001 128.2 57.9974 128.2 53.8001C128.2 49.6027 124.797 46.2001 120.6 46.2001C116.403 46.2001 113 49.6027 113 53.8001C113 57.9974 116.403 61.4001 120.6 61.4001Z" fill="url(#paint1_radial_921_14737)"/>
<path d="M100.4 55.9001C100.4 55.9001 102.1 58.8001 105.2 58.8001C108.3 58.8001 109.7 56.4001 109.7 56.4001" stroke="black" stroke-width="0.5" stroke-miterlimit="10" stroke-linecap="round" stroke-linejoin="round"/>
<path d="M100.315 46.1898C101.754 45.8004 102.605 44.3179 102.216 42.8785C101.827 41.4391 100.344 40.5878 98.9046 40.9772C97.4652 41.3665 96.614 42.849 97.0033 44.2884C97.3927 45.7279 98.8752 46.5791 100.315 46.1898Z" fill="black"/>
<path d="M115.301 46.2055C116.741 45.8162 117.592 44.3337 117.203 42.8942C116.813 41.4548 115.331 40.6036 113.891 40.9929C112.452 41.3823 111.601 42.8648 111.99 44.3042C112.379 45.7436 113.862 46.5949 115.301 46.2055Z" fill="black"/>
<path d="M103.8 37.5002C102.9 36.6002 101.9 35.8002 100.9 35.3002C99.8001 34.8002 98.7001 34.4002 97.6001 34.5002C96.5001 34.5002 95.3001 34.8002 94.2001 35.3002C93.1001 35.8002 92.0001 36.5002 91.0001 37.1002C91.7001 36.1002 92.7001 35.2002 93.8001 34.5002C94.3001 34.1002 95.0001 33.9002 95.6001 33.6002C96.2001 33.4002 96.9001 33.3002 97.6001 33.3002C99.0001 33.3002 100.3 33.8002 101.4 34.5002C102.5 35.3002 103.3 36.3002 103.8 37.5002Z" fill="#38322E"/>
<path d="M111.5 36.8002C111.9 35.9002 112.5 35.2002 113.2 34.5002C113.9 33.9002 114.8 33.3002 115.8 33.1002C116.3 33.0002 116.8 32.9002 117.4 33.0002C117.9 33.1002 118.5 33.3002 118.9 33.6002C119.7 34.3002 120.2 35.2002 120.3 36.2002C119.7 35.4002 119.1 34.8002 118.4 34.4002C117.7 34.0002 116.9 34.0002 116.1 34.2002C115.3 34.4002 114.5 34.7002 113.7 35.2002C113 35.6002 112.2 36.2002 111.5 36.8002Z" fill="#38322E"/>
<path d="M96.2001 41.6001C96.2001 41.6001 99.3001 39.4001 102.3 42.4001" stroke="black" stroke-width="0.5" stroke-miterlimit="10" stroke-linecap="round" stroke-linejoin="round"/>
<path d="M111.5 41.6001C111.5 41.6001 114.2 39.3001 116.9 42.1001" stroke="black" stroke-width="0.5" stroke-miterlimit="10" stroke-linecap="round" stroke-linejoin="round"/>
<path d="M109.5 43.0001C109 44.5001 109.4 46.3001 110.5 47.4001C111.2 48.1001 112 48.5001 112.5 49.4001C112.9 50.2001 112.8 51.1001 112.4 51.8001C112 52.5001 111.3 53.1001 110.6 53.5001C110.6 53.5001 108.3 53.9001 106.8 51.6001C105.3 49.3001 105.9 45.7001 106.8 43.4001C107.7 41.3001 109.5 43.0001 109.5 43.0001Z" fill="url(#paint2_linear_921_14737)"/>
<path d="M109.5 43.0001C109 44.5001 109.4 46.3001 110.5 47.4001C111.2 48.1001 112 48.5001 112.5 49.4001C112.9 50.2001 112.8 51.1001 112.4 51.8001C112 52.5001 111.3 53.1001 110.6 53.5001" stroke="black" stroke-width="0.5" stroke-miterlimit="10" stroke-linecap="round" stroke-linejoin="round"/>
<path d="M113.7 14.9001C108.9 10.4001 102.5 7.80007 95.9001 7.10007C88.6001 6.30007 80.8001 7.90007 75.3001 12.8001C69.3001 18.3001 67.3001 27.1001 67.4001 35.3001C67.4001 38.7001 67.8001 42.2001 69.4001 45.2001C71.0001 48.2001 74.1001 50.6001 77.5001 50.6001L78.3001 48.4001C79.2001 44.0001 81.3001 39.7001 84.7001 36.8001C87.4001 34.5001 90.8001 33.1001 94.1001 31.9001C97.5001 30.7001 100.9 29.7001 104 27.8001C107 26.0001 109.7 23.2001 110.6 19.7001C114.6 23.4001 118 27.7001 120.6 32.5001C121.3 26.1001 118.4 19.4001 113.7 14.9001Z" fill="#38322E"/>
<path d="M76.8001 43.7001C79.4001 47.9001 80.1001 52.2001 77.1001 54.0001C74.1001 55.9001 68.6001 54.7001 65.9001 50.5001C63.3001 46.3001 63.6001 41.3001 66.6001 39.4001C69.6001 37.5001 74.2001 39.5001 76.8001 43.7001Z" fill="#B27449"/>
<path d="M64.6001 41.8001C64.6001 41.8001 70.5001 41.5001 76.7001 50.7001" stroke="black" stroke-width="0.5" stroke-miterlimit="10" stroke-linecap="round" stroke-linejoin="round"/>
<path d="M106.6 10.1001C105.5 10.2001 104.5 10.4001 103.4 10.7001C97.5001 12.3001 92.7001 16.3001 87.2001 19.1001C81.7001 21.8001 75.4001 23.1001 69.2001 22.9001C68.4001 25.3001 67.9001 27.8001 67.6001 30.4001C73.4001 30.4001 79.1001 28.3001 84.4001 25.8001C90.4001 23.0001 96.3001 19.8001 102.8 18.8001C107.7 18.0001 112.7 18.5001 117.5 19.7001C116.4 18.0001 115.2 16.4001 113.7 15.0001C111.6 12.9001 109.2 11.3001 106.6 10.1001Z" fill="#38322E"/>
<path d="M113.7 153.3L78.1 131.6C78.1 131.6 83.1 103 83.7 93.7C84.3 84.8 77.7 79.8 69.8 83.4C61.9 86.9 58.4 135.2 62 142C65.6 148.8 108.8 163.2 108.8 163.2" fill="#B27449"/>
<path d="M78 131.6C76.7 131.7 75.5 132.1 74.4 132.7" stroke="black" stroke-width="0.4174" stroke-miterlimit="10" stroke-linecap="round" stroke-linejoin="round"/>
<path d="M123 153.4C128.1 154.2 133.1 156.4 137.4 159.1C138.9 160 140.5 161.3 140.8 163C140.8 163.2 140.9 163.5 140.9 163.7C141 163.9 141.2 164.1 141.4 164.3C142.5 165.5 142.6 166.6 142.8 168C143 169.1 142.9 170.6 141.4 170.7C141.8 171.7 140.6 172.7 139.5 172.7C138.4 172.7 137.5 172 136.6 171.4C135.4 170.5 134.1 169.8 132.7 169C132 168.6 131.2 168.2 130.4 168C128.8 167.6 127 168 125.3 168C120.6 168.1 115.9 166.7 111.7 164.5C109.7 163.4 106.6 162.5 105.7 160.2C105.3 159 104.8 156.2 105.5 155C106 153 107.2 153 109 153.1C113.8 153.6 118.5 152.7 123 153.4Z" fill="#B27449"/>
<path d="M140.5 164C137.8 162 134.9 160.2 131.9 158.7" stroke="#333333" stroke-width="0.5" stroke-miterlimit="10" stroke-linecap="round" stroke-linejoin="round"/>
<path d="M141.7 167.9C138.7 165.6 135.6 163.5 132.3 161.6" stroke="#333333" stroke-width="0.5" stroke-miterlimit="10" stroke-linecap="round" stroke-linejoin="round"/>
<path d="M140.8 170.6C138 168.2 134.9 166.2 131.5 164.7" stroke="#333333" stroke-width="0.5" stroke-miterlimit="10" stroke-linecap="round" stroke-linejoin="round"/>
<path d="M171.1 166.1C170.8 165.4 170.4 164.8 169.9 164.2C170.2 163.6 170.1 162.9 169.8 162.3C169.5 161.7 169 161.2 168.5 160.7C167 159.2 165.4 157.7 163.9 156.2C162.6 154.9 161.2 154 159.7 153C158 152 156.1 151.3 154.2 150.6C150.7 149.4 146.5 148.7 143.3 146.8L141 149.9C140.5 152.2 139.7 154.4 138.6 156.4C139.5 157.6 140.4 158.9 141.3 160.2C143.7 163.5 146.4 167.1 149.8 169.5C151.8 170.9 154.1 171.6 156.5 172.2C157.2 172.4 158.1 172.4 158.3 171.8C158.4 171.4 158.2 171 158 170.7C156.6 168.6 154.2 167.2 152.8 165.1C152.4 164.6 152.2 163.8 152.6 163.4C153 163 153.6 163.2 154 163.3C154.7 163.5 155.5 163.6 156.2 163.8C157.8 164.2 159.3 164.7 160.7 165.6C161.4 166.1 162 166.7 162.6 167.3C163.4 168.1 164.1 168.8 164.9 169.6C165.3 170 165.7 170.4 166.2 170.7C166.7 171 167.2 171.2 167.8 171.1C168.2 171 168.6 170.7 168.6 170.3C169.1 170.3 169.6 170.3 170 170.1C170.5 169.9 170.8 169.5 170.8 169C170.8 168.9 170.8 168.7 170.8 168.6C170.8 168.4 170.9 168.3 171 168.2C171.4 167.6 171.4 166.8 171.1 166.1Z" fill="#B27449"/>
<path d="M168.4 170.1C166.6 167.3 164.4 164.8 161.9 162.6" stroke="#333333" stroke-width="0.5" stroke-miterlimit="10" stroke-linecap="round" stroke-linejoin="round"/>
<path d="M170.6 168.3C168.4 165.4 165.8 162.7 163 160.4" stroke="#333333" stroke-width="0.5" stroke-miterlimit="10" stroke-linecap="round" stroke-linejoin="round"/>
<path d="M169.5 164C167.7 161.8 165.7 159.8 163.5 158" stroke="#333333" stroke-width="0.5" stroke-miterlimit="10" stroke-linecap="round" stroke-linejoin="round"/>
<path d="M138.7 98.2001C141.738 98.2001 144.2 95.7376 144.2 92.7001C144.2 89.6625 141.738 87.2001 138.7 87.2001C135.662 87.2001 133.2 89.6625 133.2 92.7001C133.2 95.7376 135.662 98.2001 138.7 98.2001Z" stroke="#333333" stroke-width="0.5" stroke-miterlimit="10" stroke-linecap="round" stroke-linejoin="round"/>
<path d="M40.2 51.7001C43.2376 51.7001 45.7 49.2376 45.7 46.2001C45.7 43.1625 43.2376 40.7001 40.2 40.7001C37.1624 40.7001 34.7 43.1625 34.7 46.2001C34.7 49.2376 37.1624 51.7001 40.2 51.7001Z" stroke="#333333" stroke-width="0.5" stroke-miterlimit="10" stroke-linecap="round" stroke-linejoin="round"/>
<path d="M159.5 69.5C160.494 69.5 161.3 68.6941 161.3 67.7C161.3 66.7059 160.494 65.9 159.5 65.9C158.506 65.9 157.7 66.7059 157.7 67.7C157.7 68.6941 158.506 69.5 159.5 69.5Z" fill="#333333"/>
<path d="M38.4 79.9C39.3942 79.9 40.2 79.0942 40.2 78.1C40.2 77.1059 39.3942 76.3 38.4 76.3C37.4059 76.3 36.6 77.1059 36.6 78.1C36.6 79.0942 37.4059 79.9 38.4 79.9Z" fill="#333333"/>
<defs>
<radialGradient id="paint0_radial_921_14737" cx="0" cy="0" r="1" gradientUnits="userSpaceOnUse" gradientTransform="translate(90.0718 53.8491) rotate(-15.1355) scale(7.56081)">
<stop stop-color="#A55D47"/>
<stop offset="1" stop-color="#B27449"/>
</radialGradient>
<radialGradient id="paint1_radial_921_14737" cx="0" cy="0" r="1" gradientUnits="userSpaceOnUse" gradientTransform="translate(120.606 53.8363) rotate(-15.1355) scale(7.56071)">
<stop stop-color="#A55D47"/>
<stop offset="1" stop-color="#B27449"/>
</radialGradient>
<linearGradient id="paint2_linear_921_14737" x1="111.235" y1="52.8257" x2="107.75" y2="46.7141" gradientUnits="userSpaceOnUse">
<stop stop-color="#9A5331"/>
<stop offset="1" stop-color="#B27449"/>
</linearGradient>
</defs>
</svg>
