<svg width="230" height="342" viewBox="0 0 230 342" fill="none" xmlns="http://www.w3.org/2000/svg">
<g clip-path="url(#clip0_921_14833)">
<path d="M163.4 213.3C158.1 216.2 152.2 218.2 146.9 221.1C137.4 226.4 129.9 234.7 120.4 239.8C110.5 245.1 98.9999 246.6 87.8999 246.1C76.0999 245.6 64.0999 242.8 54.0999 236.5C44.0999 230.2 36.0999 220.1 33.7999 208.5C31.5999 197.4 34.6999 185.8 33.4999 174.5C32.2999 162.8 26.6999 152 23.5999 140.6C20.6999 129.7 20.0999 118.2 21.8999 107C23.5999 96.6 27.3999 86.4 34.0999 78.2C40.7999 70 50.3999 64 60.8999 62.9C75.3999 61.3 89.2999 68.8 103.9 70.1C111 70.7 118.1 69.8 125.3 70C137.9 70.3 150.3 73.8 161.1 80.2C170.2 85.6 178.5 93.4 181.9 103.4C184.3 110.4 184.2 117.9 184.5 125.3C184.9 139.5 185.8 154.5 189.2 168.3C192 179.6 187.6 189.5 180.6 198.7C175.8 204.7 170 209.7 163.4 213.3Z" fill="#FFF2F2"/>
<path d="M145.1 161.6C153.4 147.5 162.9 134 174.6 122.6C186.3 111.2 200.4 102 216.1 97.5C209.1 105.2 205.1 115.2 202.3 125.3C199.5 135.4 197.7 145.7 194.4 155.6C188.3 173.6 177.3 189.5 164.5 203.4C157.9 210.5 150.8 217.2 143.6 223.5C138.7 227.8 131.5 236.7 124 235.8C112.3 234.5 127.8 196.8 130.5 190.3C134.6 180.5 139.6 170.9 145.1 161.6Z" fill="#FFCCCC"/>
<path d="M216.1 97.6C216.1 97.6 150.8 156.8 123.9 236" stroke="black" stroke-width="0.5" stroke-miterlimit="10" stroke-linecap="round" stroke-linejoin="round"/>
<path d="M69.5 170.7C63.7 155.4 56.7999 140.4 47.2 127.2C37.6 113.9 25.4 102.4 10.7 95.2999C16.3 104.1 18.5 114.7 19.5 125.1C20.5 135.5 20.5 146 22.1 156.3C24.9 175 33 192.7 43.2 208.6C48.4 216.8 54.2999 224.5 60.2999 232.1C64.3999 237.2 70 247.2 77.5 247.6C89.3 248.4 80.5 208.5 79 201.7C76.6 191.1 73.2999 180.8 69.5 170.7Z" fill="#FFCCCC"/>
<path d="M10.7 95.2C10.7 95.2 64.8 164.9 77.5 247.5" stroke="black" stroke-width="0.5" stroke-miterlimit="10" stroke-linecap="round" stroke-linejoin="round"/>
<path d="M137.2 222.1C148.8 208.7 161 195.5 175.4 185.1C189.8 174.7 206.5 167 224.2 165.6C207.5 169.5 192.4 179 179.5 190.3C170.2 198.5 161.8 207.7 153.6 217C149.6 221.6 145.7 226.4 141.4 230.9C138.8 233.6 134.6 237.9 130.6 234.7C126.8 231.5 135.1 224.6 137.2 222.1Z" fill="#FF9999"/>
<path d="M73.8999 243.9C68.0999 227.1 61.5999 210.4 52.0999 195.4C42.5999 180.4 29.8999 167.1 13.8999 159.2C27.9999 169 38.4999 183.4 46.2999 198.7C51.8999 209.7 56.2999 221.4 60.4999 233.1C62.5999 238.9 64.3999 244.8 66.6999 250.5C68.0999 253.9 70.4999 259.5 75.3999 258C80.1999 256.5 74.9999 247 73.8999 243.9Z" fill="#FF9999"/>
<path d="M125 -5.23925e-05C118 -0.200052 111 0.599948 104.6 3.19995C98.2 5.79995 92.5 10.6999 89.7 16.9999C88.5 19.7999 87.9 22.6999 87.4 25.6999C85.6 37.2 86.3 48.8999 86.2 60.4999C86 72.2999 85 84.1999 80.2 94.6999C89.8 101.5 102.2 102.7 113.9 103.3C127 104 140.5 104.3 152.8 99.8999C152.8 97.2999 152.8 94.5999 152.8 91.9999C153.6 94.7999 155.6 97.2999 158.1 98.6999C155.5 90.2999 155.7 81.2999 156 72.4999C156.3 63.9999 156.6 55.3999 156.8 46.8999C157 40.1999 157.2 33.2999 155.9 26.6999C153.8 16.0999 146.3 4.59995 135.5 1.49995C132.2 0.499948 128.6 0.0999476 125 -5.23925e-05Z" fill="#5E4028"/>
<path d="M90.2 321.1C91.9 322.4 92.8 324.8 92.2 326.8C95.9 326.8 99.6 326 103 324.5C103 324.2 102.9 323.9 102.9 323.6C102.9 323.3 102.8 323 102.8 322.7C102.1 318.3 101.3 312.6 101.4 310.1C101.6 306.6 101.9 303.4 102.2 300.5L87.4 301.3C87.5 303.4 87.6 305 87.6 305.9C87.6 308.7 87.6 311.6 86.7 314.3C86.1 316.2 84.9 317.6 83.6 318.9C83.4 319.1 83.2 319.3 83 319.5C83.4 319.4 83.8 319.4 84.3 319.4C86.3 319.3 88.5 319.8 90.2 321.1Z" fill="#F2B27E"/>
<path d="M103 324.5C99.5999 326 95.8999 326.8 92.1999 326.8C92.7999 324.8 91.8999 322.4 90.1999 321.1C88.4999 319.8 86.2999 319.3 84.1999 319.3C83.7999 319.3 83.3999 319.3 82.8999 319.4C82.4999 319.8 82.0999 320.1 81.5999 320.5C81.2999 320.7 81.0999 320.9 80.7999 321.1C79.2999 322.4 76.0999 324.1 73.1999 325.7C70.0999 327.4 67.1999 329 66.2999 330.1C64.8999 331.8 64.3999 334.4 66.6999 335.5C70.2999 337.2 75.5999 336.9 79.3999 336.2C83.8999 335.4 88.1999 333.7 92.6999 333C95.3999 332.5 103.6 332.8 103.5 328.6C103.5 328.4 103.4 328 103.3 327.4C103.3 326.7 103.2 325.7 103 324.5Z" fill="#FFF2F2"/>
<path d="M65.2999 332.1C65.3999 332.9 65.8999 333.5 66.7999 334C70.3999 335.7 75.6999 335.4 79.4999 334.7C83.9999 333.9 88.2999 332.2 92.7999 331.5C95.2999 331.1 102.5 331.2 103.5 328" stroke="black" stroke-width="0.5" stroke-miterlimit="10" stroke-linecap="round" stroke-linejoin="round"/>
<path d="M99.0999 318.5C98.7999 320.1 97.6999 321.5 96.2999 322.2" stroke="black" stroke-width="0.5" stroke-miterlimit="10" stroke-linecap="round" stroke-linejoin="round"/>
<path d="M122.4 324.7C120.7 326 119.6 328.2 120.1 330.3C116.4 330.1 112.7 329.1 109.4 327.5C109.5 327.2 109.5 326.9 109.6 326.6C109.7 326.3 109.7 326 109.8 325.7C110.7 321.3 111.9 315.7 111.8 313.2C111.7 309.7 111.6 306.5 111.5 303.6L126.3 305.2C126.1 307.2 125.9 308.8 125.8 309.8C125.6 312.6 125.5 315.5 126.2 318.2C126.7 320.2 127.8 321.6 129.1 322.9C129.3 323.1 129.5 323.3 129.7 323.5C129.3 323.4 128.9 323.4 128.5 323.3C126.4 323 124.2 323.4 122.4 324.7Z" fill="#F2B27E"/>
<path d="M109.5 327.4C112.8 329 116.5 330 120.2 330.2C119.7 328.1 120.7 325.9 122.5 324.6C124.2 323.3 126.5 323 128.6 323.1C129 323.1 129.4 323.2 129.8 323.3C130.2 323.7 130.6 324.1 131 324.5C131.2 324.7 131.5 324.9 131.7 325.2C133.2 326.6 136.2 328.4 139.1 330.2C142.1 332 144.9 333.8 145.7 334.9C147 336.7 147.4 339.3 145.1 340.3C141.4 341.8 136.2 341.3 132.4 340.4C128 339.3 123.7 337.5 119.3 336.5C116.6 335.9 108.5 335.7 108.7 331.5C108.7 331.3 108.8 330.9 108.9 330.3C109 329.5 109.2 328.5 109.5 327.4Z" fill="#FFF2F2"/>
<path d="M146.7 337C146.5 337.7 146 338.4 145.1 338.8C141.4 340.3 136.2 339.8 132.4 338.9C128 337.8 123.7 336 119.3 335C116.8 334.4 109.7 334.2 108.8 330.9" stroke="black" stroke-width="0.5" stroke-miterlimit="10" stroke-linecap="round" stroke-linejoin="round"/>
<path d="M113.6 321.6C113.8 323.2 114.8 324.7 116.2 325.5" stroke="black" stroke-width="0.5" stroke-miterlimit="10" stroke-linecap="round" stroke-linejoin="round"/>
<path d="M81.5999 149.9C65.9999 180.6 74.8 231.9 74.8 246.5C74.8 261.1 82.8999 317.3 82.8999 317.3C82.8999 317.3 86.1 319.3 92.3 320.3C98.6 321.3 103.4 318.1 103.4 318.1C103.4 318.1 102.8 257.7 103 244.8C103.2 231.9 107.6 191.2 107.6 191.2L106.9 153L81.5999 149.9Z" fill="#CC9864"/>
<path d="M126.7 150.8C141.5 181.8 131.5 232.9 131.2 247.5C130.8 262.1 128 317.5 128 317.5C128 317.5 125 319.7 118.8 321.2C112.6 322.6 107.5 319.8 107.5 319.8C107.5 319.8 102.9 258.1 102.9 245.2C103 232.3 95.5 191.4 95.5 191.4L101.1 153.3L126.7 150.8Z" fill="#CC9864"/>
<path d="M103.2 253.3C103 249.8 103 247 103 245.1C103.1 232.2 95.5999 191.3 95.5999 191.3L79.7999 185.1" stroke="black" stroke-width="0.5" stroke-miterlimit="10" stroke-linecap="round" stroke-linejoin="round"/>
<path d="M95.6 191.3L79.7 190.8" stroke="black" stroke-width="0.5" stroke-miterlimit="10" stroke-linecap="round" stroke-linejoin="round"/>
<path d="M130.7 184C124.2 179.2 120.2 170.5 120.5 161.8" stroke="black" stroke-width="0.5" stroke-miterlimit="10" stroke-linecap="round" stroke-linejoin="round"/>
<path d="M98.9 78.7C98.9 78.7 92.2 80 89.8 82C87.3 84 73 118.1 73 118.1C73 118.1 68.4 126.7 75.4 130.6C82.3 134.5 87.7 122.8 87.7 122.8L104.8 88L98.9 78.7Z" fill="#F2B27E"/>
<path d="M98.9 78.7C98.9 78.7 91.9 79.3 87.6 82.9C83.3 86.6 77.2 101.4 77.2 101.4C77.2 101.4 86.4 109.3 100.5 109.4C100.6 109.5 115.8 84.6 98.9 78.7Z" fill="#CF6969"/>
<path d="M105.5 75.6999C107.8 74.2999 110 72.4999 111.2 69.4999C113.6 63.5999 111.6 58.7999 111.6 58.7999L127.1 51.2999C127.1 51.2999 123.4 68.3999 125.2 73.7999C125.6 74.8999 126.3 75.6999 127.3 76.4999C124 78.3999 114.3 84.0999 108.1 89.4999C108.1 89.3999 105.1 82.8999 105.5 75.6999Z" fill="#F2B27E"/>
<path d="M127.9 101.3C127.1 93.1999 132.7 83.2999 134.9 79.7999C137.5 80.5999 139.6 81.2999 140.1 82.2999C141.3 84.6999 142.6 93.7999 134.9 109.1C134.3 110.3 133.7 111.4 133.1 112.5C131.3 111.1 128.5 107.9 127.9 101.3Z" fill="#F2B27E"/>
<path d="M103.9 114.5C103.9 114.5 107.2 120.8 115.7 121.7" stroke="black" stroke-width="0.5" stroke-miterlimit="10" stroke-linecap="round" stroke-linejoin="round"/>
<path d="M114.1 143.3C114.1 143.3 103.5 159.7 91.2 156.9" stroke="black" stroke-width="0.5" stroke-miterlimit="10" stroke-linecap="round" stroke-linejoin="round"/>
<path d="M83.5 105.4C83.6 104.8 83.6 104.3 83.8 103.8C84.5 100.9 87.6 94.4999 91 88.8999" stroke="black" stroke-width="0.5" stroke-miterlimit="10" stroke-linecap="round" stroke-linejoin="round"/>
<path opacity="0.7" d="M113.2 70.4C112.4 70.4 111.7 70.0999 111.1 69.6999C111.1 69.5999 111.2 69.5 111.2 69.4C113.6 63.5 111.6 58.7 111.6 58.7L127.1 51.2C127.1 51.2 126.2 55.3 125.5 60.2C123.4 63.5 118.2 70.6 113.2 70.4Z" fill="#F2B27E"/>
<path d="M137.7 139.1C135.8 130 133.2 112.5 133.2 112.5C133.2 112.5 128.6 107.8 128 101.3C127.2 93.1999 132.8 83.2999 135 79.7999C133 79.0999 130.7 78.3999 128.9 77.3999C128.4 77.0999 127.9 76.7999 127.5 76.4999C124.2 78.3999 114.5 84.0999 108.3 89.4999C108.3 89.4999 105.3 82.9999 105.7 75.7999C105.4 75.9999 105 76.1999 104.7 76.3999C102.7 77.3999 100.8 78.0999 99.2 78.8999C95.4 80.6999 85.4 98.3999 84.1 104C83.1 108.1 84.1 117.3 84.7 122C70.4 124.7 59.8 138.1 58.7 154.3C57.4 173.4 65.4 211.2 65.4 211.2C65.4 211.2 72.6 218.4 94.5 221.1C116.4 223.8 142.6 217.7 142.6 217.7C142.6 217.7 145 174.9 137.7 139.1Z" fill="#CF6969"/>
<path d="M136.3 80.2C136.3 80.2 143.7 82.6 145.7 88.1C147.7 93.6 150.4 129.4 150.4 129.4C150.4 129.4 150.6 137.8 144.5 138.5C138.4 139.2 135.2 132.8 134.3 127.8C133.4 122.9 130.3 94.3 130.3 94.3L136.3 80.2Z" fill="#F2B27E"/>
<path d="M134.9 79.7999C134.9 79.7999 142.5 80.5999 146.8 88.0999C151.1 95.5999 151 106.4 151 106.4C151 106.4 143.3 114.4 125.9 111.5C125.8 111.5 122.5 88.8999 134.9 79.7999Z" fill="#CF6969"/>
<path d="M132.2 112.1C130.2 112.1 128.1 111.9 125.8 111.5C125.8 111.5 124.5 103 126.4 94.2999" stroke="black" stroke-width="0.5" stroke-miterlimit="10" stroke-linecap="round" stroke-linejoin="round"/>
<path d="M91.4999 29.5999C87.1999 45.3999 94 64.0999 103.3 66.6999C116.3 70.2999 134.3 59.7999 138.6 43.9999C142.9 28.1999 137.2 11.2999 124.2 7.69993C111.2 4.09993 95.8999 13.7999 91.4999 29.5999Z" fill="#F2B27E"/>
<path d="M121.1 60.1999C125.353 60.1999 128.8 56.7525 128.8 52.4999C128.8 48.2473 125.353 44.7999 121.1 44.7999C116.847 44.7999 113.4 48.2473 113.4 52.4999C113.4 56.7525 116.847 60.1999 121.1 60.1999Z" fill="url(#paint0_radial_921_14833)"/>
<path d="M90.2 60.0999C94.4526 60.0999 97.9 56.6525 97.9 52.4C97.9 48.1474 94.4526 44.7 90.2 44.7C85.9474 44.7 82.5 48.1474 82.5 52.4C82.5 56.6525 85.9474 60.0999 90.2 60.0999Z" fill="url(#paint1_radial_921_14833)"/>
<path d="M110.6 54.6C110.6 54.6 108.8 57.5 105.7 57.5C102.5 57.5 101.1 55.1 101.1 55.1" stroke="black" stroke-width="0.5" stroke-miterlimit="10" stroke-linecap="round" stroke-linejoin="round"/>
<path d="M106.6 37.0999C107.5 36.1999 108.5 35.3999 109.6 34.8999C110.7 34.3999 111.8 33.9999 113 34.0999C114.2 34.0999 115.3 34.3999 116.4 34.8999C117.5 35.3999 118.6 36.0999 119.7 36.7999C118.9 35.6999 118 34.7999 116.9 34.0999C116.3 33.6999 115.7 33.4999 115.1 33.1999C114.4 32.9999 113.8 32.8999 113.1 32.8999C111.7 32.8999 110.3 33.3999 109.2 34.0999C108 34.8999 107.1 35.9999 106.6 37.0999Z" fill="#5E4028"/>
<path d="M100.1 37.1C99.7 36.2 99.1 35.4 98.3 34.8C97.6 34.1 96.7 33.6 95.7 33.4C95.2 33.3 94.6 33.2 94.1 33.3C93.6 33.4 93 33.6 92.6 33.9C91.7 34.6 91.3 35.5 91.2 36.5C91.8 35.7 92.4 35.1 93.2 34.7C93.9 34.3 94.7 34.3 95.5 34.5C96.3 34.7 97.1 35.1 97.9 35.5C98.6 36 99.3 36.5 100.1 37.1Z" fill="#5E4028"/>
<path d="M115.3 42.4999C115.3 42.4999 111.9 45.6999 107.8 42.6999" stroke="black" stroke-width="0.5" stroke-miterlimit="10" stroke-linecap="round" stroke-linejoin="round"/>
<path d="M100.3 42.6999C100.3 42.6999 97.7 45.4999 94.1 42.2999" stroke="black" stroke-width="0.5" stroke-miterlimit="10" stroke-linecap="round" stroke-linejoin="round"/>
<path d="M101.5 41.4999C102 42.9999 101.6 44.7999 100.5 45.9999C99.8 46.6999 98.9 47.1999 98.5 47.9999C98.1 48.7999 98.2 49.6999 98.6 50.4999C99 51.2999 99.7 51.7999 100.4 52.2999C100.4 52.2999 102.7 52.6999 104.2 50.3999C105.7 48.0999 105.1 44.3999 104.2 42.0999C103.3 39.7999 101.5 41.4999 101.5 41.4999Z" fill="url(#paint2_linear_921_14833)"/>
<path d="M101.5 41.4999C102 42.9999 101.6 44.7999 100.5 45.9999C99.8 46.6999 98.9 47.1999 98.5 47.9999C98.1 48.7999 98.2 49.6999 98.6 50.4999C99 51.2999 99.7 51.7999 100.4 52.2999" stroke="black" stroke-width="0.5" stroke-miterlimit="10" stroke-linecap="round" stroke-linejoin="round"/>
<path d="M109.6 39.1C111 38.7 112.5 38.6 113.9 38.8" stroke="black" stroke-width="0.5" stroke-miterlimit="10" stroke-linecap="round" stroke-linejoin="round"/>
<path d="M98.4 38.9999C97.3 38.4999 96.1 38.3999 95 38.4999" stroke="black" stroke-width="0.5" stroke-miterlimit="10" stroke-linecap="round" stroke-linejoin="round"/>
<path d="M135.7 14.4C128.7 6.30001 116.9 4.00001 107.4 8.20001C102.1 10.5 97.5 14.6 94.2 19.7C92.6 22.1 91 25 90.2 27.8C90 28.6 89.4 31.7 89.4 31.7C89.4 31.7 91.4 29.2 95.8 24.7C99.8 20.6 102.4 19.8 102.4 19.8C102.2 25.9 106.5 31.8 112.1 33C111.5 31.5 111.3 29.7 111.5 28.1C113.7 31.9 117.5 34.4 121.5 35.7C125.5 37 129.7 37.4 133.8 37.7C135.1 40.8 136.8 43.8 139 46.3C140.8 45.5 141.5 43.2 141.9 41.2C143.5 31.8 141.6 21.4 135.7 14.4Z" fill="#5E4028"/>
<path d="M134.6 42.3C131.9 46.6 131.3 50.9 134.3 52.8C137.3 54.7 142.9 53.5 145.6 49.2C148.3 44.9 148 39.9 144.9 38C141.9 36.1 137.3 38 134.6 42.3Z" fill="#F2B27E"/>
<path d="M146.9 40.3999C146.9 40.3999 140.9 40.0999 134.6 49.3999" stroke="black" stroke-width="0.5" stroke-miterlimit="10" stroke-linecap="round" stroke-linejoin="round"/>
<path d="M117.3 14C122.9 15.7 128.1 18.6 133.3 21.2C138.5 23.9 143.9 26.4 149.7 27.5C151.8 27.9 154.1 28.1 156.2 27.9C156.1 27.5 156.1 27 156 26.6C155.3 22.9 153.8 19 151.9 15.5C145.2 16.5 138.3 16.3 131.8 14.4C128.8 13.5 126 12.3 123.1 11.2C115.9 8.29998 108.4 5.89998 100.8 5.09998C97 7.29998 93.6 10.4 91.2 14.1C99.6 11.5 108.9 11.4 117.3 14Z" fill="#5E4028"/>
<path d="M90.6 112.3C95.3 111.6 100.3 112.2 104.8 113.3C106.4 113.7 108.1 114.3 108.8 115.8C108.9 116 109 116.2 109.1 116.4C109.3 116.6 109.5 116.7 109.7 116.8C111 117.6 111.3 118.5 111.9 119.7C112.3 120.6 112.7 121.9 111.4 122.5C112 123.3 111.3 124.5 110.3 124.8C109.3 125.1 108.3 124.7 107.4 124.4C106.1 124 104.7 123.7 103.4 123.4C102.7 123.3 101.9 123.1 101.1 123.2C99.5 123.3 98.1 124.1 96.7 124.6C92.6 126 88 126.1 83.8 125.2C81.8 124.8 78.7 124.9 77.4 123.1C76.7 122.2 75.5 119.8 75.8 118.6C75.7 116.7 76.7 116.4 78.4 116C82.5 115 86.4 112.9 90.6 112.3Z" fill="#F2B27E"/>
<path d="M108.9 116.8C106 115.8 102.9 115 99.9 114.5" stroke="#333333" stroke-width="0.5" stroke-miterlimit="10" stroke-linecap="round" stroke-linejoin="round"/>
<path d="M111 119.9C107.8 118.7 104.4 117.7 101 117" stroke="#333333" stroke-width="0.5" stroke-miterlimit="10" stroke-linecap="round" stroke-linejoin="round"/>
<path d="M111 122.5C107.9 121.2 104.6 120.3 101.3 119.9" stroke="#333333" stroke-width="0.5" stroke-miterlimit="10" stroke-linecap="round" stroke-linejoin="round"/>
<path d="M121.3 161.6C118.3 163.6 116.1 166.6 113.6 169.1C112.2 170.5 110.8 171.9 109.2 173C107.7 174 106.3 174.9 104.6 175.5C102.6 176.3 100.7 177 98.7 177.8C98.1 178 97.5 178.3 96.8 178.3C96.1 178.3 95.4 178.1 95 177.6C94.3 177.8 93.6 177.9 92.8 177.9C92.1 177.9 91.3 177.5 90.9 176.9C90.8 176.8 90.7 176.6 90.6 176.5C90.5 176.4 90.4 176.4 90.2 176.4C89.7 176.2 89.5 175.7 89.5 175.2C89.5 174.7 89.7 174.3 90 173.8C89.7 173.6 89.6 173.1 89.7 172.7C89.8 172.2 90.2 171.7 90.7 171.4C91.2 171.1 91.7 170.9 92.2 170.7C93.2 170.3 94.2 170 95.2 169.6C96 169.3 96.8 169 97.5 168.6C98.9 167.8 100 166.6 101 165.3C101.4 164.7 101.8 164.1 102.3 163.5C102.6 163.2 103 162.7 102.8 162.2C102.6 161.6 101.8 161.6 101.2 161.7C98.7 162.1 96.6 163.7 94.1 164.1C93.7 164.2 93.3 164.2 93 163.9C92.5 163.4 93 162.6 93.4 162.1C94.9 160.3 96.5 158.5 98.6 157.3C102.1 155.3 106.5 154.4 110.4 153.6C112.6 153.2 114.7 152.9 116.8 152.3C116.8 152.3 128.4 134.8 135 130C135 130 142.5 121.4 150.5 129.2C150.5 129.2 151.7 134.4 146.9 140.9C142.1 147.4 121.3 161.6 121.3 161.6Z" fill="#F2B27E"/>
<path d="M90.3 173.9C93.5 173.4 96.7 172.5 99.6 171.2" stroke="#333333" stroke-width="0.5" stroke-miterlimit="10" stroke-linecap="round" stroke-linejoin="round"/>
<path d="M91 176.5C94.5 175.7 97.9 174.6 101.2 173" stroke="#333333" stroke-width="0.5" stroke-miterlimit="10" stroke-linecap="round" stroke-linejoin="round"/>
<path d="M95.3 177.3C98 176.6 100.6 175.6 103.1 174.4" stroke="#333333" stroke-width="0.5" stroke-miterlimit="10" stroke-linecap="round" stroke-linejoin="round"/>
<path d="M134.9 130C136.7 128.4 138.9 127.3 141.2 126.9" stroke="#333333" stroke-width="0.5" stroke-miterlimit="10" stroke-linecap="round" stroke-linejoin="round"/>
<path d="M125.3 64.8999C125.9 70.3999 123.1 75.6999 121.3 80.9999C119.2 87.3999 118.5 94.1999 119.3 100.8C123.2 101.6 127.3 101.9 131.3 101.6C131 97.6999 130.9 93.6999 132.3 90.0999C133.8 86.0999 137 82.8999 139.1 79.0999C140.8 75.9999 141.6 72.3999 141.4 68.8999" fill="#5E4028"/>
<path d="M138.1 80.6999C138.4 80.1999 138.7 79.5999 139 79.0999C140.7 75.9999 141.5 72.3999 141.3 68.8999" stroke="black" stroke-width="0.5" stroke-miterlimit="10" stroke-linecap="round" stroke-linejoin="round"/>
<path d="M175.9 98.1C178.937 98.1 181.4 95.6375 181.4 92.6C181.4 89.5624 178.937 87.1 175.9 87.1C172.862 87.1 170.4 89.5624 170.4 92.6C170.4 95.6375 172.862 98.1 175.9 98.1Z" stroke="#333333" stroke-width="0.5" stroke-miterlimit="10" stroke-linecap="round" stroke-linejoin="round"/>
<path d="M70.2 38.7C73.2375 38.7 75.7 36.2375 75.7 33.2C75.7 30.1624 73.2375 27.7 70.2 27.7C67.1624 27.7 64.7 30.1624 64.7 33.2C64.7 36.2375 67.1624 38.7 70.2 38.7Z" stroke="#333333" stroke-width="0.5" stroke-miterlimit="10" stroke-linecap="round" stroke-linejoin="round"/>
<path d="M60.0999 50.4999C61.094 50.4999 61.8999 49.694 61.8999 48.6999C61.8999 47.7058 61.094 46.8999 60.0999 46.8999C59.1058 46.8999 58.2999 47.7058 58.2999 48.6999C58.2999 49.694 59.1058 50.4999 60.0999 50.4999Z" fill="#333333"/>
<path d="M172.2 70.7C173.194 70.7 174 69.8941 174 68.9C174 67.9059 173.194 67.1 172.2 67.1C171.206 67.1 170.4 67.9059 170.4 68.9C170.4 69.8941 171.206 70.7 172.2 70.7Z" fill="#333333"/>
</g>
<defs>
<radialGradient id="paint0_radial_921_14833" cx="0" cy="0" r="1" gradientUnits="userSpaceOnUse" gradientTransform="translate(121.145 52.5256) rotate(-164.71) scale(7.65927)">
<stop stop-color="#E89575"/>
<stop offset="1" stop-color="#F2B27E"/>
</radialGradient>
<radialGradient id="paint1_radial_921_14833" cx="0" cy="0" r="1" gradientUnits="userSpaceOnUse" gradientTransform="translate(90.2135 52.4294) rotate(-164.71) scale(7.65917)">
<stop stop-color="#E89575"/>
<stop offset="1" stop-color="#F2B27E"/>
</radialGradient>
<linearGradient id="paint2_linear_921_14833" x1="99.7091" y1="51.4311" x2="103.255" y2="45.2495" gradientUnits="userSpaceOnUse">
<stop stop-color="#DB8965"/>
<stop offset="0.9996" stop-color="#F2B27E"/>
</linearGradient>
<clipPath id="clip0_921_14833">
<rect width="229.4" height="341.2" fill="white"/>
</clipPath>
</defs>
</svg>
