<svg width="274" height="261" viewBox="0 0 274 261" fill="none" xmlns="http://www.w3.org/2000/svg">
<path d="M221.804 70.7069C224.71 77.3248 226.338 84.4071 229.36 91.025C234.592 102.867 243.659 112.62 248.774 124.579C254.005 136.886 254.586 150.702 252.726 163.822C250.866 177.754 246.216 191.686 237.614 202.832C229.012 214.094 216.224 222.454 202.158 223.847C188.673 225.24 175.304 220.364 161.819 220.48C147.753 220.596 134.384 226.169 120.435 228.607C107.182 230.929 93.4647 230.465 80.3285 227.098C68.1223 223.963 56.3811 218.274 47.4299 209.566C38.4787 200.742 32.3174 188.668 32.0849 176.129C31.7362 158.713 42.1986 143.039 45.2211 125.856C46.7324 117.496 46.4999 108.905 47.4299 100.545C49.0574 85.6842 54.6373 71.2874 63.4723 59.0966C70.9123 48.8795 81.026 39.9395 93.3484 36.9209C101.835 34.831 110.786 35.6437 119.621 36.2242C136.593 37.2692 154.379 37.8497 171.236 35.2954C184.953 33.2056 196.229 39.4751 206.343 48.7634C212.969 55.033 218.317 62.4636 221.804 70.7069Z" fill="#FFF2F2"/>
<path d="M30.3412 145.826C44.9886 154.882 58.9386 165.099 71.9585 176.245C76.6085 180.308 81.2585 184.488 86.6059 187.739C89.1634 189.248 101.951 195.866 101.602 189.48C101.37 185.069 90.4422 178.567 87.1872 175.896C76.376 167.305 64.751 159.642 52.1961 153.837C45.1049 150.586 37.7812 147.799 30.3412 145.826Z" fill="#FF9999"/>
<path d="M125.549 194.937C120.667 180.424 113.576 166.376 103.23 154.998C97.3008 148.496 90.4421 143.039 83.3509 137.931C68.3547 127.133 51.1498 117.38 32.6661 117.729C57.311 133.635 77.8872 157.204 85.9084 185.417C88.2334 193.892 89.5121 202.6 91.9534 211.076C94.3946 219.551 98.1146 227.911 104.508 233.832L136.244 239.753C133.338 224.66 130.548 209.566 125.549 194.937Z" fill="#FFBFBF"/>
<path d="M33.1311 117.729C69.0522 131.081 97.9983 161.848 109.275 198.304C113.343 211.54 115.436 225.705 123.224 237.083" stroke="black" stroke-width="0.5" stroke-miterlimit="10" stroke-linecap="round" stroke-linejoin="round"/>
<path d="M123.806 46.4413C122.643 41.565 122.062 36.4564 122.992 31.5801C123.457 29.0258 124.271 26.7038 125.201 24.3817C131.362 10.101 145.544 1.04494 160.424 0.116115C164.842 -0.116091 169.376 0.232219 173.561 1.97377C176.35 -0.116091 180.187 1.21668e-05 182.977 1.62546C186.115 3.48311 188.44 6.38569 190.533 9.52047C194.369 15.4417 197.159 22.1757 199.019 29.1419C201.693 38.6624 202.739 49.46 197.973 57.355C194.02 63.9729 186.697 67.1077 179.722 69.1975C168.678 72.5645 156.937 74.0739 145.428 71.4035C142.638 70.7069 139.732 69.778 137.174 68.2687C129.967 63.8568 125.782 55.149 123.806 46.4413Z" fill="#38322E"/>
<path d="M181.698 69.3137C182.163 70.5908 183.558 71.5196 184.953 71.2874C185.185 73.4934 186.813 75.351 188.905 75.9315C190.998 76.5121 193.439 75.6993 194.718 73.8417C197.159 74.7705 199.833 75.2349 202.507 75.2349C203.204 75.2349 204.018 75.1188 204.483 74.6544C205.064 73.9578 205.064 72.9129 204.483 72.2162C204.018 71.5196 203.204 70.9391 202.39 70.4747C203.902 70.0103 205.762 69.1976 205.645 67.5721C205.645 66.0628 203.902 65.25 202.507 64.7856C203.437 63.6246 204.367 61.9992 203.785 60.6059C203.553 60.0254 203.088 59.6771 202.739 59.3288C200.065 57.1228 195.997 57.0067 193.09 58.8644C191.695 59.7932 190.649 60.9542 189.487 61.9992C187.859 63.2763 186.115 64.3212 184.255 65.3661C182.744 66.1789 181 67.2238 181.698 69.3137Z" fill="#FFB2B2"/>
<path d="M43.5936 221.757C42.4311 223.847 41.3848 225.472 40.8036 226.517C38.9436 229.304 37.0836 232.09 34.4099 234.18C31.6199 236.386 28.5974 236.618 25.3424 236.967C24.9937 236.967 24.5287 237.083 24.1799 237.083C19.4137 237.547 7.09123 235.457 3.9525 236.386C1.39501 237.199 -0.81373 239.405 0.697512 241.959C3.13875 246.023 8.48623 249.274 12.7875 251.015C17.7862 253.105 23.1337 254.382 28.1324 256.588C31.1549 257.981 39.0598 263.554 41.7336 259.375C41.9661 259.026 43.0123 256.82 44.2911 254.034C46.6161 249.041 49.7548 242.191 51.731 239.753C54.2885 236.502 56.6135 233.484 58.8222 230.813L43.5936 221.757Z" fill="#F2B27E"/>
<path d="M42.1986 246.835C40.8036 248.229 38.8274 248.809 36.9674 248.693" stroke="black" stroke-width="0.5" stroke-miterlimit="10" stroke-linecap="round" stroke-linejoin="round"/>
<path d="M0.348755 240.45C1.1625 239.521 2.20875 238.94 3.48749 238.824" stroke="black" stroke-width="0.5" stroke-miterlimit="10" stroke-linecap="round" stroke-linejoin="round"/>
<path d="M1.16248 242.539C1.97622 241.727 3.13872 241.146 4.30121 241.262" stroke="black" stroke-width="0.5" stroke-miterlimit="10" stroke-linecap="round" stroke-linejoin="round"/>
<path d="M2.79004 244.397C3.60379 243.817 4.53378 243.468 5.46378 243.352" stroke="black" stroke-width="0.5" stroke-miterlimit="10" stroke-linecap="round" stroke-linejoin="round"/>
<path d="M5.11499 246.603C5.92874 246.139 6.97498 245.907 7.90498 246.023" stroke="black" stroke-width="0.5" stroke-miterlimit="10" stroke-linecap="round" stroke-linejoin="round"/>
<path d="M67.6572 198.536C67.3085 200.975 66.9598 202.832 66.7273 203.993C66.0298 207.244 65.3323 210.611 63.5885 213.514C61.8448 216.532 59.171 217.926 56.1486 219.435C55.7998 219.667 55.4511 219.783 55.1023 220.016C50.8011 222.222 38.5949 224.776 36.0374 226.866C33.9449 228.491 32.7824 231.394 35.1074 233.251C38.8274 236.154 45.1049 237.083 49.6386 237.315C55.1023 237.431 60.4498 236.618 65.9135 236.851C69.1685 236.967 78.5847 239.289 79.6309 234.412C79.7472 233.948 79.8634 231.51 79.9797 228.491C80.2122 223.034 80.6772 215.488 81.6072 212.469C82.7697 208.521 83.8159 204.922 84.8622 201.555L67.6572 198.536Z" fill="#F2B27E"/>
<path d="M75.7947 222.222C74.981 223.963 73.4697 225.356 71.6097 225.821" stroke="black" stroke-width="0.5" stroke-miterlimit="10" stroke-linecap="round" stroke-linejoin="round"/>
<path d="M34.4099 231.742C34.7587 230.581 35.6887 229.652 36.7349 229.072" stroke="black" stroke-width="0.5" stroke-miterlimit="10" stroke-linecap="round" stroke-linejoin="round"/>
<path d="M35.9211 233.484C36.3861 232.439 37.3161 231.51 38.3624 231.045" stroke="black" stroke-width="0.5" stroke-miterlimit="10" stroke-linecap="round" stroke-linejoin="round"/>
<path d="M38.1299 234.528C38.7111 233.716 39.4086 233.019 40.3386 232.555" stroke="black" stroke-width="0.5" stroke-miterlimit="10" stroke-linecap="round" stroke-linejoin="round"/>
<path d="M41.1523 235.69C41.7336 234.877 42.6636 234.296 43.5936 234.064" stroke="black" stroke-width="0.5" stroke-miterlimit="10" stroke-linecap="round" stroke-linejoin="round"/>
<path d="M194.137 177.173C194.137 177.173 188.324 196.331 159.378 194.937C130.548 193.66 106.252 170.44 106.252 170.44L82.886 219.783C82.886 219.783 79.2822 221.989 72.0748 220.48C64.8673 218.971 62.6586 214.907 62.6586 214.907C62.6586 214.907 69.5173 136.421 86.9547 132.009C104.392 127.481 147.521 153.837 147.521 153.837L194.485 157.436L194.137 177.173Z" fill="#8EBABC"/>
<path d="M210.412 186.578C210.412 186.578 200.53 204.342 173.561 206.896C146.591 209.45 106.252 188.436 106.252 188.436C106.252 188.436 98.4634 203.065 85.9084 215.488C73.3535 228.027 51.6148 244.397 51.6148 244.397C51.6148 244.397 47.7786 246.139 41.5011 241.727C35.2236 237.315 35.2236 232.323 35.2236 232.323C35.2236 232.323 76.6085 169.162 86.9547 162.312C97.3009 155.462 163.796 163.125 163.796 163.125L210.76 166.724L210.412 186.578Z" fill="#8EBABC"/>
<path d="M200.065 186.462C200.065 186.462 189.37 201.555 169.376 202.136C149.381 202.6 105.09 184.488 105.09 184.488C105.09 184.488 79.8635 225.008 46.1511 244.165" stroke="black" stroke-width="0.5" stroke-miterlimit="10" stroke-linecap="round" stroke-linejoin="round"/>
<path d="M106.02 186.694C104.857 184.14 103.695 181.702 102.532 179.147" stroke="black" stroke-width="0.5" stroke-miterlimit="10" stroke-linecap="round" stroke-linejoin="round"/>
<path d="M186.232 197.608C183.791 191.803 183.442 185.301 185.186 179.263" stroke="black" stroke-width="0.5" stroke-miterlimit="10" stroke-linecap="round" stroke-linejoin="round"/>
<path d="M66.0298 187.391C74.8647 175.316 83.1185 164.751 86.9547 162.196C94.0459 157.552 127.061 159.642 147.521 161.384L144.033 157.436" stroke="black" stroke-width="0.5" stroke-miterlimit="10" stroke-linecap="round" stroke-linejoin="round"/>
<path d="M147.172 161.151C147.172 161.151 149.381 160.571 159.029 160.455" stroke="black" stroke-width="0.5" stroke-miterlimit="10" stroke-linecap="round" stroke-linejoin="round"/>
<path d="M145.079 158.945C145.079 158.945 147.288 158.365 156.937 158.249" stroke="black" stroke-width="0.5" stroke-miterlimit="10" stroke-linecap="round" stroke-linejoin="round"/>
<path d="M79.5147 92.9987C79.2822 92.3021 79.3984 91.3733 79.8634 90.7928C79.5147 89.98 79.0497 89.2834 78.9335 88.3546C78.8172 87.5419 78.9335 86.613 79.5147 85.9164C79.631 85.8003 79.7472 85.6842 79.8634 85.452C79.8634 85.3359 79.8635 85.1037 79.9797 84.9876C80.096 84.4071 80.5609 84.0588 81.1422 83.9427C81.7234 83.8266 82.3047 83.9427 82.7697 84.0588C83.2347 82.4333 86.0247 83.9427 86.7222 84.6393C87.5359 85.452 88.0009 86.6131 88.6984 87.5419C90.9072 90.7928 94.5109 92.7665 97.9984 94.6242C98.3471 94.7403 98.5796 94.9725 98.9284 94.9725C99.9746 95.0886 99.7421 94.1598 99.5096 93.5792C98.3471 90.9089 95.9059 88.819 94.8596 86.0325C94.7434 85.5681 94.5109 85.1037 94.8596 84.7554C95.3246 84.0588 96.2546 84.4071 96.9521 84.7554C99.3934 86.0325 101.951 87.3097 103.927 89.3995C107.182 92.8826 109.391 97.6429 111.367 101.939C112.53 104.609 115.32 109.834 115.32 109.834L105.09 116.684C105.09 116.684 103.113 113.781 101.37 112.852C99.5096 111.924 97.7659 110.995 95.9059 110.066C93.4646 109.021 91.0234 107.628 89.0472 105.77C87.5359 104.377 86.1409 102.984 84.9784 101.126C83.5834 99.0361 82.1884 96.9462 80.7934 94.9725C80.2122 94.392 79.7472 93.6953 79.5147 92.9987Z" fill="#F2B27E"/>
<path d="M102.3 106.931C99.6258 104.261 96.1383 102.403 92.4183 101.59" stroke="#333333" stroke-width="0.5" stroke-miterlimit="10" stroke-linecap="round" stroke-linejoin="round"/>
<path d="M79.9797 90.7927C81.1422 91.141 81.956 92.186 82.6535 93.2309C84.0485 95.4369 85.676 97.6428 87.536 99.5005" stroke="#333333" stroke-width="0.5" stroke-miterlimit="10" stroke-linecap="round" stroke-linejoin="round"/>
<path d="M80.2122 85.452C81.9559 86.2647 83.1184 88.0063 84.0484 89.6317C85.6759 92.186 87.4196 94.5081 89.2796 96.8301" stroke="#333333" stroke-width="0.5" stroke-miterlimit="10" stroke-linecap="round" stroke-linejoin="round"/>
<path d="M83.2346 84.291C84.5134 85.1037 85.2109 86.497 86.0246 87.7741C87.5359 90.0962 89.2796 92.3021 91.2558 94.2759" stroke="#333333" stroke-width="0.5" stroke-miterlimit="10" stroke-linecap="round" stroke-linejoin="round"/>
<path d="M157.634 86.1487C152.752 87.4258 148.218 89.9801 146.009 94.6242C143.801 99.2683 141.359 115.407 141.359 115.407L115.668 107.279C115.668 107.279 112.53 106.931 108.112 110.414C103.695 113.897 102.183 116.336 102.183 116.336C102.183 116.336 131.013 141.53 147.404 142.691C163.796 143.852 166.818 104.725 166.818 104.725C166.818 104.725 162.517 84.8715 157.634 86.1487Z" fill="#CF6969"/>
<path d="M170.654 94.2758C170.654 94.2758 164.726 90.0961 163.912 83.3621C164.609 82.8977 165.074 82.4333 165.307 81.7367C166.121 78.6019 162.517 69.1975 162.517 69.1975L178.211 62.2313C178.211 62.2313 178.211 73.145 182.163 76.7442C182.744 77.3247 183.674 77.6731 184.837 78.0214C183.907 80.5756 180.071 89.2834 170.654 94.2758Z" fill="#F2B27E"/>
<path opacity="0.7" d="M162.517 69.3136L178.211 62.3474C178.211 62.3474 178.211 65.9466 179.024 69.6619C176.467 75.1188 171.352 83.5943 165.191 82.085C165.191 81.9688 165.307 81.8528 165.307 81.8528C166.004 78.718 162.517 69.3136 162.517 69.3136Z" fill="#F2B27E"/>
<path d="M147.637 153.488C150.078 151.166 152.636 148.844 155.077 146.522C156.704 145.013 158.448 143.387 160.076 141.878C160.773 141.182 161.471 140.485 162.168 139.904C162.982 139.208 164.261 138.859 163.214 137.698C162.982 137.466 162.749 137.234 162.633 137.002C162.517 136.537 162.866 136.189 162.749 135.841C162.633 135.609 162.517 135.492 162.401 135.26C162.168 134.912 161.703 134.448 161.471 134.099C160.773 133.17 160.076 132.242 159.494 131.197C157.751 128.526 156.472 125.508 155.426 122.489C151.822 111.924 150.543 94.1597 152.868 89.6317C154.728 86.0325 161.006 85.1037 163.912 83.246C164.726 89.98 170.654 94.1597 170.654 94.1597C180.07 89.1673 183.907 80.4595 184.837 77.9053C191.114 79.7629 204.018 79.2985 208.784 85.9164C214.248 93.6953 219.828 138.859 218.549 158.016C217.27 177.174 210.528 186.462 210.528 186.462C210.528 186.462 196.578 190.874 178.443 181.585C160.192 172.297 147.637 153.721 147.637 153.721C147.521 153.721 147.637 153.605 147.637 153.488Z" fill="#CF6969"/>
<path d="M162.284 139.904C163.098 139.208 164.377 138.859 163.331 137.698C163.098 137.466 162.866 137.234 162.749 137.002C162.633 136.537 162.982 136.189 162.866 135.841C162.749 135.609 162.633 135.492 162.517 135.26C162.284 134.912 161.819 134.448 161.587 134.099C160.889 133.17 160.192 132.242 159.611 131.197C157.867 128.526 156.588 125.508 155.542 122.489C153.333 116.103 152.054 106.931 151.822 99.7327" stroke="black" stroke-width="0.5" stroke-miterlimit="10" stroke-linecap="round" stroke-linejoin="round"/>
<path d="M174.49 131.777C180.884 136.189 189.022 138.047 196.694 136.537" stroke="black" stroke-width="0.5" stroke-miterlimit="10" stroke-linecap="round" stroke-linejoin="round"/>
<path d="M165.423 138.743C174.026 142.226 183.209 144.548 192.393 145.477" stroke="black" stroke-width="0.5" stroke-miterlimit="10" stroke-linecap="round" stroke-linejoin="round"/>
<path d="M128.107 39.5911C127.409 59.3287 140.546 79.2984 152.054 79.7628C168.329 80.3434 186.464 63.2762 187.278 43.5386C187.975 23.8011 176.815 5.5729 160.541 4.99238C144.266 4.52797 128.804 19.9697 128.107 39.5911Z" fill="#F2B27E"/>
<path d="M169.027 67.572C174.099 67.572 178.21 63.4655 178.21 58.3998C178.21 53.3342 174.099 49.2277 169.027 49.2277C163.955 49.2277 159.843 53.3342 159.843 58.3998C159.843 63.4655 163.955 67.572 169.027 67.572Z" fill="url(#paint0_radial_921_14938)"/>
<path d="M132.757 75.9315C137.829 75.9315 141.941 71.825 141.941 66.7593C141.941 61.6937 137.829 57.5872 132.757 57.5872C127.685 57.5872 123.573 61.6937 123.573 66.7593C123.573 71.825 127.685 75.9315 132.757 75.9315Z" fill="url(#paint1_radial_921_14938)"/>
<path d="M161.006 60.9541C161.006 60.9541 160.773 67.8042 155.426 70.0102C150.078 72.2161 145.196 68.2686 145.196 68.2686C145.196 68.2686 150.776 64.7855 161.006 60.9541Z" fill="black"/>
<path d="M162.672 71.0002C167.709 67.343 170.477 62.5701 168.854 60.3398C167.231 58.1094 161.831 59.2662 156.793 62.9235C151.756 66.5807 148.988 71.3536 150.611 73.5839C152.235 75.8142 157.634 74.6575 162.672 71.0002Z" fill="#D8714C"/>
<path d="M162.168 61.7668C162.168 61.7668 152.868 66.6432 149.497 67.8042C146.242 68.9652 142.987 65.7144 142.987 65.7144L159.494 57.8193L162.168 61.7668Z" fill="white"/>
<path d="M158.166 49.0802C158.234 47.2861 156.834 45.7761 155.037 45.7076C153.241 45.6391 151.729 47.038 151.66 48.8322C151.592 50.6264 152.992 52.1363 154.789 52.2048C156.585 52.2733 158.097 50.8744 158.166 49.0802Z" fill="black"/>
<path d="M140.412 53.0722C140.48 51.278 139.079 49.768 137.283 49.6995C135.487 49.6309 133.975 51.0299 133.906 52.824C133.837 54.6182 135.238 56.1282 137.035 56.1967C138.831 56.2652 140.343 54.8663 140.412 53.0722Z" fill="black"/>
<path d="M148.218 42.7259C149.032 41.4488 149.962 40.2878 151.124 39.2428C152.171 38.314 153.449 37.6174 154.844 37.3852C156.239 37.0369 157.634 37.153 159.146 37.3852C160.541 37.6174 162.052 38.1979 163.447 38.6623C162.284 37.6174 160.889 36.8047 159.378 36.3403C158.681 36.1081 157.867 35.8759 157.053 35.8759C156.239 35.8759 155.426 35.8759 154.612 35.992C152.984 36.3403 151.473 37.2691 150.427 38.5462C149.264 39.8234 148.451 41.2166 148.218 42.7259Z" fill="#38322E"/>
<path d="M138.918 44.0031C138.221 43.0742 137.291 42.3776 136.244 41.7971C135.198 41.2166 134.036 40.8683 132.757 40.8683C132.176 40.8683 131.478 40.9844 130.897 41.2166C130.316 41.4488 129.734 41.9132 129.269 42.3776C128.456 43.4226 128.107 44.6997 128.34 45.8607C128.805 44.8158 129.386 43.887 130.083 43.1903C130.781 42.4937 131.711 42.2615 132.757 42.3776C133.803 42.3776 134.849 42.6098 135.896 42.9581C136.826 43.0742 137.872 43.5387 138.918 44.0031Z" fill="#38322E"/>
<path d="M158.448 45.5124C158.448 45.5124 154.147 43.7708 151.473 48.0666" stroke="black" stroke-width="0.5" stroke-miterlimit="10" stroke-linecap="round" stroke-linejoin="round"/>
<path d="M140.197 49.6921C140.197 49.6921 136.361 47.7184 133.919 51.782" stroke="black" stroke-width="0.5" stroke-miterlimit="10" stroke-linecap="round" stroke-linejoin="round"/>
<path d="M142.987 50.8532C144.033 52.4786 144.033 54.6846 142.987 56.4261C142.406 57.355 141.476 58.1677 141.243 59.3287C141.011 60.3736 141.359 61.4186 142.057 62.2313C142.754 63.044 143.684 63.5084 144.731 63.8567C144.731 63.8567 147.521 63.7406 148.683 60.6059C149.846 57.4711 148.102 53.4075 146.474 50.9693C144.614 48.2989 142.987 50.8532 142.987 50.8532Z" fill="url(#paint2_linear_921_14938)"/>
<path d="M142.987 50.8531C144.033 52.4786 144.033 54.6846 142.987 56.4261C142.406 57.3549 141.476 58.1676 141.243 59.3287C141.011 60.3736 141.359 61.4185 142.057 62.2313C142.754 63.044 143.684 63.5084 144.731 63.8567" stroke="black" stroke-width="0.5" stroke-miterlimit="10" stroke-linecap="round" stroke-linejoin="round"/>
<path d="M159.843 60.7219C161.006 60.4897 162.284 60.838 163.214 61.4185" stroke="black" stroke-width="0.5" stroke-miterlimit="10" stroke-linecap="round" stroke-linejoin="round"/>
<path d="M133.571 34.5987C141.359 39.0106 150.427 40.9844 159.262 40.1717C153.566 39.4751 149.264 34.7148 145.893 29.9546C152.171 33.6699 159.727 34.5987 167.051 35.6436C174.374 36.6886 181.931 38.1979 187.627 42.842C189.022 41.9132 190.417 40.8683 191.812 39.9395C192.16 39.7073 192.625 39.3589 192.858 38.8945C193.09 38.4301 193.09 37.8496 193.09 37.2691C192.742 26.0071 186.348 15.3256 177.513 8.24329C175.537 6.61785 173.444 5.1085 171.003 4.06358C163.563 0.812686 154.844 2.43813 147.404 5.57292C142.522 7.66277 137.872 10.3331 134.152 14.0485C131.013 17.1832 128.572 21.1307 127.526 25.4266C127.061 27.1681 126.828 28.4452 127.991 29.9546C129.386 32.0444 131.478 33.4377 133.571 34.5987Z" fill="#38322E"/>
<path d="M182.047 42.842C180.07 48.6472 180.419 53.7557 184.604 55.149C188.673 56.5422 194.95 53.6396 196.927 47.9506C198.903 42.1454 197.159 36.3402 193.09 34.947C188.905 33.4377 184.023 37.0369 182.047 42.842Z" fill="#F2B27E"/>
<path d="M195.997 37.153C195.997 37.153 188.905 38.4301 184.023 50.9692" stroke="black" stroke-width="0.5" stroke-miterlimit="10" stroke-linecap="round" stroke-linejoin="round"/>
<path d="M182.512 24.2656C173.677 23.4529 165.191 18.6926 156.356 18.4604C150.078 18.3443 144.149 20.5503 138.569 23.3368C132.757 26.3554 127.409 30.1869 122.411 34.7149C122.527 33.6699 122.527 32.625 122.76 31.6962C123.225 29.1419 124.038 26.8199 124.968 24.4978C126.828 20.202 129.502 16.3706 132.641 13.0036C137.988 11.7264 143.568 11.7264 149.032 13.0036C151.473 13.5841 153.798 14.3968 156.239 14.9773C167.632 17.6477 179.722 14.5129 188.324 6.73401C189.022 7.66283 189.719 8.59166 190.417 9.52049C192.974 13.3519 194.95 17.6477 196.578 21.9435C195.997 22.2918 195.299 22.524 194.602 22.7563C190.882 24.1495 186.697 24.73 182.512 24.2656Z" fill="#38322E"/>
<path d="M83.4672 64.089C83.3509 64.2051 83.3509 64.3212 83.2347 64.4373C78.9334 70.0103 77.3059 77.2087 77.7709 84.1749C78.2359 91.2572 80.5609 98.1073 83.8159 104.377C89.0471 114.594 96.6033 123.766 105.903 130.5C115.203 137.234 126.596 141.298 138.104 141.646C145.893 141.878 154.496 140.02 159.494 133.983C164.958 127.481 164.726 117.613 161.471 109.834C160.657 107.744 159.494 105.77 158.099 104.029C156.472 102.171 154.496 100.662 152.403 99.2683C145.079 94.6242 136.826 91.7216 129.967 86.2647C126.363 83.3621 123.224 79.7629 120.783 75.8154C118.342 71.6357 116.366 66.7594 113.343 62.928C110.437 59.3288 104.625 57.5872 100.207 57.355C94.6271 57.1228 87.0709 59.561 83.4672 64.089Z" fill="#FFCCCC"/>
<path d="M117.761 65.3662C125.433 74.4222 128.688 86.497 120.783 92.4182C112.878 98.3395 102.183 93.3471 97.6496 88.2385C93.1159 83.13 91.1397 70.1264 95.6734 65.134C100.207 60.1415 109.972 56.3101 117.761 65.3662Z" fill="#F2B27E"/>
<path d="M105.206 95.0887C108.288 95.0887 110.786 92.5936 110.786 89.5157C110.786 86.4378 108.288 83.9427 105.206 83.9427C102.124 83.9427 99.6259 86.4378 99.6259 89.5157C99.6259 92.5936 102.124 95.0887 105.206 95.0887Z" fill="url(#paint3_radial_921_14938)"/>
<path d="M125.666 85.5681C128.748 85.5681 131.246 83.0731 131.246 79.9952C131.246 76.9173 128.748 74.4222 125.666 74.4222C122.584 74.4222 120.086 76.9173 120.086 79.9952C120.086 83.0731 122.584 85.5681 125.666 85.5681Z" fill="url(#paint4_radial_921_14938)"/>
<path d="M112.762 87.658C112.762 87.658 114.855 89.0513 116.947 88.1224C119.04 87.1936 119.272 85.1038 119.272 85.1038" stroke="black" stroke-width="0.5" stroke-miterlimit="10" stroke-linecap="round" stroke-linejoin="round"/>
<path d="M110.088 75.0027C109.158 74.6544 108.345 74.5383 107.415 74.4222C106.485 74.4222 105.671 74.5383 104.973 74.8866C104.16 75.2349 103.578 75.8155 102.997 76.5121C102.416 77.2087 101.951 77.9053 101.37 78.718C101.486 77.7892 101.835 76.8604 102.416 76.0477C102.648 75.5833 102.997 75.2349 103.346 74.8866C103.695 74.5383 104.16 74.3061 104.625 74.0739C105.555 73.6095 106.601 73.4934 107.531 73.7256C108.577 73.9578 109.391 74.3061 110.088 75.0027Z" fill="#5E4028"/>
<path d="M114.39 72.9129C114.39 72.2163 114.506 71.5197 114.855 70.8231C115.087 70.1265 115.552 69.5459 116.133 69.0815C116.366 68.8493 116.715 68.6171 117.18 68.501C117.528 68.3849 117.993 68.3849 118.342 68.501C119.156 68.6171 119.737 69.1976 120.086 69.7782C119.504 69.4298 118.807 69.1976 118.226 69.1976C117.645 69.1976 117.063 69.4298 116.598 69.7782C116.133 70.1265 115.668 70.5909 115.32 71.1714C115.087 71.7519 114.738 72.3324 114.39 72.9129Z" fill="#5E4028"/>
<path d="M106.485 82.085C106.485 82.085 107.88 78.9502 111.483 79.8791" stroke="black" stroke-width="0.5" stroke-miterlimit="10" stroke-linecap="round" stroke-linejoin="round"/>
<path d="M116.25 77.0926C116.25 77.0926 116.947 74.4223 120.318 75.235" stroke="black" stroke-width="0.5" stroke-miterlimit="10" stroke-linecap="round" stroke-linejoin="round"/>
<path d="M114.855 76.2799C114.971 77.4409 115.785 78.4859 116.947 78.9503C117.645 79.1825 118.342 79.1825 118.923 79.6469C119.388 79.9952 119.621 80.6918 119.621 81.2723C119.621 81.8529 119.272 82.4334 118.923 83.0139C118.923 83.0139 117.528 83.9427 115.785 82.8978C114.041 81.8529 113.343 79.2986 113.227 77.4409C113.111 75.6994 114.855 76.2799 114.855 76.2799Z" fill="url(#paint5_linear_921_14938)"/>
<path d="M114.855 76.2799C114.971 77.4409 115.785 78.4859 116.947 78.9503C117.645 79.1825 118.342 79.1825 118.923 79.6469C119.388 79.9952 119.621 80.6918 119.621 81.2723C119.621 81.8529 119.272 82.4334 118.923 83.0139" stroke="black" stroke-width="0.5" stroke-miterlimit="10" stroke-linecap="round" stroke-linejoin="round"/>
<path d="M77.5385 85.452C78.4684 87.658 80.4447 89.2834 82.3047 90.7928C84.7459 92.6504 87.3034 94.392 89.9772 95.7852C100.091 101.126 111.948 101.706 123.341 101.474C134.733 101.242 146.358 100.429 157.286 103.448" stroke="black" stroke-width="0.5" stroke-miterlimit="10" stroke-linecap="round" stroke-linejoin="round"/>
<path d="M129.618 86.1486C130.664 91.141 130.316 96.4818 128.804 101.358" stroke="black" stroke-width="0.5" stroke-miterlimit="10" stroke-linecap="round" stroke-linejoin="round"/>
<path d="M96.6034 122.953C94.6271 121.56 92.5347 120.051 90.5584 118.658C89.9772 118.193 89.2797 117.729 88.8147 117.148C88.3497 116.568 88.1172 115.639 88.3497 114.942C87.7684 114.362 87.0709 113.781 86.6059 112.968C86.1409 112.272 86.0247 111.343 86.3734 110.53C86.4897 110.414 86.4897 110.182 86.4897 110.066C86.4897 109.95 86.3734 109.718 86.3734 109.601C86.2572 109.021 86.6059 108.44 87.0709 108.208C87.5359 107.86 88.1172 107.86 88.6984 107.744C88.6984 107.279 89.0472 106.931 89.5122 106.699C90.0934 106.467 90.7909 106.583 91.3722 106.815C91.9534 107.047 92.5347 107.396 92.9997 107.86C94.0459 108.557 94.9759 109.369 96.0221 110.066C96.8359 110.646 97.6496 111.227 98.4634 111.691C100.207 112.504 102.067 112.852 103.927 112.968C104.857 112.968 105.671 112.968 106.485 113.085C106.95 113.201 107.763 113.317 108.112 112.736C108.577 112.156 108.112 111.343 107.531 110.763C105.438 108.673 102.532 107.512 100.556 105.422C100.207 105.073 99.9746 104.609 100.091 104.261C100.207 103.448 101.253 103.448 102.067 103.448C104.857 103.796 107.647 104.145 110.205 105.306C114.506 107.396 118.226 111.111 121.597 114.362C123.457 116.219 125.085 118.077 127.061 119.819L121.248 130.268C117.296 128.642 112.995 128.526 108.81 127.714C106.485 127.249 104.276 126.901 102.067 125.972C100.207 125.043 98.3471 124.114 96.6034 122.953Z" fill="#F2B27E"/>
<path d="M88.9309 107.86C91.4884 110.646 94.3946 113.201 97.6496 115.174" stroke="#333333" stroke-width="0.5" stroke-miterlimit="10" stroke-linecap="round" stroke-linejoin="round"/>
<path d="M86.8384 110.298C89.8609 113.201 93.2321 115.755 96.9521 117.961" stroke="#333333" stroke-width="0.5" stroke-miterlimit="10" stroke-linecap="round" stroke-linejoin="round"/>
<path d="M88.8146 115.058C91.2558 117.148 93.9296 119.122 96.8358 120.864" stroke="#333333" stroke-width="0.5" stroke-miterlimit="10" stroke-linecap="round" stroke-linejoin="round"/>
<path d="M204.25 82.3172C213.318 85.8003 216.689 96.714 210.877 108.557C205.064 120.399 186.464 145.593 174.025 147.219C161.587 148.844 121.364 131.197 121.364 131.197C121.364 131.197 120.318 126.669 122.411 122.837C124.503 119.006 127.293 119.586 127.293 119.586C127.758 119.586 128.339 119.702 128.804 119.702C132.176 119.935 135.663 120.167 139.034 120.283C143.684 120.515 148.334 120.863 153.101 121.096C153.798 121.096 164.377 121.908 164.377 121.792C164.377 121.444 164.493 121.212 164.609 120.863C164.609 120.863 164.609 120.747 164.726 120.747H164.842C165.307 120.631 166.237 120.631 166.586 120.283C166.702 120.167 166.702 119.819 166.818 119.702C166.934 119.238 167.167 118.774 167.283 118.309C167.748 117.148 172.049 116.452 172.747 115.407C175.188 111.807 177.629 108.092 180.07 104.493C182.395 101.01 184.72 97.5267 187.045 94.0436C188.092 92.5343 189.138 90.9088 190.184 89.3995C189.835 89.2834 195.183 78.8341 204.25 82.3172Z" fill="#CF6969"/>
<path d="M165.888 122.257C167.399 123.766 168.562 125.624 169.376 127.597" stroke="black" stroke-width="0.5" stroke-miterlimit="10" stroke-linecap="round" stroke-linejoin="round"/>
<path d="M208.552 112.736C201.112 125.508 185.069 145.71 174.025 147.219C170.538 147.683 163.912 146.058 157.286 144.548" stroke="black" stroke-width="0.5" stroke-miterlimit="10" stroke-linecap="round" stroke-linejoin="round"/>
<path d="M127.293 119.586C127.758 119.586 128.339 119.702 128.804 119.702C129.269 119.702 129.851 119.819 130.316 119.819" stroke="black" stroke-width="0.5" stroke-miterlimit="10" stroke-linecap="round" stroke-linejoin="round"/>
<path d="M137.872 120.283C138.221 120.283 138.686 120.283 139.034 120.399C142.987 120.631 146.939 120.863 150.892 121.096H151.589C152.054 121.096 152.519 121.212 153.101 121.212C153.798 121.212 164.377 122.024 164.377 121.908C164.377 121.56 164.493 121.328 164.609 120.98C164.609 120.98 164.609 120.863 164.726 120.863H164.842C165.307 120.747 166.237 120.747 166.586 120.399C166.702 120.283 166.702 119.935 166.818 119.818C166.934 119.354 167.167 118.89 167.283 118.425C167.748 117.264 172.049 116.568 172.747 115.523C175.188 111.923 177.629 108.208 180.07 104.609C182.395 101.126 184.72 97.6428 187.045 94.1597" stroke="black" stroke-width="0.5" stroke-miterlimit="10" stroke-linecap="round" stroke-linejoin="round"/>
<path d="M202.623 76.0476C201.925 73.0289 200.065 70.2424 197.508 68.5009C194.602 66.5271 191.579 66.8754 188.789 68.8492C187.51 69.778 186.348 70.939 185.418 72.2162C184.488 73.4933 183.442 74.4221 182.163 75.467C179.605 77.673 176.815 79.5307 174.142 81.7366C170.654 84.6392 167.399 88.0062 165.772 92.1859C165.074 94.0436 164.725 96.0173 164.493 97.9911C164.377 99.5004 164.377 101.01 164.609 102.519C164.842 103.68 165.307 104.841 165.888 105.886C167.98 109.95 171.468 113.201 175.653 114.942C179.838 116.684 184.72 116.684 188.905 114.942C186.232 114.246 184.255 111.807 183.558 109.137C182.977 106.467 183.558 103.564 184.837 101.126C185.999 98.5716 187.743 96.4817 189.487 94.2758C187.975 96.3656 186.813 98.6877 186.58 101.126C186.348 103.68 187.394 106.35 189.603 107.628C189.487 104.145 191.114 100.894 193.09 98.1072C195.067 95.3207 197.508 92.8825 199.368 89.9799C202.158 85.9163 203.669 80.8078 202.623 76.0476Z" fill="#38322E"/>
<path d="M250.285 101.474C240.985 115.987 232.964 131.197 226.105 146.987C223.664 152.676 221.339 158.481 217.852 163.706C216.224 166.144 207.622 177.754 205.064 171.717C203.437 167.653 210.295 156.972 212.039 153.256C217.968 140.833 225.175 128.875 233.894 118.077C239.009 112.156 244.356 106.583 250.285 101.474Z" fill="#FF9999"/>
<path d="M220.642 159.061C201.46 169.511 180.652 177.174 161.587 187.971C142.522 198.769 124.503 213.282 115.436 233.251L146.474 235.922C148.683 232.323 151.822 229.42 155.077 226.75C179.722 206.78 214.713 202.368 238.195 181.005C243.775 176.013 248.541 170.091 252.61 163.706C261.91 149.193 267.258 132.242 268.071 114.942C258.074 134.564 239.823 148.612 220.642 159.061Z" fill="#FFCCCC"/>
<path d="M268.071 115.755C266.56 127.946 258.888 138.395 250.75 147.683C246.798 152.211 242.845 156.507 238.195 160.339C230.639 166.492 221.92 170.904 213.085 175.084C197.508 182.514 181.582 189.481 166.934 198.653C152.287 207.941 138.918 219.783 130.664 234.877" stroke="black" stroke-width="0.5" stroke-miterlimit="10" stroke-linecap="round" stroke-linejoin="round"/>
<path d="M238.195 89.6317C241.726 89.6317 244.589 86.7727 244.589 83.246C244.589 79.7193 241.726 76.8604 238.195 76.8604C234.664 76.8604 231.801 79.7193 231.801 83.246C231.801 86.7727 234.664 89.6317 238.195 89.6317Z" stroke="#333333" stroke-width="0.5" stroke-miterlimit="10" stroke-linecap="round" stroke-linejoin="round"/>
<path d="M107.298 40.0557C110.829 40.0557 113.692 37.1967 113.692 33.67C113.692 30.1433 110.829 27.2843 107.298 27.2843C103.767 27.2843 100.905 30.1433 100.905 33.67C100.905 37.1967 103.767 40.0557 107.298 40.0557Z" stroke="#333333" stroke-width="0.5" stroke-miterlimit="10" stroke-linecap="round" stroke-linejoin="round"/>
<path d="M69.8659 110.762C71.0216 110.762 71.9584 109.827 71.9584 108.673C71.9584 107.518 71.0216 106.583 69.8659 106.583C68.7103 106.583 67.7734 107.518 67.7734 108.673C67.7734 109.827 68.7103 110.762 69.8659 110.762Z" fill="#333333"/>
<path d="M224.594 58.2838C225.75 58.2838 226.686 57.3482 226.686 56.194C226.686 55.0398 225.75 54.1041 224.594 54.1041C223.438 54.1041 222.501 55.0398 222.501 56.194C222.501 57.3482 223.438 58.2838 224.594 58.2838Z" fill="#333333"/>
<defs>
<radialGradient id="paint0_radial_921_14938" cx="0" cy="0" r="1" gradientUnits="userSpaceOnUse" gradientTransform="translate(169.038 58.4287) rotate(-177.814) scale(9.21989 9.20832)">
<stop stop-color="#E89575"/>
<stop offset="1" stop-color="#F2B27E"/>
</radialGradient>
<radialGradient id="paint1_radial_921_14938" cx="0" cy="0" r="1" gradientUnits="userSpaceOnUse" gradientTransform="translate(132.746 66.746) rotate(-177.814) scale(9.21989 9.20832)">
<stop stop-color="#E89575"/>
<stop offset="1" stop-color="#F2B27E"/>
</radialGradient>
<linearGradient id="paint2_linear_921_14938" x1="143.607" y1="62.9893" x2="146.072" y2="54.7827" gradientUnits="userSpaceOnUse">
<stop stop-color="#DB8965"/>
<stop offset="0.9996" stop-color="#F2B27E"/>
</linearGradient>
<radialGradient id="paint3_radial_921_14938" cx="0" cy="0" r="1" gradientUnits="userSpaceOnUse" gradientTransform="translate(105.253 89.5694) rotate(-40.2593) scale(5.57267 5.57152)">
<stop stop-color="#E89575"/>
<stop offset="1" stop-color="#F2B27E"/>
</radialGradient>
<radialGradient id="paint4_radial_921_14938" cx="0" cy="0" r="1" gradientUnits="userSpaceOnUse" gradientTransform="translate(125.63 80.0007) rotate(-40.2593) scale(5.57266 5.57151)">
<stop stop-color="#E89575"/>
<stop offset="1" stop-color="#F2B27E"/>
</radialGradient>
<linearGradient id="paint5_linear_921_14938" x1="119.059" y1="82.2608" x2="114.82" y2="79.2727" gradientUnits="userSpaceOnUse">
<stop stop-color="#DB8965"/>
<stop offset="0.9996" stop-color="#F2B27E"/>
</linearGradient>
</defs>
</svg>
