<svg width="40" height="40" viewBox="0 0 40 40" fill="none" xmlns="http://www.w3.org/2000/svg">
<path fill-rule="evenodd" clip-rule="evenodd" d="M27.1723 4.58374H12.7573C7.73232 4.58374 4.58398 8.14041 4.58398 13.1737V26.7554C4.58398 31.7887 7.71898 35.3454 12.7573 35.3454H27.1707C32.2107 35.3454 35.3457 31.7887 35.3457 26.7554V13.1737C35.3457 8.14041 32.2107 4.58374 27.1723 4.58374Z" stroke="#822156" stroke-opacity="0.8" stroke-width="1.5" stroke-linecap="round" stroke-linejoin="round"/>
<path opacity="0.4" fill-rule="evenodd" clip-rule="evenodd" d="M17.8388 14.6425C17.8388 16.3408 16.4605 17.7191 14.7621 17.7191C13.0655 17.7191 11.6871 16.3408 11.6871 14.6425C11.6871 12.9441 13.0655 11.5658 14.7621 11.5658C16.4605 11.5658 17.8388 12.9441 17.8388 14.6425Z" stroke="#822156" stroke-opacity="0.8" stroke-width="1.5" stroke-linecap="round" stroke-linejoin="round"/>
<path opacity="0.4" d="M35.3445 24.9174C33.6878 23.4758 32.2462 21.7408 30.3462 20.5958C28.4428 19.4508 26.3978 20.1574 25.0778 21.8658C23.8028 23.5174 23.0062 25.7391 21.0812 26.7808C18.7095 28.0658 17.3162 25.9941 15.3378 25.1641C13.1295 24.2391 11.4528 25.9024 10.1628 27.5008C8.87118 29.1008 7.56284 30.6841 6.24951 32.2674" stroke="#822156" stroke-opacity="0.8" stroke-width="1.5" stroke-linecap="round" stroke-linejoin="round"/>
</svg>
