<svg width="184" height="190" viewBox="0 0 184 190" fill="none" xmlns="http://www.w3.org/2000/svg">
<path d="M183.637 31.033V176.685C183.638 178.42 183.297 180.138 182.634 181.741C181.97 183.344 180.998 184.8 179.771 186.027C178.544 187.253 177.088 188.226 175.485 188.89C173.882 189.553 172.164 189.894 170.429 189.893H13.196C11.4619 189.893 9.74475 189.551 8.14273 188.887C6.54071 188.224 5.0852 187.251 3.85936 186.024C2.63352 184.797 1.66139 183.341 0.998499 181.739C0.335608 180.136 -0.00504636 178.419 -0.00399538 176.685V31.033C-0.00504636 29.2989 0.335608 27.5815 0.998499 25.9791C1.66139 24.3767 2.63352 22.9206 3.85936 21.694C5.0852 20.4675 6.54071 19.4944 8.14273 18.8306C9.74475 18.1667 11.4619 17.825 13.196 17.825H170.43C172.165 17.8241 173.883 18.1651 175.485 18.8286C177.088 19.492 178.545 20.4649 179.771 21.6915C180.998 22.9182 181.971 24.3746 182.634 25.9775C183.297 27.5804 183.638 29.2983 183.637 31.033V31.033Z" fill="#FF0D8C"/>
<path d="M183.637 58.204V176.685C183.638 178.42 183.297 180.138 182.634 181.741C181.97 183.344 180.998 184.8 179.771 186.027C178.544 187.254 177.088 188.226 175.485 188.89C173.882 189.553 172.164 189.894 170.429 189.893H13.196C11.4619 189.893 9.74475 189.551 8.14273 188.887C6.54071 188.224 5.0852 187.251 3.85936 186.024C2.63352 184.797 1.66139 183.341 0.998499 181.739C0.335608 180.136 -0.00504636 178.419 -0.00399538 176.685V58.204H183.637Z" fill="#FFE5F3"/>
<path d="M183.637 58.204H0V60.364H183.637V58.204Z" fill="#D31478"/>
<path d="M158.176 43.342C161.29 43.342 163.815 40.8174 163.815 37.703C163.815 34.5887 161.29 32.064 158.176 32.064C155.062 32.064 152.537 34.5887 152.537 37.703C152.537 40.8174 155.062 43.342 158.176 43.342Z" fill="#C3E5FF"/>
<path d="M31.098 37.706C31.1001 38.081 31.0602 38.455 30.979 38.821C30.7231 40.096 30.0336 41.2431 29.0277 42.0672C28.0217 42.8914 26.7614 43.3417 25.461 43.3417C24.1605 43.3417 22.9002 42.8914 21.8943 42.0672C20.8883 41.2431 20.1988 40.096 19.943 38.821C19.8618 38.455 19.8219 38.081 19.824 37.706C19.814 36.9595 19.9525 36.2184 20.2313 35.5259C20.5101 34.8333 20.9237 34.203 21.4481 33.6716C21.9725 33.1402 22.5972 32.7182 23.286 32.4302C23.9748 32.1422 24.7139 31.9939 25.4605 31.9939C26.2071 31.9939 26.9462 32.1422 27.635 32.4302C28.3238 32.7182 28.9485 33.1402 29.4729 33.6716C29.9973 34.203 30.4109 34.8333 30.6897 35.5259C30.9685 36.2184 31.1069 36.9595 31.097 37.706H31.098Z" fill="#D31478"/>
<path d="M30.98 38.817C30.7241 40.0921 30.0346 41.2391 29.0287 42.0633C28.0227 42.8874 26.7624 43.3378 25.462 43.3378C24.1616 43.3378 22.9013 42.8874 21.8953 42.0633C20.8894 41.2391 20.1999 40.0921 19.944 38.817C20.1999 37.542 20.8894 36.3949 21.8953 35.5708C22.9013 34.7466 24.1616 34.2963 25.462 34.2963C26.7624 34.2963 28.0227 34.7466 29.0287 35.5708C30.0346 36.3949 30.7241 37.542 30.98 38.817V38.817Z" fill="white"/>
<path d="M163.704 38.817C163.448 40.0921 162.759 41.2391 161.753 42.0633C160.747 42.8874 159.486 43.3378 158.186 43.3378C156.886 43.3378 155.625 42.8874 154.619 42.0633C153.613 41.2391 152.924 40.0921 152.668 38.817C152.924 37.542 153.613 36.3949 154.619 35.5708C155.625 34.7466 156.886 34.2963 158.186 34.2963C159.486 34.2963 160.747 34.7466 161.753 35.5708C162.759 36.3949 163.448 37.542 163.704 38.817V38.817Z" fill="white"/>
<path d="M89.208 82.202H70.381V101.029H89.208V82.202Z" stroke="white" stroke-width="0.5" stroke-miterlimit="10"/>
<path d="M108.035 82.202H89.208V101.029H108.035V82.202Z" stroke="white" stroke-width="0.5" stroke-miterlimit="10"/>
<path d="M126.862 82.202H108.035V101.029H126.862V82.202Z" stroke="white" stroke-width="0.5" stroke-miterlimit="10"/>
<path d="M32.728 101.029H13.901V119.856H32.728V101.029Z" stroke="white" stroke-width="0.5" stroke-miterlimit="10"/>
<path d="M51.555 101.029H32.728V119.856H51.555V101.029Z" stroke="white" stroke-width="0.5" stroke-miterlimit="10"/>
<path d="M70.382 101.029H51.555V119.856H70.382V101.029Z" stroke="white" stroke-width="0.5" stroke-miterlimit="10"/>
<path d="M89.208 101.029H70.381V119.856H89.208V101.029Z" stroke="white" stroke-width="0.5" stroke-miterlimit="10"/>
<path d="M108.035 101.029H89.208V119.856H108.035V101.029Z" stroke="white" stroke-width="0.5" stroke-miterlimit="10"/>
<path d="M126.862 101.029H108.035V119.856H126.862V101.029Z" stroke="white" stroke-width="0.5" stroke-miterlimit="10"/>
<path d="M32.728 119.856H13.901V138.683H32.728V119.856Z" stroke="white" stroke-width="0.5" stroke-miterlimit="10"/>
<path d="M51.555 119.856H32.728V138.683H51.555V119.856Z" stroke="white" stroke-width="0.5" stroke-miterlimit="10"/>
<path d="M70.382 119.856H51.555V138.683H70.382V119.856Z" stroke="white" stroke-width="0.5" stroke-miterlimit="10"/>
<path d="M89.208 119.856H70.381V138.683H89.208V119.856Z" stroke="white" stroke-width="0.5" stroke-miterlimit="10"/>
<path d="M108.035 119.856H89.208V138.683H108.035V119.856Z" stroke="white" stroke-width="0.5" stroke-miterlimit="10"/>
<path d="M126.862 119.856H108.035V138.683H126.862V119.856Z" stroke="white" stroke-width="0.5" stroke-miterlimit="10"/>
<path d="M32.728 138.682H13.901V157.509H32.728V138.682Z" stroke="white" stroke-width="0.5" stroke-miterlimit="10"/>
<path d="M51.555 138.682H32.728V157.509H51.555V138.682Z" stroke="white" stroke-width="0.5" stroke-miterlimit="10"/>
<path d="M70.382 138.682H51.555V157.509H70.382V138.682Z" stroke="white" stroke-width="0.5" stroke-miterlimit="10"/>
<path d="M89.208 138.682H70.381V157.509H89.208V138.682Z" stroke="white" stroke-width="0.5" stroke-miterlimit="10"/>
<path d="M108.035 138.682H89.208V157.509H108.035V138.682Z" stroke="white" stroke-width="0.5" stroke-miterlimit="10"/>
<path d="M126.862 138.682H108.035V157.509H126.862V138.682Z" stroke="white" stroke-width="0.5" stroke-miterlimit="10"/>
<path d="M32.728 157.509H13.901V176.336H32.728V157.509Z" stroke="white" stroke-width="0.5" stroke-miterlimit="10"/>
<path d="M51.555 157.509H32.728V176.336H51.555V157.509Z" stroke="white" stroke-width="0.5" stroke-miterlimit="10"/>
<path d="M70.382 157.509H51.555V176.336H70.382V157.509Z" stroke="white" stroke-width="0.5" stroke-miterlimit="10"/>
<path d="M89.208 157.509H70.381V176.336H89.208V157.509Z" stroke="white" stroke-width="0.5" stroke-miterlimit="10"/>
<path d="M108.035 157.509H89.208V176.336H108.035V157.509Z" stroke="white" stroke-width="0.5" stroke-miterlimit="10"/>
<path d="M145.689 82.202H126.862V101.029H145.689V82.202Z" stroke="white" stroke-width="0.5" stroke-miterlimit="10"/>
<path d="M145.689 101.029H126.862V119.856H145.689V101.029Z" stroke="white" stroke-width="0.5" stroke-miterlimit="10"/>
<path d="M145.689 119.856H126.862V138.683H145.689V119.856Z" stroke="white" stroke-width="0.5" stroke-miterlimit="10"/>
<path d="M145.689 138.682H126.862V157.509H145.689V138.682Z" stroke="white" stroke-width="0.5" stroke-miterlimit="10"/>
<path d="M13.529 73.224C13.7637 73.2293 13.9397 73.2107 14.057 73.168C14.1797 73.1253 14.265 73.048 14.313 72.936C14.361 72.8187 14.385 72.6453 14.385 72.416V67.416H15.561V72.448C15.5557 72.8267 15.5103 73.1333 15.425 73.368C15.3397 73.5973 15.1903 73.7707 14.977 73.888C14.769 74 14.4757 74.056 14.097 74.056H13.529V73.224ZM17.5144 67.416H18.7784L20.0744 73.896H18.9784L18.7224 72.4H17.5944L17.3304 73.896H16.2184L17.5144 67.416ZM18.5944 71.648L18.1544 68.928L17.7144 71.648H18.5944ZM20.7261 67.416H21.5501L23.1261 71.112V67.416H24.1021V73.896H23.3181L21.7341 70.024V73.896H20.7261V67.416ZM26.8614 73.984C26.3921 73.984 26.0241 73.8987 25.7574 73.728C25.4908 73.5573 25.3041 73.3147 25.1974 73C25.0908 72.6853 25.0374 72.2853 25.0374 71.8V67.416H26.1894V71.936C26.1894 72.3093 26.2321 72.5973 26.3174 72.8C26.4081 73.0027 26.5894 73.104 26.8614 73.104C27.1388 73.104 27.3201 73.0027 27.4054 72.8C27.4961 72.5973 27.5414 72.3093 27.5414 71.936V67.416H28.6854V71.8C28.6854 72.28 28.6321 72.68 28.5254 73C28.4188 73.3147 28.2321 73.5573 27.9654 73.728C27.6988 73.8987 27.3308 73.984 26.8614 73.984ZM30.5847 67.416H31.8487L33.1447 73.896H32.0487L31.7927 72.4H30.6647L30.4007 73.896H29.2887L30.5847 67.416ZM31.6647 71.648L31.2247 68.928L30.7847 71.648H31.6647ZM33.7964 67.416H35.3564C36.039 67.416 36.5484 67.5467 36.8844 67.808C37.2204 68.064 37.3884 68.5067 37.3884 69.136C37.3884 69.5467 37.327 69.8827 37.2044 70.144C37.087 70.4 36.8817 70.5867 36.5884 70.704L37.4924 73.896H36.3084L35.5324 70.928H34.9724V73.896H33.7964V67.416ZM35.3484 70.192C35.6844 70.192 35.9217 70.1147 36.0604 69.96C36.2044 69.8053 36.2764 69.552 36.2764 69.2C36.2764 68.8587 36.2124 68.6107 36.0844 68.456C35.9617 68.3013 35.7377 68.224 35.4124 68.224H34.9724V70.192H35.3484ZM39.1691 71.424L37.8571 67.416H38.9611L39.7611 69.984L40.5131 67.416H41.5931L40.2971 71.424V73.896H39.1691V71.424Z" fill="#FF0D8C"/>
<path d="M126.507 75.335L140.307 71.344L143.549 46.394C143.549 46.394 133.079 44.3 133.288 44.949C133.497 45.598 126.507 75.335 126.507 75.335Z" fill="#152777"/>
<path d="M88.574 99.953C88.764 101.046 86.948 102.363 83.974 103.525C81.711 104.39 79.3759 105.054 76.996 105.508C76.545 105.602 76.082 105.686 75.608 105.769C74.026 106.059 72.4298 106.265 70.826 106.386C70.326 106.409 69.865 106.433 69.449 106.433C66.672 106.42 65.58 105.685 65.367 104.451C65.153 103.181 65.913 101.698 68.63 100.464C69.1089 100.246 69.6001 100.055 70.101 99.893C71.5084 99.436 72.9485 99.087 74.409 98.849C75.133 98.732 75.833 98.612 76.533 98.53C78.6083 98.2368 80.7033 98.1057 82.799 98.138C86.129 98.21 88.383 98.837 88.574 99.953Z" fill="#B3D1FA"/>
<path d="M132.907 74.572C130.486 80.065 118.987 107.738 109.328 127.153C105.602 134.641 102.137 140.905 99.585 144.194C99.0794 144.861 98.51 145.477 97.885 146.033C89.139 153.354 86.991 153.579 84.725 151.846C83.313 150.779 80.536 150.198 77.688 147.255C75.455 144.791 73.7756 141.878 72.763 138.711C68.963 128.065 65.572 105.898 65.37 104.523C65.607 105.698 66.687 106.409 69.345 106.434C71.4447 106.389 73.5368 106.166 75.599 105.769C76.275 105.65 76.94 105.519 77.581 105.376C84.081 104.001 88.866 101.687 88.57 99.953C88.57 99.953 90.552 108.973 91.47 114.36C92.388 119.747 93.618 121.681 93.618 121.681C93.618 121.681 103.147 100.781 107.466 93.89C111.785 86.999 112.308 78.499 122.833 76.077C130.404 74.323 132.278 74.879 132.907 74.572Z" fill="#FBFCFE"/>
<path d="M109.328 127.153C105.602 134.641 102.137 140.905 99.585 144.194C99.0794 144.861 98.5101 145.477 97.885 146.033C89.139 153.354 86.991 153.579 84.725 151.846C83.313 150.779 80.536 150.198 77.688 147.255C77.3642 143.976 76.6308 140.751 75.505 137.655C72.016 128.565 70.023 112.639 69.346 106.434C71.4457 106.389 73.5378 106.166 75.6 105.769C76.276 105.65 76.941 105.519 77.582 105.376C79.445 113.328 86.245 140.145 92.653 137.655C96.082 136.338 93.745 135.234 103.986 117.873C103.988 117.873 107.038 122.667 109.328 127.153Z" fill="#EEF3FD"/>
<path d="M158.314 73.61C158.314 73.61 148.856 100.01 144.288 114.786C139.72 129.562 116.081 196.453 116.081 196.453C116.081 196.453 114.716 196.502 112.64 196.395C108.226 196.157 100.607 195.232 96.086 191.706V190.641C96.086 190.641 101.212 159.822 103.372 144.099C105.532 128.376 121.472 79.889 121.472 79.889L127.144 78.928L158.314 73.61Z" fill="#FF8F58"/>
<path d="M107.465 160.072C108.652 160.82 124.328 164.936 124.328 164.936C124.328 164.936 116.935 184.742 112.639 196.396C108.225 196.158 100.606 195.233 96.085 191.707V190.64C96.085 190.64 101.211 159.821 103.371 144.098C105.531 128.375 121.471 79.888 121.471 79.888L127.143 78.927C127.38 80.662 127.522 82.4086 127.57 84.159C118.445 101.165 116.664 114.99 114.327 121.208C111.986 127.45 106.267 159.336 107.465 160.072Z" fill="#EA6C2E"/>
<path d="M179.71 75.165L179.544 78.265L178.5 98.034L176.731 131.591C176.422 131.934 170.916 163.915 168.331 175.557C165.746 187.199 175.119 236.315 175.119 236.315L148.573 237.904L110.16 240.195C107.371 221.872 109.626 202.529 111.786 184.255C113.008 173.919 114.325 163.44 115.986 153.033C117.517 143.363 119.332 133.761 121.635 124.363C122.098 122.488 122.62 120.626 123.225 118.798C126.445 108.865 131.519 99.632 138.177 91.588C143.837 84.718 148.465 77.278 154.684 70.788C155.238 70.193 155.828 69.633 156.451 69.111H156.463C157.111 68.5652 157.861 68.1538 158.67 67.901C161.17 67.177 163.785 68.506 165.932 69.978C170.323 72.981 174.726 73.538 179.71 75.165Z" fill="#E0E9FB"/>
<path d="M179.709 75.165L179.543 78.265C169.516 82.94 139.849 143.709 135.612 147.911C132.918 150.581 122.962 152.211 115.984 153.036C117.515 143.366 119.33 133.764 121.633 124.366C122.096 122.491 122.618 120.629 123.223 118.801C126.443 108.868 131.517 99.635 138.175 91.591C143.835 84.721 148.463 77.281 154.682 70.791C155.236 70.1949 155.827 69.6339 156.451 69.111H156.463C157.111 68.5652 157.861 68.1538 158.67 67.901C161.17 67.177 163.785 68.506 165.932 69.978C170.323 72.981 174.725 73.538 179.709 75.165Z" fill="#E0E9FB"/>
<path d="M168.329 175.557C165.742 187.185 175.117 236.315 175.117 236.315L148.571 237.904C145.45 224.044 140.632 200.227 143.053 194.639C146.53 186.629 156.937 153.947 156.937 153.947C156.937 153.947 164.282 129.669 167.392 121.884C168.875 118.146 173.729 107.821 178.499 98.031L176.731 131.591C176.423 131.934 170.916 163.915 168.329 175.557Z" fill="#FBFCFE"/>
<path d="M145.961 89.144C146.346 91.8819 146.994 94.5763 147.895 97.19C147.895 97.19 127.769 112.865 123.224 118.798C126.444 108.865 131.518 99.6319 138.176 91.588C143.836 84.718 148.464 77.278 154.683 70.788C155.237 70.194 155.828 69.6349 156.451 69.114H156.463C156.463 69.114 157.531 85.014 158.101 85.586C153.783 87.095 150.956 87.645 145.961 89.144Z" fill="#FBFCFE"/>
<path d="M125.644 81.818C126.578 82.699 131.25 82.795 136.495 82.836C136.106 77.803 136.439 72.771 135.152 67.736C133.051 70.227 124.391 80.639 125.644 81.818Z" fill="#DB9A81"/>
<path d="M150.956 81.075C147.219 74.521 142.43 68.432 135.494 64.44C135.586 65.3587 135.624 66.2819 135.607 67.205C135.601 67.212 135.434 67.405 135.153 67.741C136.441 72.774 136.107 77.806 136.496 82.841C139.256 82.864 142.171 82.871 144.79 82.968C147.003 83.0709 149.182 82.4017 150.956 81.075V81.075Z" fill="#FFC2B3"/>
<path d="M135.043 71.473C134.996 71.544 134.948 71.627 134.901 71.698C131.377 77.573 127.935 83.388 124.672 89.309C121.943 94.269 119.308 99.3 116.828 104.473C115.072 108.129 113.066 111.89 111.642 115.746V115.758C111.322 116.602 111.037 117.458 110.788 118.311C109.635 122.497 108.715 126.743 108.035 131.031C105.602 145.154 104 159.417 102.553 173.657C101.509 183.897 100.132 194.329 100.132 204.64C100.132 215.629 103.372 235.992 103.372 235.992L94.959 231.792C94.959 231.792 91.933 197.292 94.959 179.755C97.985 162.218 99.813 134.829 100.133 119.639C100.453 104.449 118.562 82.163 121.79 77.31C124.46 73.299 131.758 71.934 134.214 71.578C134.31 71.5695 134.405 71.5538 134.499 71.531C134.853 71.498 135.043 71.473 135.043 71.473Z" fill="#E0E9FB"/>
<path d="M134.901 71.698C131.377 77.573 127.935 83.388 124.672 89.309C121.943 94.269 119.308 99.3 116.828 104.473C115.072 108.129 113.066 111.89 111.642 115.746C112.142 106.515 116.59 91.397 116.59 91.397L123.781 89.142C122.42 87.1936 121.319 85.0757 120.506 82.842C125.706 79.211 133.215 72.482 134.212 71.581C134.295 71.51 134.331 71.473 134.331 71.473L134.497 71.534L134.901 71.698Z" fill="#FBFCFE"/>
<path d="M135.608 67.202C135.608 67.202 131.821 69.816 129.868 71.478C127.915 73.14 119.525 89.148 119.525 89.148C119.525 89.148 132.453 84.891 131.483 84.327C130.513 83.763 135.608 67.202 135.608 67.202Z" fill="#FF8F58"/>
<path d="M131.485 84.327V89.735L125.646 87.035L131.485 84.327Z" fill="#EA6C2E"/>
<path d="M135.61 67.202L135.04 71.478L134.394 83.854L131.484 89.734C131.484 89.734 130.984 77.92 131.484 74.95C131.984 71.98 135.61 67.202 135.61 67.202Z" fill="#EA6C2E"/>
<path d="M107.465 165.209C107.465 165.209 104.902 164.604 101.816 163.749C97.781 162.649 92.833 161.138 91.468 160.035C89.035 158.101 84.407 153.793 84.728 151.847C86.995 153.58 90.104 152.405 98.849 145.072C99.7035 146.4 100.453 147.793 101.092 149.237L107.465 165.209Z" fill="#FFC2B3"/>
<path d="M101.817 163.749C97.782 162.649 92.834 161.138 91.469 160.035C89.036 158.101 84.408 153.793 84.729 151.847C86.996 153.58 90.105 152.405 98.85 145.072C98.34 151.029 95.682 153.472 95.527 155.146C95.372 156.82 101.306 158.588 101.306 158.588L101.817 163.749Z" fill="#E5B19F"/>
<path d="M188.859 98.341C187.881 103.809 186.272 109.144 184.065 114.241C182.058 118.953 179.657 123.486 176.886 127.793C170.027 139.113 161.447 150.636 151.23 159.167C142.615 166.346 135.174 172.315 123.403 172.103C111.453 171.888 99.812 170.382 99.812 170.382C98.9734 168.118 98.3999 165.764 98.103 163.368C97.474 158.277 97.961 151.479 103.372 146.79C103.372 146.79 124.672 142.15 125.646 142.15C126.62 142.15 139.246 122.439 146.674 110.478C151.907 102.066 155.479 91.848 161.982 84.325C165.198 80.598 167.322 77.417 172.14 75.84C173.862 75.2697 175.666 74.9813 177.48 74.986C179.064 74.9423 180.636 75.2757 182.066 75.9586C183.495 76.6416 184.742 77.6545 185.704 78.914C189.547 83.858 189.749 92.458 188.859 98.341Z" fill="#FBFCFE"/>
<path d="M188.859 98.341C187.881 103.809 186.272 109.144 184.065 114.241C182.058 118.953 179.657 123.486 176.886 127.793C170.027 139.113 161.447 150.636 151.23 159.167C142.615 166.346 135.174 172.315 123.403 172.103C111.453 171.888 99.812 170.382 99.812 170.382C98.9734 168.118 98.3999 165.764 98.103 163.368C102.624 163.748 123.177 165.955 131.876 164.378C141.676 162.598 152.488 150.878 159.905 140.941C167.322 131.004 189.24 90.484 185.705 78.914C189.547 83.862 189.749 92.455 188.859 98.341Z" fill="#EEF3FD"/>
<path d="M138.595 78.913C137.015 80.3984 135.607 82.0557 134.395 83.854C133.162 85.6727 132.183 87.6509 131.485 89.734C139.49 89.963 144.785 82.966 144.785 82.966L138.595 78.913Z" fill="#EA6C2E"/>
<path d="M156.446 60.268L158.227 49.098L134.774 61.339C134.974 62.2923 135.112 63.2577 135.185 64.229C142.062 68.323 146.761 74.482 150.399 81.09C153.768 78.69 155.522 74.5 156.163 72.201C156.406 71.328 155.888 70.472 154.982 69.683C155.688 69.402 156.082 69.207 156.082 69.207L156.446 60.268Z" fill="#DB9A81"/>
<path d="M138.595 78.912C141.189 83.2215 144.691 86.9141 148.857 89.733C154.757 73.74 159.927 71.328 160.573 67.202C161.219 63.076 156.695 60.166 156.695 60.166C151.848 68.892 138.595 78.912 138.595 78.912Z" fill="#FF8F58"/>
<path d="M124.123 20.031C124.675 27.971 125.15 35.916 125.549 43.866C125.901 50.922 125.349 58.06 125.049 65.143C124.849 69.859 124.815 74.743 126.659 79.197C128.046 82.547 131.115 85.459 134.738 85.554C132.261 80.7522 130.923 75.445 130.826 70.043C130.744 67.35 130.828 64.6545 131.079 61.972C131.291 59.524 132.063 56.791 131.752 54.358C130.652 45.708 129.996 36.966 129.38 28.233C129.312 27.29 127.88 17.756 128.636 17.294L124.123 20.031Z" fill="#203197"/>
<path d="M165.427 33.495C165.387 33.838 165.345 34.182 165.293 34.513C164.679 39.3559 163.118 44.0307 160.699 48.271C159.714 49.9892 158.556 51.6028 157.245 53.087C155.252 55.3436 152.888 57.2433 150.256 58.704C147.946 59.9721 145.467 60.9028 142.893 61.468C142.593 61.534 142.285 61.602 141.976 61.657C138.657 62.272 134.004 63.082 131.205 60.584C129.878 59.2313 128.879 57.5923 128.285 55.793C125.488 48.6803 124.21 41.0611 124.533 33.425C124.603 31.931 124.601 30.483 124.586 29.058C124.571 27.693 124.566 26.341 124.61 24.988C124.66 22.6596 125.01 20.3473 125.65 18.108C128.185 9.63603 135.399 1.72003 144.873 2.25203C145.665 2.29854 146.453 2.39877 147.231 2.55204C150.262 3.21665 153.118 4.51099 155.616 6.35106C158.114 8.19114 160.198 10.5358 161.731 13.233C163.261 15.8626 164.349 18.7252 164.953 21.707C165.733 25.5866 165.893 29.5654 165.427 33.495V33.495Z" fill="#FFC2B3"/>
<path d="M165.427 33.494C165.387 33.837 165.345 34.181 165.293 34.512C164.555 39.522 162.643 43.612 160.699 48.27C159.714 49.9881 158.556 51.6018 157.245 53.086C155.252 55.3426 152.888 57.2422 150.256 58.703C147.946 59.971 145.467 60.9018 142.893 61.467C144.285 61.158 145.951 58.612 146.823 57.545C147.983 56.1177 148.933 54.5316 149.643 52.835C150.942 49.4262 151.69 45.8322 151.859 42.188C152.519 33.7 150.99 25.1847 147.417 17.457C146.877 16.5061 146.545 15.451 146.444 14.362C146.416 10.562 154.244 10.594 156.98 10.073L164.95 21.702C165.732 25.5827 165.893 29.5629 165.427 33.494V33.494Z" fill="#DFA48D"/>
<path d="M155.976 4.05201C155.922 4.25722 155.844 4.45527 155.743 4.64201C154.919 6.21001 152.386 7.79102 150.943 8.78802C148.652 10.372 144.655 12.634 141.695 11.45C139.658 17.662 124.595 16.371 124.47 27.787C123.442 25.9273 122.737 23.9061 122.387 21.81C121.825 18.4807 122.38 15.0589 123.966 12.078C125.61 9.05807 127.912 6.44678 130.703 4.4377C133.493 2.42861 136.7 1.07322 140.085 0.472012C144.472 -0.382442 149.006 -0.0721221 153.236 1.37202C154.717 1.88102 156.351 2.55001 155.976 4.05201Z" fill="#152781"/>
<path d="M177.009 75.396C176.829 74.765 168.673 71.665 168.043 71.796C167.219 72.3554 166.443 72.983 165.724 73.672C164.535 74.617 163.462 75.772 162.354 76.827C160.766 78.334 159.189 79.827 157.495 81.206C156.883 81.695 156.258 82.172 155.624 82.625C151.558 85.497 146.424 87.438 141.589 86.263C142.334 86.44 145.189 82.555 145.664 81.955C146.939 80.313 148.054 78.553 148.994 76.699C150.693 72.9972 151.865 69.0758 152.477 65.049C153.895 57.0245 154.565 48.8855 154.477 40.737C154.634 34.8857 152.67 29.1749 148.947 24.658C146.936 22.2509 144.728 20.0149 142.347 17.973C140.273 16.198 138.489 13.217 139.433 10.382C139.891 9.16839 140.636 8.08399 141.605 7.22202C146.626 2.35902 156.022 0.136029 162.049 4.35503C165.443 6.73203 167.739 10.386 169.415 14.279C170.35 16.5204 171.14 18.8195 171.781 21.162C175.708 34.962 173.595 57.434 176.129 71.523C176.184 71.855 176.249 72.189 176.303 72.51C176.426 73.069 176.537 73.617 176.683 74.142C176.771 74.571 176.884 74.988 177.009 75.396Z" fill="#203197"/>
<path d="M128.743 35.429C128.729 36.452 128.268 37.274 127.717 37.267C127.166 37.26 126.729 36.422 126.744 35.4C126.759 34.378 127.219 33.555 127.772 33.563C128.325 33.571 128.756 34.408 128.743 35.429Z" fill="#002B5D"/>
<path d="M141.334 35.615C141.319 36.638 140.767 37.459 140.102 37.45C139.437 37.441 138.909 36.603 138.925 35.58C138.941 34.557 139.491 33.736 140.157 33.747C140.823 33.758 141.348 34.592 141.334 35.615Z" fill="#002B5D"/>
<path d="M128.225 30.223C127.58 30.2287 126.942 30.3591 126.347 30.607C126.077 30.721 125.816 30.8574 125.569 31.015C125.436 31.0915 125.312 31.1806 125.196 31.281C125.088 31.3968 124.995 31.5254 124.919 31.664C124.903 31.6921 124.896 31.7241 124.898 31.7562C124.9 31.7883 124.912 31.819 124.931 31.8448C124.95 31.8705 124.977 31.8901 125.007 31.9012C125.037 31.9122 125.07 31.9142 125.101 31.907C125.23 31.876 125.367 31.851 125.493 31.807C125.638 31.76 125.772 31.679 125.912 31.62C126.146 31.5225 126.388 31.4442 126.635 31.386C127.149 31.2508 127.68 31.1892 128.212 31.203C128.342 31.2049 128.468 31.1549 128.562 31.064C128.655 30.9732 128.709 30.8489 128.711 30.7185C128.712 30.5882 128.662 30.4624 128.571 30.3689C128.481 30.2755 128.356 30.2219 128.226 30.22L128.225 30.223Z" fill="#002B5D"/>
<path d="M142.672 31.949C142.52 31.7366 142.322 31.5605 142.094 31.433C141.899 31.2957 141.698 31.1691 141.489 31.054C141.024 30.8157 140.537 30.6241 140.034 30.482C139.54 30.3396 139.036 30.2392 138.525 30.182C137.998 30.127 137.466 30.1459 136.944 30.238C136.31 30.338 136.444 31.378 137.078 31.357C137.965 31.305 138.856 31.3648 139.728 31.535C140.163 31.6369 140.589 31.7751 141.001 31.948C141.201 32.026 141.395 32.1 141.586 32.19C141.792 32.318 142.016 32.417 142.249 32.484C142.545 32.526 142.849 32.254 142.672 31.949Z" fill="#002B5D"/>
<path d="M132.677 45.975C132.459 45.9676 132.242 45.9391 132.029 45.89C131.91 45.8667 131.793 45.8332 131.679 45.79L131.56 45.721L131.514 45.671L131.539 45.437C131.619 45.2328 131.722 45.0385 131.846 44.858C132.093 44.4322 132.287 43.9774 132.423 43.504C132.589 43.0083 132.589 42.4718 132.423 41.976C132.397 41.9309 132.36 41.8933 132.315 41.8669C132.27 41.8405 132.219 41.8263 132.167 41.8256C132.115 41.8249 132.064 41.8377 132.018 41.8629C131.972 41.888 131.934 41.9246 131.907 41.969C131.775 42.2227 131.675 42.4913 131.607 42.769C131.514 43.029 131.424 43.291 131.322 43.546C131.112 44.071 130.736 44.501 130.522 45.021C130.394 45.3014 130.365 45.6171 130.44 45.9162C130.514 46.2153 130.689 46.4801 130.934 46.667C131.455 46.9856 132.052 47.1583 132.663 47.167C132.822 47.1694 132.976 47.1085 133.09 46.9977C133.204 46.8868 133.27 46.7352 133.272 46.576C133.274 46.4169 133.213 46.2633 133.103 46.1491C132.992 46.0349 132.84 45.9694 132.681 45.967L132.677 45.975Z" fill="#DB9A81"/>
<path d="M129.62 52.414C130.185 52.9151 130.901 53.2126 131.655 53.259C132.386 53.385 133.129 53.4206 133.868 53.365C134.629 53.3116 135.384 53.1829 136.12 52.981C136.494 52.8691 136.861 52.7355 137.22 52.581C137.562 52.4874 137.861 52.2778 138.065 51.988C138.089 51.9468 138.103 51.9006 138.107 51.8531C138.111 51.8055 138.104 51.7577 138.086 51.7133C138.069 51.6688 138.042 51.6288 138.007 51.5962C137.972 51.5636 137.931 51.5393 137.885 51.525C137.583 51.4495 137.265 51.4697 136.975 51.583C136.643 51.673 136.307 51.744 135.975 51.827C135.291 52.0138 134.594 52.1456 133.889 52.221C133.228 52.2802 132.563 52.2583 131.907 52.156C131.578 52.101 131.263 52.01 130.941 51.925C130.617 51.8043 130.277 51.7286 129.932 51.7C129.85 51.7021 129.771 51.7274 129.703 51.7731C129.635 51.8187 129.581 51.8828 129.549 51.9577C129.516 52.0327 129.505 52.1154 129.518 52.1963C129.531 52.2771 129.566 52.3526 129.62 52.414V52.414Z" fill="#DB9A81"/>
<path d="M132.952 55.081L133.116 55.303L133.241 55.358L133.373 55.414C133.504 55.4446 133.639 55.4554 133.773 55.446L134.073 55.454H134.224C134.303 55.4591 134.383 55.4476 134.458 55.4202C134.532 55.3929 134.601 55.3502 134.658 55.295C134.712 55.2427 134.753 55.1784 134.777 55.1073C134.802 55.0363 134.809 54.9605 134.799 54.886L134.743 54.703L134.57 54.525C134.394 54.387 134.157 54.45 133.955 54.475L133.648 54.512L133.501 54.53L133.426 54.539L133.269 54.598L133.15 54.662C133.074 54.6987 133.013 54.7603 132.977 54.8366C132.941 54.9128 132.932 54.9991 132.952 55.081Z" fill="#DB9A81"/>
<path d="M83.969 103.523C81.706 104.388 79.3709 105.052 76.991 105.506C76.54 105.6 76.077 105.684 75.603 105.767C74.021 106.057 72.4247 106.263 70.821 106.384C70.321 106.407 69.86 106.431 69.444 106.431C69.171 104.437 68.886 102.456 68.625 100.462C68.554 100.011 68.494 99.572 68.435 99.121C67.984 95.763 67.545 92.404 67.142 89.045C66.893 87.064 65.125 83.255 65.706 81.392C65.9118 80.817 66.3044 80.3276 66.821 80.002C67.3655 79.6547 67.9467 79.3686 68.554 79.149C70.7249 78.1433 73.0537 77.5211 75.437 77.31C75.6507 77.3021 75.8647 77.3061 76.078 77.322C77.1556 77.2892 78.2248 77.5219 79.1912 77.9998C80.1577 78.4776 80.9918 79.1858 81.62 80.062C80.469 82.472 81.098 85.368 81.335 87.941C81.6077 90.8617 81.9993 93.7693 82.51 96.664C82.593 97.164 82.688 97.648 82.795 98.135C83.127 99.9403 83.5183 101.736 83.969 103.523Z" fill="#FFC2B3"/>
<path d="M65.326 77.313C65.3836 77.3028 65.443 77.315 65.492 77.347C65.279 77.36 65.207 77.347 65.326 77.313Z" fill="#4268DB"/>
<path d="M76.528 98.53C76.623 101.544 76.86 104.177 76.991 105.508C76.54 105.602 76.077 105.686 75.603 105.769C74.021 106.059 72.4248 106.265 70.821 106.386C70.643 104.937 70.37 102.481 70.097 99.894C69.765 96.773 69.444 93.452 69.349 91.394C68.967 87.5086 68.1182 83.6834 66.821 80.001C67.3655 79.6537 67.9467 79.3677 68.554 79.148C70.725 78.1423 73.0537 77.5201 75.437 77.309C75.6507 77.3012 75.8647 77.3052 76.078 77.321L77.087 84.321L78.087 84.796C76.552 87.672 76.362 93.606 76.528 98.53Z" fill="#E5B19F"/>
<path d="M64.64 55.956C64.803 55.529 63.965 47.356 64.64 45.003C65.315 42.65 67.767 42.557 68.352 46.276L64.64 55.956Z" fill="#FFC2B3"/>
<path d="M64.64 55.956C64.64 55.956 63.3 53.169 61.64 54.056C60.9199 54.434 60.3136 54.9971 59.8835 55.6874C59.4533 56.3776 59.215 57.17 59.193 57.983C59.193 59.352 62.124 62.521 62.124 62.521L64.64 55.956Z" fill="#FFC2B3"/>
<path d="M71.061 85.298C70.4258 85.4566 69.7761 85.5501 69.122 85.577C67.641 85.611 66.382 84.363 65.481 83.277C63.435 80.802 62.75 77.455 61.79 74.522C61.135 72.522 60.667 70.452 59.972 68.465C59.34 66.659 56.057 62.497 58.483 60.925C60.453 59.647 61.427 61.153 62.12 62.525L83.954 72.569L79.941 83.826C78.316 85.451 76.719 84.626 74.771 84.626C73.513 84.7098 72.2685 84.9352 71.061 85.298V85.298Z" fill="#FFC2B3"/>
<path d="M78.087 84.797C70.981 82.839 75.767 74.884 78.511 73.706C74.062 71.326 63.453 67.258 63.453 67.258C63.453 67.258 65.953 73.151 68.353 75.673C70.753 78.195 74.187 82.759 71.062 85.298C73.277 87.542 78.087 84.797 78.087 84.797Z" fill="#E5B19F"/>
<path d="M95.2531 32.1853L78.6193 25.8062C77.4555 25.3598 76.1502 25.9415 75.7038 27.1054L60.4595 66.8555C60.0132 68.0193 60.5948 69.3247 61.7587 69.771L78.3924 76.1501C79.5563 76.5964 80.8616 76.0148 81.3079 74.8509L96.5523 35.1008C96.9986 33.937 96.4169 32.6316 95.2531 32.1853Z" fill="#203197"/>
<path d="M93.8849 34.8215L77.8739 28.6812C76.9246 28.3172 75.8599 28.7916 75.4958 29.741L62.0676 64.7554C61.7036 65.7047 62.178 66.7695 63.1273 67.1335L79.1383 73.2738C80.0876 73.6379 81.1524 73.1634 81.5165 72.2141L94.9446 37.1997C95.3087 36.2503 94.8342 35.1856 93.8849 34.8215Z" fill="#FBFCFE"/>
<path d="M84.326 66.984C84.836 61.413 85.049 58.897 87.977 57.462C90.905 56.027 90.121 58.77 89.437 61.314C88.753 63.858 90.416 64.154 88.458 68.363C86.5 72.572 84.346 77.956 83.368 79.521C82.314 81.0251 81.1695 82.4638 79.941 83.829C79.941 83.829 79.841 78.641 79.941 78.348C80.041 78.055 81.549 74.224 81.549 74.224L84.326 66.984Z" fill="#FFC2B3"/>
</svg>
