<svg width="26" height="22" viewBox="0 0 26 22" fill="none" xmlns="http://www.w3.org/2000/svg">
<path d="M22.6667 20.6917H2.93335C1.61432 20.7312 0.511596 19.6968 0.466682 18.3779V3.27085C0.511592 1.95217 1.61452 0.918175 2.93335 0.958346H22.6667C23.9855 0.918175 25.0884 1.95217 25.1334 3.27085V18.3792C25.0878 19.6975 23.9852 20.7312 22.6667 20.6917ZM2.93335 3.42501V18.2114L22.6667 18.225V3.43858L2.93335 3.42501ZM14.5637 15.7583H5.40002C5.4907 14.7372 5.97394 13.7911 6.74805 13.119C7.60993 12.264 8.76802 11.7737 9.98185 11.75C11.1957 11.7737 12.3538 12.264 13.2156 13.119C13.9896 13.7912 14.4727 14.7373 14.5637 15.7583ZM20.2 14.525H16.5V12.0583H20.2V14.525ZM9.98185 10.825C9.32087 10.848 8.68003 10.5955 8.21237 10.1278C7.74471 9.66016 7.49221 9.01932 7.51518 8.35835C7.49258 7.69748 7.7452 7.05685 8.21278 6.58928C8.68036 6.1217 9.32098 5.86908 9.98185 5.89168C10.6427 5.86908 11.2833 6.1217 11.7509 6.58928C12.2185 7.05685 12.4711 7.69748 12.4485 8.35835C12.4715 9.01932 12.219 9.66016 11.7513 10.1278C11.2837 10.5955 10.6428 10.848 9.98185 10.825ZM20.2 9.59168H15.2667V7.12501H20.2V9.59168Z" fill="#2E3A59" stroke="white" stroke-width="0.925"/>
</svg>
