<svg width="32" height="32" viewBox="0 0 32 32" fill="none" xmlns="http://www.w3.org/2000/svg">
<path d="M16 26.5C21.799 26.5 26.5 21.799 26.5 16C26.5 10.201 21.799 5.5 16 5.5C10.201 5.5 5.5 10.201 5.5 16C5.5 21.799 10.201 26.5 16 26.5Z" fill="white" stroke="#FFE0F2"/>
<path d="M8.7563 15.0746C8.86928 13.5912 9.47415 12.1878 10.4751 11.0871C11.5945 9.7994 13.155 8.97679 14.8501 8.78086C15.416 8.66409 16.004 8.72095 16.5371 8.944C17.0701 9.16704 17.5234 9.54586 17.8376 10.0309C18.1761 10.502 18.3695 11.0619 18.3939 11.6416C18.4183 12.2212 18.2728 12.7954 17.9751 13.2934C17.8525 13.4994 17.7009 13.6867 17.5251 13.8496L13.8438 17.5309C13.4049 17.9641 12.843 18.2513 12.2348 18.3531C11.6265 18.4549 11.0017 18.3664 10.4457 18.0997C9.88964 17.833 9.42955 17.401 9.12829 16.8629C8.82703 16.3248 8.69929 15.7068 8.76255 15.0934L8.7563 15.0746ZM13.2438 11.8496C13.0613 11.8428 12.8793 11.8732 12.7089 11.9388C12.5384 12.0044 12.3831 12.1038 12.2522 12.2312C12.1213 12.3586 12.0176 12.5112 11.9474 12.6798C11.8772 12.8484 11.842 13.0295 11.8438 13.2121C11.8397 13.3942 11.8717 13.5754 11.9382 13.745C12.0047 13.9146 12.1042 14.0694 12.2309 14.2002C12.3577 14.331 12.5092 14.4354 12.6766 14.5072C12.8441 14.579 13.0241 14.6168 13.2063 14.6184C13.5744 14.6201 13.9283 14.4767 14.1915 14.2194C14.4547 13.962 14.606 13.6114 14.6126 13.2434C14.6167 13.061 14.5844 12.8797 14.5175 12.71C14.4506 12.5403 14.3504 12.3857 14.2229 12.2552C14.0954 12.1248 13.9431 12.0212 13.7749 11.9505C13.6068 11.8797 13.4262 11.8433 13.2438 11.8434V11.8496Z" fill="#E3498A"/>
<path d="M16.6124 23.2504C16.0344 23.2648 15.4656 23.1042 14.9804 22.7897C14.4953 22.4752 14.1165 22.0214 13.8937 21.4879C13.6429 20.9378 13.5684 20.3236 13.6802 19.7295C13.7921 19.1353 14.085 18.5903 14.5187 18.1691C15.7437 16.9191 16.9708 15.692 18.1999 14.4879C18.5807 14.0885 19.0701 13.8094 19.6077 13.685C20.1452 13.5606 20.7075 13.5964 21.2249 13.7879C21.758 13.9327 22.2358 14.2329 22.5976 14.6503C22.9594 15.0677 23.1886 15.5834 23.2562 16.1316C23.37 17.0531 23.225 17.988 22.8374 18.8316C22.3884 20.0235 21.6171 21.0672 20.6095 21.8464C19.6019 22.6255 18.3977 23.1094 17.1312 23.2441H16.6124V23.2504ZM18.7687 20.1691C19.1375 20.1691 19.4912 20.0226 19.752 19.7618C20.0128 19.501 20.1593 19.1473 20.1593 18.7785C20.1593 18.4097 20.0128 18.056 19.752 17.7952C19.4912 17.5344 19.1375 17.3879 18.7687 17.3879C18.3999 17.3879 18.0462 17.5344 17.7854 17.7952C17.5246 18.056 17.3781 18.4097 17.3781 18.7785C17.3781 19.1473 17.5246 19.501 17.7854 19.7618C18.0462 20.0226 18.3999 20.1691 18.7687 20.1691Z" fill="#2238FF"/>
<path d="M13.2437 11.8435C13.4261 11.8426 13.6068 11.8782 13.7753 11.9482C13.9437 12.0182 14.0965 12.1211 14.2246 12.2509C14.3527 12.3808 14.4535 12.5349 14.5212 12.7043C14.5889 12.8737 14.622 13.0549 14.6187 13.2372C14.6121 13.6053 14.4609 13.9559 14.1977 14.2133C13.9345 14.4706 13.5805 14.6139 13.2124 14.6122C13.0303 14.6106 12.8502 14.5728 12.6828 14.501C12.5153 14.4293 12.3638 14.3249 12.2371 14.1941C12.1103 14.0632 12.0108 13.9085 11.9443 13.7389C11.8779 13.5693 11.8458 13.3881 11.8499 13.206C11.8482 13.0239 11.8832 12.8434 11.953 12.6752C12.0228 12.507 12.126 12.3547 12.2562 12.2274C12.3864 12.1001 12.541 12.0005 12.7107 11.9345C12.8804 11.8685 13.0617 11.8376 13.2437 11.8435Z" fill="#FEDB55"/>
<path d="M18.7687 20.1685C18.4943 20.166 18.2268 20.0822 18 19.9277C17.7732 19.7732 17.5973 19.5549 17.4946 19.3004C17.3919 19.046 17.3669 18.7668 17.4229 18.4981C17.4789 18.2295 17.6132 17.9834 17.809 17.7911C18.0048 17.5989 18.2532 17.4689 18.5228 17.4178C18.7924 17.3667 19.0711 17.3967 19.3237 17.504C19.5763 17.6113 19.7914 17.7911 19.9418 18.0206C20.0922 18.2501 20.1711 18.5191 20.1687 18.7935C20.1671 18.9757 20.1295 19.1558 20.0583 19.3235C19.9871 19.4912 19.8835 19.6433 19.7535 19.771C19.6235 19.8986 19.4696 19.9995 19.3006 20.0677C19.1317 20.1359 18.9509 20.1701 18.7687 20.1685Z" fill="#FEDB55"/>
</svg>
