<svg width="27" height="27" viewBox="0 0 27 27" fill="none" xmlns="http://www.w3.org/2000/svg">
<g filter="url(#filter0_ddi_309_5876)">
<g clip-path="url(#clip0_309_5876)">
<g clip-path="url(#clip1_309_5876)">
<path d="M6.65052 20.0551L3.85325 22.8523C3.80724 22.8988 3.75248 22.9356 3.69213 22.9608C3.63179 22.986 3.56706 22.9989 3.50169 22.9989C3.43631 22.9989 3.37159 22.986 3.31124 22.9608C3.2509 22.9356 3.19614 22.8988 3.15013 22.8523C3.1035 22.8064 3.06647 22.7517 3.04119 22.6914C3.01592 22.631 3.0029 22.5662 3.0029 22.5008C3.0029 22.4353 3.01592 22.3706 3.04119 22.3102C3.06647 22.2498 3.1035 22.1951 3.15013 22.1492L5.94739 19.3516L6.65052 20.0551Z" fill="#99674E"/>
<path d="M17.9653 5.91527L15.4904 8.39014L17.6104 10.5101L20.0852 8.0352L17.9653 5.91527Z" fill="#876657"/>
<path d="M19.7325 12.6325L18.5997 11.4997L14.0755 6.97504L13.3681 6.26762C13.2729 6.18127 13.1482 6.13492 13.0197 6.13822C12.8913 6.14153 12.769 6.19423 12.6785 6.28535C12.5879 6.37648 12.5359 6.49903 12.5334 6.62748C12.5309 6.75594 12.578 6.88043 12.6649 6.97504L13.3681 7.68246L12.6602 8.39067L11.9571 9.09379L11.2497 9.80121L10.5392 10.5102L9.83212 11.2176L8.41806 12.6325L7.71494 13.3375L7.00752 14.045L5.76806 15.2825L5.76064 15.2903C5.52938 15.5248 5.40035 15.8413 5.40174 16.1707C5.40314 16.5001 5.53483 16.8155 5.76806 17.0481L5.94502 17.225L5.76845 17.4016C5.53409 17.636 5.40243 17.9539 5.40243 18.2854C5.40243 18.6169 5.53409 18.9348 5.76845 19.1692L6.82822 20.2332C7.06263 20.4676 7.38053 20.5993 7.71201 20.5993C8.04348 20.5993 8.36138 20.4676 8.5958 20.2332L8.77275 20.0567L8.9497 20.2336C9.00888 20.2939 9.07436 20.3476 9.14502 20.3938C9.34911 20.5282 9.58813 20.5998 9.83252 20.5998C10.0769 20.5998 10.3159 20.5282 10.52 20.3938C10.5822 20.3536 10.6405 20.3077 10.6942 20.2567L18.3177 12.6325L19.0251 13.3399C19.0711 13.3883 19.1263 13.4271 19.1875 13.4538C19.2487 13.4806 19.3147 13.4948 19.3815 13.4957C19.4483 13.4966 19.5146 13.484 19.5765 13.4589C19.6383 13.4337 19.6946 13.3964 19.7418 13.3492C19.789 13.3019 19.8263 13.2457 19.8515 13.1838C19.8767 13.122 19.8892 13.0557 19.8883 12.9889C19.8874 12.9221 19.8732 12.8561 19.8465 12.7949C19.8197 12.7337 19.781 12.6785 19.7325 12.6325ZM22.5606 6.26762L19.7325 3.4395C19.5932 3.30009 19.4279 3.18949 19.2459 3.114C19.0638 3.0385 18.8687 2.9996 18.6717 2.99951C18.2737 2.99933 17.892 3.15724 17.6104 3.43852C17.3289 3.71979 17.1706 4.10139 17.1705 4.49935C17.1703 4.89732 17.3282 5.27906 17.6095 5.56059L20.4395 8.39067C20.7214 8.66942 21.1021 8.82527 21.4985 8.82416C21.895 8.82305 22.2748 8.66506 22.5551 8.38473C22.8354 8.1044 22.9933 7.72451 22.9943 7.3281C22.9954 6.93169 22.8394 6.55098 22.5606 6.26918V6.26762Z" fill="url(#paint0_linear_309_5876)" fill-opacity="0.8"/>
<g opacity="0.12">
<path opacity="0.12" d="M14.5527 10.9875C14.5064 11.0342 14.4513 11.0713 14.3906 11.0966C14.3299 11.1219 14.2648 11.1349 14.199 11.1349C14.1332 11.1349 14.0681 11.1219 14.0074 11.0966C13.9467 11.0713 13.8916 11.0342 13.8453 10.9875L11.9554 9.09375L12.6586 8.39062L14.5512 10.2805C14.6449 10.3741 14.6977 10.5011 14.698 10.6337C14.6983 10.7662 14.6461 10.8934 14.5527 10.9875Z" fill="#17292D"/>
</g>
<g opacity="0.12">
<path opacity="0.12" d="M12.6602 11.925C12.5665 12.0174 12.4402 12.0691 12.3086 12.0691C12.1771 12.0691 12.0508 12.0174 11.9571 11.925L10.5391 10.5102L11.2465 9.80273L12.659 11.2176C12.706 11.2637 12.7433 11.3187 12.7689 11.3794C12.7944 11.4401 12.8076 11.5052 12.8077 11.571C12.8078 11.6369 12.7948 11.7021 12.7695 11.7628C12.7442 11.8236 12.707 11.8787 12.6602 11.925Z" fill="#17292D"/>
</g>
<path d="M14.783 16.1674L10.6955 20.2557C10.6418 20.3067 10.5834 20.3526 10.5212 20.3928C10.3171 20.5272 10.0781 20.5988 9.83374 20.5988C9.58935 20.5988 9.35033 20.5272 9.14624 20.3928C9.07558 20.3465 9.0101 20.2928 8.95092 20.2326L8.77397 20.0557L5.94428 17.2283L5.76733 17.0514C5.5341 16.8188 5.4024 16.5034 5.40101 16.174C5.39962 15.8446 5.52865 15.5281 5.75991 15.2936L9.83334 11.2178L14.783 16.1674Z" fill="#45B665"/>
<path opacity="0.12" d="M12.3078 14.4002C12.2135 14.4931 12.0864 14.5452 11.954 14.5452C11.8217 14.5452 11.6946 14.4931 11.6003 14.4002L9.12534 11.9252L9.83276 11.2178L12.3078 13.6928C12.4014 13.7867 12.454 13.9139 12.454 14.0465C12.454 14.1791 12.4014 14.3063 12.3078 14.4002Z" fill="#17292D"/>
<path opacity="0.12" d="M9.83281 14.7523C9.7865 14.799 9.73141 14.836 9.6707 14.8613C9.60999 14.8866 9.54487 14.8997 9.4791 14.8997C9.41333 14.8997 9.34821 14.8866 9.2875 14.8613C9.22679 14.836 9.17169 14.799 9.12539 14.7523L7.71289 13.3374L8.41601 12.6343L9.83085 14.0468C9.9241 14.1404 9.97662 14.267 9.97698 14.3991C9.97735 14.5312 9.92553 14.6581 9.83281 14.7523Z" fill="#FFE0F2"/>
<path opacity="0.12" d="M8.89532 16.6449C8.80157 16.7372 8.6753 16.7889 8.54376 16.7889C8.41222 16.7889 8.28595 16.7372 8.1922 16.6449L6.29807 14.7523L7.00548 14.0449L8.89532 15.9375C8.989 16.0314 9.0416 16.1586 9.0416 16.2912C9.0416 16.4238 8.989 16.551 8.89532 16.6449Z" fill="#17292D"/>
<path opacity="0.3" d="M19.7325 13.3397C19.6382 13.4326 19.5111 13.4847 19.3788 13.4847C19.2464 13.4847 19.1193 13.4326 19.025 13.3397L18.3176 12.6322L10.718 20.2322C10.6581 20.2926 10.5918 20.3463 10.5204 20.3924C10.3167 20.5281 10.0775 20.6005 9.83286 20.6005C9.58818 20.6005 9.34898 20.5281 9.14536 20.3924C9.07464 20.3463 9.00915 20.2926 8.95005 20.2322L8.06763 19.3498L16.5504 10.8646L17.2579 10.1572L18.6004 11.4998L19.0254 11.9248L19.7329 12.6322C19.8265 12.7262 19.879 12.8534 19.8789 12.986C19.8789 13.1186 19.8262 13.2458 19.7325 13.3397Z" fill="#17292D"/>
</g>
</g>
</g>
<defs>
<filter id="filter0_ddi_309_5876" x="-2" y="-2" width="31" height="31" filterUnits="userSpaceOnUse" color-interpolation-filters="sRGB">
<feFlood flood-opacity="0" result="BackgroundImageFix"/>
<feColorMatrix in="SourceAlpha" type="matrix" values="0 0 0 0 0 0 0 0 0 0 0 0 0 0 0 0 0 0 127 0" result="hardAlpha"/>
<feOffset dx="2" dy="2"/>
<feGaussianBlur stdDeviation="1"/>
<feColorMatrix type="matrix" values="0 0 0 0 0.682353 0 0 0 0 0.682353 0 0 0 0 0.752941 0 0 0 0.3 0"/>
<feBlend mode="normal" in2="BackgroundImageFix" result="effect1_dropShadow_309_5876"/>
<feColorMatrix in="SourceAlpha" type="matrix" values="0 0 0 0 0 0 0 0 0 0 0 0 0 0 0 0 0 0 127 0" result="hardAlpha"/>
<feOffset dx="-1" dy="-1"/>
<feGaussianBlur stdDeviation="1"/>
<feColorMatrix type="matrix" values="0 0 0 0 1 0 0 0 0 1 0 0 0 0 1 0 0 0 1 0"/>
<feBlend mode="normal" in2="effect1_dropShadow_309_5876" result="effect2_dropShadow_309_5876"/>
<feBlend mode="normal" in="SourceGraphic" in2="effect2_dropShadow_309_5876" result="shape"/>
<feColorMatrix in="SourceAlpha" type="matrix" values="0 0 0 0 0 0 0 0 0 0 0 0 0 0 0 0 0 0 127 0" result="hardAlpha"/>
<feMorphology radius="0.2" operator="erode" in="SourceAlpha" result="effect3_innerShadow_309_5876"/>
<feOffset dx="1.5" dy="1.5"/>
<feGaussianBlur stdDeviation="3.5"/>
<feComposite in2="hardAlpha" operator="arithmetic" k2="-1" k3="1"/>
<feColorMatrix type="matrix" values="0 0 0 0 1 0 0 0 0 1 0 0 0 0 1 0 0 0 0.2 0"/>
<feBlend mode="normal" in2="shape" result="effect3_innerShadow_309_5876"/>
</filter>
<linearGradient id="paint0_linear_309_5876" x1="7.5" y1="15.5" x2="25.5" y2="16.5" gradientUnits="userSpaceOnUse">
<stop stop-color="#9FDDFF"/>
<stop offset="0.963542" stop-color="#6BCAFF"/>
</linearGradient>
<clipPath id="clip0_309_5876">
<rect width="20" height="20" fill="white" transform="translate(3 3)"/>
</clipPath>
<clipPath id="clip1_309_5876">
<rect width="20" height="20" fill="white" transform="translate(3.00003 3)"/>
</clipPath>
</defs>
</svg>
