<svg width="60" height="24" viewBox="0 0 60 24" fill="none" xmlns="http://www.w3.org/2000/svg">
<path d="M8 5.3335V9.3335H8.00667L8 9.34016L10.6667 12.0002L8 14.6668L8.00667 14.6735H8V18.6668H16V14.6735H15.9933L16 14.6668L13.3333 12.0002L16 9.34016L15.9933 9.3335H16V5.3335H8Z" fill="#EFB625"/>
<path d="M25.1921 16V8.3H26.3581V16H25.1921ZM27.8766 16V10.544H28.9106L28.9986 11.501C29.1673 11.1637 29.413 10.8997 29.7356 10.709C30.0656 10.511 30.4433 10.412 30.8686 10.412C31.5286 10.412 32.0456 10.6173 32.4196 11.028C32.801 11.4387 32.9916 12.051 32.9916 12.865V16H31.8366V12.986C31.8366 11.93 31.404 11.402 30.5386 11.402C30.106 11.402 29.7466 11.556 29.4606 11.864C29.182 12.172 29.0426 12.612 29.0426 13.184V16H27.8766ZM35.808 16L33.762 10.544H34.983L36.501 14.889L38.019 10.544H39.229L37.194 16H35.808ZM40.8472 9.51C40.6272 9.51 40.4439 9.444 40.2972 9.312C40.1579 9.17267 40.0882 9.00033 40.0882 8.795C40.0882 8.58967 40.1579 8.421 40.2972 8.289C40.4439 8.14967 40.6272 8.08 40.8472 8.08C41.0672 8.08 41.2469 8.14967 41.3862 8.289C41.5329 8.421 41.6062 8.58967 41.6062 8.795C41.6062 9.00033 41.5329 9.17267 41.3862 9.312C41.2469 9.444 41.0672 9.51 40.8472 9.51ZM40.2642 16V10.544H41.4302V16H40.2642ZM45.2574 16C44.7221 16 44.2968 15.8717 43.9814 15.615C43.6661 15.351 43.5084 14.8853 43.5084 14.218V11.523H42.5734V10.544H43.5084L43.6514 9.158H44.6744V10.544H46.2144V11.523H44.6744V14.218C44.6744 14.5187 44.7368 14.7277 44.8614 14.845C44.9934 14.955 45.2171 15.01 45.5324 15.01H46.1594V16H45.2574ZM49.829 16.132C49.2937 16.132 48.817 16.0147 48.399 15.78C47.9884 15.538 47.6657 15.2043 47.431 14.779C47.1964 14.3537 47.079 13.8587 47.079 13.294C47.079 12.722 47.1927 12.2197 47.42 11.787C47.6547 11.3543 47.9774 11.017 48.388 10.775C48.806 10.533 49.29 10.412 49.84 10.412C50.3754 10.412 50.841 10.533 51.237 10.775C51.633 11.0097 51.941 11.325 52.161 11.721C52.381 12.117 52.491 12.5533 52.491 13.03C52.491 13.1033 52.4874 13.184 52.48 13.272C52.48 13.3527 52.4764 13.4443 52.469 13.547H48.223C48.2597 14.075 48.432 14.4783 48.74 14.757C49.0554 15.0283 49.4184 15.164 49.829 15.164C50.159 15.164 50.434 15.0907 50.654 14.944C50.8814 14.79 51.05 14.5847 51.16 14.328H52.326C52.1794 14.8413 51.886 15.2703 51.446 15.615C51.0134 15.9597 50.4744 16.132 49.829 16.132ZM49.829 11.369C49.4404 11.369 49.0957 11.4863 48.795 11.721C48.4944 11.9483 48.311 12.293 48.245 12.755H51.325C51.303 12.3297 51.1527 11.9923 50.874 11.743C50.5954 11.4937 50.247 11.369 49.829 11.369ZM56.1869 16.132C55.6589 16.132 55.1932 16.0073 54.7899 15.758C54.3865 15.5087 54.0712 15.1677 53.8439 14.735C53.6165 14.3023 53.5029 13.811 53.5029 13.261C53.5029 12.711 53.6165 12.2233 53.8439 11.798C54.0712 11.3653 54.3865 11.028 54.7899 10.786C55.2005 10.5367 55.6699 10.412 56.1979 10.412C56.6305 10.412 57.0082 10.4963 57.3309 10.665C57.6609 10.8337 57.9175 11.072 58.1009 11.38V8.08H59.2669V16H58.2219L58.1009 15.153C57.9249 15.4097 57.6829 15.637 57.3749 15.835C57.0669 16.033 56.6709 16.132 56.1869 16.132ZM56.3959 15.12C56.8945 15.12 57.3015 14.9477 57.6169 14.603C57.9395 14.2583 58.1009 13.8147 58.1009 13.272C58.1009 12.722 57.9395 12.2783 57.6169 11.941C57.3015 11.5963 56.8945 11.424 56.3959 11.424C55.8972 11.424 55.4865 11.5963 55.1639 11.941C54.8412 12.2783 54.6799 12.722 54.6799 13.272C54.6799 13.6313 54.7532 13.9503 54.8999 14.229C55.0465 14.5077 55.2482 14.7277 55.5049 14.889C55.7689 15.043 56.0659 15.12 56.3959 15.12Z" fill="#F2994A"/>
</svg>
