<svg width="11" height="12" viewBox="0 0 11 12" fill="none" xmlns="http://www.w3.org/2000/svg">
<path d="M9.14457 11.4299C9.33467 11.4291 9.52172 11.3948 9.69002 11.3299C9.9144 11.2426 10.1013 11.1112 10.2299 10.9506C10.3584 10.7899 10.4236 10.6062 10.4182 10.4199L10.4073 1.54293C10.4127 1.35643 10.3473 1.17249 10.2185 1.01164C10.0897 0.850782 9.90249 0.719326 9.67775 0.631931C9.46185 0.550464 9.21699 0.519718 8.97643 0.543872C8.73588 0.568026 8.51129 0.645905 8.33321 0.766932L1.41002 5.19993C1.26444 5.29914 1.14831 5.4193 1.0689 5.55291C0.989497 5.68651 0.948513 5.83069 0.948513 5.97643C0.948513 6.12218 0.989497 6.26635 1.0689 6.39996C1.14831 6.53356 1.26444 6.65372 1.41002 6.75293L8.34548 11.1999C8.56357 11.3468 8.84847 11.4288 9.14457 11.4299V11.4299Z" fill="#231F20"/>
</svg>
