<svg width="19" height="28" viewBox="0 0 19 28" fill="none" xmlns="http://www.w3.org/2000/svg">
<path d="M15.7648 27.0749C15.3474 27.0721 14.9459 26.9141 14.6383 26.6317L14.6384 26.6316L14.6293 26.6235L1.92023 15.5113C1.70615 15.311 1.53526 15.069 1.4181 14.8002C1.29999 14.5292 1.23903 14.2368 1.23903 13.9412C1.23903 13.6456 1.29999 13.3532 1.4181 13.0822C1.53524 12.8134 1.7061 12.5715 1.92014 12.3712L14.6065 1.29408L14.6121 1.28922L14.6175 1.28419C14.8687 1.05142 15.1854 0.901634 15.5247 0.855181C15.863 0.808865 16.2073 0.867512 16.5112 1.02316C16.8401 1.19826 17.1142 1.46105 17.3029 1.78242C17.4921 2.10469 17.5882 2.4732 17.5802 2.84685L17.5801 2.84685L17.5801 2.8579L17.6001 25.0504H17.6L17.6002 25.0606C17.6082 25.4337 17.5124 25.8016 17.3236 26.1235C17.1349 26.445 16.8608 26.7078 16.5317 26.8828C16.295 27.0069 16.0321 27.0728 15.7648 27.0749Z" stroke="black"/>
</svg>
