<svg width="26" height="32" viewBox="0 0 26 32" fill="none" xmlns="http://www.w3.org/2000/svg">
<path d="M23.2172 16.9449C22.6299 16.3523 21.9314 15.8816 21.1617 15.5597C20.392 15.2378 19.5662 15.0712 18.7319 15.0694C17.8976 15.0675 17.0712 15.2305 16.3001 15.5489C15.5289 15.8674 14.8283 16.335 14.2384 16.925L9.92712 21.2363L14.411 25.7201C15.5518 26.8608 17.0845 27.5238 18.6969 27.574C20.3094 27.6242 21.8804 27.058 23.09 25.9905L23.2045 25.876C24.3856 24.6908 25.0499 23.0864 25.0523 21.4131C25.0547 19.7398 24.395 18.1335 23.2172 16.9449Z" fill="url(#paint0_linear_1152_2609)"/>
<path opacity="0.45" d="M24.119 24.7121C23.7322 24.9443 23.3216 25.1341 22.8943 25.2784C22.2915 25.4829 21.6615 25.5958 21.0253 25.6132H20.9458H20.8257H20.6818H20.6022C20.5291 25.6132 20.4559 25.6068 20.3827 25.6013H20.3748C18.8637 25.4882 17.4436 24.8356 16.3737 23.7626L11.8906 19.2723L11.8843 19.2787L10.8241 18.2186C9.63606 17.0306 8.02476 16.3633 6.34466 16.3633C4.66456 16.3633 3.05326 17.0306 1.86519 18.2186L1.85564 18.2281C1.26734 18.8163 0.800663 19.5147 0.48227 20.2833C0.163876 21.0519 0 21.8757 0 22.7076C0 23.5395 0.163876 24.3633 0.48227 25.1319C0.800663 25.9005 1.26734 26.5988 1.85564 27.1871L2.98496 28.3164C4.15282 29.4843 5.5393 30.4108 7.06522 31.0429C8.59115 31.6749 10.2266 32.0003 11.8783 32.0003C13.5299 32.0003 15.1654 31.6749 16.6914 31.0429C18.2173 30.4108 19.6038 29.4843 20.7716 28.3164L23.2044 25.8764C23.5537 25.5254 23.8607 25.1346 24.119 24.7121Z" fill="black"/>
<path d="M24.119 24.7121C23.7322 24.9443 23.3216 25.1341 22.8943 25.2784C22.2915 25.4829 21.6615 25.5958 21.0253 25.6132H20.9458H20.8257H20.6818H20.6022C20.5291 25.6132 20.4559 25.6068 20.3827 25.6013H20.3748C18.8637 25.4882 17.4436 24.8356 16.3737 23.7626L11.8906 19.2723L11.8843 19.2787L10.8241 18.2186C9.63606 17.0306 8.02476 16.3633 6.34466 16.3633C4.66456 16.3633 3.05326 17.0306 1.86519 18.2186L1.85564 18.2281C1.26734 18.8163 0.800663 19.5147 0.48227 20.2833C0.163876 21.0519 0 21.8757 0 22.7076C0 23.5395 0.163876 24.3633 0.48227 25.1319C0.800663 25.9005 1.26734 26.5988 1.85564 27.1871L2.98496 28.3164C4.15282 29.4843 5.5393 30.4108 7.06522 31.0429C8.59115 31.6749 10.2266 32.0003 11.8783 32.0003C13.5299 32.0003 15.1654 31.6749 16.6914 31.0429C18.2173 30.4108 19.6038 29.4843 20.7716 28.3164L23.2044 25.8764C23.5537 25.5254 23.8607 25.1346 24.119 24.7121Z" fill="url(#paint1_linear_1152_2609)"/>
<path d="M14.7582 14.2221C17.3764 11.6039 17.3764 7.35898 14.7582 4.74079C12.14 2.1226 7.8951 2.1226 5.27691 4.74079C2.65872 7.35898 2.65872 11.6039 5.27691 14.2221C7.8951 16.8403 12.14 16.8403 14.7582 14.2221Z" fill="url(#paint2_linear_1152_2609)"/>
<defs>
<linearGradient id="paint0_linear_1152_2609" x1="29.484" y1="11.367" x2="18.3326" y2="26.5666" gradientUnits="userSpaceOnUse">
<stop stop-color="#FFFF2F"/>
<stop offset="0.393" stop-color="#FF9D52"/>
<stop offset="1" stop-color="#FF008C"/>
</linearGradient>
<linearGradient id="paint1_linear_1152_2609" x1="47.225" y1="24.041" x2="6.20054" y2="24.413" gradientUnits="userSpaceOnUse">
<stop stop-color="#FFFF2F"/>
<stop offset="0.393" stop-color="#FF9D52"/>
<stop offset="1" stop-color="#FF008C"/>
</linearGradient>
<linearGradient id="paint2_linear_1152_2609" x1="-11.7326" y1="9.31078" x2="82.1134" y2="10.0503" gradientUnits="userSpaceOnUse">
<stop stop-color="#FF008C"/>
<stop offset="0.358" stop-color="#FF526D"/>
<stop offset="1" stop-color="#FFE339"/>
</linearGradient>
</defs>
</svg>
