<svg width="4" height="14" viewBox="0 0 4 14" fill="none" xmlns="http://www.w3.org/2000/svg">
<path d="M1.99998 3.66658C2.91665 3.66658 3.66665 2.91658 3.66665 1.99992C3.66665 1.08325 2.91665 0.333252 1.99998 0.333252C1.08331 0.333252 0.333313 1.08325 0.333313 1.99992C0.333313 2.91658 1.08331 3.66658 1.99998 3.66658ZM1.99998 5.33325C1.08331 5.33325 0.333313 6.08325 0.333313 6.99992C0.333313 7.91658 1.08331 8.66658 1.99998 8.66658C2.91665 8.66658 3.66665 7.91658 3.66665 6.99992C3.66665 6.08325 2.91665 5.33325 1.99998 5.33325ZM1.99998 10.3333C1.08331 10.3333 0.333313 11.0833 0.333313 11.9999C0.333313 12.9166 1.08331 13.6666 1.99998 13.6666C2.91665 13.6666 3.66665 12.9166 3.66665 11.9999C3.66665 11.0833 2.91665 10.3333 1.99998 10.3333Z" fill="#FF1A84"/>
</svg>
