<svg width="32" height="32" viewBox="0 0 32 32" fill="none" xmlns="http://www.w3.org/2000/svg">
<rect width="32" height="32" rx="16" transform="matrix(-1 0 0 1 32 0)" fill="#FFE0F2"/>
<circle cx="29" cy="3" r="3" fill="#FF0000"/>
<g filter="url(#filter0_ddi_970_16402)">
<path d="M4.76883 18.7096C7.97159 21.3758 11.9993 22.8729 16.1804 22.9514C20.3615 23.0299 24.4435 21.6851 27.7458 19.1412L20.0674 9.34239C19.0252 10.1453 17.737 10.5697 16.4174 10.5449C15.0978 10.5201 13.8267 10.0476 12.8159 9.2062L4.76883 18.7096Z" fill="url(#paint0_linear_970_16402)"/>
<path d="M16.5407 19.9807C15.1609 20.0078 13.7988 19.6632 12.5939 18.9823C12.3072 18.8054 12.0479 18.5867 11.8243 18.3333C11.6542 18.1405 11.5339 17.9082 11.474 17.657C11.4141 17.4059 11.4165 17.1436 11.481 16.8936C11.5454 16.6436 11.6699 16.4136 11.8434 16.224C12.017 16.0345 12.2341 15.8912 12.4755 15.8071C13.0379 15.5974 13.0774 15.4876 12.9294 14.8885C12.8774 14.4382 12.6756 14.0192 12.3571 13.7003C12.3142 13.6515 12.2814 13.5945 12.2606 13.5327C12.2399 13.4709 12.2315 13.4055 12.2361 13.3403C12.2407 13.2752 12.2582 13.2116 12.2874 13.1534C12.3167 13.0952 12.3571 13.0435 12.4064 13.0014C12.5074 12.9037 12.6417 12.8492 12.7814 12.8492C12.9211 12.8492 13.0554 12.9037 13.1563 13.0014C13.4176 13.2275 13.6323 13.5034 13.788 13.8135C13.9438 14.1237 14.0376 14.4618 14.0641 14.8086C14.0641 14.9085 14.0641 15.0183 14.0641 15.1182C14.0641 15.8071 14.0641 15.8471 14.7449 16.0068C14.9324 16.0068 14.9916 16.1166 14.9817 16.3064C14.9688 16.8676 15.0455 17.4273 15.2087 17.9638C15.3073 18.3333 15.5737 18.533 15.8698 18.4631C15.9472 18.4465 16.0202 18.4132 16.0838 18.3656C16.1475 18.318 16.2003 18.2571 16.2386 18.187C16.277 18.117 16.3 18.0394 16.3062 17.9595C16.3123 17.8797 16.3015 17.7994 16.2743 17.7242C16.1068 17.0992 16.0798 16.4441 16.1954 15.8071C16.2834 15.2787 16.5213 14.7876 16.8801 14.3934C17.2388 13.9993 17.703 13.7191 18.2161 13.5869C18.7293 13.4547 19.2694 13.4762 19.7707 13.6487C20.272 13.8213 20.713 14.1376 21.0401 14.559C21.4297 15.0768 21.6349 15.7127 21.6224 16.3635C21.6099 17.0142 21.3803 17.6415 20.971 18.1435C20.2419 19.0796 19.1791 19.689 18.0109 19.841C17.528 19.9461 17.0345 19.993 16.5407 19.9807V19.9807Z" fill="white"/>
<path fill-rule="evenodd" clip-rule="evenodd" d="M12.2867 19.4929L12.2769 19.4868C11.9396 19.2788 11.635 19.0218 11.3727 18.7245C11.1378 18.4582 10.9724 18.1383 10.8903 17.7936C10.8081 17.449 10.8113 17.0893 10.8998 16.7462C10.9882 16.4031 11.1594 16.0862 11.3992 15.8243C11.6374 15.5641 11.9361 15.366 12.2696 15.2485C12.3155 15.2313 12.3539 15.2162 12.3862 15.2027C12.3768 15.1555 12.3639 15.0993 12.3467 15.0298L12.3377 14.9932L12.3334 14.9559C12.2966 14.6366 12.1537 14.3415 11.9308 14.1185L11.9174 14.105L11.9048 14.0907C11.8095 13.9822 11.7372 13.8563 11.6915 13.7204C11.6459 13.5846 11.6277 13.4413 11.6377 13.2986C11.6478 13.156 11.686 13.0165 11.7505 12.8882C11.8122 12.7654 11.8969 12.6549 12.0006 12.5632C12.2109 12.3662 12.4894 12.2546 12.7811 12.2546C13.0726 12.2546 13.3508 12.366 13.561 12.5627C13.877 12.8386 14.1361 13.1735 14.3244 13.5484C14.5148 13.9275 14.6293 14.3405 14.6616 14.7636L14.6633 14.786V15.118C14.6633 15.233 14.6636 15.3136 14.6655 15.374C14.7074 15.3856 14.7611 15.3992 14.8311 15.4159C15.0297 15.4333 15.2622 15.5147 15.4243 15.7389C15.4942 15.8356 15.5342 15.9374 15.5564 16.0327C15.5687 15.9234 15.5846 15.8143 15.6042 15.7057C15.7114 15.0677 15.9993 14.4733 16.4347 13.995C16.8711 13.5155 17.4372 13.1731 18.0651 13.0113C18.693 12.8496 19.3539 12.8759 19.967 13.087C20.58 13.298 21.1174 13.6841 21.5149 14.1963L21.5176 14.1998L21.5203 14.2033C21.9902 14.8278 22.2366 15.593 22.2215 16.3746C22.2065 17.154 21.9323 17.907 21.4412 18.5118C20.622 19.5608 19.4295 20.2489 18.1143 20.4268C17.5966 20.5375 17.068 20.5873 16.5389 20.5751C15.055 20.6018 13.5912 20.2301 12.2967 19.4985L12.2867 19.4929ZM16.5404 19.9806C17.0342 19.9929 17.5277 19.9459 18.0106 19.8408C19.1788 19.6888 20.2416 19.0794 20.9707 18.1434C21.38 17.6413 21.6096 17.014 21.6221 16.3633C21.6346 15.7125 21.4294 15.0766 21.0398 14.5588C20.7127 14.1374 20.2717 13.8211 19.7704 13.6486C19.2691 13.476 18.729 13.4545 18.2158 13.5867C17.7027 13.7189 17.2385 13.9991 16.8797 14.3933C16.521 14.7874 16.2831 15.2785 16.1951 15.8069C16.0795 16.4439 16.1064 17.099 16.274 17.724C16.3011 17.7992 16.312 17.8795 16.3059 17.9593C16.2997 18.0392 16.2767 18.1168 16.2383 18.1868C16.1999 18.2569 16.1472 18.3178 16.0835 18.3654C16.0199 18.4131 15.9469 18.4463 15.8694 18.4629C15.5734 18.5328 15.307 18.3331 15.2084 17.9636C15.0452 17.4271 14.9685 16.8674 14.9814 16.3062C14.9913 16.1165 14.9321 16.0066 14.7446 16.0066C14.0638 15.8469 14.0638 15.8069 14.0638 15.118V14.8085C14.0373 14.4616 13.9435 14.1235 13.7877 13.8134C13.632 13.5033 13.4173 13.2273 13.156 13.0012C13.055 12.9036 12.9207 12.8491 12.7811 12.8491C12.6414 12.8491 12.5071 12.9036 12.4061 13.0012C12.3568 13.0433 12.3163 13.095 12.2871 13.1533C12.2578 13.2115 12.2404 13.275 12.2358 13.3402C12.2312 13.4053 12.2395 13.4707 12.2603 13.5325C12.2811 13.5944 12.3139 13.6513 12.3568 13.7001C12.6753 14.019 12.8771 14.438 12.9291 14.8883C13.0771 15.4874 13.0376 15.5972 12.4752 15.8069C12.2338 15.8911 12.0166 16.0343 11.8431 16.2238C11.6696 16.4134 11.5451 16.6434 11.4806 16.8934C11.4162 17.1434 11.4138 17.4057 11.4737 17.6569C11.5336 17.908 11.6539 18.1403 11.824 18.3331C12.0476 18.5865 12.3069 18.8052 12.5936 18.9821C13.7985 19.663 15.1606 20.0076 16.5404 19.9806Z" fill="#3C3366"/>
</g>
<defs>
<filter id="filter0_ddi_970_16402" x="1" y="1" width="31" height="31" filterUnits="userSpaceOnUse" color-interpolation-filters="sRGB">
<feFlood flood-opacity="0" result="BackgroundImageFix"/>
<feColorMatrix in="SourceAlpha" type="matrix" values="0 0 0 0 0 0 0 0 0 0 0 0 0 0 0 0 0 0 127 0" result="hardAlpha"/>
<feOffset dx="2" dy="2"/>
<feGaussianBlur stdDeviation="1"/>
<feColorMatrix type="matrix" values="0 0 0 0 0.682353 0 0 0 0 0.682353 0 0 0 0 0.752941 0 0 0 0.3 0"/>
<feBlend mode="normal" in2="BackgroundImageFix" result="effect1_dropShadow_970_16402"/>
<feColorMatrix in="SourceAlpha" type="matrix" values="0 0 0 0 0 0 0 0 0 0 0 0 0 0 0 0 0 0 127 0" result="hardAlpha"/>
<feOffset dx="-1" dy="-1"/>
<feGaussianBlur stdDeviation="1"/>
<feColorMatrix type="matrix" values="0 0 0 0 1 0 0 0 0 1 0 0 0 0 1 0 0 0 1 0"/>
<feBlend mode="normal" in2="effect1_dropShadow_970_16402" result="effect2_dropShadow_970_16402"/>
<feBlend mode="normal" in="SourceGraphic" in2="effect2_dropShadow_970_16402" result="shape"/>
<feColorMatrix in="SourceAlpha" type="matrix" values="0 0 0 0 0 0 0 0 0 0 0 0 0 0 0 0 0 0 127 0" result="hardAlpha"/>
<feMorphology radius="0.2" operator="erode" in="SourceAlpha" result="effect3_innerShadow_970_16402"/>
<feOffset dx="1.5" dy="1.5"/>
<feGaussianBlur stdDeviation="3.5"/>
<feComposite in2="hardAlpha" operator="arithmetic" k2="-1" k3="1"/>
<feColorMatrix type="matrix" values="0 0 0 0 1 0 0 0 0 1 0 0 0 0 1 0 0 0 0.2 0"/>
<feBlend mode="normal" in2="shape" result="effect3_innerShadow_970_16402"/>
</filter>
<linearGradient id="paint0_linear_970_16402" x1="16.2269" y1="7.20172" x2="18.0839" y2="22.8898" gradientUnits="userSpaceOnUse">
<stop stop-color="#29214E"/>
<stop offset="1" stop-color="#4C4375" stop-opacity="0.8"/>
</linearGradient>
</defs>
</svg>
