<svg width="16" height="16" viewBox="0 0 16 16" fill="none" xmlns="http://www.w3.org/2000/svg">
<path d="M14.8416 15.7969L12.788 13.7433H1.42172V12.9911L2.92619 11.4866V6.9732C2.92619 6.11566 3.14433 5.26563 3.55054 4.50588L0 0.955336L0.962859 0L15.7969 14.8416L14.8416 15.7969ZM13.4575 10.5839V6.9732C13.4575 4.64128 11.9304 2.58768 9.69629 1.92572C9.69629 1.85049 9.69629 1.78279 9.69629 1.70757C9.69629 1.30856 9.53778 0.925893 9.25564 0.643751C8.9735 0.361609 8.59083 0.203103 8.19182 0.203103C7.79281 0.203103 7.41014 0.361609 7.128 0.643751C6.84586 0.925893 6.68735 1.30856 6.68735 1.70757C6.68735 1.78279 6.68735 1.85049 6.68735 1.92572C6.22849 2.06112 5.78467 2.26422 5.37847 2.5275L13.4575 10.5839ZM8.19182 16C8.59083 16 8.9735 15.8415 9.25564 15.5594C9.53778 15.2772 9.69629 14.8945 9.69629 14.4955H6.68735C6.68735 14.8945 6.84586 15.2772 7.128 15.5594C7.41014 15.8415 7.79281 16 8.19182 16Z" fill="black"/>
</svg>
