<svg width="280" height="169" viewBox="0 0 280 169" fill="none" xmlns="http://www.w3.org/2000/svg">
<g clip-path="url(#clip0_921_13569)">
<path d="M33.6762 149.519C36.235 149.807 38.7566 150.364 41.1994 151.18L41.2991 151.214L41.566 151.307C55.2202 156.192 61.4927 155.276 66.8587 153.627C81.3589 149.162 89.9523 129.941 113.433 133.662C123.396 135.24 131.403 137.385 137.65 141.752L137.642 141.732C137.686 141.769 137.731 141.8 137.773 141.836C138.669 142.466 139.541 143.107 140.367 143.768C152.58 151.761 164.742 141.341 168.239 138.981C168.495 138.795 168.763 137.312 169.022 137.128C169.163 137.023 169.24 136.963 169.24 136.963V136.975C184.541 126.161 208.882 115.211 232.346 117.896C272.661 122.516 288.886 168.362 288.886 168.362H-12.3741C-7.66817 157.515 11.1555 146.939 33.6762 149.519Z" fill="#FF8F58"/>
<path d="M26.1352 32.94L3.82436 32.94C3.36783 32.94 2.93 32.7581 2.60718 32.4344C2.28437 32.1108 2.10301 31.6717 2.10301 31.214V26.0405C2.10301 25.8138 2.14754 25.5894 2.23404 25.38C2.32055 25.1706 2.44734 24.9803 2.60718 24.82C2.76702 24.6598 2.95679 24.5326 3.16563 24.4459C3.37447 24.3592 3.59831 24.3145 3.82436 24.3145L26.1361 24.3145C26.5921 24.3145 27.0296 24.496 27.3523 24.8191C27.675 25.1422 27.8567 25.5805 27.8574 26.0378V31.2113C27.8577 31.4382 27.8133 31.663 27.7268 31.8727C27.6404 32.0824 27.5136 32.273 27.3536 32.4336C27.1937 32.5941 27.0037 32.7215 26.7947 32.8084C26.5856 32.8952 26.3615 32.94 26.1352 32.94V32.94Z" fill="#8155FF"/>
<path d="M7.14697 27.6621H24.0171" stroke="white" stroke-width="0.624" stroke-miterlimit="10"/>
<path d="M7.14697 29.5897H12.1126" stroke="white" stroke-width="0.624" stroke-miterlimit="10"/>
<path d="M24.7919 31.792V35.6944L19.8316 31.792H24.7919Z" fill="#8155FF"/>
<path d="M281.665 73.8336C283.259 73.8336 284.55 72.5201 284.55 70.8998C284.55 69.2796 283.259 67.9661 281.665 67.9661C280.072 67.9661 278.78 69.2796 278.78 70.8998C278.78 72.5201 280.072 73.8336 281.665 73.8336Z" fill="#FF8F58" stroke="white" stroke-width="1.089" stroke-miterlimit="10"/>
<path d="M148.291 2.08098C148.287 2.39141 148.191 2.69366 148.016 2.94973C147.841 3.2058 147.595 3.40425 147.307 3.52014C147.02 3.63602 146.705 3.66416 146.402 3.60102C146.099 3.53787 145.821 3.38627 145.604 3.16526C145.386 2.94426 145.239 2.66372 145.18 2.35893C145.121 2.05413 145.153 1.73869 145.273 1.45226C145.392 1.16583 145.593 0.921201 145.851 0.749138C146.109 0.577075 146.412 0.485258 146.721 0.485229C146.929 0.48663 147.134 0.529017 147.325 0.60997C147.517 0.690923 147.69 0.808859 147.836 0.957039C147.982 1.10522 148.097 1.28074 148.175 1.47359C148.253 1.66643 148.293 1.87283 148.291 2.08098Z" fill="#FF8F58" stroke="white" stroke-width="1.089" stroke-miterlimit="10"/>
<path d="M190.334 48.6852H71.9667V167.749H190.334V48.6852Z" fill="white"/>
<path d="M190.334 29.9553V48.6869H71.9667V29.9553C71.9669 28.1686 72.6749 26.4551 73.9349 25.1917C75.1949 23.9283 76.9038 23.2184 78.6857 23.2182H183.615C184.497 23.2182 185.371 23.3924 186.186 23.731C187.001 24.0696 187.742 24.5658 188.366 25.1914C188.99 25.817 189.485 26.5597 189.823 27.3771C190.16 28.1945 190.334 29.0706 190.334 29.9553Z" fill="black"/>
<path d="M171.989 40.4309C175.064 40.4309 177.557 37.9314 177.557 34.848C177.557 31.7647 175.064 29.2651 171.989 29.2651C168.914 29.2651 166.421 31.7647 166.421 34.848C166.421 37.9314 168.914 40.4309 171.989 40.4309Z" fill="#818181"/>
<path d="M171.989 36.945C172.835 36.945 173.647 36.6079 174.245 36.0078C174.844 35.4078 175.18 34.594 175.18 33.7454V19.2953C175.18 18.4468 174.844 17.633 174.245 17.0329C173.647 16.4329 172.835 16.0958 171.989 16.0958C171.143 16.0958 170.331 16.4329 169.733 17.0329C169.134 17.633 168.798 18.4468 168.798 19.2953V33.7454C168.798 34.594 169.134 35.4078 169.733 36.0078C170.331 36.6079 171.143 36.945 171.989 36.945Z" fill="#FFCB2D"/>
<path d="M132.69 40.4309C135.765 40.4309 138.258 37.9314 138.258 34.848C138.258 31.7647 135.765 29.2651 132.69 29.2651C129.615 29.2651 127.122 31.7647 127.122 34.848C127.122 37.9314 129.615 40.4309 132.69 40.4309Z" fill="#818181"/>
<path d="M132.69 36.945C133.536 36.945 134.348 36.6079 134.946 36.0078C135.545 35.4078 135.881 34.594 135.881 33.7454V19.2953C135.881 18.4468 135.545 17.633 134.946 17.0329C134.348 16.4329 133.536 16.0958 132.69 16.0958C132.271 16.0957 131.856 16.1784 131.468 16.3391C131.081 16.4998 130.729 16.7355 130.433 17.0326C130.136 17.3297 129.901 17.6825 129.741 18.0707C129.581 18.459 129.498 18.8751 129.498 19.2953V33.7454C129.498 34.1657 129.581 34.5818 129.741 34.97C129.901 35.3583 130.136 35.711 130.433 36.0081C130.729 36.3053 131.081 36.5409 131.468 36.7017C131.856 36.8624 132.271 36.9451 132.69 36.945Z" fill="#FFCB2D"/>
<path d="M93.3905 40.4309C96.4656 40.4309 98.9585 37.9314 98.9585 34.848C98.9585 31.7647 96.4656 29.2651 93.3905 29.2651C90.3155 29.2651 87.8226 31.7647 87.8226 34.848C87.8226 37.9314 90.3155 40.4309 93.3905 40.4309Z" fill="#818181"/>
<path d="M93.3905 36.945C94.2368 36.945 95.0484 36.6079 95.6469 36.0078C96.2453 35.4078 96.5815 34.594 96.5815 33.7454V19.2953C96.5815 18.4468 96.2453 17.633 95.6469 17.0329C95.0484 16.4329 94.2368 16.0958 93.3905 16.0958C92.5442 16.0958 91.7326 16.4329 91.1342 17.0329C90.5358 17.633 90.1996 18.4468 90.1996 19.2953V33.7454C90.1996 34.594 90.5358 35.4078 91.1342 36.0078C91.7326 36.6079 92.5442 36.945 93.3905 36.945Z" fill="#FFCB2D"/>
<path d="M150.337 90.3862H172.843V67.819H150.337V90.3862Z" stroke="#F0E0DF" stroke-width="2.213" stroke-miterlimit="10"/>
<path d="M120.393 90.3862H142.9V67.819H120.393V90.3862Z" stroke="#F0E0DF" stroke-width="2.213" stroke-miterlimit="10"/>
<path d="M90.4496 90.3862H112.956V67.819H90.4496V90.3862Z" stroke="#F0E0DF" stroke-width="2.213" stroke-miterlimit="10"/>
<path d="M150.337 119.032H172.843V96.4649H150.337V119.032Z" stroke="#F0E0DF" stroke-width="2.213" stroke-miterlimit="10"/>
<path d="M120.393 119.032H142.9V96.4649H120.393V119.032Z" stroke="#F0E0DF" stroke-width="2.213" stroke-miterlimit="10"/>
<path d="M90.4496 119.032H112.956V96.4649H90.4496V119.032Z" fill="#F88AA0"/>
<path d="M98.5831 104.524L104.823 110.973" stroke="white" stroke-width="2.017" stroke-miterlimit="10"/>
<path d="M104.823 104.524L98.5831 110.973" stroke="white" stroke-width="2.017" stroke-miterlimit="10"/>
<path d="M150.337 147.677H172.843V125.11H150.337V147.677Z" stroke="#F0E0DF" stroke-width="2.213" stroke-miterlimit="10"/>
<path d="M120.393 147.677H142.9V125.11H120.393V147.677Z" stroke="#F0E0DF" stroke-width="2.213" stroke-miterlimit="10"/>
<path d="M90.4496 147.677H112.956V125.11H90.4496V147.677Z" stroke="#F0E0DF" stroke-width="2.213" stroke-miterlimit="10"/>
<path d="M188.302 89.2926H177.35V96.5247H188.302V89.2926Z" fill="#FFA80A"/>
<path d="M189.989 91.1684H175.662C174.879 91.1682 174.128 90.856 173.574 90.3005C173.02 89.7449 172.709 88.9916 172.709 88.2061C172.709 87.4207 173.02 86.6675 173.574 86.1121C174.128 85.5568 174.879 85.2448 175.662 85.2448H189.989C190.772 85.2448 191.523 85.5568 192.077 86.1121C192.631 86.6675 192.942 87.4207 192.942 88.2061C192.942 88.9916 192.631 89.7449 192.077 90.3005C191.524 90.856 190.772 91.1682 189.989 91.1684Z" fill="#FFCB2D"/>
<path d="M156.27 100.265L150.095 106.457L154.45 110.824L160.625 104.632L156.27 100.265Z" fill="#FFA80A"/>
<path d="M158.217 100.01L149.588 108.662C149.382 108.869 149.136 109.034 148.866 109.146C148.596 109.259 148.307 109.317 148.014 109.317C147.722 109.317 147.432 109.259 147.162 109.146C146.892 109.034 146.647 108.869 146.44 108.662C146.233 108.455 146.069 108.209 145.957 107.938C145.845 107.667 145.787 107.377 145.787 107.083C145.787 106.79 145.845 106.5 145.957 106.229C146.069 105.958 146.233 105.712 146.44 105.505L155.069 96.8529C155.276 96.6454 155.521 96.4807 155.791 96.3684C156.061 96.2561 156.351 96.1982 156.643 96.1982C156.936 96.1982 157.225 96.2561 157.495 96.3684C157.765 96.4807 158.011 96.6454 158.217 96.8529C158.424 97.06 158.589 97.3061 158.701 97.5769C158.813 97.8477 158.87 98.1381 158.87 98.4313C158.87 98.7245 158.813 99.0148 158.701 99.2857C158.589 99.5565 158.424 99.8025 158.217 100.01Z" fill="#FFCB2D"/>
<path d="M182.698 167.647C203.143 167.647 219.717 151.028 219.717 130.528C219.717 110.028 203.143 93.4089 182.698 93.4089C162.253 93.4089 145.679 110.028 145.679 130.528C145.679 151.028 162.253 167.647 182.698 167.647Z" fill="#F67B91"/>
<path d="M182.698 165.65C202.043 165.65 217.725 149.925 217.725 130.528C217.725 111.131 202.043 95.4061 182.698 95.4061C163.353 95.4061 147.67 111.131 147.67 130.528C147.67 149.925 163.353 165.65 182.698 165.65Z" fill="#F88AA0"/>
<path d="M182.698 161.684C199.859 161.684 213.77 147.735 213.77 130.528C213.77 113.321 199.859 99.3717 182.698 99.3717C165.537 99.3717 151.625 113.321 151.625 130.528C151.625 147.735 165.537 161.684 182.698 161.684Z" fill="#F6F6F6"/>
<g opacity="0.71">
<g opacity="0.71">
<path opacity="0.71" d="M148.703 105.879L195.8 179.055L217.077 160.708L170.48 95.2116L148.703 105.879Z" fill="white"/>
<path opacity="0.71" d="M173.801 88.247L220.898 161.423L223.635 152.249L177.038 86.753L173.801 88.247Z" fill="white"/>
</g>
</g>
<path d="M182.853 106.392C182.645 106.392 182.446 106.309 182.3 106.162C182.153 106.015 182.071 105.816 182.071 105.608V103.768C182.067 103.663 182.085 103.559 182.122 103.46C182.16 103.362 182.217 103.273 182.29 103.197C182.363 103.121 182.45 103.061 182.547 103.02C182.643 102.979 182.747 102.958 182.852 102.958C182.957 102.958 183.061 102.979 183.158 103.02C183.254 103.061 183.341 103.121 183.414 103.197C183.487 103.273 183.544 103.362 183.582 103.46C183.62 103.559 183.637 103.663 183.634 103.768V105.608C183.634 105.711 183.614 105.813 183.574 105.908C183.535 106.003 183.478 106.089 183.405 106.162C183.333 106.235 183.247 106.293 183.152 106.332C183.057 106.372 182.955 106.392 182.853 106.392Z" fill="#8054FF"/>
<path d="M182.853 158.447C182.75 158.447 182.648 158.427 182.553 158.387C182.459 158.348 182.372 158.29 182.3 158.218C182.227 158.145 182.17 158.059 182.13 157.964C182.091 157.868 182.071 157.767 182.071 157.664V155.822C182.067 155.717 182.085 155.612 182.122 155.514C182.16 155.415 182.217 155.326 182.29 155.25C182.363 155.175 182.45 155.115 182.547 155.073C182.643 155.032 182.747 155.011 182.852 155.011C182.957 155.011 183.061 155.032 183.158 155.073C183.254 155.115 183.341 155.175 183.414 155.25C183.487 155.326 183.544 155.415 183.582 155.514C183.62 155.612 183.637 155.717 183.634 155.822V157.662C183.634 157.765 183.614 157.867 183.575 157.962C183.536 158.057 183.478 158.144 183.406 158.217C183.333 158.29 183.247 158.348 183.152 158.387C183.057 158.427 182.955 158.447 182.853 158.447Z" fill="#8054FF"/>
<path d="M165.145 113.745C165.043 113.745 164.941 113.725 164.846 113.686C164.752 113.647 164.666 113.589 164.593 113.516L163.295 112.215C163.221 112.142 163.162 112.056 163.121 111.96C163.081 111.865 163.06 111.762 163.059 111.658C163.059 111.555 163.078 111.452 163.118 111.356C163.157 111.26 163.215 111.173 163.288 111.099C163.361 111.026 163.448 110.968 163.544 110.928C163.64 110.889 163.742 110.869 163.846 110.87C163.949 110.87 164.052 110.891 164.147 110.932C164.242 110.973 164.329 111.032 164.401 111.106L165.699 112.407C165.808 112.517 165.883 112.657 165.913 112.809C165.944 112.961 165.928 113.118 165.869 113.262C165.81 113.405 165.71 113.528 165.581 113.614C165.452 113.7 165.301 113.746 165.146 113.745H165.145Z" fill="#8054FF"/>
<path d="M201.856 150.554C201.753 150.554 201.652 150.534 201.557 150.494C201.462 150.455 201.376 150.397 201.304 150.325L200.008 149.023C199.869 148.875 199.793 148.678 199.796 148.474C199.799 148.27 199.881 148.076 200.025 147.932C200.168 147.788 200.362 147.705 200.565 147.702C200.769 147.699 200.965 147.775 201.113 147.914L202.411 149.216C202.521 149.325 202.595 149.465 202.626 149.617C202.656 149.769 202.641 149.927 202.581 150.07C202.522 150.214 202.422 150.336 202.293 150.422C202.165 150.508 202.013 150.554 201.859 150.554H201.856Z" fill="#8054FF"/>
<path d="M163.848 150.554C163.693 150.554 163.542 150.508 163.413 150.422C163.284 150.336 163.184 150.214 163.125 150.07C163.066 149.927 163.05 149.769 163.08 149.617C163.111 149.465 163.186 149.325 163.295 149.216L164.593 147.914C164.74 147.77 164.938 147.69 165.144 147.692C165.35 147.693 165.547 147.775 165.692 147.921C165.838 148.067 165.92 148.265 165.921 148.471C165.922 148.677 165.842 148.876 165.699 149.023L164.401 150.325C164.328 150.397 164.242 150.455 164.147 150.495C164.052 150.534 163.95 150.554 163.848 150.554Z" fill="#8054FF"/>
<path d="M200.558 113.745C200.403 113.746 200.252 113.7 200.123 113.614C199.995 113.528 199.894 113.405 199.835 113.262C199.776 113.118 199.761 112.961 199.791 112.809C199.821 112.657 199.896 112.517 200.006 112.407L201.303 111.106C201.375 111.032 201.461 110.973 201.556 110.932C201.652 110.891 201.754 110.87 201.858 110.87C201.961 110.869 202.064 110.889 202.159 110.928C202.255 110.968 202.342 111.026 202.415 111.099C202.488 111.173 202.546 111.26 202.586 111.356C202.625 111.452 202.645 111.555 202.644 111.658C202.644 111.762 202.622 111.865 202.582 111.96C202.541 112.056 202.483 112.142 202.408 112.215L201.111 113.516C201.038 113.589 200.952 113.647 200.857 113.686C200.762 113.725 200.661 113.746 200.558 113.745Z" fill="#8054FF"/>
<path d="M157.812 131.499H155.976C155.774 131.492 155.582 131.407 155.441 131.261C155.3 131.115 155.221 130.919 155.221 130.716C155.221 130.512 155.3 130.317 155.441 130.171C155.582 130.025 155.774 129.939 155.976 129.932H157.812C158.014 129.939 158.206 130.025 158.347 130.171C158.488 130.317 158.567 130.512 158.567 130.716C158.567 130.919 158.488 131.115 158.347 131.261C158.206 131.407 158.014 131.492 157.812 131.499Z" fill="#8054FF"/>
<path d="M209.727 131.499H207.891C207.786 131.503 207.682 131.485 207.584 131.447C207.486 131.41 207.396 131.353 207.321 131.279C207.246 131.206 207.186 131.119 207.145 131.022C207.104 130.925 207.083 130.821 207.083 130.716C207.083 130.611 207.104 130.506 207.145 130.41C207.186 130.313 207.246 130.225 207.321 130.152C207.396 130.079 207.486 130.022 207.584 129.984C207.682 129.946 207.786 129.929 207.891 129.932H209.725C209.83 129.929 209.935 129.946 210.032 129.984C210.13 130.022 210.22 130.079 210.295 130.152C210.371 130.225 210.431 130.313 210.471 130.41C210.512 130.506 210.534 130.611 210.534 130.716C210.534 130.821 210.512 130.925 210.471 131.022C210.431 131.119 210.371 131.206 210.295 131.279C210.22 131.353 210.13 131.41 210.032 131.447C209.935 131.485 209.83 131.503 209.725 131.499H209.727Z" fill="#8054FF"/>
<path d="M184.722 130.42H180.985V114.186C180.985 113.689 181.182 113.213 181.532 112.861C181.883 112.51 182.358 112.313 182.853 112.313C183.349 112.313 183.824 112.51 184.174 112.861C184.525 113.213 184.722 113.689 184.722 114.186V130.42Z" fill="#8054FF"/>
<path d="M182.853 134.716C185.219 134.716 187.137 132.792 187.137 130.42C187.137 128.047 185.219 126.124 182.853 126.124C180.486 126.124 178.568 128.047 178.568 130.42C178.568 132.792 180.486 134.716 182.853 134.716Z" fill="#2B4183"/>
<path d="M55.0538 91.8249L61.82 121.74C62.0299 123.125 61.8766 124.542 61.3751 125.85C60.8737 127.158 60.0413 128.312 58.96 129.2L38.761 145.041L39.1347 130.457L49.2235 122.202L38.761 91.0051L55.0538 91.8249Z" fill="#243B77"/>
<path d="M28.916 145.159L38.6418 140.058L34.8006 134.623L24.2377 140.379L27.6083 144.66L28.916 145.159Z" fill="#FFC2B3"/>
<path d="M26.6013 138.096C26.6013 138.096 28.2443 144.136 32.9769 143.799L34.8015 158.189L20.835 140.439L26.6013 138.096Z" fill="#181F42"/>
<path d="M34.796 158.183L20.8386 140.435L19.1668 141.757L33.1242 159.505L34.796 158.183Z" fill="white"/>
<path d="M33.2153 145.681C32.3294 145.442 31.4107 145.349 30.495 145.405" stroke="white" stroke-width="1.504" stroke-linecap="round" stroke-linejoin="round"/>
<path d="M33.6201 147.787C32.7342 147.548 31.8154 147.455 30.8997 147.511" stroke="white" stroke-width="1.504" stroke-linecap="round" stroke-linejoin="round"/>
<path d="M34.0258 149.893C33.1399 149.654 32.2211 149.561 31.3054 149.617" stroke="white" stroke-width="1.504" stroke-linecap="round" stroke-linejoin="round"/>
<path d="M37.5974 162.784L38.5813 151.968L31.9468 151.627L30.9594 163.51H36.4027L37.5974 162.784Z" fill="#FFC2B3"/>
<path d="M30.1107 160.232C30.1107 160.232 35.8583 162.677 38.5244 158.744L50.9235 166.218H28.3742L30.1107 160.232Z" fill="#181F42"/>
<path d="M50.9225 166.218H28.3742V168.353H50.9225V166.218Z" fill="white"/>
<path d="M40.1452 159.721C39.4094 160.271 38.7677 160.937 38.2451 161.693" stroke="white" stroke-width="1.504" stroke-linecap="round" stroke-linejoin="round"/>
<path d="M42.0454 160.707C41.3098 161.257 40.668 161.922 40.1452 162.678" stroke="white" stroke-width="1.504" stroke-linecap="round" stroke-linejoin="round"/>
<path d="M43.9455 161.693C43.2099 162.242 42.5682 162.908 42.0453 163.664" stroke="white" stroke-width="1.504" stroke-linecap="round" stroke-linejoin="round"/>
<path d="M32.7172 91.0917L29.6739 154.184H41.2172L49.6246 91.2995L32.7172 91.0917Z" fill="#2B4183"/>
<path d="M55.0529 91.825L48.0572 102.821L46.5956 91.5467L55.0529 91.825Z" fill="#1E3267"/>
<path d="M85.0524 81.1363L78.159 81.6777L79.392 74.7337L86.5932 75.342L85.0524 81.1363Z" fill="#FA849B"/>
<path d="M90.8542 80.8C90.1283 81.4235 89.2343 81.8173 88.2852 81.9314C87.3361 82.0455 86.3746 81.8748 85.5223 81.441C84.6699 81.0072 83.965 80.3296 83.4966 79.4941C83.0283 78.6586 82.8176 77.7026 82.8911 76.747C82.9646 75.7913 83.3191 74.879 83.9097 74.1254C84.5003 73.3718 85.3005 72.8107 86.2091 72.5131C87.1178 72.2155 88.094 72.1947 89.0144 72.4534C89.9348 72.7121 90.758 73.2387 91.38 73.9665C91.793 74.4498 92.107 75.0099 92.3041 75.6149C92.5012 76.2199 92.5775 76.8579 92.5287 77.4924C92.4799 78.127 92.3068 78.7457 92.0195 79.3132C91.7323 79.8807 91.3363 80.3859 90.8542 80.8Z" fill="#FFC2B3"/>
<path d="M87.9587 72.2833C87.9587 72.2833 87.0816 70.2559 85.0346 71.758C82.9877 73.2601 81.172 76.3338 84.0383 80.2728L87.9587 72.2833Z" fill="#FFC2B3"/>
<path d="M87.9569 72.2593L93.5088 70.8589C93.7317 70.7872 93.9736 70.8044 94.1841 70.9069C94.3947 71.0094 94.5578 71.1893 94.6395 71.4092C94.7056 71.5953 94.6995 71.7995 94.6224 71.9813C94.5453 72.1631 94.4027 72.3091 94.2232 72.3904L88.5841 74.9201L87.9569 72.2593Z" fill="#FFC2B3"/>
<path d="M59.0205 62.5965L68.1272 77.0466C68.7488 78.1631 68.9249 79.4744 68.62 80.7161C68.315 81.9577 67.5517 83.0371 66.4841 83.7364C65.3688 84.4673 64.0102 84.7252 62.7056 84.4537C61.4011 84.1822 60.257 83.4034 59.524 82.2879L49.485 68.4078C48.777 67.3317 48.4611 66.0435 48.5908 64.7609C48.7205 63.4783 49.2877 62.2799 50.1967 61.3682C50.8068 60.7558 51.5504 60.2936 52.3688 60.018C53.1873 59.7424 54.0583 59.6609 54.9135 59.7799C55.7687 59.899 56.5846 60.2153 57.2973 60.704C58.0099 61.1927 58.5998 61.8405 59.0205 62.5965Z" fill="#FF8F58"/>
<path d="M56.1711 77.7157L56.7049 69.8056L58.662 81.1667L56.1711 77.7157Z" fill="#EA6C2E"/>
<path d="M63.3999 75.5971L83.4494 73.2351L83.3862 82.4163L64.7396 84.8246C64.0516 84.9583 63.3424 84.9345 62.6648 84.755C61.9873 84.5755 61.3588 84.245 60.8264 83.788C60.294 83.3311 59.8713 82.7595 59.5899 82.116C59.3085 81.4724 59.1756 80.7735 59.2011 80.0713C59.2426 78.9423 59.691 77.8668 60.4631 77.0441C61.2352 76.2214 62.2786 75.7072 63.3999 75.5971Z" fill="#FF8F58"/>
<path d="M28.7025 102.819C28.7025 102.819 30.938 102.998 30.5706 100.437C30.2032 97.8759 28.32 94.7655 23.4166 95.4613L28.7025 102.819Z" fill="#DB9A81"/>
<path d="M12.5227 123.366H35.0292V100.799H12.5227L12.5227 123.366Z" fill="#FFCD2E"/>
<path d="M13.5626 123.366H36.0692V100.799H13.5626L13.5626 123.366Z" fill="#FFCD2E"/>
<path d="M19.6839 101.349C19.4727 100.397 19.548 99.4024 19.9003 98.4927C20.2526 97.5829 20.866 96.7983 21.663 96.238C22.4601 95.6778 23.4049 95.3672 24.378 95.3454C25.3511 95.3236 26.3087 95.5917 27.1299 96.1156C27.9511 96.6396 28.5988 97.396 28.9913 98.2891C29.3837 99.1822 29.5032 100.172 29.3347 101.133C29.1661 102.094 28.7171 102.984 28.0443 103.689C27.3716 104.394 26.5053 104.884 25.5552 105.096C24.2811 105.379 22.9468 105.144 21.8458 104.442C20.7447 103.739 19.9671 102.627 19.6839 101.349Z" fill="#FFC2B3"/>
<path d="M29.2914 76.8476L29.0708 97.0884L20.2274 96.6718L19.9926 77.0037C19.9473 76.302 20.0607 75.5991 20.3244 74.9475C20.588 74.2959 20.9951 73.7125 21.5151 73.2408C22.0352 72.7691 22.6548 72.4213 23.3277 72.2233C24.0006 72.0254 24.7095 71.9825 25.4012 72.0978C26.5133 72.283 27.5206 72.8665 28.236 73.7401C28.9515 74.6136 29.3265 75.7178 29.2914 76.8476Z" fill="#FF8F58"/>
<path d="M40.6488 68.372L28.4499 80.3103C27.4902 81.1517 26.248 81.597 24.9739 81.5562C23.6997 81.5155 22.4883 80.9919 21.5841 80.0909C20.6391 79.1491 20.1049 77.8702 20.0982 76.5343C20.0915 75.1984 20.613 73.9143 21.5485 72.9631L32.9992 60.2291C33.902 59.3113 35.093 58.734 36.3711 58.5947C37.6493 58.4554 38.9361 58.7627 40.0145 59.4647C40.7382 59.936 41.3432 60.5692 41.7817 61.3145C42.2203 62.0599 42.4805 62.897 42.542 63.7601C42.6034 64.6233 42.4645 65.489 42.136 66.2892C41.8075 67.0894 41.2984 67.8024 40.6488 68.372Z" fill="#FF8F58"/>
<path d="M54.262 59.7073L36.9151 58.5638C35.3512 58.4603 32.5624 61.3084 32.7269 62.8711L32.7172 91.0925L55.0538 91.8248L57.3222 63.1789C57.3719 62.3125 57.0782 61.4615 56.5051 60.8113C55.9319 60.161 55.1257 59.7642 54.262 59.7073Z" fill="#FF8F58"/>
<path d="M32.7172 76.1341L37.7549 71.2041L32.7198 84.5562L32.7172 76.1341Z" fill="#EA6C2E"/>
<path d="M51.4359 48.0295C51.3743 48.6481 51.5592 49.266 51.9501 49.7486C52.341 50.2311 52.9064 50.5392 53.5228 50.6055C53.8283 50.6284 54.1352 50.5904 54.426 50.4939C54.7167 50.3973 54.9856 50.2441 55.2171 50.043C55.4486 49.8419 55.6381 49.5969 55.7748 49.322C55.9115 49.0472 55.9927 48.748 56.0137 48.4416C56.0757 47.8229 55.891 47.2047 55.5 46.722C55.109 46.2394 54.5434 45.9315 53.9267 45.8655C53.6213 45.8427 53.3143 45.8807 53.0236 45.9772C52.7328 46.0738 52.464 46.227 52.2325 46.4281C52.001 46.6292 51.8114 46.8742 51.6747 47.149C51.538 47.4239 51.4568 47.7231 51.4359 48.0295Z" fill="#FFC2B3"/>
<path d="M50.1015 53.6142L49.9956 59.2961C50.0301 59.7107 49.9712 60.1278 49.8234 60.5165C49.6756 60.9052 49.4426 61.2557 49.1416 61.542C48.8405 61.8283 48.4792 62.0432 48.0843 62.1707C47.6894 62.2983 47.2709 62.3352 46.8598 62.2789C45.2408 62.2316 43.4794 61.411 43.5799 59.6529L44.1626 50.7206L50.1015 53.6142Z" fill="#FFC2B3"/>
<path d="M50.0436 57.3918C50.0436 57.3918 45.4178 57.6959 44.0834 52.4573C43.6626 50.8072 50.1219 53.0309 50.1219 53.0309L50.0436 57.3918Z" fill="#DB9A81"/>
<path d="M48.3704 55.2358C51.6067 55.3036 54.3262 52.7124 54.4712 49.9785L54.7451 44.2564C54.8548 42.6336 54.3332 41.0313 53.2899 39.7858C52.2466 38.5403 50.7627 37.7484 49.1496 37.5763C45.7692 37.2722 42.1949 39.8063 41.8969 43.31L41.7376 47.7699C41.6472 49.6375 42.2915 51.4662 43.5319 52.8624C44.7723 54.2586 46.5097 55.1108 48.3704 55.2358Z" fill="#FFC2B3"/>
<path d="M51.1049 47.4722L51.2561 49.3453L50.4555 49.3614" stroke="#312725" stroke-width="0.597" stroke-linecap="round" stroke-linejoin="round"/>
<path d="M47.5946 43.6839C47.5946 43.6839 48.9219 43.5947 48.929 44.154C48.929 44.154 48.921 44.5322 47.7627 44.5866C46.6045 44.641 46.3065 44.5474 46.2069 44.1906C46.1072 43.8338 46.9737 43.6768 47.5946 43.6839Z" fill="#312725"/>
<path d="M53.1332 44.996C53.1332 44.996 52.0408 44.8595 51.942 45.3831C51.942 45.3831 51.8833 45.7399 52.8405 45.8344C53.7977 45.929 54.1109 45.8112 54.2069 45.5258C54.3146 45.1984 53.6527 45.0138 53.1332 44.996Z" fill="#312725"/>
<path d="M52.2979 47.1224C52.2958 47.2321 52.3259 47.34 52.3846 47.4326C52.4432 47.5252 52.5278 47.5985 52.6277 47.6432C52.7276 47.6879 52.8385 47.7021 52.9464 47.684C53.0543 47.6659 53.1546 47.6164 53.2346 47.5415C53.3146 47.4667 53.3708 47.3699 53.3963 47.2632C53.4217 47.1564 53.4153 47.0446 53.3777 46.9415C53.3401 46.8385 53.2731 46.7488 53.185 46.6837C53.0969 46.6187 52.9916 46.581 52.8824 46.5756C52.7328 46.5712 52.5875 46.6262 52.4781 46.7286C52.3687 46.8309 52.3039 46.9724 52.2979 47.1224Z" fill="#312725"/>
<path d="M47.4265 46.8673C47.4244 46.977 47.4545 47.0849 47.5132 47.1775C47.5718 47.2702 47.6564 47.3434 47.7563 47.3881C47.8562 47.4328 47.9671 47.4471 48.075 47.429C48.1829 47.4109 48.2832 47.3613 48.3632 47.2865C48.4432 47.2116 48.4994 47.1148 48.5249 47.0081C48.5503 46.9014 48.5439 46.7895 48.5063 46.6865C48.4687 46.5834 48.4017 46.4938 48.3136 46.4287C48.2255 46.3636 48.1202 46.326 48.0109 46.3205C47.8613 46.316 47.7159 46.3709 47.6064 46.4733C47.497 46.5757 47.4323 46.7173 47.4265 46.8673Z" fill="#312725"/>
<path d="M48.768 50.1669C48.9895 50.4332 49.2812 50.6316 49.6098 50.7396C49.9384 50.8477 50.2906 50.861 50.6263 50.778" stroke="#312725" stroke-width="0.597" stroke-linecap="round" stroke-linejoin="round"/>
<path d="M53.4107 34.7988C52.1707 34.2636 49.0073 33.6767 48.3099 36.4811C45.1616 36.2403 40.1524 36.3027 39.6497 39.0357C38.9105 43.0559 41.7563 47.0404 41.7563 47.0404L42.5569 47.4498C42.5569 47.4498 44.5905 46.3865 44.0692 41.577C44.0692 41.577 51.3451 43.336 54.7576 41.4878C58.17 39.6396 57.1337 36.4044 53.4107 34.7988Z" fill="#312725"/>
<path d="M38.7646 47.6023C38.7033 48.215 38.8862 48.827 39.2734 49.305C39.6605 49.7829 40.2205 50.0879 40.8311 50.1534C41.1334 50.176 41.4371 50.1384 41.7249 50.0429C42.0126 49.9474 42.2787 49.7959 42.5079 49.597C42.737 49.398 42.9247 49.1556 43.0601 48.8837C43.1956 48.6119 43.2761 48.3158 43.297 48.0126C43.3581 47.4001 43.1751 46.7882 42.7879 46.3105C42.4008 45.8328 41.841 45.5279 41.2305 45.4624C40.9283 45.4398 40.6247 45.4773 40.337 45.5728C40.0493 45.6682 39.7832 45.8197 39.5541 46.0185C39.3249 46.2174 39.1372 46.4597 39.0018 46.7314C38.8663 47.0032 38.7857 47.2992 38.7646 47.6023Z" fill="#FFC2B3"/>
<path d="M41.7572 48.44C41.7572 48.44 41.9022 46.738 40.308 46.8647" stroke="#312725" stroke-width="0.597" stroke-linecap="round" stroke-linejoin="round"/>
<path d="M41.388 58.8591L51.7695 59.5432C51.7695 59.5432 52.0986 63.1316 47.4808 62.8837C42.2856 62.6054 41.388 58.8591 41.388 58.8591Z" fill="#FFC2B3"/>
<path d="M258.5 145.646L248.263 140.862L251.956 135.095L263.083 140.516L259.82 145.081L258.5 145.646Z" fill="#FFC2B3"/>
<path d="M260.546 138.277C260.546 138.277 259.14 144.562 254.261 144.439L253.061 159.316L266.582 140.406L260.546 138.277Z" fill="#181F42"/>
<path d="M254.843 160.596L268.36 141.689L266.58 140.409L253.062 159.315L254.843 160.596Z" fill="white"/>
<path d="M254.101 146.387C255.001 146.1 255.94 145.961 256.884 145.976" stroke="white" stroke-width="1.548" stroke-linecap="round" stroke-linejoin="round"/>
<path d="M253.787 148.568C254.687 148.281 255.626 148.142 256.57 148.157" stroke="white" stroke-width="1.548" stroke-linecap="round" stroke-linejoin="round"/>
<path d="M253.471 150.752C254.37 150.464 255.31 150.326 256.253 150.341" stroke="white" stroke-width="1.548" stroke-linecap="round" stroke-linejoin="round"/>
<path d="M234.741 83.1655C234.741 83.1655 228.053 108.192 227.069 113.126C226.084 118.061 224.116 127.933 228.25 131.482C232.384 135.032 248.266 143.556 248.266 143.556L254.108 133.04L244.646 127.337L234.741 83.1655Z" fill="#243B77"/>
<path d="M243.76 162.752L241.674 151.622L248.5 151.272L250.588 163.498H244.984L243.76 162.752Z" fill="#FFC2B3"/>
<path d="M250.926 160.127C250.926 160.127 245.012 162.644 242.269 158.595L229.512 166.285H252.713L250.926 160.127Z" fill="#181F42"/>
<path d="M229.512 168.483H252.713V166.286H229.512V168.483Z" fill="white"/>
<path d="M240.601 159.601C241.359 160.166 242.02 160.852 242.558 161.63" stroke="white" stroke-width="1.548" stroke-linecap="round" stroke-linejoin="round"/>
<path d="M238.647 160.615C239.404 161.181 240.065 161.866 240.604 162.644" stroke="white" stroke-width="1.548" stroke-linecap="round" stroke-linejoin="round"/>
<path d="M236.691 161.63C237.449 162.195 238.11 162.88 238.648 163.658" stroke="white" stroke-width="1.548" stroke-linecap="round" stroke-linejoin="round"/>
<path d="M234.741 83.1655L234.078 120.92C234.054 122.274 234.161 123.627 234.399 124.96L239.993 154.078H251.699L248.433 121.24C248.572 115.2 250.568 108.436 251.317 101.071C251.317 101.071 253.612 87.4078 247.32 83.2315L234.741 83.1655Z" fill="#2B4183"/>
<path d="M227.249 77.9833L208.11 70.9616L205.886 74.6981L224.545 84.6143C225.252 84.8836 226.018 84.9599 226.764 84.8352C227.51 84.7105 228.209 84.3893 228.791 83.9045C229.373 83.4197 229.815 82.7888 230.074 82.0761C230.333 81.3634 230.398 80.5946 230.263 79.8484C229.989 78.3419 228.689 78.4962 227.249 77.9833Z" fill="#FFC2B3"/>
<path d="M205.759 68.1117C205.591 67.9327 205.38 67.8002 205.146 67.7269C204.912 67.6536 204.664 67.6421 204.424 67.6934C204.284 67.7192 204.154 67.7799 204.043 67.8699C203.933 67.9598 203.847 68.0761 203.794 68.208C203.74 68.3399 203.72 68.4833 203.737 68.6248C203.753 68.7664 203.804 68.9016 203.886 69.018L204.161 69.4729C203.546 69.7083 202.279 69.7681 199.958 67.4213C199.778 67.2302 199.538 67.1057 199.278 67.0678C199.018 67.03 198.753 67.081 198.525 67.2126C198.378 67.3148 198.274 67.4683 198.234 67.6431C198.194 67.8179 198.22 68.0015 198.307 68.1581C198.315 68.1741 198.326 68.1893 198.335 68.2053C198.183 68.1499 198.02 68.13 197.859 68.147C197.698 68.164 197.543 68.2175 197.405 68.3035C197.258 68.4058 197.155 68.5593 197.115 68.7341C197.074 68.9088 197.1 69.0924 197.187 69.249C197.21 69.2957 197.237 69.3405 197.267 69.3828C197.111 69.3952 196.961 69.4474 196.831 69.5344C196.684 69.6366 196.58 69.7901 196.539 69.9648C196.499 70.1396 196.525 70.3232 196.612 70.4799C196.663 70.5823 196.73 70.6756 196.811 70.7564C196.841 70.7876 196.872 70.8153 196.9 70.8456C196.886 70.8536 196.871 70.8599 196.857 70.8688C196.71 70.971 196.607 71.1245 196.566 71.2993C196.526 71.4742 196.552 71.6578 196.639 71.8143C196.69 71.9168 196.758 72.0102 196.839 72.0908C197.42 72.6883 198.055 73.2309 198.736 73.7116L198.766 73.7303C199.047 73.9252 199.339 74.1039 199.64 74.2655C200.981 75.046 203.85 74.3912 206.317 74.79L208.243 71.1462L205.759 68.1117Z" fill="#FFC2B3"/>
<path d="M198.989 81.1844L208.24 59.9902L187.103 50.714L177.852 71.9081L198.989 81.1844Z" fill="#FFCD2E"/>
<path d="M206.074 68.4969L204.195 66.3053C204.123 66.222 204.034 66.1552 203.934 66.1094C203.835 66.0637 203.726 66.04 203.616 66.04C203.507 66.04 203.398 66.0637 203.298 66.1094C203.199 66.1552 203.11 66.222 203.038 66.3053C202.939 66.4202 202.877 66.5621 202.858 66.7128C202.84 66.8635 202.867 67.0163 202.935 67.1518L203.881 69.0196C203.666 69.8415 203.656 70.7036 203.851 71.5305C204.045 72.3574 204.439 73.1239 204.997 73.7631L206.074 68.4969Z" fill="#FFC2B3"/>
<path d="M235.731 78.3863L228.764 83.9657C228.078 84.5152 227.239 84.8387 226.362 84.8919C225.485 84.9451 224.614 84.7253 223.866 84.2627C221.71 82.9247 220.392 81.6974 221.945 79.6904L229.596 71.9079L235.731 78.3863Z" fill="#FFC2B3"/>
<path d="M241.128 71.7071C241.128 71.7071 240.202 76.2919 234.706 80.4485L226.233 72.427L233.089 64.7657L241.128 71.7071Z" fill="#FF8F58"/>
<path d="M254.353 77.7646L269.085 96.3989L272.42 94.1842C272.42 94.1842 263.969 78.4023 260.038 73.4251C259.565 72.8318 258.944 72.3752 258.237 72.1023C257.531 71.8294 256.765 71.75 256.018 71.8722C255.27 71.9945 254.569 72.3139 253.986 72.7979C253.402 73.2818 252.958 73.9126 252.698 74.6257C252.173 76.0627 253.372 76.5907 254.353 77.7646Z" fill="#FFC2B3"/>
<path d="M269.799 100.147C269.859 100.379 269.978 100.591 270.144 100.763C270.31 100.935 270.518 101.061 270.746 101.128C270.878 101.171 271.018 101.181 271.153 101.155C271.289 101.13 271.417 101.071 271.524 100.983C271.631 100.896 271.714 100.782 271.766 100.654C271.818 100.526 271.837 100.386 271.821 100.249L271.797 99.7314C272.431 99.8206 273.542 100.356 274.434 103.447C274.5 103.694 274.647 103.912 274.851 104.066C275.055 104.219 275.305 104.299 275.561 104.293C275.733 104.274 275.893 104.191 276.008 104.06C276.123 103.93 276.186 103.761 276.184 103.587C276.184 103.57 276.184 103.551 276.184 103.534C276.288 103.653 276.418 103.746 276.564 103.806C276.709 103.867 276.867 103.893 277.024 103.884C277.197 103.864 277.356 103.781 277.471 103.651C277.586 103.521 277.649 103.352 277.647 103.178C277.649 103.127 277.646 103.077 277.64 103.026C277.779 103.089 277.932 103.115 278.085 103.101C278.257 103.082 278.417 102.999 278.532 102.868C278.647 102.738 278.709 102.569 278.707 102.395C278.711 102.284 278.697 102.172 278.665 102.066C278.654 102.026 278.641 101.987 278.629 101.947C278.644 101.947 278.66 101.947 278.676 101.947C278.849 101.928 279.008 101.845 279.123 101.714C279.238 101.584 279.301 101.415 279.299 101.241C279.303 101.129 279.288 101.018 279.257 100.912C279.037 100.13 278.746 99.3704 278.387 98.6424L278.37 98.612C278.22 98.3147 278.054 98.0261 277.871 97.7477C277.088 96.4552 274.333 95.6765 272.411 94.1851L269.076 96.3999L269.799 100.147Z" fill="#FFC2B3"/>
<path d="M252.156 66.2775L258.859 72.1744C259.52 72.7547 259.986 73.5257 260.193 74.3817C260.4 75.2377 260.338 76.1369 260.015 76.9563C259.085 79.3192 258.107 80.8364 255.864 79.6563L246.874 73.4749L252.156 66.2775Z" fill="#FFC2B3"/>
<path d="M243.526 62.1656C247.562 62.4857 251.369 64.1712 254.325 66.9457L249.759 75.4588L240.784 72.3368L243.526 62.1656Z" fill="#FF8F58"/>
<path d="M236.26 62.6722C236.26 62.6722 230.688 64.2154 230.67 71.7062C230.659 75.7951 234.741 83.1637 234.741 83.1637L247.32 83.2324C247.32 83.2324 249.167 78.0946 250.273 73.4509C251.38 68.8073 247.839 64.3955 243.526 62.1656L236.26 62.6722Z" fill="#FF8F58"/>
<path d="M249.756 75.457L244.819 71.907L248.627 79.2988L249.756 75.457Z" fill="#EA6C2E"/>
<path d="M239.433 65.0719C241.178 64.8114 241.798 63.6394 241.537 61.8893L239.598 51.8617L234.334 52.7064L235.803 62.3763C235.864 62.7924 236.007 63.1922 236.223 63.5528C236.439 63.9135 236.724 64.2279 237.061 64.4782C237.398 64.7286 237.781 64.9098 238.188 65.0117C238.595 65.1136 239.018 65.134 239.433 65.0719Z" fill="#FFC2B3"/>
<path d="M238.396 53.8464C238.396 53.8464 240.103 59.192 235.578 61.0099L235.159 57.8184L239.807 54.2924" fill="#DB9A81"/>
<path d="M234.492 58.506C237.779 58.1938 240.218 55.5562 239.939 52.6189L239.03 42.9802L233.489 42.9963C231.443 43.1898 228.637 45.9059 228.81 47.7336L229.776 53.7098C229.979 55.8542 231.729 58.7683 234.492 58.506Z" fill="#FFC2B3"/>
<path d="M230.032 50.2222L228.772 53.4485C228.728 53.5257 228.707 53.6139 228.711 53.7028C228.715 53.7917 228.744 53.8776 228.795 53.9505C228.846 54.0235 228.916 54.0805 228.998 54.1149C229.08 54.1494 229.169 54.1598 229.257 54.1451L231.424 53.9426L230.032 50.2222Z" fill="#FFC2B3"/>
<path d="M231.134 48.7235C231.134 48.7235 229.953 48.7565 229.996 49.2506C229.996 49.2506 230.034 49.5842 231.064 49.5352C232.093 49.4861 232.349 49.3782 232.407 49.0544C232.465 48.7306 231.683 48.6646 231.134 48.7235Z" fill="#312725"/>
<path d="M231.196 51.0586C231.207 51.1555 231.19 51.2534 231.145 51.3403C231.101 51.4271 231.033 51.499 230.948 51.5469C230.863 51.5948 230.767 51.6167 230.67 51.6098C230.573 51.6028 230.48 51.5674 230.403 51.5079C230.326 51.4484 230.268 51.3675 230.237 51.2753C230.205 51.183 230.202 51.0836 230.226 50.9893C230.251 50.895 230.303 50.8101 230.375 50.7452C230.448 50.6803 230.538 50.6382 230.634 50.6242C230.766 50.6078 230.899 50.6442 231.004 50.7255C231.109 50.8068 231.178 50.9266 231.196 51.0586Z" fill="#312725"/>
<path d="M230.819 54.8121C231.093 54.7889 231.354 54.6847 231.569 54.5125C231.784 54.3404 231.943 54.1081 232.026 53.8452" stroke="#312725" stroke-width="0.597" stroke-linecap="round" stroke-linejoin="round"/>
<path d="M239.961 61.5966L243.527 62.1684C243.527 62.1684 239.781 68.2535 236.094 66.7942C231.843 65.1111 237.479 61.9115 237.479 61.9115L239.961 61.5966Z" fill="#FFC2B3"/>
<path d="M238.463 50.6601C237.663 50.4552 236.933 50.0377 236.35 49.4515C235.767 48.8653 235.353 48.1321 235.15 47.3294L227.781 48.7887C227.781 48.7887 226.64 41.4281 235.461 40.041C237.108 39.7133 238.815 39.8792 240.369 40.518C241.923 41.1567 243.255 42.2402 244.199 43.6331C244.88 44.6544 245.29 45.8331 245.389 47.0576C245.488 48.2821 245.274 49.5117 244.766 50.6297C243.796 52.6832 242.231 54.3966 240.277 55.5472L239.596 51.8625C239.596 51.8625 238.959 50.7876 238.463 50.6601Z" fill="#32292A"/>
<path d="M241.999 50.1294C242.002 50.7497 241.761 51.3463 241.328 51.7891C240.894 52.232 240.304 52.4854 239.686 52.4941C239.38 52.4878 239.078 52.421 238.798 52.2975C238.518 52.174 238.265 51.9963 238.054 51.7744C237.843 51.5526 237.678 51.2911 237.568 51.005C237.457 50.7188 237.405 50.4137 237.413 50.1071C237.409 49.4868 237.651 48.8903 238.084 48.4474C238.517 48.0045 239.107 47.7512 239.726 47.7425C240.031 47.7487 240.333 47.8155 240.613 47.939C240.893 48.0625 241.146 48.2403 241.357 48.4621C241.568 48.6839 241.734 48.9454 241.844 49.2316C241.954 49.5177 242.006 49.8228 241.999 50.1294Z" fill="#FFC2B3"/>
<path d="M238.914 50.6852C238.914 50.6852 238.93 48.9628 240.516 49.242" stroke="#312725" stroke-width="0.603" stroke-linecap="round" stroke-linejoin="round"/>
<path d="M253.73 40.6922C253.919 41.8128 253.772 42.9644 253.308 44.0014C252.844 45.0383 252.084 45.9141 251.124 46.5178C250.164 47.1215 249.046 47.4261 247.913 47.3931C246.78 47.3601 245.682 46.991 244.759 46.3324C243.835 45.6737 243.127 44.7552 242.724 43.693C242.321 42.6308 242.241 41.4726 242.494 40.3648C242.747 39.2571 243.323 38.2495 244.147 37.4696C244.972 36.6897 246.008 36.1725 247.126 35.9834C248.625 35.7298 250.162 36.0834 251.401 36.9665C252.639 37.8495 253.477 39.1897 253.73 40.6922Z" fill="#32292A"/>
<path d="M304 168.662H-25" stroke="#281F27" stroke-width="0.757" stroke-miterlimit="10"/>
</g>
<defs>
<clipPath id="clip0_921_13569">
<rect width="329" height="169" fill="white" transform="translate(-25)"/>
</clipPath>
</defs>
</svg>
