<svg width="37" height="36" viewBox="0 0 37 36" fill="none" xmlns="http://www.w3.org/2000/svg">
<path d="M19.155 35.9717C18.3662 35.9717 17.5775 35.9717 16.7606 35.9717C16.5634 35.8309 16.3662 35.9154 16.1409 35.8872C14.4507 35.69 12.7888 35.3238 11.2113 34.6478C10.5071 34.3661 9.80285 34.0562 9.15496 33.6055C9.07046 32.5351 8.81694 31.5492 8.16905 30.6478C7.01412 29.0422 6.59158 27.183 6.84511 25.2112C7.04229 23.6337 7.63384 22.2253 8.50708 20.9013C8.98595 20.1689 9.5775 19.4647 9.9437 18.6478C11.493 15.2393 11.7747 11.7745 10.6479 8.19709C10.0282 6.19709 9.83102 4.14075 9.83102 2.05624C10.1127 1.74638 10.5071 1.66187 10.8451 1.49286C12.9296 0.591451 15.0986 0.112578 17.3803 0.0280712C18.3944 -9.78336e-05 19.4367 0.0280712 20.4507 0.197085C20.7606 0.253423 21.0986 0.197085 21.4085 0.394268C21.4367 0.591451 21.5775 0.732296 21.6902 0.873142C22.1409 1.49286 22.7606 1.91539 23.3521 2.3661C24.7043 3.29568 25.5775 4.59145 26.1409 6.14075C26.2817 6.53511 26.2817 6.87314 26.1127 7.23934C25.5212 8.47878 24.6479 9.29568 23.2113 9.35201C22.7324 9.38018 22.2817 9.26751 21.7747 9.183C21.831 9.35201 21.9719 9.40835 22.0845 9.46469C23.6057 10.5069 25.0423 11.69 26.2536 13.0985C28.0845 15.183 29.155 17.5774 29.1268 20.4224C29.1268 23.7464 27.8029 26.3661 25.0986 28.2534C24 29.014 22.8169 29.6055 21.6338 30.1689C20.5916 30.676 20.0845 31.4929 19.831 32.5633C19.5775 33.6337 19.6338 34.7323 19.6338 35.8309C19.493 35.9717 19.2958 35.8309 19.155 35.9717ZM17.4648 29.5492C17.7465 29.5492 18.0282 29.5492 18.3099 29.4929C20.6479 29.014 22.7888 28.1126 24.5916 26.5351C27.3521 24.1126 28.1127 20.6196 27.1831 17.3238C26.6761 15.5492 25.5775 14.2253 24.0564 13.183C22.3381 11.9717 20.5352 11.8309 18.6479 12.6478C17.1831 13.2675 16.169 14.3098 15.8874 15.9436C15.8029 16.5069 15.8029 17.0985 15.8029 17.6619C15.7747 18.5914 15.493 19.4084 14.8733 20.0844C14.4789 20.5069 14.0845 20.9576 13.7183 21.4084C12.7606 22.5069 12.2536 23.7464 12.4789 25.2393C12.8451 27.6055 14.7888 29.6337 17.4648 29.5492Z" fill="#FED8DF"/>
<path d="M0 16.8449C0.140845 16.4223 0.112676 15.9716 0.197183 15.5209C1.12676 9.57728 4.25352 5.15474 9.46479 2.197C9.57746 2.14066 9.69014 2.05615 9.83099 2.05615C9.83099 4.14066 10.0282 6.197 10.6479 8.197C11.7746 11.7745 11.493 15.2674 9.94366 18.6477C9.57746 19.4646 8.98592 20.1407 8.50704 20.9012C7.66197 22.2252 7.04225 23.6336 6.84507 25.2111C6.59155 27.2111 7.04225 29.0421 8.16901 30.6477C8.8169 31.5773 9.07042 32.535 9.15493 33.6054C9.12676 33.6054 9.09859 33.6054 9.09859 33.5773C4.11268 30.6759 1.12676 26.3378 0.197183 20.5914C0.112676 20.1407 0.140845 19.6618 0 19.2393C0 19.0139 0 18.7604 0 18.535C0.084507 18.1407 0.112676 17.7463 0 17.3519C0 17.1547 0 16.9857 0 16.8449Z" fill="#FE8CA4"/>
<path d="M0 17.3237C0.112676 17.7181 0.084507 18.1125 0 18.5068C0 18.1125 0 17.7181 0 17.3237Z" fill="white"/>
<path d="M21.3802 0.422363C23.2112 0.760391 24.9577 1.38011 26.5915 2.30969C31.3521 5.01391 34.4225 9.04208 35.4929 14.3942C36.6478 20.0843 35.2957 25.2393 31.5492 29.69C28.9295 32.7886 25.5492 34.7322 21.5774 35.5773C20.9295 35.7181 20.3098 35.8308 19.6338 35.859C19.6338 34.7604 19.5774 33.6618 19.8309 32.5914C20.0845 31.521 20.5915 30.6759 21.6338 30.197C22.8169 29.6336 23.9999 29.0421 25.0985 28.2815C27.8309 26.366 29.1267 23.7745 29.1267 20.4505C29.1267 17.6055 28.0563 15.2393 26.2535 13.1266C25.0422 11.7181 23.6056 10.5632 22.0845 9.49279C21.9718 9.40828 21.8309 9.38011 21.7746 9.21109C22.2535 9.2956 22.7323 9.40828 23.2112 9.38011C24.6478 9.2956 25.5492 8.50687 26.1126 7.26743C26.2816 6.90124 26.2816 6.56321 26.1408 6.16884C25.5774 4.64772 24.7042 3.35194 23.3521 2.39419C22.7323 1.97166 22.1408 1.52095 21.6901 0.901237C21.5492 0.760391 21.4366 0.619546 21.3802 0.422363Z" fill="#FE8CA4"/>
<path d="M17.4648 29.549C14.8169 29.6335 12.8451 27.6053 12.4789 25.211C12.2535 23.718 12.7606 22.4786 13.7183 21.38C14.1127 20.9293 14.4789 20.5068 14.8732 20.056C15.4929 19.38 15.8028 18.5631 15.8028 17.6335C15.8028 17.0701 15.8028 16.4786 15.8873 15.9152C16.1408 14.2814 17.1831 13.2673 18.6479 12.6194C20.5352 11.8025 22.338 11.9715 24.0563 13.1546C25.5493 14.1969 26.676 15.5208 27.1831 17.2955C28.1127 20.5913 27.3521 24.0842 24.5915 26.5068C22.7887 28.0842 20.6479 29.0138 18.3098 29.4645C18.0282 29.549 17.7465 29.5208 17.4648 29.549ZM19.0704 20.9293C18.8451 21.0701 18.676 21.0983 18.5634 21.2673C18.3098 21.6335 17.8873 21.7462 17.4648 21.8307C16.8169 21.9434 16.169 21.9152 15.5211 21.887C15.4084 21.887 15.2958 21.8307 15.1831 21.9434C14.4225 22.6194 13.9155 23.4082 13.8873 24.4504C13.8591 25.4927 14.3098 26.3941 14.9014 27.2391C15.5211 28.1124 17.0422 28.7039 18.2535 28.3096C19.2113 27.9997 20 27.4363 20.5915 26.6758C21.0704 26.0842 21.6338 25.8025 22.338 25.5772C23.9718 25.0701 25.2958 24.1124 25.831 22.4222C26.507 20.3377 26.3943 18.2532 25.5211 16.2251C24.9577 14.9011 23.8873 14.2251 22.4225 14.1687C21.8591 14.1406 21.4366 14.3659 21.0422 14.7321C20.676 15.0701 20.4507 15.4927 20.1408 15.887C20.2253 15.4927 20.338 15.1265 20.4507 14.7321C20.5915 14.1406 20.338 13.7744 19.7183 13.7462C19.2113 13.718 18.7324 13.8589 18.3098 14.0561C17.662 14.3659 17.3521 15.042 17.4929 15.7462C17.5211 15.9152 17.6056 15.9997 17.8028 15.9434C18.0563 15.8589 18.3098 15.7462 18.6479 15.718C18.1972 16.3096 17.8873 16.9293 17.8028 17.6617C17.662 18.9856 18.676 19.8307 19.9436 19.4363C20.0845 19.38 20.2253 19.3237 20.3662 19.2673C20.7324 19.1265 21.0141 18.9011 21.3803 18.7603C21.2394 19.042 20.9859 19.211 20.7887 19.4363C20.4225 19.8307 19.9436 19.9152 19.4366 19.8589C19.0986 19.8025 18.7887 19.718 18.507 19.549C18.3098 19.4363 18.169 19.4927 18.0282 19.6335C17.6901 20.0279 17.8028 20.6194 18.2817 20.8166C18.507 20.8448 18.7324 20.9011 19.0704 20.9293Z" fill="#F65E7B"/>
<path d="M19.0704 20.9295C18.7324 20.9295 18.5071 20.845 18.2535 20.7605C17.7747 20.5634 17.6338 19.9436 18 19.5774C18.1409 19.4084 18.2817 19.3803 18.4789 19.4929C18.7606 19.6619 19.0704 19.7465 19.4085 19.8028C19.9155 19.8873 20.3944 19.7746 20.7606 19.3803C20.9578 19.1549 21.2113 18.9859 21.3521 18.7042C21.0141 18.845 20.7042 19.0986 20.338 19.2112C20.1972 19.2676 20.0563 19.3239 19.9155 19.3803C18.6479 19.8028 17.6338 18.9295 17.7747 17.6056C17.8592 16.8732 18.169 16.2817 18.6197 15.6619C18.2817 15.6619 18.0282 15.8028 17.7747 15.8873C17.5775 15.9718 17.493 15.8873 17.4648 15.6901C17.324 14.9859 17.6338 14.3098 18.2817 14C18.7324 13.8028 19.2113 13.6619 19.6901 13.6901C20.3099 13.7183 20.5634 14.0563 20.4225 14.676C20.338 15.0704 20.1972 15.4366 20.1127 15.831C20.4225 15.4366 20.6479 15.0141 21.0141 14.676C21.4085 14.3098 21.831 14.0845 22.3944 14.1126C23.8592 14.169 24.9296 14.845 25.493 16.169C26.338 18.1972 26.4789 20.2817 25.8028 22.3662C25.2394 24.0563 23.9437 25.0141 22.3099 25.5211C21.6056 25.7464 21.0423 26.0281 20.5634 26.6197C19.9718 27.3803 19.1831 27.9436 18.2254 28.2535C17.0141 28.6479 15.4648 28.0563 14.8732 27.1831C14.2817 26.338 13.831 25.4648 13.8592 24.3943C13.8873 23.3521 14.3944 22.5634 15.1549 21.8873C15.2676 21.8028 15.3803 21.831 15.493 21.831C16.1409 21.8591 16.7887 21.8873 17.4366 21.7746C17.8592 21.7183 18.2535 21.6056 18.5352 21.2112C18.6761 21.0986 18.8451 21.0704 19.0704 20.9295ZM23.1549 21.8028C23.4366 20.9295 23.5211 20.0281 23.324 19.1267C23.2113 18.6479 22.9859 18.2253 22.6197 17.9155C22.5071 17.831 22.4225 17.7746 22.2817 17.8873C22.0563 18.0845 21.8028 18.2817 21.5493 18.4788C21.6901 18.5352 21.7747 18.4507 21.8592 18.4225C22.4225 18.169 22.8732 18.3943 23.0141 18.9859C23.0986 19.3803 23.1549 19.7746 23.1549 20.169C23.1549 20.7324 23.1549 21.2676 23.1549 21.8028ZM20.9578 23.7746C20.9859 23.7746 20.9859 23.7746 21.0141 23.7746C21.0704 22.8732 21.1549 21.9718 21.2113 21.0986C21.2113 20.9859 21.2394 20.845 21.0704 20.8732C20.7042 20.9014 20.3099 20.9295 19.9437 20.9859C20.5634 21.1267 20.7324 21.5774 20.7606 22.1126C20.8451 22.6479 20.9014 23.2112 20.9578 23.7746Z" fill="white"/>
<path d="M23.155 21.8027C23.155 21.2674 23.155 20.7322 23.155 20.1688C23.155 19.7745 23.1268 19.3801 23.0141 18.9858C22.8733 18.366 22.4226 18.1689 21.8592 18.4224C21.7747 18.4505 21.6902 18.535 21.5493 18.4787C21.8028 18.2815 22.0282 18.0843 22.2817 17.8872C22.4226 17.7745 22.5071 17.8027 22.6197 17.9153C22.9859 18.2534 23.2395 18.6477 23.324 19.1266C23.5493 20.028 23.4366 20.9294 23.155 21.8027Z" fill="#FB7C90"/>
<path d="M20.9578 23.7745C20.9015 23.2112 20.817 22.6478 20.7606 22.0844C20.7043 21.5492 20.5353 21.0985 19.9437 20.9576C20.3099 20.9295 20.7043 20.9013 21.0705 20.845C21.2677 20.8168 21.2395 20.9576 21.2113 21.0703C21.155 21.9717 21.0705 22.8731 21.0141 23.7464C21.0141 23.7745 20.986 23.7745 20.9578 23.7745Z" fill="#FB7C90"/>
</svg>
