<svg width="36" height="36" viewBox="0 0 36 36" fill="none" xmlns="http://www.w3.org/2000/svg">
<path d="M18.0033 36C27.9426 36 35.9999 27.9687 35.9999 18.0615C35.9999 8.15437 27.9426 0.123047 18.0033 0.123047C8.06407 0.123047 0.00671387 8.15437 0.00671387 18.0615C0.00671387 27.9687 8.06407 36 18.0033 36Z" fill="#FFB5B5"/>
<path d="M2.39124 26.8383C1.90809 26.1099 1.51735 25.3246 1.22794 24.5004C0.582529 22.9151 0.191595 21.2384 0.0694948 19.5319C0.0720784 19.4615 0.0471567 19.3929 0 19.3405V16.5374C0.130735 15.9382 0.160513 15.3247 0.269217 14.7209C0.61881 12.7533 1.30368 10.8597 2.29416 9.12234C3.62719 6.76921 5.47528 4.74589 7.70097 3.20285C9.92666 1.6598 12.4727 0.636728 15.1498 0.209707C15.6294 0.133209 16.1111 0.0694999 16.5917 0H18.4196C18.8512 0.350878 18.9229 0.589544 18.722 0.943076C18.6574 1.04132 18.5686 1.12144 18.4641 1.17576C18.3597 1.23009 18.243 1.25682 18.1252 1.25341C16.6828 1.39932 15.2641 1.72266 13.9015 2.21603C10.9672 3.24582 8.35187 5.01817 6.31202 7.35925C4.27216 9.70033 2.87784 12.5297 2.26583 15.5699C1.96028 17.1507 1.86562 18.7649 1.98427 20.3705C2.09633 22.2339 2.51892 24.0657 3.23472 25.7907C3.29778 25.9284 3.34286 26.0736 3.36885 26.2227C3.38933 26.3089 3.38897 26.3986 3.36777 26.4846C3.34658 26.5706 3.30518 26.6504 3.24697 26.7173C3.18877 26.7842 3.11544 26.8363 3.03304 26.8694C2.95063 26.9025 2.86151 26.9156 2.77304 26.9076C2.66773 26.9114 2.56217 26.9092 2.45661 26.91H2.46121L2.39124 26.8383Z" fill="#FED8DF"/>
<path d="M16.1745 21.1626C14.8416 20.9357 13.5991 20.3411 12.5878 19.4464C11.8277 18.7899 11.1134 18.0826 10.4498 17.3293C9.72888 16.5148 8.88198 15.8205 7.94116 15.2725C8.21783 14.4547 8.57803 13.6673 9.01609 12.9228C10.4413 10.453 12.5478 8.44284 15.0853 7.13113C16.1512 6.59395 17.2736 6.17624 18.4319 5.88568C18.6817 5.83783 18.9114 5.71637 19.0913 5.53702C19.2711 5.35767 19.3929 5.12867 19.4407 4.87962C19.4978 4.63973 19.4914 4.38918 19.4221 4.15251C19.3529 3.91583 19.2231 3.70114 19.0456 3.52944C18.9488 3.43292 18.7955 3.38706 18.7672 3.22852C20.4303 3.26086 22.0712 3.61492 23.5988 4.27102C25.3142 4.96626 26.8805 5.98194 28.2133 7.26337C30.2436 9.18283 31.6837 11.6388 32.3651 14.3441C32.6921 15.5833 32.8457 16.8616 32.8214 18.1428C32.7812 20.611 32.123 23.0301 30.9069 25.1805C29.6907 27.3309 27.9549 29.1444 25.8572 30.4565C23.4366 31.944 20.6472 32.7275 17.8036 32.7187C15.2966 32.6788 12.8404 32.0074 10.6636 30.767C8.48685 29.5265 6.66034 27.7572 5.35407 25.6239C5.32245 25.5628 5.29557 25.4994 5.27368 25.4342C5.38771 25.4385 5.45865 25.5283 5.55234 25.573C5.78236 25.6931 6.04167 25.7463 6.30059 25.7263C6.5595 25.7064 6.80755 25.6142 7.01633 25.4603C7.22434 25.3338 7.38914 25.1476 7.48903 24.9261C7.58893 24.7046 7.61927 24.4582 7.57607 24.2192C7.33762 23.1303 7.16782 22.0275 7.06766 20.9174C7.0465 20.1986 7.06614 19.4791 7.12649 18.7625C7.20218 17.9885 7.33414 17.221 7.52135 16.4661C8.34199 16.9821 9.07812 17.6208 9.7039 18.3599C11.3432 20.1508 13.0916 21.7809 15.5855 22.3125C16.224 22.4434 16.8714 22.5262 17.5223 22.5601C17.5792 22.5748 17.6387 22.5764 17.6963 22.5648C17.7539 22.5533 17.8082 22.5289 17.855 22.4935C18.1591 22.6241 18.4469 22.8313 18.453 23.1583C18.4593 23.5078 18.1242 23.6651 17.8286 23.7957C17.8179 23.8005 17.807 23.8046 17.7959 23.8084C16.7798 24.1899 15.6627 24.2095 14.6338 23.8639C13.923 23.6246 13.3366 23.1767 12.7326 22.7556C12.3828 22.5118 12.0145 22.3695 11.587 22.5989C11.3503 22.7035 11.1471 22.871 10.9995 23.0831C10.852 23.2952 10.7658 23.5436 10.7505 23.8012C10.7188 24.2461 10.818 24.6906 11.0359 25.0802C11.449 25.827 12.001 26.4886 12.6624 27.0296C14.2648 28.3434 16.2374 29.1281 18.307 29.275C19.7354 29.4048 21.1743 29.195 22.5055 28.6628C24.46 27.8742 25.9073 26.5614 26.7241 24.5961C27.4441 22.8639 27.4548 21.0815 27.0984 19.2789C26.8186 17.9387 26.8874 16.5495 27.2981 15.2433C27.6987 14.0658 27.7379 12.7961 27.4107 11.5963C26.7742 9.32785 25.0096 7.81503 22.637 7.65238C21.6505 7.55641 20.6564 7.72772 19.7595 8.14822C18.8626 8.56872 18.0963 9.22282 17.5414 10.0414C17.1576 10.5462 16.8854 11.1263 16.7427 11.7435C16.6 12.3607 16.5901 13.0011 16.7137 13.6224C17.0614 15.3893 18.1474 16.5681 19.8148 17.218C20.1329 17.3277 20.4096 17.5318 20.6079 17.8029C20.8062 18.074 20.9166 18.3991 20.9241 18.7345C20.964 19.2757 20.6038 19.6515 20.0474 19.4973C19.7658 19.4204 19.4891 19.3264 19.219 19.2157C18.6294 18.9314 18.0139 18.7037 17.3809 18.5359C16.6726 18.3887 16.1106 18.6756 15.8942 19.3643C15.7915 19.6643 15.7633 19.9847 15.8121 20.2979C15.861 20.6111 15.9853 20.9079 16.1745 21.1626Z" fill="#FF8888"/>
<path d="M16.1746 21.1624C15.986 20.9078 15.862 20.6114 15.8135 20.2986C15.7649 19.9858 15.7931 19.6659 15.8957 19.3663C16.1121 18.6776 16.674 18.3909 17.3824 18.5379C18.0154 18.7057 18.6309 18.9334 19.2205 19.2177C19.4906 19.3284 19.7672 19.4224 20.0489 19.4993C20.6058 19.6542 20.9655 19.2777 20.9256 18.7365C20.918 18.4011 20.8077 18.076 20.6094 17.8049C20.4111 17.5338 20.1344 17.3297 19.8163 17.22C18.1489 16.5685 17.0629 15.3908 16.7152 13.6244C16.5916 13.0031 16.6015 12.3627 16.7442 11.7455C16.8868 11.1283 17.1591 10.5482 17.5429 10.0434C18.0978 9.22481 18.8641 8.57072 19.761 8.15022C20.6579 7.72971 21.652 7.5584 22.6385 7.65437C25.011 7.81702 26.776 9.32985 27.4122 11.5982C27.7393 12.798 27.7001 14.0678 27.2996 15.2453C26.8889 16.5515 26.8201 17.9407 27.0999 19.2809C27.4563 21.0835 27.4456 22.8659 26.7256 24.5981C25.9088 26.5634 24.4615 27.8762 22.507 28.6648C21.1758 29.197 19.7369 29.4068 18.3085 29.277C16.2388 29.1302 14.2662 28.3454 12.6639 27.0316C12.0025 26.4906 11.4505 25.829 11.0374 25.0822C10.8195 24.6926 10.7203 24.2481 10.752 23.8032C10.7673 23.5456 10.8535 23.2972 11.001 23.0851C11.1485 22.873 11.3518 22.7055 11.5884 22.601C12.0158 22.3719 12.3842 22.5138 12.7341 22.7576C13.3393 23.1784 13.9245 23.6263 14.6353 23.8659C15.6642 24.2115 16.7813 24.1919 17.7974 23.8104C17.8085 23.8066 17.8194 23.8022 17.8301 23.7976C18.1257 23.6666 18.4595 23.5095 18.4545 23.1603C18.4486 22.8336 18.1605 22.626 17.8565 22.4955C17.7117 22.3292 17.533 22.1957 17.3323 22.1038C16.9195 21.8244 16.5322 21.5094 16.1746 21.1624ZM24.0429 21.0777C24.1022 22.726 23.5006 24.0675 22.1204 24.9989C21.176 25.6314 20.0206 25.87 18.9019 25.6635C18.4823 25.5972 18.1315 25.7878 18.0744 26.1199C18.0561 26.2091 18.057 26.3012 18.0769 26.3901C18.0968 26.479 18.1353 26.5627 18.1899 26.6358C18.2444 26.7089 18.3138 26.7697 18.3935 26.8142C18.4732 26.8587 18.5615 26.886 18.6525 26.8943C19.2982 27.0069 19.9589 27.0047 20.6038 26.8877C22.6542 26.4999 24.1085 25.3674 24.9021 23.4292C25.3081 22.4416 25.4216 21.3587 25.2289 20.3089C25.2054 20.1576 25.1281 20.0197 25.0112 19.9204C24.8942 19.8212 24.7453 19.7671 24.5917 19.7681C24.5123 19.7717 24.4344 19.7916 24.363 19.8265C24.2916 19.8615 24.2282 19.9107 24.1767 19.9712C24.1252 20.0316 24.0868 20.102 24.0639 20.1779C24.0409 20.2539 24.034 20.3337 24.0434 20.4124C24.0414 20.634 24.0438 20.856 24.0438 21.0777H24.0429ZM22.0702 12.2566C22.0761 11.6291 21.9172 11.4062 21.534 11.3601C21.227 11.3231 20.9624 11.5649 20.8677 11.9906C20.8073 12.2385 20.7664 12.4908 20.7452 12.745C20.7258 12.9034 20.769 13.063 20.8657 13.1902C20.9623 13.3174 21.1049 13.402 21.2631 13.4262C21.4155 13.4379 21.5672 13.3956 21.6915 13.3068C21.8157 13.2179 21.9045 13.0882 21.9422 12.9405C21.9968 12.7148 22.0399 12.4866 22.0712 12.2566H22.0702Z" fill="#FEEAD1"/>
<path d="M18.7673 3.22732C18.7956 3.38587 18.9498 3.4322 19.0457 3.52825C19.2232 3.69994 19.3529 3.91464 19.4222 4.15131C19.4914 4.38799 19.4978 4.63854 19.4408 4.87843C19.3929 5.12749 19.2712 5.35651 19.0914 5.53587C18.9115 5.71522 18.6818 5.83667 18.432 5.88449C17.2737 6.17505 16.1513 6.59275 15.0854 7.12994C12.5479 8.44165 10.4414 10.4518 9.01616 12.9216C8.5781 13.6661 8.2179 14.4535 7.94123 15.2713C6.4862 14.5421 4.9963 14.5734 3.44104 15.1024C4.21334 11.4848 5.99473 8.53176 8.89753 6.29208C11.796 4.05601 15.0825 2.98576 18.7673 3.22732Z" fill="#F57575"/>
<path d="M7.52188 16.4674C7.33468 17.2223 7.20271 17.9898 7.12701 18.7638C7.06665 19.4804 7.04702 20.1999 7.06819 20.9188C7.16836 22.0288 7.33816 23.1316 7.57659 24.2205C7.61979 24.4595 7.58946 24.706 7.48956 24.9275C7.38966 25.149 7.22487 25.3352 7.01685 25.4616C6.80807 25.6155 6.56003 25.7077 6.30111 25.7277C6.0422 25.7476 5.78288 25.6945 5.55287 25.5743C5.45917 25.5297 5.38824 25.4399 5.27421 25.4356C4.78475 24.7241 4.39638 23.9485 4.12012 23.131C3.63062 21.8093 3.32585 20.4267 3.21441 19.0223C3.17207 18.1632 3.18016 17.3024 3.23863 16.4442C3.24371 16.3055 3.25703 16.1694 3.46233 16.2857C3.65044 16.3921 3.82548 16.2775 4.00076 16.2232C4.87856 15.9218 5.82558 15.8827 6.72537 16.1107C7.00095 16.2059 7.2675 16.3252 7.52188 16.4674Z" fill="#F57575"/>
<path d="M2.39124 26.8384L2.46048 26.9108L2.39124 26.8384Z" fill="#FEBECA"/>
<path d="M24.0438 21.078C24.0438 20.8562 24.0414 20.6342 24.0438 20.4124C24.0344 20.3337 24.0414 20.2539 24.0643 20.178C24.0873 20.1021 24.1256 20.0317 24.1771 19.9712C24.2285 19.9108 24.2919 19.8615 24.3633 19.8266C24.4346 19.7916 24.5125 19.7717 24.5919 19.7681C24.7456 19.7671 24.8944 19.8212 25.0114 19.9204C25.1283 20.0197 25.2056 20.1576 25.2291 20.3089C25.4218 21.3587 25.3084 22.4416 24.9023 23.4291C24.1087 25.3674 22.6544 26.4999 20.604 26.8877C19.9591 27.0046 19.2984 27.0069 18.6527 26.8943C18.5617 26.886 18.4735 26.8587 18.3937 26.8142C18.314 26.7697 18.2446 26.7089 18.1901 26.6358C18.1355 26.5627 18.097 26.479 18.0771 26.3901C18.0572 26.3012 18.0564 26.2091 18.0746 26.1199C18.1315 25.7878 18.4825 25.5974 18.9021 25.6635C20.0208 25.87 21.1762 25.6314 22.1206 24.9989C23.5015 24.0677 24.1039 22.7259 24.0438 21.078Z" fill="#FFB5B5"/>
<path d="M22.0711 12.2557C22.04 12.4856 21.9972 12.7139 21.9428 12.9396C21.9051 13.0873 21.8164 13.217 21.6921 13.3058C21.5679 13.3947 21.4162 13.437 21.2637 13.4253C21.1055 13.4011 20.963 13.3165 20.8663 13.1893C20.7697 13.0621 20.7265 12.9025 20.7459 12.7441C20.767 12.4899 20.808 12.2376 20.8684 11.9897C20.963 11.564 21.2279 11.3222 21.5346 11.3592C21.9189 11.4062 22.077 11.6299 22.0711 12.2557Z" fill="#FFB5B5"/>
<g clip-path="url(#clip0_235_2894)">
<path d="M19.2953 35.9905C18.3787 35.9905 17.4715 35.9905 16.5549 35.9905C16.1246 35.8408 15.6663 35.8502 15.2174 35.7847C13.431 35.5135 11.7193 34.971 10.0919 34.1853C7.62269 32.9881 5.55566 31.2859 3.8534 29.144C3.32028 28.4799 2.80586 27.8065 2.45044 27.0209C2.55332 27.0209 2.65621 27.0209 2.76844 27.0209C3.18933 27.0021 3.41381 26.7496 3.36704 26.3381C3.34834 26.1884 3.29222 26.0481 3.2361 25.9078C2.52526 24.1682 2.09502 22.3537 1.99214 20.4831C1.89861 18.8743 1.94537 17.2656 2.27273 15.6756C2.73103 13.4869 3.5354 11.4386 4.7513 9.53995C5.80819 7.89381 7.10827 6.48149 8.63282 5.25624C10.2228 3.96551 11.9906 2.98344 13.9173 2.29131C15.2735 1.80495 16.6671 1.47759 18.0981 1.3373C18.3226 1.31859 18.5564 1.26247 18.6967 1.02865C18.9025 0.673228 18.837 0.430048 18.4068 0.0839844C19.2579 0.0839844 20.1091 0.177515 20.9415 0.317811C22.943 0.663875 24.8511 1.30924 26.6375 2.30066C28.1246 3.13309 29.4715 4.14322 30.678 5.34977C32.2306 6.90238 33.4559 8.67946 34.3631 10.681C35.3078 12.7668 35.8129 14.9647 35.9251 17.2469C35.9906 18.5376 35.8877 19.8283 35.6632 21.1097C35.0833 24.4862 33.6336 27.4511 31.3608 30.0045C29.7708 31.7816 27.9095 33.2032 25.749 34.2321C24.1215 35.0084 22.4286 35.5322 20.6515 35.794C20.1839 35.8595 19.7349 35.8502 19.2953 35.9905ZM17.8269 22.5968C17.7334 22.6904 17.6118 22.6717 17.4995 22.6623C16.8542 22.6249 16.2088 22.5501 15.5635 22.4191C13.0755 21.886 11.3265 20.2586 9.68972 18.4628C9.03501 17.7426 8.36159 17.0598 7.51046 16.5641C7.24857 16.4425 6.99604 16.2835 6.71544 16.2087C5.79884 15.9562 4.89159 16.0403 3.9937 16.3209C3.81599 16.3771 3.64763 16.4893 3.46057 16.3864C3.2548 16.2742 3.24545 16.4051 3.2361 16.5454C3.18933 17.4059 3.15192 18.257 3.21739 19.1269C3.32963 20.5485 3.62893 21.9141 4.12464 23.2422C4.42394 24.0559 4.7513 24.8509 5.27507 25.5524C5.30313 25.6179 5.32183 25.6834 5.35925 25.7395C6.61256 27.7878 8.26805 29.434 10.307 30.6873C12.5985 32.0902 15.1052 32.773 17.7801 32.8478C18.6313 32.8759 19.473 32.773 20.3148 32.6421C22.2883 32.3428 24.1309 31.6413 25.8144 30.5844C27.7879 29.3404 29.3873 27.7223 30.6032 25.7301C32.0062 23.4386 32.6983 20.932 32.7638 18.257C32.7918 16.9756 32.6235 15.7036 32.3055 14.4503C31.604 11.6912 30.2197 9.34353 28.1621 7.36068C26.8152 6.0606 25.2813 5.06918 23.5603 4.36769C22.0171 3.73169 20.4177 3.3295 18.7435 3.32015C15.0584 3.06762 11.7755 4.13387 8.88536 6.37861C5.9859 8.62335 4.20882 11.5789 3.44187 15.1986C4.99448 14.6654 6.48162 14.6374 7.93134 15.3669C8.86665 15.9 9.67102 16.5828 10.3819 17.3778C11.074 18.1354 11.7755 18.8837 12.5611 19.5477C13.6087 20.4269 14.7684 21.0536 16.1433 21.2687C16.5175 21.5961 16.8729 21.9421 17.3031 22.2134C17.4808 22.3163 17.696 22.4098 17.8269 22.5968Z" fill="#FEBECA"/>
<path d="M0.00930675 16.6297C0.0747783 16.1527 0.14025 15.6663 0.215074 15.1893C0.654669 12.3927 1.70221 9.85805 3.34836 7.55719C3.99372 6.6593 4.6952 5.82687 5.49021 5.06927C7.64142 3.03966 10.12 1.58993 12.9727 0.766857C14.7404 0.252438 16.5456 0.00925764 18.3881 0.0840823C18.8184 0.430146 18.8838 0.673326 18.6781 1.02874C18.5378 1.26257 18.3039 1.30934 18.0795 1.33739C16.6484 1.47769 15.2548 1.80505 13.8986 2.29141C11.9719 2.98354 10.2042 3.96561 8.61414 5.25634C7.09894 6.47224 5.78951 7.88455 4.74196 9.54005C3.53542 11.4294 2.7217 13.4777 2.2634 15.6757C1.93604 17.2657 1.88928 18.8744 1.98281 20.4831C2.09504 22.3538 2.51593 24.1683 3.22677 25.9079C3.28288 26.0482 3.339 26.1885 3.35771 26.3382C3.41383 26.7497 3.18 27.0116 2.75911 27.021C2.65623 27.021 2.55334 27.021 2.44111 27.021C2.4224 26.9929 2.39434 26.9742 2.37564 26.9461C2.31016 26.8619 2.23534 26.7871 2.18857 26.6936C1.2065 24.8791 0.533079 22.9524 0.196368 20.904C0.112191 20.4177 0.121544 19.9126 -0.00939941 19.4356C0.00930675 18.5003 0.00930675 17.565 0.00930675 16.6297Z" fill="#FED8DF"/>
<path d="M16.1434 21.2593C14.7779 21.0535 13.6087 20.4175 12.5612 19.5383C11.7755 18.8742 11.0647 18.1353 10.3819 17.3684C9.66174 16.5827 8.85738 15.8906 7.93142 15.3575C8.20266 14.5344 8.56743 13.7581 9.00702 13.0005C10.4661 10.4845 12.4957 8.55777 15.0678 7.20158C16.1247 6.64039 17.2564 6.26627 18.4069 5.95762C18.9306 5.81732 19.3048 5.49932 19.417 4.94749C19.5199 4.44242 19.3983 3.97477 19.0242 3.59129C18.9306 3.49776 18.7716 3.45099 18.7436 3.29199C20.4271 3.30135 22.0265 3.70353 23.5604 4.33954C25.2814 5.05037 26.8153 6.0418 28.1621 7.33252C30.2198 9.30602 31.6041 11.663 32.3055 14.4222C32.6235 15.6661 32.7919 16.9381 32.7638 18.2289C32.6984 20.9038 32.0062 23.4011 30.6033 25.702C29.3874 27.6942 27.788 29.3216 25.8145 30.5562C24.131 31.6225 22.2884 32.3146 20.3149 32.6139C19.4731 32.7448 18.6313 32.8477 17.7802 32.8197C15.1052 32.7448 12.5986 32.0621 10.3071 30.6591C8.25878 29.4058 6.61264 27.7596 5.35932 25.7113C5.32191 25.6552 5.30321 25.5804 5.27515 25.5243C5.38738 25.5243 5.46221 25.6178 5.55574 25.6646C6.06081 25.9077 6.56587 25.8703 7.01482 25.5523C7.43571 25.2624 7.66953 24.8228 7.576 24.3084C7.36088 23.214 7.14576 22.1291 7.07094 21.0067C7.02417 20.2772 7.099 19.5663 7.12706 18.8462C7.16447 18.0699 7.37024 17.3123 7.51989 16.5453C8.37102 17.041 9.04444 17.7238 9.69915 18.444C11.3359 20.2398 13.0756 21.8672 15.5729 22.4003C16.2089 22.5406 16.8543 22.6061 17.509 22.6435C17.6212 22.6529 17.7428 22.6716 17.8363 22.578C18.1356 22.709 18.4256 22.9147 18.4349 23.2421C18.4443 23.5882 18.1076 23.7472 17.8083 23.8781C17.7989 23.8875 17.7896 23.8875 17.7802 23.8875C16.7327 24.2616 15.6851 24.299 14.6282 23.9436C13.9174 23.7004 13.3375 23.2515 12.7296 22.8306C12.3835 22.5874 12.0094 22.4471 11.5885 22.6716C11.1021 22.9335 10.7935 23.3076 10.7561 23.8781C10.728 24.3364 10.8215 24.7667 11.0366 25.1595C11.4575 25.9077 11.9907 26.5624 12.6641 27.1143C14.3102 28.4611 16.1995 29.1907 18.2946 29.359C19.7257 29.4806 21.138 29.2935 22.4848 28.7417C24.4396 27.9561 25.88 26.6373 26.6937 24.6731C27.4139 22.9428 27.4232 21.1564 27.0678 19.3512C26.7966 17.9857 26.8433 16.6388 27.2642 15.3107C27.6477 14.1041 27.7225 12.8882 27.3765 11.663C26.7405 9.3902 24.9821 7.875 22.6158 7.716C20.5113 7.5757 18.781 8.38007 17.5277 10.1104C16.7607 11.1766 16.4427 12.3925 16.7046 13.6926C17.0507 15.4603 18.1356 16.6388 19.8005 17.2935C20.502 17.5648 20.8574 18.0979 20.9041 18.8087C20.9416 19.3512 20.5861 19.7253 20.025 19.5757C19.7444 19.5009 19.4731 19.4073 19.2019 19.2951C18.6033 19.0426 18.014 18.7526 17.3687 18.6123C16.6578 18.4627 16.0967 18.7526 15.8815 19.4448C15.6664 20.0995 15.7506 20.7074 16.1434 21.2593Z" fill="#FB7C90"/>
<path d="M16.1433 21.2594C15.7505 20.7076 15.6663 20.0996 15.8628 19.4636C16.0779 18.7715 16.6391 18.4909 17.3499 18.6312C17.9953 18.7622 18.5845 19.0615 19.1831 19.314C19.4543 19.4262 19.7256 19.5198 20.0062 19.5946C20.558 19.7536 20.9228 19.3701 20.8854 18.8276C20.8292 18.1074 20.4832 17.5837 19.7817 17.3124C18.1168 16.6577 17.0319 15.4792 16.6858 13.7115C16.4333 12.4114 16.7419 11.1955 17.5089 10.1293C18.7529 8.39894 20.4925 7.59458 22.597 7.73487C24.9633 7.89388 26.7217 9.40907 27.3577 11.6819C27.7038 12.9071 27.6289 14.123 27.2455 15.3296C26.8246 16.6577 26.7778 18.0046 27.049 19.3701C27.4045 21.1752 27.3951 22.9617 26.6749 24.692C25.8612 26.6561 24.4115 27.9749 22.466 28.7606C21.1192 29.3031 19.7069 29.4901 18.2758 29.3779C16.1808 29.2002 14.2821 28.48 12.6453 27.1332C11.9719 26.5813 11.4387 25.936 11.0179 25.1784C10.7934 24.7855 10.7092 24.3553 10.7373 23.897C10.7747 23.3265 11.0833 22.9523 11.5697 22.6904C11.9999 22.4566 12.3647 22.6063 12.7108 22.8494C13.3094 23.2703 13.8986 23.7193 14.6094 23.9625C15.6663 24.3179 16.7232 24.2805 17.7614 23.9063C17.7708 23.9063 17.7801 23.897 17.7895 23.897C18.0888 23.766 18.4161 23.607 18.4161 23.261C18.4068 22.9336 18.1262 22.7279 17.8175 22.5969C17.6866 22.4099 17.4808 22.3163 17.2938 22.2041C16.8729 21.9422 16.5175 21.5961 16.1433 21.2594ZM23.9999 21.2033C24.0467 22.8401 23.4575 24.1682 22.0919 25.0942C21.1285 25.7489 20.0342 25.9453 18.8838 25.7676C18.3133 25.6741 17.9017 26.0669 18.0701 26.5626C18.1823 26.8806 18.4442 26.9835 18.7529 27.0116C19.2766 27.0677 19.791 27.077 20.3148 27.0209C21.671 26.8619 22.8214 26.2914 23.7474 25.3093C24.505 24.5049 24.9727 23.5229 25.1784 22.4286C25.3 21.7551 25.3094 21.0817 25.1878 20.4083C25.1317 20.0809 24.8417 19.8378 24.5611 19.8565C24.2151 19.8845 24.0093 20.109 24.0093 20.4925C23.9999 20.7357 23.9999 20.9695 23.9999 21.2033ZM22.0264 12.3272C22.0264 11.7193 21.8861 11.5135 21.5027 11.4574C21.194 11.4106 20.9228 11.6538 20.8292 12.0747C20.7731 12.3272 20.717 12.5798 20.7076 12.8323C20.6796 13.2064 20.8854 13.459 21.2127 13.5244C21.4933 13.5805 21.8207 13.3654 21.9142 13.0194C21.9797 12.7481 22.0077 12.4675 22.0264 12.3272Z" fill="white"/>
<path d="M18.7341 3.31083C18.7622 3.46983 18.9118 3.5166 19.0147 3.61013C19.3982 3.99361 19.5104 4.45191 19.4076 4.96633C19.3047 5.51816 18.9305 5.82681 18.3974 5.97646C17.247 6.29447 16.1153 6.65923 15.0584 7.22042C12.4863 8.57662 10.4567 10.5034 8.99758 13.0193C8.56733 13.7676 8.19321 14.5532 7.92197 15.3763C6.47224 14.6468 4.98511 14.6748 3.4325 15.208C4.2088 11.579 5.98589 8.61403 8.88534 6.37864C11.7754 4.1339 15.0584 3.06765 18.7341 3.31083Z" fill="#FE8CA4"/>
<path d="M7.51046 16.5641C7.36081 17.331 7.15504 18.0793 7.11763 18.8649C7.08957 19.5851 7.00539 20.296 7.06151 21.0255C7.13633 22.1479 7.35145 23.2328 7.56657 24.3271C7.66946 24.8415 7.42628 25.2811 7.00539 25.5711C6.55644 25.8891 6.05138 25.9265 5.54631 25.6833C5.45278 25.6366 5.37795 25.5524 5.26572 25.543C4.74194 24.8415 4.41459 24.0465 4.11529 23.2328C3.62893 21.9047 3.32028 20.5391 3.20804 19.1175C3.14257 18.2476 3.18933 17.3965 3.22675 16.536C3.2361 16.3957 3.24545 16.2648 3.45122 16.377C3.63828 16.4799 3.81599 16.3677 3.98434 16.3115C4.88224 16.031 5.78014 15.9468 6.70609 16.1993C7.00539 16.2835 7.24857 16.4425 7.51046 16.5641Z" fill="#FE8CA4"/>
<path d="M2.45976 27.0211C2.44105 26.9931 2.41299 26.9743 2.39429 26.9463C2.41299 26.965 2.44105 26.9931 2.45976 27.0211Z" fill="#FEBECA"/>
<path d="M24 21.2032C24 20.9694 24 20.7356 24 20.5018C24.0093 20.1183 24.2057 19.8938 24.5518 19.8658C24.8324 19.8471 25.1223 20.0902 25.1785 20.4176C25.3 21.091 25.2907 21.7644 25.1691 22.4378C24.9727 23.5322 24.505 24.5142 23.7381 25.3186C22.8121 26.3007 21.6617 26.8712 20.3055 27.0302C19.7817 27.0957 19.2673 27.077 18.7435 27.0208C18.4255 26.9834 18.173 26.8899 18.0608 26.5719C17.8924 26.0762 18.3039 25.6834 18.8745 25.7769C20.0249 25.964 21.1192 25.7582 22.0826 25.1035C23.4575 24.1682 24.0467 22.84 24 21.2032Z" fill="#FEBECA"/>
<path d="M22.0265 12.3272C21.9984 12.4675 21.9704 12.7481 21.9049 13.0193C21.8207 13.3561 21.4934 13.5805 21.2034 13.5244C20.8761 13.4589 20.6703 13.2064 20.6984 12.8323C20.7171 12.5797 20.7638 12.3272 20.8199 12.0747C20.9135 11.6538 21.1847 11.4106 21.4934 11.4574C21.8862 11.5041 22.0358 11.7193 22.0265 12.3272Z" fill="#FEBECA"/>
</g>
<defs>
<clipPath id="clip0_235_2894">
<rect width="36" height="36" fill="white"/>
</clipPath>
</defs>
</svg>
