<svg width="360" height="193" viewBox="0 0 360 193" fill="none" xmlns="http://www.w3.org/2000/svg">
<g filter="url(#filter0_ddi_921_15104)">
<path d="M0 -4H360V142C360 159.673 345.673 174 328 174H32C14.3269 174 0 159.673 0 142V-4Z" fill="#8EBABC"/>
<path d="M42.833 97.228C41.8577 97.228 40.9963 97.0633 40.249 96.734C39.5017 96.392 38.9127 95.9107 38.482 95.29C38.0513 94.6567 37.8297 93.8903 37.817 92.991H40.382C40.4073 93.6117 40.629 94.1373 41.047 94.568C41.4777 94.986 42.0667 95.195 42.814 95.195C43.46 95.195 43.973 95.043 44.353 94.739C44.733 94.4223 44.923 94.0043 44.923 93.485C44.923 92.9403 44.752 92.516 44.41 92.212C44.0807 91.908 43.6373 91.661 43.08 91.471C42.5227 91.281 41.9273 91.0783 41.294 90.863C40.268 90.5083 39.4827 90.0523 38.938 89.495C38.406 88.9377 38.14 88.1967 38.14 87.272C38.1273 86.4867 38.311 85.8153 38.691 85.258C39.0837 84.688 39.6157 84.251 40.287 83.947C40.9583 83.6303 41.731 83.472 42.605 83.472C43.4917 83.472 44.2707 83.6303 44.942 83.947C45.626 84.2637 46.158 84.707 46.538 85.277C46.9307 85.847 47.1397 86.5247 47.165 87.31H44.562C44.5493 86.8413 44.3657 86.4297 44.011 86.075C43.669 85.7077 43.1877 85.524 42.567 85.524C42.035 85.5113 41.5853 85.6443 41.218 85.923C40.8633 86.189 40.686 86.5817 40.686 87.101C40.686 87.5443 40.8253 87.899 41.104 88.165C41.3827 88.4183 41.7627 88.6337 42.244 88.811C42.7253 88.9883 43.2763 89.1783 43.897 89.381C44.5557 89.609 45.1573 89.875 45.702 90.179C46.2467 90.483 46.6837 90.8883 47.013 91.395C47.3423 91.889 47.507 92.5287 47.507 93.314C47.507 94.0107 47.3297 94.6567 46.975 95.252C46.6203 95.8473 46.0947 96.3287 45.398 96.696C44.7013 97.0507 43.8463 97.228 42.833 97.228ZM54.1509 97.228C53.2009 97.228 52.3586 97.0253 51.6239 96.62C50.8892 96.2147 50.3129 95.6447 49.8949 94.91C49.4769 94.1753 49.2679 93.3267 49.2679 92.364C49.2679 91.3887 49.4706 90.521 49.8759 89.761C50.2939 89.001 50.8639 88.412 51.5859 87.994C52.3206 87.5633 53.1819 87.348 54.1699 87.348C55.0946 87.348 55.9116 87.5507 56.6209 87.956C57.3302 88.3613 57.8812 88.9187 58.2739 89.628C58.6792 90.3247 58.8819 91.1037 58.8819 91.965C58.8819 92.1043 58.8756 92.25 58.8629 92.402C58.8629 92.554 58.8566 92.7123 58.8439 92.877H51.6809C51.7316 93.6117 51.9849 94.188 52.4409 94.606C52.9096 95.024 53.4732 95.233 54.1319 95.233C54.6259 95.233 55.0376 95.1253 55.3669 94.91C55.7089 94.682 55.9622 94.3907 56.1269 94.036H58.5969C58.4196 94.6313 58.1219 95.176 57.7039 95.67C57.2986 96.1513 56.7919 96.5313 56.1839 96.81C55.5886 97.0887 54.9109 97.228 54.1509 97.228ZM54.1699 89.324C53.5746 89.324 53.0489 89.495 52.5929 89.837C52.1369 90.1663 51.8456 90.673 51.7189 91.357H56.4119C56.3739 90.7363 56.1459 90.2423 55.7279 89.875C55.3099 89.5077 54.7906 89.324 54.1699 89.324ZM64.9594 97C63.9714 97 63.1797 96.7593 62.5844 96.278C61.9891 95.7967 61.6914 94.9417 61.6914 93.713V89.609H60.0764V87.576H61.6914L61.9764 85.049H64.1234V87.576H66.6694V89.609H64.1234V93.732C64.1234 94.188 64.2184 94.5047 64.4084 94.682C64.6111 94.8467 64.9531 94.929 65.4344 94.929H66.6124V97H64.9594ZM76.8188 97.228C75.6408 97.228 74.7288 96.8607 74.0828 96.126C73.4495 95.3913 73.1328 94.3147 73.1328 92.896V87.576H75.5458V92.668C75.5458 93.4787 75.7105 94.0993 76.0398 94.53C76.3691 94.9607 76.8885 95.176 77.5978 95.176C78.2691 95.176 78.8201 94.9353 79.2508 94.454C79.6941 93.9727 79.9158 93.3013 79.9158 92.44V87.576H82.3478V97H80.2008L80.0108 95.404C79.7195 95.9613 79.2951 96.4047 78.7378 96.734C78.1931 97.0633 77.5535 97.228 76.8188 97.228ZM84.8444 101.18V87.576H87.0104L87.2764 88.925C87.5804 88.507 87.9794 88.1397 88.4734 87.823C88.98 87.5063 89.6324 87.348 90.4304 87.348C91.317 87.348 92.1087 87.5633 92.8054 87.994C93.502 88.4247 94.053 89.0137 94.4584 89.761C94.8637 90.5083 95.0664 91.357 95.0664 92.307C95.0664 93.257 94.8637 94.1057 94.4584 94.853C94.053 95.5877 93.502 96.1703 92.8054 96.601C92.1087 97.019 91.317 97.228 90.4304 97.228C89.721 97.228 89.1004 97.095 88.5684 96.829C88.0364 96.563 87.6057 96.1893 87.2764 95.708V101.18H84.8444ZM89.9174 95.1C90.69 95.1 91.3297 94.8403 91.8364 94.321C92.343 93.8017 92.5964 93.1303 92.5964 92.307C92.5964 91.4837 92.343 90.806 91.8364 90.274C91.3297 89.742 90.69 89.476 89.9174 89.476C89.132 89.476 88.486 89.742 87.9794 90.274C87.4854 90.7933 87.2384 91.4647 87.2384 92.288C87.2384 93.1113 87.4854 93.789 87.9794 94.321C88.486 94.8403 89.132 95.1 89.9174 95.1ZM102.944 101.18L105.129 96.373H104.559L100.892 87.576H103.533L106.174 94.207L108.929 87.576H111.513L105.528 101.18H102.944ZM116.809 97.228C115.897 97.228 115.073 97.019 114.339 96.601C113.617 96.183 113.04 95.6067 112.61 94.872C112.192 94.1247 111.983 93.2633 111.983 92.288C111.983 91.3127 112.198 90.4577 112.629 89.723C113.059 88.9757 113.636 88.393 114.358 87.975C115.092 87.557 115.916 87.348 116.828 87.348C117.727 87.348 118.538 87.557 119.26 87.975C119.994 88.393 120.571 88.9757 120.989 89.723C121.419 90.4577 121.635 91.3127 121.635 92.288C121.635 93.2633 121.419 94.1247 120.989 94.872C120.571 95.6067 119.994 96.183 119.26 96.601C118.525 97.019 117.708 97.228 116.809 97.228ZM116.809 95.119C117.442 95.119 117.993 94.8847 118.462 94.416C118.93 93.9347 119.165 93.2253 119.165 92.288C119.165 91.3507 118.93 90.6477 118.462 90.179C117.993 89.6977 117.448 89.457 116.828 89.457C116.182 89.457 115.624 89.6977 115.156 90.179C114.7 90.6477 114.472 91.3507 114.472 92.288C114.472 93.2253 114.7 93.9347 115.156 94.416C115.624 94.8847 116.175 95.119 116.809 95.119ZM127.343 97.228C126.165 97.228 125.253 96.8607 124.607 96.126C123.974 95.3913 123.657 94.3147 123.657 92.896V87.576H126.07V92.668C126.07 93.4787 126.235 94.0993 126.564 94.53C126.894 94.9607 127.413 95.176 128.122 95.176C128.794 95.176 129.345 94.9353 129.775 94.454C130.219 93.9727 130.44 93.3013 130.44 92.44V87.576H132.872V97H130.725L130.535 95.404C130.244 95.9613 129.82 96.4047 129.262 96.734C128.718 97.0633 128.078 97.228 127.343 97.228ZM135.369 97V87.576H137.535L137.763 89.343C138.105 88.735 138.567 88.2537 139.15 87.899C139.745 87.5317 140.442 87.348 141.24 87.348V89.913H140.556C140.024 89.913 139.549 89.9953 139.131 90.16C138.713 90.3247 138.383 90.6097 138.143 91.015C137.915 91.4203 137.801 91.984 137.801 92.706V97H135.369ZM38.292 122V108.7H43.213C44.277 108.7 45.1573 108.877 45.854 109.232C46.5507 109.587 47.07 110.074 47.412 110.695C47.754 111.316 47.925 112.012 47.925 112.785C47.925 113.52 47.7603 114.197 47.431 114.818C47.1017 115.426 46.5887 115.92 45.892 116.3C45.1953 116.667 44.3023 116.851 43.213 116.851H40.724V122H38.292ZM40.724 114.875H43.061C43.9097 114.875 44.5177 114.691 44.885 114.324C45.265 113.944 45.455 113.431 45.455 112.785C45.455 112.126 45.265 111.613 44.885 111.246C44.5177 110.866 43.9097 110.676 43.061 110.676H40.724V114.875ZM52.4313 122.228C51.6206 122.228 50.9556 122.101 50.4363 121.848C49.9169 121.582 49.5306 121.234 49.2773 120.803C49.0239 120.372 48.8973 119.897 48.8973 119.378C48.8973 118.504 49.2393 117.795 49.9233 117.25C50.6073 116.705 51.6333 116.433 53.0013 116.433H55.3953V116.205C55.3953 115.559 55.2116 115.084 54.8443 114.78C54.4769 114.476 54.0209 114.324 53.4763 114.324C52.9823 114.324 52.5516 114.444 52.1843 114.685C51.8169 114.913 51.5889 115.255 51.5003 115.711H49.1253C49.1886 115.027 49.4166 114.432 49.8093 113.925C50.2146 113.418 50.7339 113.032 51.3673 112.766C52.0006 112.487 52.7099 112.348 53.4953 112.348C54.8379 112.348 55.8956 112.684 56.6683 113.355C57.4409 114.026 57.8273 114.976 57.8273 116.205V122H55.7563L55.5283 120.48C55.2496 120.987 54.8569 121.405 54.3503 121.734C53.8563 122.063 53.2166 122.228 52.4313 122.228ZM52.9823 120.328C53.6789 120.328 54.2173 120.1 54.5973 119.644C54.9899 119.188 55.2369 118.624 55.3383 117.953H53.2673C52.6213 117.953 52.1589 118.073 51.8803 118.314C51.6016 118.542 51.4623 118.827 51.4623 119.169C51.4623 119.536 51.6016 119.821 51.8803 120.024C52.1589 120.227 52.5263 120.328 52.9823 120.328ZM64.2172 122C63.2292 122 62.4375 121.759 61.8422 121.278C61.2469 120.797 60.9492 119.942 60.9492 118.713V114.609H59.3342V112.576H60.9492L61.2342 110.049H63.3812V112.576H65.9272V114.609H63.3812V118.732C63.3812 119.188 63.4762 119.505 63.6662 119.682C63.8689 119.847 64.2109 119.929 64.6922 119.929H65.8702V122H64.2172ZM69.3263 111.113C68.8829 111.113 68.5156 110.98 68.2243 110.714C67.9456 110.448 67.8063 110.112 67.8063 109.707C67.8063 109.302 67.9456 108.972 68.2243 108.719C68.5156 108.453 68.8829 108.32 69.3263 108.32C69.7696 108.32 70.1306 108.453 70.4093 108.719C70.7006 108.972 70.8463 109.302 70.8463 109.707C70.8463 110.112 70.7006 110.448 70.4093 110.714C70.1306 110.98 69.7696 111.113 69.3263 111.113ZM68.1103 122V112.576H70.5423V122H68.1103ZM77.6597 122.228C76.7097 122.228 75.8674 122.025 75.1327 121.62C74.398 121.215 73.8217 120.645 73.4037 119.91C72.9857 119.175 72.7767 118.327 72.7767 117.364C72.7767 116.389 72.9794 115.521 73.3847 114.761C73.8027 114.001 74.3727 113.412 75.0947 112.994C75.8294 112.563 76.6907 112.348 77.6787 112.348C78.6034 112.348 79.4204 112.551 80.1297 112.956C80.839 113.361 81.39 113.919 81.7827 114.628C82.188 115.325 82.3907 116.104 82.3907 116.965C82.3907 117.104 82.3844 117.25 82.3717 117.402C82.3717 117.554 82.3654 117.712 82.3527 117.877H75.1897C75.2404 118.612 75.4937 119.188 75.9497 119.606C76.4184 120.024 76.982 120.233 77.6407 120.233C78.1347 120.233 78.5464 120.125 78.8757 119.91C79.2177 119.682 79.471 119.391 79.6357 119.036H82.1057C81.9284 119.631 81.6307 120.176 81.2127 120.67C80.8074 121.151 80.3007 121.531 79.6927 121.81C79.0974 122.089 78.4197 122.228 77.6597 122.228ZM77.6787 114.324C77.0834 114.324 76.5577 114.495 76.1017 114.837C75.6457 115.166 75.3544 115.673 75.2277 116.357H79.9207C79.8827 115.736 79.6547 115.242 79.2367 114.875C78.8187 114.508 78.2994 114.324 77.6787 114.324ZM84.4362 122V112.576H86.5832L86.7732 114.172C87.0645 113.615 87.4825 113.171 88.0272 112.842C88.5845 112.513 89.2368 112.348 89.9842 112.348C91.1495 112.348 92.0552 112.715 92.7012 113.45C93.3472 114.185 93.6702 115.261 93.6702 116.68V122H91.2382V116.908C91.2382 116.097 91.0735 115.477 90.7442 115.046C90.4148 114.615 89.9018 114.4 89.2052 114.4C88.5212 114.4 87.9575 114.641 87.5142 115.122C87.0835 115.603 86.8682 116.275 86.8682 117.136V122H84.4362ZM100.195 122C99.2067 122 98.4151 121.759 97.8197 121.278C97.2244 120.797 96.9267 119.942 96.9267 118.713V114.609H95.3117V112.576H96.9267L97.2117 110.049H99.3587V112.576H101.905V114.609H99.3587V118.732C99.3587 119.188 99.4537 119.505 99.6437 119.682C99.8464 119.847 100.188 119.929 100.67 119.929H101.848V122H100.195ZM103.537 113.374L104.582 108.7H107.147L105.209 113.374H103.537ZM111.933 122.228C111.097 122.228 110.362 122.095 109.729 121.829C109.095 121.55 108.589 121.17 108.209 120.689C107.829 120.208 107.601 119.65 107.525 119.017H109.976C110.052 119.384 110.254 119.701 110.584 119.967C110.926 120.22 111.363 120.347 111.895 120.347C112.427 120.347 112.813 120.239 113.054 120.024C113.307 119.809 113.434 119.562 113.434 119.283C113.434 118.878 113.256 118.605 112.902 118.466C112.547 118.314 112.053 118.168 111.42 118.029C111.014 117.94 110.603 117.833 110.185 117.706C109.767 117.579 109.38 117.421 109.026 117.231C108.684 117.028 108.405 116.775 108.19 116.471C107.974 116.154 107.867 115.768 107.867 115.312C107.867 114.476 108.196 113.773 108.855 113.203C109.526 112.633 110.463 112.348 111.667 112.348C112.781 112.348 113.668 112.608 114.327 113.127C114.998 113.646 115.397 114.362 115.524 115.274H113.225C113.085 114.577 112.56 114.229 111.648 114.229C111.192 114.229 110.837 114.318 110.584 114.495C110.343 114.672 110.223 114.894 110.223 115.16C110.223 115.439 110.406 115.66 110.774 115.825C111.141 115.99 111.629 116.142 112.237 116.281C112.895 116.433 113.497 116.604 114.042 116.794C114.599 116.971 115.042 117.244 115.372 117.611C115.701 117.966 115.866 118.479 115.866 119.15C115.878 119.733 115.726 120.258 115.41 120.727C115.093 121.196 114.637 121.563 114.042 121.829C113.446 122.095 112.743 122.228 111.933 122.228ZM122.605 122V108.7H127.526C128.59 108.7 129.47 108.877 130.167 109.232C130.863 109.587 131.383 110.074 131.725 110.695C132.067 111.316 132.238 112.012 132.238 112.785C132.238 113.52 132.073 114.197 131.744 114.818C131.414 115.426 130.901 115.92 130.205 116.3C129.508 116.667 128.615 116.851 127.526 116.851H125.037V122H122.605ZM125.037 114.875H127.374C128.222 114.875 128.83 114.691 129.198 114.324C129.578 113.944 129.768 113.431 129.768 112.785C129.768 112.126 129.578 111.613 129.198 111.246C128.83 110.866 128.222 110.676 127.374 110.676H125.037V114.875ZM134.089 122V112.576H136.255L136.483 114.343C136.825 113.735 137.287 113.254 137.87 112.899C138.465 112.532 139.162 112.348 139.96 112.348V114.913H139.276C138.744 114.913 138.269 114.995 137.851 115.16C137.433 115.325 137.103 115.61 136.863 116.015C136.635 116.42 136.521 116.984 136.521 117.706V122H134.089ZM145.977 122.228C145.065 122.228 144.241 122.019 143.507 121.601C142.785 121.183 142.208 120.607 141.778 119.872C141.36 119.125 141.151 118.263 141.151 117.288C141.151 116.313 141.366 115.458 141.797 114.723C142.227 113.976 142.804 113.393 143.526 112.975C144.26 112.557 145.084 112.348 145.996 112.348C146.895 112.348 147.706 112.557 148.428 112.975C149.162 113.393 149.739 113.976 150.157 114.723C150.587 115.458 150.803 116.313 150.803 117.288C150.803 118.263 150.587 119.125 150.157 119.872C149.739 120.607 149.162 121.183 148.428 121.601C147.693 122.019 146.876 122.228 145.977 122.228ZM145.977 120.119C146.61 120.119 147.161 119.885 147.63 119.416C148.098 118.935 148.333 118.225 148.333 117.288C148.333 116.351 148.098 115.648 147.63 115.179C147.161 114.698 146.616 114.457 145.996 114.457C145.35 114.457 144.792 114.698 144.324 115.179C143.868 115.648 143.64 116.351 143.64 117.288C143.64 118.225 143.868 118.935 144.324 119.416C144.792 119.885 145.343 120.119 145.977 120.119ZM153.414 122V114.609H152.122V112.576H153.414V111.474C153.414 110.334 153.699 109.523 154.269 109.042C154.852 108.561 155.637 108.32 156.625 108.32H157.67V110.391H157.005C156.587 110.391 156.29 110.473 156.112 110.638C155.935 110.803 155.846 111.081 155.846 111.474V112.576H161.926V122H159.494V114.609H155.846V122H153.414ZM160.729 111.227C160.286 111.227 159.919 111.094 159.627 110.828C159.349 110.562 159.209 110.226 159.209 109.821C159.209 109.416 159.349 109.086 159.627 108.833C159.919 108.567 160.286 108.434 160.729 108.434C161.173 108.434 161.534 108.567 161.812 108.833C162.104 109.086 162.249 109.416 162.249 109.821C162.249 110.226 162.104 110.562 161.812 110.828C161.534 111.094 161.173 111.227 160.729 111.227ZM164.5 122V108.32H166.932V122H164.5ZM173.996 122.228C173.046 122.228 172.203 122.025 171.469 121.62C170.734 121.215 170.158 120.645 169.74 119.91C169.322 119.175 169.113 118.327 169.113 117.364C169.113 116.389 169.315 115.521 169.721 114.761C170.139 114.001 170.709 113.412 171.431 112.994C172.165 112.563 173.027 112.348 174.015 112.348C174.939 112.348 175.756 112.551 176.466 112.956C177.175 113.361 177.726 113.919 178.119 114.628C178.524 115.325 178.727 116.104 178.727 116.965C178.727 117.104 178.72 117.25 178.708 117.402C178.708 117.554 178.701 117.712 178.689 117.877H171.526C171.576 118.612 171.83 119.188 172.286 119.606C172.754 120.024 173.318 120.233 173.977 120.233C174.471 120.233 174.882 120.125 175.212 119.91C175.554 119.682 175.807 119.391 175.972 119.036H178.442C178.264 119.631 177.967 120.176 177.549 120.67C177.143 121.151 176.637 121.531 176.029 121.81C175.433 122.089 174.756 122.228 173.996 122.228ZM174.015 114.324C173.419 114.324 172.894 114.495 172.438 114.837C171.982 115.166 171.69 115.673 171.564 116.357H176.257C176.219 115.736 175.991 115.242 175.573 114.875C175.155 114.508 174.635 114.324 174.015 114.324Z" fill="white"/>
<path d="M37.994 63V53.2H39.478V57.4H44.224V53.2H45.708V63H44.224V58.618H39.478V63H37.994ZM48.485 54.74C48.205 54.74 47.9717 54.656 47.785 54.488C47.6077 54.3107 47.519 54.0913 47.519 53.83C47.519 53.5687 47.6077 53.354 47.785 53.186C47.9717 53.0087 48.205 52.92 48.485 52.92C48.765 52.92 48.9937 53.0087 49.171 53.186C49.3577 53.354 49.451 53.5687 49.451 53.83C49.451 54.0913 49.3577 54.3107 49.171 54.488C48.9937 54.656 48.765 54.74 48.485 54.74ZM47.743 63V56.056H49.227V63H47.743ZM50.36 64.652L51.172 61.348H52.642L51.354 64.652H50.36ZM56.9968 63L60.6088 53.2H62.2328L65.8168 63H64.2488L63.4088 60.606H59.4048L58.5648 63H56.9968ZM59.8248 59.43H62.9888L61.4068 54.964L59.8248 59.43ZM67.1275 63V56.056H68.4435L68.5555 57.274C68.7701 56.8447 69.0828 56.5087 69.4935 56.266C69.9135 56.014 70.3941 55.888 70.9355 55.888C71.7755 55.888 72.4335 56.1493 72.9095 56.672C73.3948 57.1947 73.6375 57.974 73.6375 59.01V63H72.1675V59.164C72.1675 57.82 71.6168 57.148 70.5155 57.148C69.9648 57.148 69.5075 57.344 69.1435 57.736C68.7888 58.128 68.6115 58.688 68.6115 59.416V63H67.1275ZM75.3853 63V52.92H76.8693V58.926L79.5293 56.056H81.3073L78.3533 59.206L81.7413 63H79.8653L76.8693 59.444V63H75.3853ZM83.7311 54.74C83.4511 54.74 83.2178 54.656 83.0311 54.488C82.8538 54.3107 82.7651 54.0913 82.7651 53.83C82.7651 53.5687 82.8538 53.354 83.0311 53.186C83.2178 53.0087 83.4511 52.92 83.7311 52.92C84.0111 52.92 84.2398 53.0087 84.4171 53.186C84.6038 53.354 84.6971 53.5687 84.6971 53.83C84.6971 54.0913 84.6038 54.3107 84.4171 54.488C84.2398 54.656 84.0111 54.74 83.7311 54.74ZM82.9891 63V56.056H84.4731V63H82.9891ZM89.3441 63C88.6628 63 88.1215 62.8367 87.7201 62.51C87.3188 62.174 87.1181 61.5813 87.1181 60.732V57.302H85.9281V56.056H87.1181L87.3001 54.292H88.6021V56.056H90.5621V57.302H88.6021V60.732C88.6021 61.1147 88.6815 61.3807 88.8401 61.53C89.0081 61.67 89.2928 61.74 89.6941 61.74H90.4921V63H89.3441ZM92.0923 63V52.92H93.5763V57.176C93.8096 56.7747 94.1316 56.462 94.5423 56.238C94.9623 56.0047 95.4243 55.888 95.9283 55.888C96.759 55.888 97.4123 56.1493 97.8883 56.672C98.3643 57.1947 98.6023 57.974 98.6023 59.01V63H97.1323V59.164C97.1323 57.82 96.5956 57.148 95.5223 57.148C94.9623 57.148 94.4956 57.344 94.1223 57.736C93.7583 58.128 93.5763 58.688 93.5763 59.416V63H92.0923ZM102.702 63.168C102.114 63.168 101.629 63.07 101.246 62.874C100.863 62.678 100.579 62.4213 100.392 62.104C100.205 61.7773 100.112 61.4227 100.112 61.04C100.112 60.368 100.373 59.836 100.896 59.444C101.419 59.052 102.165 58.856 103.136 58.856H104.956V58.73C104.956 58.1887 104.807 57.7827 104.508 57.512C104.219 57.2413 103.841 57.106 103.374 57.106C102.963 57.106 102.604 57.2087 102.296 57.414C101.997 57.61 101.815 57.904 101.75 58.296H100.266C100.313 57.792 100.481 57.3627 100.77 57.008C101.069 56.644 101.442 56.3687 101.89 56.182C102.347 55.986 102.847 55.888 103.388 55.888C104.359 55.888 105.11 56.1447 105.642 56.658C106.174 57.162 106.44 57.8527 106.44 58.73V63H105.152L105.026 61.81C104.83 62.1927 104.545 62.5147 104.172 62.776C103.799 63.0373 103.309 63.168 102.702 63.168ZM102.996 61.964C103.397 61.964 103.733 61.8707 104.004 61.684C104.284 61.488 104.499 61.2313 104.648 60.914C104.807 60.5967 104.905 60.2467 104.942 59.864H103.29C102.702 59.864 102.282 59.9667 102.03 60.172C101.787 60.3773 101.666 60.634 101.666 60.942C101.666 61.2593 101.783 61.5113 102.016 61.698C102.259 61.8753 102.585 61.964 102.996 61.964Z" fill="white"/>
<g clip-path="url(#clip0_921_15104)">
<path d="M313.078 134.273C310.676 135.582 308.001 136.484 305.598 137.793C301.291 140.185 297.891 143.931 293.584 146.233C289.096 148.625 283.882 149.302 278.85 149.077C273.5 148.851 268.06 147.587 263.527 144.744C258.993 141.9 255.366 137.342 254.323 132.106C253.326 127.096 254.731 121.861 254.187 116.76C253.643 111.48 251.105 106.605 249.699 101.46C248.384 96.5399 248.112 91.3494 248.928 86.2943C249.699 81.6003 251.422 76.9965 254.459 73.2955C257.497 69.5944 261.849 66.8863 266.609 66.3898C273.183 65.6677 279.485 69.0528 286.104 69.6395C289.323 69.9104 292.541 69.5041 295.806 69.5944C301.518 69.7298 307.139 71.3095 312.036 74.1982C316.161 76.6354 319.924 80.156 321.466 84.6694C322.554 87.8289 322.508 91.214 322.644 94.554C322.826 100.963 323.234 107.733 324.775 113.962C326.044 119.062 324.05 123.531 320.876 127.683C318.7 130.391 316.071 132.648 313.078 134.273Z" fill="#FFF2F2"/>
<path d="M304.782 110.938C308.545 104.574 312.852 98.4807 318.156 93.3353C323.46 88.1899 329.853 84.0375 336.97 82.0065C333.797 85.4819 331.983 89.9953 330.714 94.5539C329.445 99.1126 328.629 103.761 327.132 108.23C324.367 116.354 319.38 123.53 313.577 129.804C310.585 133.009 307.366 136.033 304.102 138.876C301.881 140.817 298.616 144.834 295.216 144.428C289.912 143.841 296.939 126.825 298.163 123.892C300.022 119.468 302.289 115.135 304.782 110.938Z" fill="#FFCCCC"/>
<path d="M336.97 82.0516C336.97 82.0516 307.366 108.771 295.171 144.518" stroke="black" stroke-width="0.5" stroke-miterlimit="10" stroke-linecap="round" stroke-linejoin="round"/>
<path d="M270.508 115.045C267.879 108.14 264.751 101.369 260.398 95.4116C256.046 89.4086 250.515 84.2181 243.851 81.0135C246.39 84.9854 247.387 89.7697 247.84 94.4637C248.294 99.1577 248.294 103.897 249.019 108.546C250.288 116.986 253.961 124.975 258.585 132.151C260.942 135.852 263.617 139.328 266.337 142.758C268.196 145.06 270.735 149.573 274.135 149.754C279.485 150.115 275.495 132.106 274.815 129.037C273.727 124.253 272.231 119.604 270.508 115.045Z" fill="#FFCCCC"/>
<path d="M243.851 80.9684C243.851 80.9684 268.377 112.427 274.135 149.709" stroke="black" stroke-width="0.5" stroke-miterlimit="10" stroke-linecap="round" stroke-linejoin="round"/>
<path d="M301.2 138.244C306.459 132.196 311.99 126.239 318.519 121.545C325.047 116.851 332.618 113.375 340.642 112.743C333.071 114.504 326.226 118.791 320.377 123.892C316.161 127.593 312.353 131.745 308.635 135.943C306.822 138.019 305.054 140.185 303.104 142.216C301.926 143.435 300.022 145.376 298.208 143.931C296.485 142.487 300.248 139.373 301.2 138.244Z" fill="#FF9999"/>
<path d="M272.503 148.084C269.873 140.501 266.927 132.964 262.62 126.193C258.313 119.423 252.555 113.42 245.302 109.855C251.694 114.278 256.454 120.777 259.99 127.683C262.529 132.648 264.524 137.928 266.428 143.209C267.38 145.827 268.196 148.49 269.239 151.063C269.873 152.597 270.961 155.125 273.183 154.448C275.359 153.771 273.002 149.483 272.503 148.084Z" fill="#FF9999"/>
<path d="M295.67 38C292.496 37.9097 289.323 38.2708 286.421 39.4443C283.52 40.6178 280.935 42.8294 279.666 45.6729C279.122 46.9367 278.85 48.2456 278.623 49.5997C277.807 54.7902 278.125 60.0709 278.079 65.3066C277.989 70.6325 277.535 76.0035 275.359 80.7427C279.711 83.8119 285.333 84.3535 290.637 84.6243C296.576 84.9402 302.697 85.0756 308.273 83.0897C308.273 81.9162 308.273 80.6976 308.273 79.524C308.636 80.7878 309.542 81.9162 310.676 82.5481C309.497 78.7568 309.588 74.6946 309.724 70.7228C309.86 66.8863 309.996 63.0047 310.086 59.1682C310.177 56.1442 310.268 53.0299 309.678 50.051C308.726 45.2667 305.326 40.0762 300.43 38.677C298.934 38.2257 297.302 38.0452 295.67 38Z" fill="#5E4028"/>
<path d="M279.893 182.928C280.663 183.515 281.071 184.598 280.799 185.501C282.477 185.501 284.154 185.14 285.696 184.462C285.696 184.327 285.65 184.192 285.65 184.056C285.65 183.921 285.605 183.785 285.605 183.65C285.288 181.664 284.925 179.091 284.97 177.963C285.061 176.383 285.197 174.939 285.333 173.63L278.623 173.991C278.669 174.939 278.714 175.661 278.714 176.067C278.714 177.331 278.714 178.64 278.306 179.859C278.034 180.716 277.49 181.348 276.9 181.935C276.81 182.025 276.719 182.115 276.628 182.206C276.81 182.161 276.991 182.161 277.218 182.161C278.124 182.115 279.122 182.341 279.893 182.928Z" fill="#F2B27E"/>
<path d="M275.994 105.657C268.921 119.513 272.911 142.668 272.911 149.257C272.911 155.847 276.583 181.213 276.583 181.213C276.583 181.213 278.034 182.115 280.845 182.567C283.701 183.018 285.877 181.574 285.877 181.574C285.877 181.574 285.605 154.312 285.696 148.49C285.786 142.668 287.781 124.298 287.781 124.298L287.464 107.056L275.994 105.657Z" fill="#CC9864"/>
<path d="M296.44 106.063C303.15 120.055 298.616 143.119 298.48 149.709C298.299 156.298 297.03 181.303 297.03 181.303C297.03 181.303 295.669 182.296 292.859 182.973C290.048 183.605 287.736 182.341 287.736 182.341C287.736 182.341 285.65 154.493 285.65 148.671C285.696 142.848 282.295 124.388 282.295 124.388L284.834 107.192L296.44 106.063Z" fill="#CC9864"/>
<path d="M285.786 152.327C285.696 150.747 285.696 149.483 285.696 148.625C285.741 142.803 282.341 124.343 282.341 124.343L275.178 121.545" stroke="black" stroke-width="0.5" stroke-miterlimit="10" stroke-linecap="round" stroke-linejoin="round"/>
<path d="M282.341 124.343L275.132 124.117" stroke="black" stroke-width="0.5" stroke-miterlimit="10" stroke-linecap="round" stroke-linejoin="round"/>
<path d="M298.253 121.048C295.307 118.882 293.493 114.955 293.629 111.028" stroke="black" stroke-width="0.5" stroke-miterlimit="10" stroke-linecap="round" stroke-linejoin="round"/>
<path d="M283.837 73.5211C283.837 73.5211 280.799 74.1079 279.711 75.0106C278.578 75.9133 272.095 91.3042 272.095 91.3042C272.095 91.3042 270.01 95.1858 273.183 96.9461C276.311 98.7064 278.759 93.4256 278.759 93.4256L286.512 77.7187L283.837 73.5211Z" fill="#F2B27E"/>
<path d="M283.837 73.5211C283.837 73.5211 280.663 73.7919 278.714 75.4168C276.764 77.0868 273.999 83.7667 273.999 83.7667C273.999 83.7667 278.17 87.3324 284.562 87.3775C284.608 87.4226 291.499 76.1841 283.837 73.5211Z" fill="#CF6969"/>
<path d="M286.829 72.1671C287.872 71.5352 288.869 70.7228 289.413 69.3687C290.501 66.7058 289.594 64.5393 289.594 64.5393L296.621 61.1542C296.621 61.1542 294.944 68.8722 295.76 71.3095C295.941 71.806 296.259 72.1671 296.712 72.5281C295.216 73.3857 290.818 75.9584 288.008 78.3957C288.008 78.3505 286.648 75.4168 286.829 72.1671Z" fill="#F2B27E"/>
<path d="M296.984 83.7216C296.621 80.0656 299.16 75.5973 300.158 74.0176C301.336 74.3787 302.288 74.6946 302.515 75.1459C303.059 76.2292 303.648 80.3364 300.158 87.2421C299.886 87.7837 299.614 88.2802 299.342 88.7767C298.526 88.1448 297.256 86.7005 296.984 83.7216Z" fill="#F2B27E"/>
<path d="M286.104 89.6794C286.104 89.6794 287.6 92.5229 291.453 92.9291" stroke="black" stroke-width="0.5" stroke-miterlimit="10" stroke-linecap="round" stroke-linejoin="round"/>
<path d="M290.728 102.678C290.728 102.678 285.922 110.08 280.346 108.817" stroke="black" stroke-width="0.5" stroke-miterlimit="10" stroke-linecap="round" stroke-linejoin="round"/>
<path d="M276.855 85.5721C276.901 85.3013 276.901 85.0756 276.991 84.85C277.309 83.5411 278.714 80.6524 280.255 78.1249" stroke="black" stroke-width="0.5" stroke-miterlimit="10" stroke-linecap="round" stroke-linejoin="round"/>
<path opacity="0.7" d="M290.32 69.7749C289.957 69.7749 289.64 69.6395 289.368 69.4589C289.368 69.4138 289.413 69.3687 289.413 69.3235C290.501 66.6606 289.594 64.4941 289.594 64.4941L296.621 61.109C296.621 61.109 296.213 62.9595 295.896 65.1711C294.944 66.6606 292.587 69.8652 290.32 69.7749Z" fill="#F2B27E"/>
<path d="M301.427 100.783C300.566 96.6752 299.387 88.7766 299.387 88.7766C299.387 88.7766 297.302 86.6553 297.029 83.7215C296.667 80.0656 299.206 75.5973 300.203 74.0176C299.296 73.7016 298.254 73.3857 297.438 72.9343C297.211 72.7989 296.984 72.6635 296.803 72.5281C295.307 73.3857 290.909 75.9583 288.098 78.3956C288.098 78.3956 286.738 75.4619 286.92 72.2122C286.784 72.3024 286.602 72.3927 286.466 72.483C285.56 72.9343 284.698 73.2503 283.973 73.6113C282.25 74.4238 277.717 82.4126 277.127 84.9402C276.674 86.7907 277.127 90.9431 277.399 93.0644C270.916 94.2831 266.111 100.331 265.612 107.643C265.023 116.264 268.649 133.325 268.649 133.325C268.649 133.325 271.914 136.574 281.842 137.793C291.771 139.012 303.649 136.258 303.649 136.258C303.649 136.258 304.737 116.941 301.427 100.783Z" fill="#CF6969"/>
<path d="M300.792 74.1981C300.792 74.1981 304.147 75.2814 305.054 77.7638C305.961 80.2462 307.185 96.4044 307.185 96.4044C307.185 96.4044 307.275 100.196 304.51 100.512C301.744 100.828 300.294 97.939 299.886 95.6823C299.478 93.4707 298.072 80.5621 298.072 80.5621L300.792 74.1981Z" fill="#F2B27E"/>
<path d="M300.158 74.0176C300.158 74.0176 303.603 74.3787 305.553 77.7638C307.502 81.1489 307.457 86.0234 307.457 86.0234C307.457 86.0234 303.966 89.6342 296.077 88.3253C296.032 88.3253 294.536 78.1248 300.158 74.0176Z" fill="#CF6969"/>
<path d="M298.934 88.5961C298.027 88.5961 297.075 88.5059 296.032 88.3253C296.032 88.3253 295.443 84.4889 296.304 80.5621" stroke="black" stroke-width="0.5" stroke-miterlimit="10" stroke-linecap="round" stroke-linejoin="round"/>
<path d="M280.482 51.3599C278.533 58.4912 281.615 66.9314 285.832 68.1049C291.725 69.7297 299.886 64.9906 301.835 57.8593C303.785 50.728 301.2 43.1002 295.307 41.4754C289.413 39.8505 282.477 44.2286 280.482 51.3599Z" fill="#F2B27E"/>
<path d="M293.901 65.1711C295.829 65.1711 297.392 63.6151 297.392 61.6957C297.392 59.7763 295.829 58.2203 293.901 58.2203C291.974 58.2203 290.411 59.7763 290.411 61.6957C290.411 63.6151 291.974 65.1711 293.901 65.1711Z" fill="url(#paint0_radial_921_15104)"/>
<path d="M279.893 65.126C281.821 65.126 283.384 63.5701 283.384 61.6507C283.384 59.7313 281.821 58.1753 279.893 58.1753C277.965 58.1753 276.402 59.7313 276.402 61.6507C276.402 63.5701 277.965 65.126 279.893 65.126Z" fill="url(#paint1_radial_921_15104)"/>
<path d="M289.141 62.6436C289.141 62.6436 288.325 63.9525 286.92 63.9525C285.469 63.9525 284.834 62.8692 284.834 62.8692" stroke="black" stroke-width="0.5" stroke-miterlimit="10" stroke-linecap="round" stroke-linejoin="round"/>
<path d="M287.328 54.745C287.736 54.3388 288.189 53.9777 288.688 53.7521C289.186 53.5264 289.685 53.3458 290.229 53.391C290.773 53.391 291.272 53.5264 291.771 53.7521C292.269 53.9777 292.768 54.2937 293.267 54.6096C292.904 54.1131 292.496 53.7069 291.997 53.391C291.725 53.2104 291.453 53.1202 291.181 52.9848C290.864 52.8945 290.592 52.8494 290.274 52.8494C289.64 52.8494 289.005 53.075 288.506 53.391C287.962 53.7521 287.554 54.2485 287.328 54.745Z" fill="#5E4028"/>
<path d="M284.381 54.745C284.199 54.3388 283.927 53.9778 283.565 53.7069C283.247 53.391 282.839 53.1653 282.386 53.0751C282.159 53.0299 281.887 52.9848 281.661 53.0299C281.434 53.0751 281.162 53.1653 280.981 53.3007C280.573 53.6167 280.391 54.0229 280.346 54.4742C280.618 54.1132 280.89 53.8424 281.253 53.6618C281.57 53.4813 281.933 53.4813 282.295 53.5715C282.658 53.6618 283.021 53.8424 283.383 54.0229C283.701 54.2486 284.018 54.4742 284.381 54.745Z" fill="#5E4028"/>
<path d="M291.272 57.1823C291.272 57.1823 289.731 58.6266 287.872 57.2725" stroke="black" stroke-width="0.5" stroke-miterlimit="10" stroke-linecap="round" stroke-linejoin="round"/>
<path d="M284.472 57.2726C284.472 57.2726 283.293 58.5364 281.661 57.092" stroke="black" stroke-width="0.5" stroke-miterlimit="10" stroke-linecap="round" stroke-linejoin="round"/>
<path d="M285.016 56.7309C285.242 57.4079 285.061 58.2203 284.562 58.762C284.245 59.0779 283.837 59.3036 283.655 59.6647C283.474 60.0257 283.519 60.4319 283.701 60.793C283.882 61.1541 284.2 61.3798 284.517 61.6054C284.517 61.6054 285.56 61.786 286.24 60.7479C286.92 59.7098 286.648 58.0398 286.24 57.0017C285.832 55.9636 285.016 56.7309 285.016 56.7309Z" fill="url(#paint2_linear_921_15104)"/>
<path d="M285.016 56.7308C285.242 57.4079 285.061 58.2203 284.562 58.7619C284.245 59.0778 283.837 59.3035 283.655 59.6646C283.474 60.0257 283.519 60.4319 283.701 60.793C283.882 61.154 284.2 61.3797 284.517 61.6054" stroke="black" stroke-width="0.5" stroke-miterlimit="10" stroke-linecap="round" stroke-linejoin="round"/>
<path d="M288.688 55.6477C289.322 55.4672 290.002 55.422 290.637 55.5123" stroke="black" stroke-width="0.5" stroke-miterlimit="10" stroke-linecap="round" stroke-linejoin="round"/>
<path d="M283.61 55.6026C283.112 55.3769 282.568 55.3318 282.069 55.3769" stroke="black" stroke-width="0.5" stroke-miterlimit="10" stroke-linecap="round" stroke-linejoin="round"/>
<path d="M300.52 44.4995C297.347 40.8435 291.997 39.8054 287.69 41.7011C285.288 42.7392 283.202 44.5897 281.706 46.8916C280.981 47.9748 280.255 49.2837 279.893 50.5475C279.802 50.9086 279.53 52.3078 279.53 52.3078C279.53 52.3078 280.437 51.1794 282.432 49.1483C284.245 47.2978 285.424 46.9367 285.424 46.9367C285.333 49.69 287.282 52.3529 289.821 52.8945C289.549 52.2175 289.459 51.4051 289.549 50.6829C290.547 52.398 292.269 53.5264 294.083 54.1132C295.896 54.6999 297.8 54.8805 299.659 55.0159C300.248 56.415 301.019 57.7691 302.017 58.8975C302.833 58.5364 303.15 57.4983 303.331 56.5956C304.057 52.3529 303.195 47.6589 300.52 44.4995Z" fill="#5E4028"/>
<path d="M300.022 57.092C298.798 59.0328 298.526 60.9736 299.886 61.8311C301.246 62.6887 303.785 62.1471 305.009 60.2063C306.233 58.2655 306.097 56.0087 304.691 55.1512C303.331 54.2936 301.246 55.1512 300.022 57.092Z" fill="#F2B27E"/>
<path d="M305.598 56.2344C305.598 56.2344 302.878 56.099 300.022 60.2965" stroke="black" stroke-width="0.5" stroke-miterlimit="10" stroke-linecap="round" stroke-linejoin="round"/>
<path d="M292.179 44.3189C294.717 45.0862 297.075 46.3951 299.432 47.5686C301.79 48.7872 304.238 49.9156 306.867 50.4121C307.819 50.5926 308.862 50.6829 309.814 50.5926C309.769 50.4121 309.769 50.1864 309.723 50.0059C309.406 48.3359 308.726 46.5756 307.865 44.9959C304.827 45.4472 301.699 45.357 298.752 44.4994C297.392 44.0932 296.123 43.5516 294.808 43.0551C291.544 41.7462 288.144 40.663 284.698 40.3019C282.975 41.2948 281.434 42.694 280.346 44.364C284.154 43.1905 288.37 43.1454 292.179 44.3189Z" fill="#5E4028"/>
<path d="M280.074 88.6865C282.205 88.3705 284.471 88.6413 286.512 89.1378C287.237 89.3184 288.008 89.5892 288.325 90.2662C288.37 90.3565 288.416 90.4467 288.461 90.537C288.552 90.6273 288.642 90.6724 288.733 90.7175C289.322 91.0786 289.458 91.4848 289.73 92.0265C289.912 92.4327 290.093 93.0194 289.504 93.2902C289.776 93.6513 289.458 94.1929 289.005 94.3283C288.552 94.4637 288.098 94.2832 287.69 94.1478C287.101 93.9672 286.466 93.8318 285.877 93.6964C285.559 93.6513 285.197 93.561 284.834 93.6062C284.109 93.6513 283.474 94.0124 282.839 94.2381C280.981 94.8699 278.895 94.9151 276.991 94.5089C276.084 94.3283 274.679 94.3735 274.09 93.561C273.772 93.1548 273.228 92.0716 273.364 91.53C273.319 90.6724 273.772 90.537 274.543 90.3565C276.402 89.9051 278.17 88.9573 280.074 88.6865Z" fill="#F2B27E"/>
<path d="M288.37 90.7175C287.056 90.2662 285.65 89.9051 284.29 89.6794" stroke="#333333" stroke-width="0.5" stroke-miterlimit="10" stroke-linecap="round" stroke-linejoin="round"/>
<path d="M289.322 92.1168C287.872 91.5752 286.33 91.1238 284.789 90.8079" stroke="#333333" stroke-width="0.5" stroke-miterlimit="10" stroke-linecap="round" stroke-linejoin="round"/>
<path d="M289.322 93.2902C287.917 92.7035 286.421 92.2972 284.925 92.1167" stroke="#333333" stroke-width="0.5" stroke-miterlimit="10" stroke-linecap="round" stroke-linejoin="round"/>
<path d="M293.992 110.938C292.632 111.841 291.634 113.195 290.501 114.323C289.866 114.955 289.232 115.587 288.506 116.083C287.826 116.535 287.192 116.941 286.421 117.212C285.514 117.573 284.653 117.889 283.746 118.25C283.474 118.34 283.202 118.475 282.885 118.475C282.567 118.475 282.25 118.385 282.069 118.159C281.751 118.25 281.434 118.295 281.071 118.295C280.754 118.295 280.391 118.114 280.21 117.843C280.165 117.798 280.119 117.708 280.074 117.663C280.029 117.618 279.983 117.618 279.893 117.618C279.666 117.528 279.575 117.302 279.575 117.076C279.575 116.85 279.666 116.67 279.802 116.444C279.666 116.354 279.621 116.128 279.666 115.948C279.711 115.722 279.893 115.496 280.119 115.361C280.346 115.226 280.573 115.135 280.799 115.045C281.253 114.865 281.706 114.729 282.159 114.549C282.522 114.413 282.885 114.278 283.202 114.097C283.837 113.736 284.335 113.195 284.789 112.608C284.97 112.337 285.151 112.066 285.378 111.795C285.514 111.66 285.696 111.434 285.605 111.209C285.514 110.938 285.151 110.938 284.879 110.983C283.746 111.163 282.794 111.886 281.661 112.066C281.479 112.111 281.298 112.111 281.162 111.976C280.935 111.75 281.162 111.389 281.343 111.163C282.023 110.351 282.749 109.539 283.701 108.997C285.287 108.094 287.282 107.688 289.05 107.327C290.048 107.147 291 107.011 291.952 106.74C291.952 106.74 297.211 98.8417 300.203 96.6752C300.203 96.6752 303.603 92.7936 307.23 96.3141C307.23 96.3141 307.774 98.6611 305.598 101.595C303.422 104.529 293.992 110.938 293.992 110.938Z" fill="#F2B27E"/>
<path d="M279.938 116.489C281.389 116.264 282.839 115.858 284.154 115.271" stroke="#333333" stroke-width="0.5" stroke-miterlimit="10" stroke-linecap="round" stroke-linejoin="round"/>
<path d="M280.255 117.663C281.842 117.302 283.384 116.805 284.88 116.083" stroke="#333333" stroke-width="0.5" stroke-miterlimit="10" stroke-linecap="round" stroke-linejoin="round"/>
<path d="M282.205 118.024C283.429 117.708 284.608 117.257 285.741 116.715" stroke="#333333" stroke-width="0.5" stroke-miterlimit="10" stroke-linecap="round" stroke-linejoin="round"/>
<path d="M300.157 96.6752C300.974 95.953 301.971 95.4565 303.014 95.276" stroke="#333333" stroke-width="0.5" stroke-miterlimit="10" stroke-linecap="round" stroke-linejoin="round"/>
<path d="M295.806 67.2925C296.078 69.7749 294.808 72.167 293.992 74.5592C293.04 77.4478 292.723 80.517 293.085 83.4959C294.853 83.857 296.712 83.9924 298.526 83.857C298.39 82.0967 298.344 80.2913 298.979 78.6665C299.659 76.8611 301.11 75.4167 302.062 73.7016C302.833 72.3024 303.195 70.6776 303.105 69.0979" fill="#5E4028"/>
<path d="M301.608 74.4238C301.744 74.1981 301.88 73.9273 302.016 73.7017C302.787 72.3025 303.15 70.6776 303.059 69.0979" stroke="black" stroke-width="0.5" stroke-miterlimit="10" stroke-linecap="round" stroke-linejoin="round"/>
<path d="M318.745 82.2772C320.123 82.2772 321.239 81.1658 321.239 79.7948C321.239 78.4238 320.123 77.3124 318.745 77.3124C317.368 77.3124 316.252 78.4238 316.252 79.7948C316.252 81.1658 317.368 82.2772 318.745 82.2772Z" stroke="#333333" stroke-width="0.5" stroke-miterlimit="10" stroke-linecap="round" stroke-linejoin="round"/>
<path d="M270.825 55.4671C272.203 55.4671 273.319 54.3557 273.319 52.9847C273.319 51.6137 272.203 50.5023 270.825 50.5023C269.448 50.5023 268.332 51.6137 268.332 52.9847C268.332 54.3557 269.448 55.4671 270.825 55.4671Z" stroke="#333333" stroke-width="0.5" stroke-miterlimit="10" stroke-linecap="round" stroke-linejoin="round"/>
<path d="M266.247 60.7931C266.697 60.7931 267.063 60.4293 267.063 59.9806C267.063 59.5319 266.697 59.1682 266.247 59.1682C265.796 59.1682 265.431 59.5319 265.431 59.9806C265.431 60.4293 265.796 60.7931 266.247 60.7931Z" fill="#333333"/>
<path d="M317.068 69.9103C317.519 69.9103 317.884 69.5465 317.884 69.0978C317.884 68.6491 317.519 68.2854 317.068 68.2854C316.617 68.2854 316.252 68.6491 316.252 69.0978C316.252 69.5465 316.617 69.9103 317.068 69.9103Z" fill="#333333"/>
</g>
</g>
<defs>
<filter id="filter0_ddi_921_15104" x="-16.3333" y="-20.3333" width="394.708" height="212.708" filterUnits="userSpaceOnUse" color-interpolation-filters="sRGB">
<feFlood flood-opacity="0" result="BackgroundImageFix"/>
<feColorMatrix in="SourceAlpha" type="matrix" values="0 0 0 0 0 0 0 0 0 0 0 0 0 0 0 0 0 0 127 0" result="hardAlpha"/>
<feOffset dx="6.125" dy="6.125"/>
<feGaussianBlur stdDeviation="6.125"/>
<feColorMatrix type="matrix" values="0 0 0 0 0.9125 0 0 0 0 0.775625 0 0 0 0 0.855101 0 0 0 1 0"/>
<feBlend mode="normal" in2="BackgroundImageFix" result="effect1_dropShadow_921_15104"/>
<feColorMatrix in="SourceAlpha" type="matrix" values="0 0 0 0 0 0 0 0 0 0 0 0 0 0 0 0 0 0 127 0" result="hardAlpha"/>
<feOffset dx="-4.08333" dy="-4.08333"/>
<feGaussianBlur stdDeviation="6.125"/>
<feColorMatrix type="matrix" values="0 0 0 0 1 0 0 0 0 1 0 0 0 0 1 0 0 0 1 0"/>
<feBlend mode="normal" in2="effect1_dropShadow_921_15104" result="effect2_dropShadow_921_15104"/>
<feBlend mode="normal" in="SourceGraphic" in2="effect2_dropShadow_921_15104" result="shape"/>
<feColorMatrix in="SourceAlpha" type="matrix" values="0 0 0 0 0 0 0 0 0 0 0 0 0 0 0 0 0 0 127 0" result="hardAlpha"/>
<feMorphology radius="1" operator="erode" in="SourceAlpha" result="effect3_innerShadow_921_15104"/>
<feOffset dy="2"/>
<feComposite in2="hardAlpha" operator="arithmetic" k2="-1" k3="1"/>
<feColorMatrix type="matrix" values="0 0 0 0 1 0 0 0 0 1 0 0 0 0 1 0 0 0 0.2 0"/>
<feBlend mode="normal" in2="shape" result="effect3_innerShadow_921_15104"/>
</filter>
<radialGradient id="paint0_radial_921_15104" cx="0" cy="0" r="1" gradientUnits="userSpaceOnUse" gradientTransform="translate(293.922 61.7073) rotate(-164.775) scale(3.47131 3.45806)">
<stop stop-color="#E89575"/>
<stop offset="1" stop-color="#F2B27E"/>
</radialGradient>
<radialGradient id="paint1_radial_921_15104" cx="0" cy="0" r="1" gradientUnits="userSpaceOnUse" gradientTransform="translate(279.899 61.6639) rotate(-164.775) scale(3.47127 3.45801)">
<stop stop-color="#E89575"/>
<stop offset="1" stop-color="#F2B27E"/>
</radialGradient>
<linearGradient id="paint2_linear_921_15104" x1="284.204" y1="61.2133" x2="285.801" y2="58.4172" gradientUnits="userSpaceOnUse">
<stop stop-color="#DB8965"/>
<stop offset="0.9996" stop-color="#F2B27E"/>
</linearGradient>
<clipPath id="clip0_921_15104">
<rect width="104" height="136" fill="white" transform="translate(239 38)"/>
</clipPath>
</defs>
</svg>
