<svg width="64" height="24" viewBox="0 0 64 24" fill="none" xmlns="http://www.w3.org/2000/svg">
<path fill-rule="evenodd" clip-rule="evenodd" d="M8.39175 3.6665H15.6167C18.4417 3.6665 20.3334 5.64984 20.3334 8.59984V15.409C20.3334 18.3498 18.4417 20.3332 15.6167 20.3332H8.39175C5.56675 20.3332 3.66675 18.3498 3.66675 15.409V8.59984C3.66675 5.64984 5.56675 3.6665 8.39175 3.6665ZM11.5251 14.4915L15.4834 10.5332C15.7667 10.2498 15.7667 9.7915 15.4834 9.49984C15.2001 9.2165 14.7334 9.2165 14.4501 9.49984L11.0084 12.9415L9.55008 11.4832C9.26675 11.1998 8.80008 11.1998 8.51675 11.4832C8.23341 11.7665 8.23341 12.2248 8.51675 12.5165L10.5001 14.4915C10.6417 14.6332 10.8251 14.6998 11.0084 14.6998C11.2001 14.6998 11.3834 14.6332 11.5251 14.4915Z" fill="#219653"/>
<path d="M25.0994 16V8.3H27.7944C28.3957 8.3 28.8944 8.40267 29.2904 8.608C29.6864 8.806 29.9797 9.081 30.1704 9.433C30.3684 9.77767 30.4674 10.17 30.4674 10.61C30.4674 11.028 30.372 11.413 30.1814 11.765C29.998 12.1097 29.7084 12.3847 29.3124 12.59C28.9164 12.7953 28.4104 12.898 27.7944 12.898H26.2654V16H25.0994ZM26.2654 11.941H27.7394C28.2894 11.941 28.6817 11.8237 28.9164 11.589C29.1584 11.347 29.2794 11.0207 29.2794 10.61C29.2794 10.1847 29.1584 9.85467 28.9164 9.62C28.6817 9.378 28.2894 9.257 27.7394 9.257H26.2654V11.941ZM31.5759 16V10.544H32.6209L32.7199 11.578C32.9105 11.2187 33.1745 10.9363 33.5119 10.731C33.8565 10.5183 34.2709 10.412 34.7549 10.412V11.633H34.4359C34.1132 11.633 33.8235 11.688 33.5669 11.798C33.3175 11.9007 33.1159 12.0803 32.9619 12.337C32.8152 12.5863 32.7419 12.9347 32.7419 13.382V16H31.5759ZM38.1562 16.132C37.6355 16.132 37.1662 16.0147 36.7482 15.78C36.3375 15.538 36.0112 15.2043 35.7692 14.779C35.5272 14.3463 35.4062 13.844 35.4062 13.272C35.4062 12.7 35.5272 12.2013 35.7692 11.776C36.0185 11.3433 36.3522 11.0097 36.7702 10.775C37.1882 10.533 37.6539 10.412 38.1672 10.412C38.6879 10.412 39.1535 10.533 39.5642 10.775C39.9822 11.0097 40.3122 11.3433 40.5542 11.776C40.8035 12.2013 40.9282 12.7 40.9282 13.272C40.9282 13.844 40.8035 14.3463 40.5542 14.779C40.3122 15.2043 39.9822 15.538 39.5642 15.78C39.1462 16.0147 38.6769 16.132 38.1562 16.132ZM38.1562 15.131C38.4349 15.131 38.6915 15.0613 38.9262 14.922C39.1682 14.7827 39.3625 14.5773 39.5092 14.306C39.6559 14.0273 39.7292 13.6827 39.7292 13.272C39.7292 12.8613 39.6559 12.5203 39.5092 12.249C39.3699 11.9703 39.1792 11.7613 38.9372 11.622C38.7025 11.4827 38.4459 11.413 38.1672 11.413C37.8885 11.413 37.6282 11.4827 37.3862 11.622C37.1515 11.7613 36.9609 11.9703 36.8142 12.249C36.6675 12.5203 36.5942 12.8613 36.5942 13.272C36.5942 13.6827 36.6675 14.0273 36.8142 14.306C36.9609 14.5773 37.1515 14.7827 37.3862 14.922C37.6209 15.0613 37.8775 15.131 38.1562 15.131ZM42.4641 16V11.523H41.6831V10.544H42.4641V9.752C42.4641 9.158 42.6108 8.73267 42.9041 8.476C43.2048 8.212 43.6265 8.08 44.1691 8.08H44.7411V9.07H44.3451C44.0885 9.07 43.9051 9.125 43.7951 9.235C43.6851 9.33767 43.6301 9.51367 43.6301 9.763V10.544H47.0841V16H45.9181V11.523H43.6301V16H42.4641ZM46.5121 9.631C46.2921 9.631 46.1088 9.565 45.9621 9.433C45.8228 9.29367 45.7531 9.11767 45.7531 8.905C45.7531 8.69967 45.8228 8.531 45.9621 8.399C46.1088 8.267 46.2921 8.201 46.5121 8.201C46.7321 8.201 46.9118 8.267 47.0511 8.399C47.1978 8.531 47.2711 8.69967 47.2711 8.905C47.2711 9.11767 47.1978 9.29367 47.0511 9.433C46.9118 9.565 46.7321 9.631 46.5121 9.631ZM48.6345 16V8.08H49.8005V16H48.6345ZM53.829 16.132C53.2937 16.132 52.817 16.0147 52.399 15.78C51.9884 15.538 51.6657 15.2043 51.431 14.779C51.1964 14.3537 51.079 13.8587 51.079 13.294C51.079 12.722 51.1927 12.2197 51.42 11.787C51.6547 11.3543 51.9774 11.017 52.388 10.775C52.806 10.533 53.29 10.412 53.84 10.412C54.3754 10.412 54.841 10.533 55.237 10.775C55.633 11.0097 55.941 11.325 56.161 11.721C56.381 12.117 56.491 12.5533 56.491 13.03C56.491 13.1033 56.4874 13.184 56.48 13.272C56.48 13.3527 56.4764 13.4443 56.469 13.547H52.223C52.2597 14.075 52.432 14.4783 52.74 14.757C53.0554 15.0283 53.4184 15.164 53.829 15.164C54.159 15.164 54.434 15.0907 54.654 14.944C54.8814 14.79 55.05 14.5847 55.16 14.328H56.326C56.1794 14.8413 55.886 15.2703 55.446 15.615C55.0134 15.9597 54.4744 16.132 53.829 16.132ZM53.829 11.369C53.4404 11.369 53.0957 11.4863 52.795 11.721C52.4944 11.9483 52.311 12.293 52.245 12.755H55.325C55.303 12.3297 55.1527 11.9923 54.874 11.743C54.5954 11.4937 54.247 11.369 53.829 11.369ZM60.1869 16.132C59.6589 16.132 59.1932 16.0073 58.7899 15.758C58.3865 15.5087 58.0712 15.1677 57.8439 14.735C57.6165 14.3023 57.5029 13.811 57.5029 13.261C57.5029 12.711 57.6165 12.2233 57.8439 11.798C58.0712 11.3653 58.3865 11.028 58.7899 10.786C59.2005 10.5367 59.6699 10.412 60.1979 10.412C60.6305 10.412 61.0082 10.4963 61.3309 10.665C61.6609 10.8337 61.9175 11.072 62.1009 11.38V8.08H63.2669V16H62.2219L62.1009 15.153C61.9249 15.4097 61.6829 15.637 61.3749 15.835C61.0669 16.033 60.6709 16.132 60.1869 16.132ZM60.3959 15.12C60.8945 15.12 61.3015 14.9477 61.6169 14.603C61.9395 14.2583 62.1009 13.8147 62.1009 13.272C62.1009 12.722 61.9395 12.2783 61.6169 11.941C61.3015 11.5963 60.8945 11.424 60.3959 11.424C59.8972 11.424 59.4865 11.5963 59.1639 11.941C58.8412 12.2783 58.6799 12.722 58.6799 13.272C58.6799 13.6313 58.7532 13.9503 58.8999 14.229C59.0465 14.5077 59.2482 14.7277 59.5049 14.889C59.7689 15.043 60.0659 15.12 60.3959 15.12Z" fill="#219653"/>
</svg>
