<svg width="11" height="12" viewBox="0 0 11 12" fill="none" xmlns="http://www.w3.org/2000/svg">
<path d="M1.64006 11.4311C1.436 11.4303 1.23476 11.3961 1.05096 11.3311C0.81452 11.2506 0.614483 11.1221 0.47455 10.9609C0.334618 10.7996 0.260654 10.6123 0.261419 10.4211L0.273692 1.54411C0.27407 1.35335 0.348325 1.1666 0.487812 1.00559C0.627299 0.844574 0.826281 0.715928 1.06159 0.634623C1.29691 0.553318 1.55887 0.5227 1.81699 0.546332C2.07511 0.569965 2.31877 0.646876 2.5196 0.768113L10.0101 5.20011C10.1665 5.29422 10.2927 5.41253 10.3795 5.54656C10.4663 5.6806 10.5117 5.82705 10.5123 5.97543C10.513 6.12382 10.4689 6.27048 10.3833 6.40493C10.2976 6.53937 10.1725 6.65826 10.0169 6.75311L2.50324 11.2001C2.26125 11.3488 1.95579 11.4306 1.64006 11.4311Z" fill="#231F20"/>
</svg>
