<svg width="19" height="28" viewBox="0 0 19 28" fill="none" xmlns="http://www.w3.org/2000/svg">
<path d="M3.23515 0.925059C3.65261 0.927923 4.05413 1.08589 4.36166 1.36831L4.36156 1.36842L4.37075 1.37646L17.0798 12.4887C17.2939 12.689 17.4647 12.931 17.5819 13.1998C17.7 13.4708 17.761 13.7632 17.761 14.0588C17.761 14.3544 17.7 14.6468 17.5819 14.9178C17.4648 15.1866 17.2939 15.4285 17.0799 15.6288L4.39351 26.7059L4.38794 26.7108L4.38251 26.7158C4.13133 26.9486 3.81457 27.0984 3.47529 27.1448C3.137 27.1911 2.79267 27.1325 2.48883 26.9768C2.15988 26.8017 1.88584 26.5389 1.69711 26.2176C1.50785 25.8953 1.41183 25.5268 1.41975 25.1532L1.41988 25.1532L1.41987 25.1421L1.39987 2.9496H1.39997L1.39975 2.93937C1.39178 2.56631 1.48756 2.19837 1.67642 1.87654C1.86508 1.55504 2.13922 1.29218 2.46835 1.11719C2.70504 0.993062 2.96792 0.927199 3.23515 0.925059Z" stroke="black"/>
</svg>
