<svg width="20" height="21" viewBox="0 0 20 21" fill="none" xmlns="http://www.w3.org/2000/svg">
<path d="M6.03333 7.2487C6.03333 5.05797 7.80927 3.28203 9.99999 3.28203C12.1907 3.28203 13.9667 5.05797 13.9667 7.2487C13.9667 9.43943 12.1907 11.2154 9.99999 11.2154C7.80927 11.2154 6.03333 9.43943 6.03333 7.2487ZM9.99999 9.9487C11.4912 9.9487 12.7 8.73987 12.7 7.2487C12.7 5.75753 11.4912 4.5487 9.99999 4.5487C8.50883 4.5487 7.29999 5.75753 7.29999 7.2487C7.29999 8.73987 8.50883 9.9487 9.99999 9.9487ZM4.80384 18.7154H3.53642C3.58719 17.0729 4.26186 15.5083 5.42737 14.3427C6.64011 13.13 8.28493 12.4487 9.99999 12.4487C11.7151 12.4487 13.3599 13.13 14.5726 14.3427C15.7381 15.5083 16.4128 17.0729 16.4636 18.7154H15.1962C15.1459 17.4089 14.6049 16.1664 13.677 15.2384C12.7018 14.2632 11.3791 13.7154 9.99999 13.7154C8.62087 13.7154 7.29823 14.2632 6.32304 15.2384C5.39509 16.1664 4.85408 17.4089 4.80384 18.7154Z" fill="black" stroke="black" stroke-width="0.4"/>
</svg>
