<svg width="20" height="21" viewBox="0 0 20 21" fill="none" xmlns="http://www.w3.org/2000/svg">
<path fill-rule="evenodd" clip-rule="evenodd" d="M9.4425 2.26661C11.4252 2.26661 13.0435 3.82822 13.1343 5.78848L13.1383 5.96245V6.73995C13.1383 7.08512 12.8585 7.36495 12.5133 7.36495C12.1969 7.36495 11.9354 7.12982 11.894 6.82475L11.8883 6.73995V5.96245C11.8883 4.66003 10.87 3.59517 9.58619 3.52077L9.4425 3.51661H5.38C4.07828 3.51661 3.01354 4.53506 2.93915 5.81876L2.935 5.96245V15.2374C2.935 16.5398 3.95325 17.6047 5.23638 17.6791L5.38 17.6833H9.45083C10.7486 17.6833 11.81 16.6686 11.8842 15.3898L11.8883 15.2466V14.4608C11.8883 14.1156 12.1682 13.8358 12.5133 13.8358C12.8297 13.8358 13.0912 14.0709 13.1326 14.376L13.1383 14.4608V15.2466C13.1383 17.2226 11.5827 18.8358 9.62946 18.929L9.45083 18.9333H5.38C3.39796 18.9333 1.77986 17.3715 1.68902 15.4114L1.685 15.2374V5.96245C1.685 3.9799 3.24646 2.3615 5.20609 2.27064L5.38 2.26661H9.4425ZM18.6068 10.1484C18.7256 10.2622 18.7996 10.4224 18.7996 10.5999C18.7996 10.7791 18.7241 10.9407 18.6032 11.0547L16.1754 13.4726C15.9308 13.7162 15.5351 13.7154 15.2915 13.4708C15.07 13.2485 15.0506 12.9012 15.2326 12.6569L15.2933 12.5869L16.66 11.2249H8.14041C7.79524 11.2249 7.51541 10.945 7.51541 10.5999C7.51541 10.2835 7.75054 10.022 8.05561 9.98057L8.14041 9.97486H16.6614L15.2934 8.61354C15.071 8.39214 15.05 8.04497 15.231 7.79989L15.2914 7.72965C15.5128 7.50727 15.86 7.48633 16.1051 7.66733L16.1753 7.72769L18.6068 10.1484Z" fill="black"/>
<path d="M13.1343 5.78848L13.3343 5.78385L13.3341 5.77922L13.1343 5.78848ZM13.1383 5.96245H13.3384L13.3383 5.95782L13.1383 5.96245ZM11.894 6.82475L11.694 6.83821L11.6959 6.85164L11.894 6.82475ZM11.8883 6.73995H11.6879L11.6888 6.75337L11.8883 6.73995ZM9.58619 3.52077L9.59777 3.32102L9.59197 3.32085L9.58619 3.52077ZM9.4425 3.51661L9.44828 3.31661H9.4425V3.51661ZM2.93915 5.81876L2.7394 5.80718L2.73923 5.81298L2.93915 5.81876ZM2.935 5.96245L2.735 5.95667V5.96245H2.935ZM5.23638 17.6791L5.22479 17.8789L5.23059 17.879L5.23638 17.6791ZM5.38 17.6833L5.37421 17.8833H5.38V17.6833ZM11.8842 15.3898L12.0839 15.4013L12.0841 15.3955L11.8842 15.3898ZM11.8883 15.2466L12.0883 15.2524V15.2466H11.8883ZM13.1326 14.376L13.3326 14.3625L13.3308 14.3491L13.1326 14.376ZM13.1383 14.4608H13.3388L13.3379 14.4474L13.1383 14.4608ZM9.62946 18.929L9.63422 19.129L9.63899 19.1288L9.62946 18.929ZM9.45083 18.9333V19.1333L9.45559 19.1332L9.45083 18.9333ZM1.68902 15.4114L1.48902 15.416L1.48923 15.4207L1.68902 15.4114ZM1.685 15.2374H1.48494L1.48505 15.2421L1.685 15.2374ZM5.20609 2.27064L5.20146 2.07064L5.19682 2.07085L5.20609 2.27064ZM5.38 2.26661V2.06656L5.37537 2.06667L5.38 2.26661ZM18.6068 10.1484L18.4657 10.2902L18.4685 10.2929L18.6068 10.1484ZM18.6032 11.0547L18.466 10.9091L18.4621 10.913L18.6032 11.0547ZM16.1754 13.4726L16.0342 13.3309L16.1754 13.4726ZM15.2915 13.4708L15.4332 13.3297L15.2915 13.4708ZM15.2326 12.6569L15.0815 12.5259L15.0767 12.5315L15.0723 12.5374L15.2326 12.6569ZM15.2933 12.5869L15.1521 12.4453L15.147 12.4504L15.1422 12.4559L15.2933 12.5869ZM16.66 11.2249L16.8012 11.3665L17.144 11.0249H16.66V11.2249ZM8.05561 9.98057L8.04215 9.78056L8.02872 9.78238L8.05561 9.98057ZM8.14041 9.97486V9.77441L8.12699 9.77531L8.14041 9.97486ZM16.6614 9.97486V10.1749H17.1459L16.8025 9.83309L16.6614 9.97486ZM15.2934 8.61354L15.1523 8.75527L15.1523 8.75531L15.2934 8.61354ZM15.231 7.79989L15.0794 7.66953L15.0746 7.67513L15.0702 7.68107L15.231 7.79989ZM15.2914 7.72965L15.1497 7.58855L15.1445 7.59374L15.1397 7.5993L15.2914 7.72965ZM16.1051 7.66733L16.2354 7.51565L16.2298 7.51084L16.2239 7.50645L16.1051 7.66733ZM16.1753 7.72769L16.3164 7.58595L16.3112 7.58078L16.3056 7.57601L16.1753 7.72769ZM13.3341 5.77922C13.2383 3.71272 11.5325 2.06661 9.4425 2.06661V2.46661C11.3178 2.46661 12.8486 3.94373 12.9345 5.79774L13.3341 5.77922ZM13.3383 5.95782L13.3343 5.78385L12.9344 5.7931L12.9384 5.96707L13.3383 5.95782ZM13.3383 6.73995V5.96245H12.9383V6.73995H13.3383ZM12.5133 7.56495C12.969 7.56495 13.3383 7.19558 13.3383 6.73995H12.9383C12.9383 6.97467 12.7481 7.16495 12.5133 7.16495V7.56495ZM11.6959 6.85164C11.7505 7.25452 12.0955 7.56495 12.5133 7.56495V7.16495C12.2983 7.16495 12.1203 7.00512 12.0922 6.79787L11.6959 6.85164ZM11.6888 6.75337L11.6945 6.83818L12.0936 6.81133L12.0879 6.72652L11.6888 6.75337ZM11.6883 5.96245V6.73995H12.0883V5.96245H11.6883ZM9.57462 3.72043C10.7532 3.78874 11.6883 4.76661 11.6883 5.96245H12.0883C12.0883 4.55344 10.9867 3.4016 9.59777 3.3211L9.57462 3.72043ZM9.43672 3.71653L9.58042 3.72068L9.59197 3.32085L9.44827 3.3167L9.43672 3.71653ZM5.38 3.71661H9.4425V3.31661H5.38V3.71661ZM3.13881 5.83033C3.20712 4.65173 4.18492 3.71661 5.38 3.71661V3.31661C3.97164 3.31661 2.81997 4.41838 2.73948 5.80719L3.13881 5.83033ZM3.13491 5.96822L3.13907 5.82454L2.73923 5.81298L2.73508 5.95667L3.13491 5.96822ZM3.135 15.2374V5.96245H2.735V15.2374H3.135ZM5.24795 17.4795C4.07003 17.4112 3.135 16.4332 3.135 15.2374H2.735C2.735 16.6463 3.83647 17.7983 5.2248 17.8788L5.24795 17.4795ZM5.38578 17.4834L5.24216 17.4792L5.23059 17.879L5.37422 17.8832L5.38578 17.4834ZM9.45083 17.4833H5.38V17.8833H9.45083V17.4833ZM11.6845 15.3782C11.6165 16.5518 10.6421 17.4833 9.45083 17.4833V17.8833C10.8552 17.8833 12.0036 16.7854 12.0839 15.4013L11.6845 15.3782ZM11.6884 15.2408L11.6843 15.384L12.0841 15.3955L12.0882 15.2524L11.6884 15.2408ZM11.6883 14.4608V15.2466H12.0883V14.4608H11.6883ZM12.5133 13.6358C12.0577 13.6358 11.6883 14.0051 11.6883 14.4608H12.0883C12.0883 14.2261 12.2786 14.0358 12.5133 14.0358V13.6358ZM13.3308 14.3491C13.2762 13.9462 12.9312 13.6358 12.5133 13.6358V14.0358C12.7283 14.0358 12.9063 14.1956 12.9344 14.4029L13.3308 14.3491ZM13.3379 14.4474L13.3322 14.3625L12.9331 14.3894L12.9388 14.4742L13.3379 14.4474ZM13.3383 15.2466V14.4608H12.9383V15.2466H13.3383ZM9.63899 19.1288C11.6983 19.0306 13.3383 17.33 13.3383 15.2466H12.9383C12.9383 17.1153 11.4671 18.6411 9.61993 18.7293L9.63899 19.1288ZM9.45559 19.1332L9.63422 19.129L9.6247 18.7291L9.44607 18.7333L9.45559 19.1332ZM5.38 19.1333H9.45083V18.7333H5.38V19.1333ZM1.48923 15.4207C1.585 17.487 3.29056 19.1333 5.38 19.1333V18.7333C3.50536 18.7333 1.97473 17.2561 1.88881 15.4021L1.48923 15.4207ZM1.48505 15.2421L1.48907 15.416L1.88897 15.4068L1.88494 15.2328L1.48505 15.2421ZM1.485 5.96245V15.2374H1.885V5.96245H1.485ZM5.19682 2.07085C3.13092 2.16664 1.485 3.87258 1.485 5.96245H1.885C1.885 4.08722 3.362 2.55636 5.21535 2.47042L5.19682 2.07085ZM5.37537 2.06667L5.20146 2.07069L5.21071 2.47058L5.38462 2.46656L5.37537 2.06667ZM9.4425 2.06661H5.38V2.46661H9.4425V2.06661ZM18.9996 10.5999C18.9996 10.3656 18.9017 10.1539 18.7452 10.004L18.4685 10.2929C18.5495 10.3705 18.5996 10.4792 18.5996 10.5999H18.9996ZM18.7404 11.2002C18.8997 11.0501 18.9996 10.8365 18.9996 10.5999H18.5996C18.5996 10.7218 18.5485 10.8314 18.466 10.9092L18.7404 11.2002ZM18.4621 10.913L16.0342 13.3309L16.3165 13.6143L18.7444 11.1964L18.4621 10.913ZM16.0342 13.3309C15.8679 13.4965 15.5988 13.496 15.4332 13.3297L15.1498 13.6119C15.4713 13.9348 15.9937 13.9359 16.3165 13.6143L16.0342 13.3309ZM15.4332 13.3297C15.2827 13.1786 15.2693 12.9424 15.393 12.7764L15.0723 12.5374C14.8319 12.86 14.8574 13.3183 15.1498 13.6119L15.4332 13.3297ZM15.3838 12.7879L15.4444 12.7179L15.1422 12.4559L15.0815 12.5259L15.3838 12.7879ZM15.4345 12.7286L16.8012 11.3665L16.5188 11.0832L15.1521 12.4453L15.4345 12.7286ZM8.14041 11.4249H16.66V11.0249H8.14041V11.4249ZM7.31541 10.5999C7.31541 11.0555 7.68478 11.4249 8.14041 11.4249V11.0249C7.90569 11.0249 7.71541 10.8346 7.71541 10.5999H7.31541ZM8.02872 9.78238C7.62584 9.83704 7.31541 10.182 7.31541 10.5999H7.71541C7.71541 10.3849 7.87524 10.2069 8.08249 10.1788L8.02872 9.78238ZM8.12699 9.77531L8.04218 9.78102L8.06903 10.1801L8.15384 10.1744L8.12699 9.77531ZM16.6614 9.77486H8.14041V10.1749H16.6614V9.77486ZM16.8025 9.83309L15.4344 8.47177L15.1523 8.75531L16.5203 10.1166L16.8025 9.83309ZM15.4345 8.4718C15.2834 8.32138 15.269 8.08521 15.3919 7.9187L15.0702 7.68107C14.8311 8.00472 14.8586 8.46291 15.1523 8.75527L15.4345 8.4718ZM15.3827 7.93024L15.4431 7.86001L15.1397 7.5993L15.0794 7.66953L15.3827 7.93024ZM15.4331 7.87076C15.5836 7.71967 15.8197 7.70524 15.9862 7.82821L16.2239 7.50645C15.9002 7.26742 15.442 7.29488 15.1497 7.58855L15.4331 7.87076ZM15.9747 7.81901L16.0449 7.87937L16.3056 7.57601L16.2354 7.51565L15.9747 7.81901ZM16.0342 7.86942L18.4657 10.2902L18.7479 10.0067L16.3164 7.58595L16.0342 7.86942Z" fill="black"/>
</svg>
