<svg width="20" height="21" viewBox="0 0 20 21" fill="none" xmlns="http://www.w3.org/2000/svg">
<path fill-rule="evenodd" clip-rule="evenodd" d="M10.0483 2.2489C7.12196 2.23714 4.40462 3.75454 2.88383 6.24878C1.36285 8.74335 1.26074 11.8509 2.61472 14.4397L2.7679 14.7383C2.82646 14.848 2.83776 14.9665 2.80383 15.0759C2.58504 15.6541 2.39281 16.2785 2.23942 16.9128L2.22314 17.0495C2.22314 17.6873 2.56347 18.1256 3.23893 18.1106L3.3514 18.0971C3.96499 17.9616 4.56926 17.787 5.16051 17.5744C5.23888 17.5546 5.36725 17.5623 5.4831 17.6097L6.05187 17.9316C6.05315 17.9355 6.05411 17.9385 6.06007 17.942L6.09824 17.9553C9.16079 19.5657 12.901 19.1214 15.4998 16.8386C18.0989 14.5554 19.0166 10.9071 17.8063 7.66859C16.5961 4.43039 13.5096 2.27434 10.0483 2.2489ZM9.80624 3.41457L10.0403 3.4109C13.0192 3.43356 15.6757 5.28922 16.7171 8.07567C17.7583 10.8618 16.9688 14.0005 14.7324 15.965L14.5489 16.1209C12.3855 17.8971 9.38185 18.2551 6.86058 17.0377L6.62081 16.9175L6.63108 16.9189L6.61591 16.9148L6.26398 16.7128C6.13726 16.6412 6.03674 16.587 5.95572 16.5479C5.56975 16.3888 5.17796 16.3653 4.80945 16.4668L4.4606 16.5866C4.23005 16.6628 4.00311 16.7316 3.77728 16.7938L3.44806 16.8798L3.36964 17.1861C3.51183 16.5981 3.69004 16.0192 3.90325 15.453C4.04044 15.0139 3.99849 14.5741 3.79796 14.1989L3.64719 13.9048C2.48023 11.6736 2.56807 9.0003 3.87664 6.85412C5.14449 4.77472 7.37912 3.48401 9.80624 3.41457ZM5.3955 10.5822C5.3955 10.057 5.82155 9.63168 6.34664 9.63168C6.87172 9.63168 7.29777 10.057 7.29777 10.5822C7.29777 11.1074 6.87172 11.5327 6.34664 11.5327C5.82155 11.5327 5.3955 11.1074 5.3955 10.5822ZM9.0929 10.5822C9.0929 10.057 9.51895 9.63168 10.044 9.63168C10.5691 9.63168 10.9952 10.057 10.9952 10.5822C10.9952 11.1074 10.5691 11.5327 10.044 11.5327C9.51895 11.5327 9.0929 11.1074 9.0929 10.5822ZM13.7414 9.63168C13.2164 9.63168 12.7903 10.057 12.7903 10.5822C12.7903 11.1074 13.2164 11.5327 13.7414 11.5327C14.2665 11.5327 14.6926 11.1074 14.6926 10.5822C14.6926 10.057 14.2665 9.63168 13.7414 9.63168Z" fill="black"/>
<path d="M2.88383 6.24878L2.71307 6.14467L2.88383 6.24878ZM10.0483 2.2489L10.0498 2.0489L10.0491 2.0489L10.0483 2.2489ZM2.61472 14.4397L2.79267 14.3484L2.79194 14.347L2.61472 14.4397ZM2.7679 14.7383L2.58992 14.8296L2.59145 14.8324L2.7679 14.7383ZM2.80383 15.0759L2.99123 15.1468L2.99485 15.1351L2.80383 15.0759ZM2.23942 16.9128L2.04502 16.8658L2.04223 16.8774L2.04083 16.8892L2.23942 16.9128ZM2.22314 17.0495L2.02454 17.0258L2.02314 17.0376V17.0495H2.22314ZM3.23893 18.1106L3.24336 18.3106L3.25313 18.3103L3.26282 18.3092L3.23893 18.1106ZM3.3514 18.0971L3.3753 18.2956L3.38499 18.2945L3.39453 18.2924L3.3514 18.0971ZM5.16051 17.5744L5.11147 17.3805L5.10202 17.3829L5.09285 17.3862L5.16051 17.5744ZM5.4831 17.6097L5.5816 17.4356L5.57057 17.4294L5.55884 17.4246L5.4831 17.6097ZM6.05187 17.9316L6.24222 17.8702L6.21828 17.7959L6.15037 17.7575L6.05187 17.9316ZM6.06007 17.942L5.95942 18.1148L5.97594 18.1244L5.99398 18.1307L6.06007 17.942ZM6.09824 17.9553L6.19132 17.7783L6.17826 17.7715L6.16433 17.7666L6.09824 17.9553ZM15.4998 16.8386L15.3678 16.6883L15.4998 16.8386ZM17.8063 7.66859L17.9936 7.59858V7.59858L17.8063 7.66859ZM10.0403 3.4109L10.0418 3.21086L10.0372 3.21093L10.0403 3.4109ZM9.80624 3.41457L9.80311 3.21458L9.80052 3.21465L9.80624 3.41457ZM16.7171 8.07567L16.9044 8.00565L16.7171 8.07567ZM14.7324 15.965L14.8619 16.1175L14.8644 16.1153L14.7324 15.965ZM14.5489 16.1209L14.6758 16.2755L14.6784 16.2733L14.5489 16.1209ZM6.86058 17.0377L6.77097 17.2165L6.77362 17.2178L6.86058 17.0377ZM6.62081 16.9175L6.64707 16.7193L6.5312 17.0963L6.62081 16.9175ZM6.63108 16.9189L6.60482 17.1172L6.68365 16.7259L6.63108 16.9189ZM6.61591 16.9148L6.51637 17.0882L6.53861 17.101L6.56335 17.1077L6.61591 16.9148ZM6.26398 16.7128L6.36353 16.5393L6.3624 16.5387L6.26398 16.7128ZM5.95572 16.5479L6.0427 16.3674L6.03194 16.363L5.95572 16.5479ZM4.80945 16.4668L4.75625 16.2736L4.74448 16.2777L4.80945 16.4668ZM4.4606 16.5866L4.52333 16.7766L4.52557 16.7758L4.4606 16.5866ZM3.77728 16.7938L3.82783 16.9873L3.83042 16.9866L3.77728 16.7938ZM3.44806 16.8798L3.39752 16.6863L3.28353 16.7161L3.25431 16.8302L3.44806 16.8798ZM3.36964 17.1861L3.17524 17.1391L3.56339 17.2357L3.36964 17.1861ZM3.90325 15.453L4.09073 15.5235L4.09414 15.5126L3.90325 15.453ZM3.79796 14.1989L3.61997 14.2902L3.62157 14.2932L3.79796 14.1989ZM3.64719 13.9048L3.82517 13.8136L3.82442 13.8122L3.64719 13.9048ZM3.87664 6.85412L3.70587 6.75L3.87664 6.85412ZM3.0546 6.3529C4.53886 3.91856 7.19107 2.43742 10.0475 2.4489L10.0491 2.0489C7.05286 2.03686 4.27038 3.59052 2.71307 6.14467L3.0546 6.3529ZM2.79194 14.347C1.4705 11.8204 1.57014 8.78755 3.0546 6.3529L2.71307 6.14467C1.15555 8.69915 1.05099 11.8814 2.43749 14.5324L2.79194 14.347ZM2.94585 14.647L2.79267 14.3484L2.43676 14.5309L2.58995 14.8296L2.94585 14.647ZM2.99485 15.1351C3.04532 14.9724 3.0269 14.7989 2.94436 14.6441L2.59145 14.8324C2.62602 14.8972 2.6302 14.9606 2.6128 15.0167L2.99485 15.1351ZM2.43382 16.9598C2.58533 16.3332 2.77515 15.7168 2.99088 15.1467L2.61677 15.0051C2.39493 15.5914 2.20028 16.2237 2.04502 16.8658L2.43382 16.9598ZM2.42173 17.0731L2.43801 16.9365L2.04083 16.8892L2.02454 17.0258L2.42173 17.0731ZM3.23449 17.9106C2.94305 17.9171 2.74937 17.827 2.62606 17.6907C2.49929 17.5505 2.42314 17.3351 2.42314 17.0495H2.02314C2.02314 17.4017 2.11715 17.7243 2.3294 17.959C2.54513 18.1975 2.85934 18.3191 3.24336 18.3106L3.23449 17.9106ZM3.32751 17.8985L3.21503 17.912L3.26282 18.3092L3.3753 18.2956L3.32751 17.8985ZM5.09285 17.3862C4.50961 17.5959 3.91354 17.7681 3.30827 17.9018L3.39453 18.2924C4.01643 18.155 4.6289 17.9781 5.22817 17.7626L5.09285 17.3862ZM5.55884 17.4246C5.41005 17.3637 5.23776 17.3486 5.11147 17.3805L5.20955 17.7683C5.22088 17.7655 5.24858 17.7621 5.28879 17.766C5.32746 17.7696 5.36918 17.7792 5.40735 17.7948L5.55884 17.4246ZM6.15037 17.7575L5.5816 17.4356L5.3846 17.7838L5.95337 18.1056L6.15037 17.7575ZM6.16072 17.7692C6.1757 17.7779 6.1993 17.7948 6.21931 17.8241C6.23701 17.85 6.24403 17.8758 6.24222 17.8702L5.86153 17.993C5.86158 17.9931 5.8623 17.9954 5.86315 17.9978C5.86408 18.0006 5.86558 18.0048 5.86763 18.0098C5.87193 18.0204 5.87865 18.0345 5.88913 18.0499C5.91143 18.0825 5.93848 18.1026 5.95942 18.1148L6.16072 17.7692ZM6.16433 17.7666L6.12616 17.7532L5.99398 18.1307L6.03215 18.1441L6.16433 17.7666ZM15.3678 16.6883C12.8313 18.9165 9.18058 19.3501 6.19132 17.7783L6.00516 18.1324C9.141 19.7812 12.9707 19.3264 15.6318 16.9889L15.3678 16.6883ZM17.619 7.73861C18.8002 10.8993 17.9046 14.4599 15.3678 16.6883L15.6318 16.9889C18.2932 14.6509 19.2331 10.915 17.9936 7.59858L17.619 7.73861ZM10.0468 2.4489C13.4254 2.47372 16.4378 4.57821 17.619 7.73861L17.9936 7.59858C16.7544 4.28256 13.5938 2.07495 10.0498 2.04891L10.0468 2.4489ZM10.0372 3.21093L9.80311 3.21459L9.80937 3.61454L10.0434 3.61088L10.0372 3.21093ZM16.9044 8.00565C15.834 5.14139 13.1035 3.2342 10.0418 3.21091L10.0388 3.6109C12.935 3.63293 15.5175 5.43706 16.5297 8.14568L16.9044 8.00565ZM14.8644 16.1153C17.1631 14.096 17.9748 10.8697 16.9044 8.00565L16.5297 8.14568C17.5419 10.8539 16.7745 13.905 14.6004 15.8148L14.8644 16.1153ZM14.6784 16.2733L14.8618 16.1175L14.6029 15.8126L14.4194 15.9684L14.6784 16.2733ZM6.77362 17.2178C9.36503 18.469 12.4522 18.1011 14.6758 16.2754L14.422 15.9663C12.3189 17.693 9.39867 18.0411 6.94754 16.8576L6.77362 17.2178ZM6.5312 17.0963L6.77098 17.2165L6.95018 16.8589L6.71041 16.7387L6.5312 17.0963ZM6.65735 16.7206L6.64707 16.7193L6.59454 17.1158L6.60482 17.1172L6.65735 16.7206ZM6.56335 17.1077L6.57852 17.1119L6.68365 16.7259L6.66848 16.7218L6.56335 17.1077ZM6.16444 16.8863L6.51637 17.0882L6.71546 16.7413L6.36353 16.5393L6.16444 16.8863ZM5.86888 16.7281C5.94389 16.7642 6.03988 16.8159 6.16557 16.8869L6.3624 16.5387C6.23465 16.4665 6.12958 16.4097 6.04255 16.3677L5.86888 16.7281ZM4.86255 16.6596C5.18645 16.5704 5.53279 16.5899 5.8795 16.7328L6.03194 16.363C5.60671 16.1877 5.16946 16.1602 4.75635 16.274L4.86255 16.6596ZM4.52557 16.7758L4.87442 16.656L4.74448 16.2777L4.39563 16.3975L4.52557 16.7758ZM3.83042 16.9866C4.05957 16.9235 4.2897 16.8537 4.52332 16.7766L4.39788 16.3967C4.1704 16.4719 3.94665 16.5397 3.72414 16.601L3.83042 16.9866ZM3.49861 17.0733L3.82782 16.9873L3.72674 16.6003L3.39752 16.6863L3.49861 17.0733ZM3.56339 17.2357L3.64182 16.9294L3.25431 16.8302L3.17589 17.1365L3.56339 17.2357ZM3.71607 15.3825C3.49998 15.9564 3.31936 16.5431 3.17524 17.1391L3.56404 17.2331C3.7043 16.653 3.8801 16.0821 4.09042 15.5234L3.71607 15.3825ZM3.62157 14.2932C3.79585 14.6193 3.83418 15.0034 3.71235 15.3933L4.09414 15.5126C4.2467 15.0244 4.20113 14.529 3.97435 14.1046L3.62157 14.2932ZM3.46922 13.9961L3.61999 14.2901L3.97593 14.1077L3.82516 13.8136L3.46922 13.9961ZM3.70587 6.75C2.36074 8.95617 2.27051 11.7042 3.46997 13.9975L3.82442 13.8122C2.68995 11.6431 2.7754 9.04444 4.0474 6.95824L3.70587 6.75ZM9.80052 3.21465C7.30596 3.28602 5.0091 4.61258 3.70587 6.75L4.0474 6.95824C5.27987 4.93686 7.45228 3.682 9.81196 3.61449L9.80052 3.21465ZM6.34664 9.43168C5.71127 9.43168 5.1955 9.9464 5.1955 10.5822H5.5955C5.5955 10.1677 5.93183 9.83168 6.34664 9.83168V9.43168ZM7.49777 10.5822C7.49777 9.9464 6.982 9.43168 6.34664 9.43168V9.83168C6.76144 9.83168 7.09777 10.1677 7.09777 10.5822H7.49777ZM6.34664 11.7327C6.982 11.7327 7.49777 11.218 7.49777 10.5822H7.09777C7.09777 10.9967 6.76144 11.3327 6.34664 11.3327V11.7327ZM5.1955 10.5822C5.1955 11.218 5.71127 11.7327 6.34664 11.7327V11.3327C5.93183 11.3327 5.5955 10.9967 5.5955 10.5822H5.1955ZM10.044 9.43168C9.40867 9.43168 8.8929 9.9464 8.8929 10.5822H9.2929C9.2929 10.1677 9.62923 9.83168 10.044 9.83168V9.43168ZM11.1952 10.5822C11.1952 9.9464 10.6794 9.43168 10.044 9.43168V9.83168C10.4588 9.83168 10.7952 10.1677 10.7952 10.5822H11.1952ZM10.044 11.7327C10.6794 11.7327 11.1952 11.218 11.1952 10.5822H10.7952C10.7952 10.9967 10.4588 11.3327 10.044 11.3327V11.7327ZM8.8929 10.5822C8.8929 11.218 9.40867 11.7327 10.044 11.7327V11.3327C9.62923 11.3327 9.2929 10.9967 9.2929 10.5822H8.8929ZM12.9903 10.5822C12.9903 10.1677 13.3266 9.83168 13.7414 9.83168V9.43168C13.1061 9.43168 12.5903 9.9464 12.5903 10.5822H12.9903ZM13.7414 11.3327C13.3266 11.3327 12.9903 10.9967 12.9903 10.5822H12.5903C12.5903 11.218 13.1061 11.7327 13.7414 11.7327V11.3327ZM14.4926 10.5822C14.4926 10.9967 14.1562 11.3327 13.7414 11.3327V11.7327C14.3768 11.7327 14.8926 11.218 14.8926 10.5822H14.4926ZM13.7414 9.83168C14.1562 9.83168 14.4926 10.1677 14.4926 10.5822H14.8926C14.8926 9.9464 14.3768 9.43168 13.7414 9.43168V9.83168Z" fill="black"/>
</svg>
