<svg width="20" height="21" viewBox="0 0 20 21" fill="none" xmlns="http://www.w3.org/2000/svg">
<path fill-rule="evenodd" clip-rule="evenodd" d="M13.6822 2.75121C13.644 2.46743 13.4026 2.2487 13.1105 2.2487C12.7919 2.2487 12.5336 2.509 12.5336 2.8301V3.47289H7.47345V2.8301L7.46818 2.75121C7.42998 2.46743 7.1886 2.2487 6.89653 2.2487C6.5779 2.2487 6.31961 2.509 6.31961 2.8301V3.48732C3.95546 3.65015 2.5 5.18197 2.5 7.65353V14.6688C2.5 17.3214 4.13195 18.9154 6.74688 18.9154H13.253C15.8711 18.9154 17.4999 17.3481 17.4999 14.7274V7.65353C17.5075 5.18109 16.0567 3.64969 13.6874 3.48725V2.8301L13.6822 2.75121ZM12.5336 4.63568V5.38109L12.5389 5.45998C12.5771 5.74376 12.8184 5.96249 13.1105 5.96249C13.4291 5.96249 13.6874 5.70219 13.6874 5.38109V4.65286C15.4112 4.79628 16.3516 5.83432 16.3461 7.65174V7.98844H3.65384V7.65353C3.65384 5.83725 4.59938 4.79702 6.31961 4.65298V5.38109L6.32487 5.45998C6.36307 5.74376 6.60445 5.96249 6.89653 5.96249C7.21515 5.96249 7.47345 5.70219 7.47345 5.38109V4.63568H12.5336ZM3.65384 9.15123V14.6688C3.65384 16.6709 4.76126 17.7526 6.74688 17.7526H13.253C15.2455 17.7526 16.3461 16.6936 16.3461 14.7274L16.3461 9.15123H3.65384ZM14.001 11.5973C14.001 11.2762 13.7427 11.0159 13.4241 11.0159L13.3387 11.0212C13.0571 11.0597 12.84 11.303 12.84 11.5973C12.84 11.9184 13.0983 12.1787 13.4241 12.1787L13.5023 12.1734C13.7839 12.1349 14.001 11.8916 14.001 11.5973ZM10.0106 11.0159C10.3293 11.0159 10.5876 11.2762 10.5876 11.5973C10.5876 11.8916 10.3705 12.1349 10.0889 12.1734L10.0106 12.1787C9.6849 12.1787 9.4266 11.9184 9.4266 11.5973C9.4266 11.303 9.64364 11.0597 9.92524 11.0212L10.0106 11.0159ZM7.16702 11.5973C7.16702 11.2762 6.90873 11.0159 6.5901 11.0159L6.50469 11.0212C6.2231 11.0597 6.00606 11.303 6.00606 11.5973C6.00606 11.9184 6.26435 12.1787 6.58298 12.1787L6.66839 12.1734C6.94998 12.1349 7.16702 11.8916 7.16702 11.5973ZM13.4241 14.0287C13.7427 14.0287 14.001 14.289 14.001 14.6101C14.001 14.9044 13.7839 15.1477 13.5023 15.1862L13.4241 15.1915C13.0983 15.1915 12.84 14.9312 12.84 14.6101C12.84 14.3158 13.0571 14.0725 13.3387 14.034L13.4241 14.0287ZM10.5876 14.6101C10.5876 14.289 10.3293 14.0287 10.0106 14.0287L9.92524 14.034C9.64364 14.0725 9.4266 14.3158 9.4266 14.6101C9.4266 14.9312 9.6849 15.1915 10.0106 15.1915L10.0889 15.1862C10.3705 15.1477 10.5876 14.9044 10.5876 14.6101ZM6.5901 14.0287C6.90873 14.0287 7.16702 14.289 7.16702 14.6101C7.16702 14.9044 6.94998 15.1477 6.66839 15.1862L6.58298 15.1915C6.26435 15.1915 6.00606 14.9312 6.00606 14.6101C6.00606 14.3158 6.2231 14.0725 6.50469 14.034L6.5901 14.0287Z" fill="black"/>
<path d="M13.6822 2.75121L13.8822 2.73785L13.8804 2.72452L13.6822 2.75121ZM12.5336 3.47289V3.67289H12.7336V3.47289H12.5336ZM7.47345 3.47289H7.27345V3.67289H7.47345V3.47289ZM7.47345 2.8301H7.67389L7.673 2.81678L7.47345 2.8301ZM7.46818 2.75121L7.66819 2.73785L7.66639 2.72452L7.46818 2.75121ZM6.31961 3.48732L6.33335 3.68685L6.51961 3.67402V3.48732H6.31961ZM17.4999 7.65353L17.2999 7.65292V7.65353H17.4999ZM13.6874 3.48725H13.4874V3.67401L13.6738 3.68679L13.6874 3.48725ZM13.6874 2.8301H13.8879L13.887 2.81678L13.6874 2.8301ZM12.5336 5.38109H12.3331L12.334 5.39441L12.5336 5.38109ZM12.5336 4.63568H12.7336V4.43568H12.5336V4.63568ZM12.5389 5.45998L12.3389 5.47333L12.3406 5.48667L12.5389 5.45998ZM13.6874 4.65286L13.704 4.45355L13.4874 4.43553V4.65286H13.6874ZM16.3461 7.65174L16.1461 7.65113V7.65174H16.3461ZM16.3461 7.98844V8.18844H16.5461V7.98844H16.3461ZM3.65384 7.98844H3.45384V8.18844H3.65384V7.98844ZM6.31961 4.65298H6.51961V4.43553L6.30292 4.45368L6.31961 4.65298ZM6.31961 5.38109H6.11916L6.12005 5.39441L6.31961 5.38109ZM6.32487 5.45998L6.12487 5.47333L6.12666 5.48667L6.32487 5.45998ZM7.47345 4.63568V4.43568H7.27345V4.63568H7.47345ZM3.65384 9.15123V8.95123H3.45384V9.15123H3.65384ZM16.3461 14.7274H16.1461H16.3461ZM16.3461 9.15123H16.5461V8.95123H16.3461V9.15123ZM13.4241 11.0159V10.8155L13.4117 10.8163L13.4241 11.0159ZM13.3387 11.0212L13.3262 10.8216L13.3189 10.8221L13.3116 10.8231L13.3387 11.0212ZM13.4241 12.1787V12.3792L13.4376 12.3782L13.4241 12.1787ZM13.5023 12.1734L13.5159 12.3734L13.5294 12.3715L13.5023 12.1734ZM10.0106 11.0159V10.8155L9.99824 10.8163L10.0106 11.0159ZM10.0889 12.1734L10.1025 12.3734L10.116 12.3715L10.0889 12.1734ZM10.0106 12.1787V12.3792L10.0242 12.3782L10.0106 12.1787ZM9.92524 11.0212L9.91283 10.8216L9.90546 10.8221L9.89815 10.8231L9.92524 11.0212ZM6.5901 11.0159V10.8155L6.5777 10.8163L6.5901 11.0159ZM6.50469 11.0212L6.49229 10.8216L6.48492 10.8221L6.4776 10.8231L6.50469 11.0212ZM6.58298 12.1787V12.3791L6.59538 12.3783L6.58298 12.1787ZM6.66839 12.1734L6.68079 12.373L6.68816 12.3725L6.69548 12.3715L6.66839 12.1734ZM13.4241 14.0287V13.8283L13.4117 13.8291L13.4241 14.0287ZM13.5023 15.1862L13.5159 15.3862L13.5294 15.3844L13.5023 15.1862ZM13.4241 15.1915V15.392L13.4376 15.391L13.4241 15.1915ZM13.3387 14.034L13.3262 13.8344L13.3189 13.8349L13.3116 13.8359L13.3387 14.034ZM10.0106 14.0287V13.8283L9.99824 13.8291L10.0106 14.0287ZM9.92524 14.034L9.91283 13.8344L9.90546 13.8349L9.89815 13.8359L9.92524 14.034ZM10.0106 15.1915V15.392L10.0242 15.391L10.0106 15.1915ZM10.0889 15.1862L10.1025 15.3862L10.116 15.3844L10.0889 15.1862ZM6.5901 14.0287V13.8283L6.5777 13.8291L6.5901 14.0287ZM6.66839 15.1862L6.68079 15.3858L6.68816 15.3854L6.69548 15.3844L6.66839 15.1862ZM6.58298 15.1915V15.3919L6.59538 15.3911L6.58298 15.1915ZM6.50469 14.034L6.49229 13.8344L6.48492 13.8349L6.4776 13.8359L6.50469 14.034ZM13.1105 2.4487C13.2999 2.4487 13.4588 2.59084 13.484 2.77789L13.8804 2.72452C13.8292 2.34401 13.5052 2.0487 13.1105 2.0487V2.4487ZM12.7336 2.8301C12.7336 2.618 12.9038 2.4487 13.1105 2.4487V2.0487C12.68 2.0487 12.3336 2.40001 12.3336 2.8301H12.7336ZM12.7336 3.47289V2.8301H12.3336V3.47289H12.7336ZM7.47345 3.67289H12.5336V3.27289H7.47345V3.67289ZM7.67345 3.47289V2.8301H7.27345V3.47289H7.67345ZM7.673 2.81678L7.66774 2.73788L7.26863 2.76453L7.27389 2.84342L7.673 2.81678ZM7.66639 2.72452C7.61517 2.34401 7.29126 2.0487 6.89653 2.0487V2.4487C7.08594 2.4487 7.24479 2.59084 7.26997 2.77789L7.66639 2.72452ZM6.89653 2.0487C6.46599 2.0487 6.11961 2.40001 6.11961 2.8301H6.51961C6.51961 2.618 6.68981 2.4487 6.89653 2.4487V2.0487ZM6.11961 2.8301V3.48732H6.51961V2.8301H6.11961ZM2.7 7.65353C2.7 6.45744 3.05148 5.50865 3.67001 4.84052C4.28844 4.1725 5.19197 3.76546 6.33335 3.68685L6.30586 3.28779C5.0831 3.37201 4.07682 3.81229 3.37648 4.56878C2.67625 5.32516 2.3 6.37806 2.3 7.65353H2.7ZM2.7 14.6688V7.65353H2.3V14.6688H2.7ZM6.74688 18.7154C5.48023 18.7154 4.47345 18.3301 3.7838 17.6449C3.09436 16.96 2.7 15.9536 2.7 14.6688H2.3C2.3 16.0365 2.72162 17.1535 3.50188 17.9287C4.28194 18.7037 5.3986 19.1154 6.74688 19.1154V18.7154ZM13.253 18.7154H6.74688V19.1154H13.253V18.7154ZM17.2999 14.7274C17.2999 15.9956 16.9068 16.9869 16.2183 17.6613C15.5293 18.3361 14.5222 18.7154 13.253 18.7154V19.1154C14.6019 19.1154 15.7183 18.711 16.4982 17.947C17.2787 17.1825 17.6999 16.0798 17.6999 14.7274H17.2999ZM17.2999 7.65353V14.7274H17.6999V7.65353H17.2999ZM13.6738 3.68679C14.8178 3.76522 15.7212 4.17212 16.3381 4.83985C16.955 5.50768 17.3036 6.45635 17.2999 7.65292L17.6999 7.65414C17.7038 6.37826 17.3308 5.32502 16.6319 4.56843C15.9329 3.81174 14.9263 3.37172 13.7011 3.28772L13.6738 3.68679ZM13.4874 2.8301V3.48725H13.8874V2.8301H13.4874ZM13.4826 2.76453L13.4879 2.84342L13.887 2.81678L13.8817 2.73788L13.4826 2.76453ZM12.7336 5.38109V4.63568H12.3336V5.38109H12.7336ZM12.7384 5.44666L12.7331 5.36777L12.334 5.39441L12.3393 5.4733L12.7384 5.44666ZM13.1105 5.76249C12.9211 5.76249 12.7623 5.62035 12.7371 5.4333L12.3406 5.48667C12.3919 5.86718 12.7158 6.16249 13.1105 6.16249V5.76249ZM13.4874 5.38109C13.4874 5.59319 13.3172 5.76249 13.1105 5.76249V6.16249C13.541 6.16249 13.8874 5.81118 13.8874 5.38109H13.4874ZM13.4874 4.65286V5.38109H13.8874V4.65286H13.4874ZM16.5461 7.65235C16.549 6.70991 16.3063 5.94303 15.8146 5.39146C15.3221 4.83908 14.6027 4.52832 13.704 4.45355L13.6709 4.85217C14.4959 4.92082 15.1087 5.2008 15.516 5.65765C15.924 6.1153 16.1488 6.77616 16.1461 7.65113L16.5461 7.65235ZM16.5461 7.98844V7.65174H16.1461V7.98844H16.5461ZM3.65384 8.18844H16.3461V7.78844H3.65384V8.18844ZM3.45384 7.65353V7.98844H3.85384V7.65353H3.45384ZM6.30292 4.45368C5.40581 4.52879 4.68632 4.84035 4.19251 5.39289C3.69942 5.94463 3.45384 6.71149 3.45384 7.65353H3.85384C3.85384 6.77929 4.08103 6.1179 4.49076 5.65944C4.89978 5.20178 5.51317 4.9212 6.33629 4.85228L6.30292 4.45368ZM6.11961 4.65298V5.38109H6.51961V4.65298H6.11961ZM6.12005 5.39441L6.12532 5.4733L6.52443 5.44666L6.51916 5.36777L6.12005 5.39441ZM6.12666 5.48667C6.17788 5.86718 6.50179 6.16249 6.89653 6.16249V5.76249C6.70712 5.76249 6.54826 5.62035 6.52309 5.4333L6.12666 5.48667ZM6.89653 6.16249C7.32706 6.16249 7.67345 5.81118 7.67345 5.38109H7.27345C7.27345 5.59319 7.10324 5.76249 6.89653 5.76249V6.16249ZM7.67345 5.38109V4.63568H7.27345V5.38109H7.67345ZM12.5336 4.43568H7.47345V4.83568H12.5336V4.43568ZM3.45384 9.15123V14.6688H3.85384V9.15123H3.45384ZM3.45384 14.6688C3.45384 15.7058 3.74125 16.5346 4.31493 17.1035C4.88832 17.6721 5.71893 17.9526 6.74688 17.9526V17.5526C5.78921 17.5526 5.0733 17.2922 4.59658 16.8195C4.12015 16.347 3.85384 15.6338 3.85384 14.6688H3.45384ZM6.74688 17.9526H13.253V17.5526H6.74688V17.9526ZM13.253 17.9526C14.2831 17.9526 15.1134 17.6785 15.6863 17.1206C16.26 16.5618 16.5461 15.7472 16.5461 14.7274H16.1461C16.1461 15.6738 15.8819 16.3717 15.4072 16.834C14.9316 17.2972 14.2154 17.5526 13.253 17.5526V17.9526ZM16.5461 14.7274L16.5461 9.15123H16.1461L16.1461 14.7274H16.5461ZM16.3461 8.95123H3.65384V9.35123H16.3461V8.95123ZM13.4241 11.2159C13.6308 11.2159 13.801 11.3852 13.801 11.5973H14.201C14.201 11.1672 13.8546 10.8159 13.4241 10.8159V11.2159ZM13.3511 11.2208L13.4365 11.2155L13.4117 10.8163L13.3262 10.8216L13.3511 11.2208ZM13.04 11.5973C13.04 11.4031 13.183 11.2443 13.3657 11.2194L13.3116 10.8231C12.9311 10.8751 12.64 11.2028 12.64 11.5973H13.04ZM13.4241 11.9787C13.2086 11.9787 13.04 11.8078 13.04 11.5973H12.64C12.64 12.029 12.988 12.3787 13.4241 12.3787V11.9787ZM13.4888 11.9738L13.4105 11.9792L13.4376 12.3782L13.5159 12.3729L13.4888 11.9738ZM13.801 11.5973C13.801 11.7915 13.658 11.9503 13.4753 11.9752L13.5294 12.3715C13.9099 12.3195 14.201 11.9918 14.201 11.5973H13.801ZM10.7876 11.5973C10.7876 11.1672 10.4412 10.8159 10.0106 10.8159V11.2159C10.2174 11.2159 10.3876 11.3852 10.3876 11.5973H10.7876ZM10.116 12.3715C10.4965 12.3195 10.7876 11.9918 10.7876 11.5973H10.3876C10.3876 11.7915 10.2445 11.9503 10.0618 11.9752L10.116 12.3715ZM10.0242 12.3782L10.1025 12.3729L10.0754 11.9738L9.99712 11.9792L10.0242 12.3782ZM9.2266 11.5973C9.2266 12.029 9.57458 12.3787 10.0106 12.3787V11.9787C9.79521 11.9787 9.6266 11.8078 9.6266 11.5973H9.2266ZM9.89815 10.8231C9.51766 10.8751 9.2266 11.2028 9.2266 11.5973H9.6266C9.6266 11.4031 9.76962 11.2443 9.95233 11.2194L9.89815 10.8231ZM9.99824 10.8163L9.91283 10.8216L9.93764 11.2208L10.023 11.2155L9.99824 10.8163ZM6.5901 11.2159C6.79682 11.2159 6.96702 11.3852 6.96702 11.5973H7.36702C7.36702 11.1672 7.02064 10.8159 6.5901 10.8159V11.2159ZM6.5171 11.2208L6.60251 11.2155L6.5777 10.8163L6.49229 10.8216L6.5171 11.2208ZM6.20606 11.5973C6.20606 11.4031 6.34908 11.2443 6.53178 11.2194L6.4776 10.8231C6.09712 10.8751 5.80606 11.2028 5.80606 11.5973H6.20606ZM6.58298 11.9787C6.37626 11.9787 6.20606 11.8094 6.20606 11.5973H5.80606C5.80606 12.0274 6.15244 12.3787 6.58298 12.3787V11.9787ZM6.65598 11.9738L6.57057 11.9791L6.59538 12.3783L6.68079 12.373L6.65598 11.9738ZM6.96702 11.5973C6.96702 11.7915 6.824 11.9503 6.6413 11.9752L6.69548 12.3715C7.07596 12.3195 7.36702 11.9918 7.36702 11.5973H6.96702ZM14.201 14.6101C14.201 14.18 13.8546 13.8287 13.4241 13.8287V14.2287C13.6308 14.2287 13.801 14.398 13.801 14.6101H14.201ZM13.5294 15.3844C13.9099 15.3323 14.201 15.0046 14.201 14.6101H13.801C13.801 14.8043 13.658 14.9631 13.4753 14.988L13.5294 15.3844ZM13.4376 15.391L13.5159 15.3857L13.4888 14.9867L13.4105 14.992L13.4376 15.391ZM12.64 14.6101C12.64 15.0418 12.988 15.3915 13.4241 15.3915V14.9915C13.2086 14.9915 13.04 14.8206 13.04 14.6101H12.64ZM13.3116 13.8359C12.9311 13.8879 12.64 14.2156 12.64 14.6101H13.04C13.04 14.4159 13.183 14.2572 13.3657 14.2322L13.3116 13.8359ZM13.4117 13.8291L13.3262 13.8344L13.3511 14.2336L13.4365 14.2283L13.4117 13.8291ZM10.0106 14.2287C10.2174 14.2287 10.3876 14.398 10.3876 14.6101H10.7876C10.7876 14.18 10.4412 13.8287 10.0106 13.8287V14.2287ZM9.93764 14.2336L10.023 14.2283L9.99824 13.8291L9.91283 13.8344L9.93764 14.2336ZM9.6266 14.6101C9.6266 14.4159 9.76962 14.2572 9.95233 14.2322L9.89815 13.8359C9.51766 13.8879 9.2266 14.2156 9.2266 14.6101H9.6266ZM10.0106 14.9915C9.79521 14.9915 9.6266 14.8206 9.6266 14.6101H9.2266C9.2266 15.0418 9.57458 15.3915 10.0106 15.3915V14.9915ZM10.0754 14.9867L9.99712 14.992L10.0242 15.391L10.1025 15.3857L10.0754 14.9867ZM10.3876 14.6101C10.3876 14.8043 10.2445 14.9631 10.0618 14.988L10.116 15.3844C10.4965 15.3323 10.7876 15.0046 10.7876 14.6101H10.3876ZM7.36702 14.6101C7.36702 14.18 7.02064 13.8287 6.5901 13.8287V14.2287C6.79682 14.2287 6.96702 14.398 6.96702 14.6101H7.36702ZM6.69548 15.3844C7.07596 15.3323 7.36702 15.0046 7.36702 14.6101H6.96702C6.96702 14.8043 6.824 14.9631 6.6413 14.988L6.69548 15.3844ZM6.59538 15.3911L6.68079 15.3858L6.65598 14.9866L6.57057 14.9919L6.59538 15.3911ZM5.80606 14.6101C5.80606 15.0402 6.15244 15.3915 6.58298 15.3915V14.9915C6.37626 14.9915 6.20606 14.8222 6.20606 14.6101H5.80606ZM6.4776 13.8359C6.09712 13.8879 5.80606 14.2156 5.80606 14.6101H6.20606C6.20606 14.4159 6.34908 14.2572 6.53178 14.2322L6.4776 13.8359ZM6.5777 13.8291L6.49229 13.8344L6.5171 14.2336L6.60251 14.2283L6.5777 13.8291Z" fill="black"/>
</svg>
