<svg width="24" height="24" viewBox="0 0 24 24" fill="none" xmlns="http://www.w3.org/2000/svg">
<path d="M0.768828 14.7096C3.97159 17.3758 7.99926 18.8729 12.1804 18.9514C16.3615 19.0299 20.4435 17.6851 23.7458 15.1412L16.0674 5.34239C15.0252 6.14526 13.737 6.56968 12.4174 6.54489C11.0978 6.52011 9.82672 6.04763 8.81594 5.2062L0.768828 14.7096Z" fill="url(#paint0_linear_309_5765)"/>
<path d="M12.5407 15.9807C11.1609 16.0078 9.7988 15.6632 8.59391 14.9823C8.30722 14.8054 8.04789 14.5867 7.82428 14.3333C7.65424 14.1405 7.53392 13.9082 7.47402 13.657C7.41412 13.4059 7.4165 13.1436 7.48095 12.8936C7.5454 12.6436 7.66993 12.4136 7.84344 12.224C8.01696 12.0345 8.23408 11.8912 8.4755 11.8071C9.03792 11.5974 9.07739 11.4876 8.92939 10.8885C8.87744 10.4382 8.67562 10.0192 8.3571 9.70033C8.31421 9.65153 8.28141 9.59454 8.26064 9.53271C8.23986 9.47088 8.23152 9.40547 8.23612 9.34033C8.24072 9.2752 8.25816 9.21165 8.28741 9.15344C8.31666 9.09522 8.35713 9.04353 8.40643 9.00139C8.50741 8.90374 8.64171 8.84924 8.78138 8.84924C8.92105 8.84924 9.05535 8.90374 9.15633 9.00139C9.41761 9.22746 9.63227 9.50344 9.78804 9.81355C9.9438 10.1237 10.0376 10.4618 10.0641 10.8086C10.0641 10.9085 10.0641 11.0183 10.0641 11.1182C10.0641 11.8071 10.0641 11.8471 10.7449 12.0068C10.9324 12.0068 10.9916 12.1166 10.9817 12.3064C10.9688 12.8676 11.0455 13.4273 11.2087 13.9638C11.3073 14.3333 11.5737 14.533 11.8698 14.4631C11.9472 14.4465 12.0202 14.4132 12.0838 14.3656C12.1475 14.318 12.2003 14.2571 12.2386 14.187C12.277 14.117 12.3 14.0394 12.3062 13.9595C12.3123 13.8797 12.3015 13.7994 12.2743 13.7242C12.1068 13.0992 12.0798 12.4441 12.1954 11.8071C12.2834 11.2787 12.5213 10.7876 12.8801 10.3934C13.2388 9.99929 13.703 9.71908 14.2161 9.58687C14.7293 9.45467 15.2694 9.47616 15.7707 9.64875C16.272 9.82133 16.713 10.1376 17.0401 10.559C17.4297 11.0768 17.6349 11.7127 17.6224 12.3635C17.6099 13.0142 17.3803 13.6415 16.971 14.1435C16.2419 15.0796 15.1791 15.689 14.0109 15.841C13.528 15.9461 13.0345 15.993 12.5407 15.9807V15.9807Z" fill="white"/>
<path fill-rule="evenodd" clip-rule="evenodd" d="M8.28667 15.4929L8.27686 15.4868C7.93964 15.2788 7.63504 15.0218 7.37271 14.7245C7.13782 14.4582 6.97245 14.1383 6.89025 13.7937C6.80806 13.449 6.81132 13.0893 6.89977 12.7462C6.98823 12.4031 7.15941 12.0863 7.39918 11.8243C7.63739 11.5641 7.93608 11.366 8.26959 11.2485C8.31555 11.2313 8.3539 11.2162 8.38621 11.2027C8.37685 11.1556 8.36392 11.0993 8.34675 11.0298L8.33772 10.9933L8.33342 10.9559C8.29659 10.6366 8.15368 10.3416 7.93083 10.1185L7.91736 10.105L7.90478 10.0907C7.80948 9.98227 7.73717 9.8563 7.69153 9.72047C7.64589 9.58466 7.62767 9.4413 7.63773 9.29868C7.6478 9.15606 7.68599 9.01651 7.75047 8.88819C7.81218 8.76539 7.89692 8.65496 8.00061 8.56322C8.21086 8.36623 8.48935 8.25464 8.78107 8.25464C9.07256 8.25464 9.35085 8.36606 9.56105 8.56277C9.87697 8.83858 10.1361 9.17349 10.3244 9.54839C10.5148 9.92755 10.6293 10.3405 10.6616 10.7636L10.6633 10.786V11.118C10.6633 11.233 10.6636 11.3136 10.6655 11.374C10.7074 11.3856 10.7611 11.3992 10.8311 11.416C11.0297 11.4334 11.2622 11.5148 11.4243 11.7389C11.4942 11.8356 11.5342 11.9374 11.5564 12.0327C11.5687 11.9234 11.5846 11.8144 11.6042 11.7058C11.7114 11.0678 11.9993 10.4734 12.4347 9.99503C12.8711 9.51549 13.4372 9.17311 14.0651 9.01137C14.693 8.84961 15.3539 8.87596 15.967 9.08703C16.58 9.29805 17.1174 9.68409 17.5149 10.1964L17.5176 10.1999L17.5203 10.2034C17.9902 10.8278 18.2366 11.593 18.2215 12.3747C18.2065 13.1541 17.9323 13.9071 17.4412 14.5119C16.622 15.5608 15.4295 16.2489 14.1143 16.4268C13.5966 16.5375 13.068 16.5873 12.5389 16.5752C11.055 16.6019 9.59116 16.2301 8.29671 15.4986L8.28667 15.4929ZM12.5404 15.9806C13.0342 15.9929 13.5277 15.946 14.0106 15.8408C15.1788 15.6889 16.2416 15.0795 16.9707 14.1434C17.38 13.6413 17.6096 13.014 17.6221 12.3633C17.6346 11.7126 17.4294 11.0767 17.0398 10.5589C16.7127 10.1374 16.2717 9.82118 15.7704 9.64859C15.2691 9.47601 14.729 9.45452 14.2158 9.58672C13.7027 9.71892 13.2385 9.99913 12.8797 10.3933C12.521 10.7874 12.2831 11.2786 12.1951 11.807C12.0795 12.4439 12.1064 13.099 12.274 13.724C12.3011 13.7993 12.312 13.8795 12.3059 13.9594C12.2997 14.0392 12.2767 14.1168 12.2383 14.1869C12.1999 14.2569 12.1472 14.3178 12.0835 14.3655C12.0199 14.4131 11.9469 14.4463 11.8694 14.4629C11.5734 14.5328 11.307 14.3331 11.2084 13.9637C11.0452 13.4271 10.9685 12.8674 10.9814 12.3062C10.9913 12.1165 10.9321 12.0067 10.7446 12.0067C10.0638 11.8469 10.0638 11.807 10.0638 11.118V10.8085C10.0373 10.4616 9.94349 10.1235 9.78772 9.8134C9.63196 9.50329 9.41729 9.2273 9.15601 9.00124C9.05504 8.90359 8.92074 8.84909 8.78107 8.84909C8.64139 8.84909 8.5071 8.90359 8.40612 9.00124C8.35681 9.04337 8.31634 9.09507 8.28709 9.15328C8.25784 9.21149 8.24041 9.27504 8.23581 9.34018C8.23121 9.40532 8.23955 9.47073 8.26032 9.53256C8.2811 9.59438 8.3139 9.65138 8.35678 9.70017C8.6753 10.019 8.87713 10.438 8.92907 10.8884C9.07708 11.4874 9.03761 11.5973 8.47519 11.807C8.23377 11.8911 8.01664 12.0343 7.84313 12.2239C7.66961 12.4134 7.54509 12.6434 7.48064 12.8934C7.41618 13.1435 7.4138 13.4057 7.4737 13.6569C7.5336 13.9081 7.65392 14.1404 7.82397 14.3331C8.04757 14.5866 8.30691 14.8053 8.59359 14.9821C9.79848 15.6631 11.1606 16.0076 12.5404 15.9806Z" fill="#3C3366"/>
<defs>
<linearGradient id="paint0_linear_309_5765" x1="12.2269" y1="3.20172" x2="14.0839" y2="18.8898" gradientUnits="userSpaceOnUse">
<stop stop-color="#29214E"/>
<stop offset="1" stop-color="#4C4375" stop-opacity="0.8"/>
</linearGradient>
</defs>
</svg>
