<svg width="31" height="24" viewBox="0 0 31 24" fill="none" xmlns="http://www.w3.org/2000/svg">
<g filter="url(#filter0_ddi_309_5895)">
<path d="M3.76883 14.7094C6.97159 17.3755 10.9993 18.8727 15.1804 18.9512C19.3615 19.0297 23.4435 17.6849 26.7458 15.1409L19.0674 5.34214C18.0252 6.14501 16.737 6.56943 15.4174 6.54465C14.0978 6.51987 12.8267 6.04738 11.8159 5.20596L3.76883 14.7094Z" fill="url(#paint0_linear_309_5895)"/>
<path d="M15.5407 15.9806C14.1609 16.0077 12.7988 15.6631 11.5939 14.9821C11.3072 14.8053 11.0479 14.5866 10.8243 14.3331C10.6542 14.1404 10.5339 13.9081 10.474 13.6569C10.4141 13.4057 10.4165 13.1435 10.481 12.8935C10.5454 12.6435 10.6699 12.4134 10.8434 12.2239C11.017 12.0343 11.2341 11.8911 11.4755 11.807C12.0379 11.5973 12.0774 11.4875 11.9294 10.8884C11.8774 10.4381 11.6756 10.019 11.3571 9.7002C11.3142 9.65141 11.2814 9.59441 11.2606 9.53259C11.2399 9.47076 11.2315 9.40535 11.2361 9.34021C11.2407 9.27507 11.2582 9.21152 11.2874 9.15331C11.3167 9.0951 11.3571 9.04341 11.4064 9.00127C11.5074 8.90362 11.6417 8.84912 11.7814 8.84912C11.9211 8.84912 12.0554 8.90362 12.1563 9.00127C12.4176 9.22734 12.6323 9.50332 12.788 9.81343C12.9438 10.1235 13.0376 10.4617 13.0641 10.8085C13.0641 10.9084 13.0641 11.0182 13.0641 11.118C13.0641 11.807 13.0641 11.8469 13.7449 12.0067C13.9324 12.0067 13.9916 12.1165 13.9817 12.3062C13.9688 12.8675 14.0455 13.4271 14.2087 13.9637C14.3073 14.3331 14.5737 14.5328 14.8698 14.4629C14.9472 14.4463 15.0202 14.4131 15.0838 14.3655C15.1475 14.3179 15.2003 14.257 15.2386 14.1869C15.277 14.1168 15.3 14.0393 15.3062 13.9594C15.3123 13.8796 15.3015 13.7993 15.2743 13.7241C15.1068 13.099 15.0798 12.444 15.1954 11.807C15.2834 11.2786 15.5213 10.7875 15.8801 10.3933C16.2388 9.99916 16.703 9.71895 17.2161 9.58675C17.7293 9.45455 18.2694 9.47604 18.7707 9.64862C19.272 9.82121 19.713 10.1374 20.0401 10.5589C20.4297 11.0767 20.6349 11.7126 20.6224 12.3633C20.6099 13.0141 20.3803 13.6414 19.971 14.1434C19.2419 15.0795 18.1791 15.6889 17.0109 15.8408C16.528 15.946 16.0345 15.9929 15.5407 15.9806Z" fill="white"/>
<path fill-rule="evenodd" clip-rule="evenodd" d="M11.2867 15.4926L11.2769 15.4866C10.9396 15.2786 10.635 15.0216 10.3727 14.7242C10.1378 14.458 9.97245 14.1381 9.89025 13.7934C9.80806 13.4488 9.81132 13.0891 9.89977 12.746C9.98823 12.4029 10.1594 12.086 10.3992 11.8241C10.6374 11.5639 10.9361 11.3658 11.2696 11.2483C11.3155 11.2311 11.3539 11.216 11.3862 11.2024C11.3768 11.1553 11.3639 11.099 11.3467 11.0296L11.3377 10.993L11.3334 10.9557C11.2966 10.6364 11.1537 10.3413 10.9308 10.1183L10.9174 10.1048L10.9048 10.0905C10.8095 9.98202 10.7372 9.85606 10.6915 9.72023C10.6459 9.58442 10.6277 9.44105 10.6377 9.29843C10.6478 9.15582 10.686 9.01626 10.7505 8.88795C10.8122 8.76514 10.8969 8.65472 11.0006 8.56297C11.2109 8.36598 11.4894 8.25439 11.7811 8.25439C12.0726 8.25439 12.3508 8.36581 12.561 8.56252C12.877 8.83834 13.1361 9.17324 13.3244 9.54814C13.5148 9.9273 13.6293 10.3402 13.6616 10.7634L13.6633 10.7858V11.1178C13.6633 11.2328 13.6636 11.3134 13.6655 11.3738C13.7074 11.3854 13.7611 11.399 13.8311 11.4157C14.0297 11.4331 14.2622 11.5145 14.4243 11.7387C14.4942 11.8354 14.5342 11.9372 14.5564 12.0325C14.5687 11.9232 14.5846 11.8141 14.6042 11.7055C14.7114 11.0675 14.9993 10.4731 15.4347 9.99478C15.8711 9.51525 16.4372 9.17287 17.0651 9.01113C17.693 8.84936 18.3539 8.87572 18.967 9.08678C19.58 9.29781 20.1174 9.68385 20.5149 10.1961L20.5176 10.1996L20.5203 10.2031C20.9902 10.8276 21.2366 11.5928 21.2215 12.3744C21.2065 13.1538 20.9323 13.9068 20.4412 14.5116C19.622 15.5606 18.4295 16.2486 17.1143 16.4265C16.5966 16.5373 16.068 16.5871 15.5389 16.5749C14.055 16.6016 12.5912 16.2299 11.2967 15.4983L11.2867 15.4926ZM15.5404 15.9803C16.0342 15.9926 16.5277 15.9457 17.0106 15.8406C18.1788 15.6886 19.2416 15.0792 19.9707 14.1431C20.38 13.6411 20.6096 13.0138 20.6221 12.3631C20.6346 11.7123 20.4294 11.0764 20.0398 10.5586C19.7127 10.1372 19.2717 9.82093 18.7704 9.64835C18.2691 9.47577 17.729 9.45427 17.2158 9.58647C16.7027 9.71868 16.2385 9.99889 15.8797 10.393C15.521 10.7872 15.2831 11.2783 15.1951 11.8067C15.0795 12.4437 15.1064 13.0988 15.274 13.7238C15.3011 13.799 15.312 13.8793 15.3059 13.9591C15.2997 14.039 15.2767 14.1166 15.2383 14.1866C15.1999 14.2567 15.1472 14.3176 15.0835 14.3652C15.0199 14.4128 14.9469 14.4461 14.8694 14.4627C14.5734 14.5326 14.307 14.3329 14.2084 13.9634C14.0452 13.4269 13.9685 12.8672 13.9814 12.306C13.9913 12.1162 13.9321 12.0064 13.7446 12.0064C13.0638 11.8467 13.0638 11.8067 13.0638 11.1178V10.8082C13.0373 10.4614 12.9435 10.1233 12.7877 9.81315C12.632 9.50305 12.4173 9.22706 12.156 9.001C12.055 8.90334 11.9207 8.84885 11.7811 8.84885C11.6414 8.84885 11.5071 8.90334 11.4061 9.001C11.3568 9.04313 11.3163 9.09483 11.2871 9.15304C11.2578 9.21125 11.2404 9.2748 11.2358 9.33994C11.2312 9.40508 11.2395 9.47048 11.2603 9.53231C11.2811 9.59414 11.3139 9.65113 11.3568 9.69993C11.6753 10.0188 11.8771 10.4378 11.9291 10.8881C12.0771 11.4872 12.0376 11.597 11.4752 11.8067C11.2338 11.8908 11.0166 12.0341 10.8431 12.2236C10.6696 12.4132 10.5451 12.6432 10.4806 12.8932C10.4162 13.1432 10.4138 13.4055 10.4737 13.6566C10.5336 13.9078 10.6539 14.1401 10.824 14.3329C11.0476 14.5863 11.3069 14.805 11.5936 14.9819C12.7985 15.6628 14.1606 16.0074 15.5404 15.9803Z" fill="#3C3366"/>
</g>
<defs>
<filter id="filter0_ddi_309_5895" x="0" y="-3" width="31" height="31" filterUnits="userSpaceOnUse" color-interpolation-filters="sRGB">
<feFlood flood-opacity="0" result="BackgroundImageFix"/>
<feColorMatrix in="SourceAlpha" type="matrix" values="0 0 0 0 0 0 0 0 0 0 0 0 0 0 0 0 0 0 127 0" result="hardAlpha"/>
<feOffset dx="2" dy="2"/>
<feGaussianBlur stdDeviation="1"/>
<feColorMatrix type="matrix" values="0 0 0 0 0.682353 0 0 0 0 0.682353 0 0 0 0 0.752941 0 0 0 0.3 0"/>
<feBlend mode="normal" in2="BackgroundImageFix" result="effect1_dropShadow_309_5895"/>
<feColorMatrix in="SourceAlpha" type="matrix" values="0 0 0 0 0 0 0 0 0 0 0 0 0 0 0 0 0 0 127 0" result="hardAlpha"/>
<feOffset dx="-1" dy="-1"/>
<feGaussianBlur stdDeviation="1"/>
<feColorMatrix type="matrix" values="0 0 0 0 1 0 0 0 0 1 0 0 0 0 1 0 0 0 1 0"/>
<feBlend mode="normal" in2="effect1_dropShadow_309_5895" result="effect2_dropShadow_309_5895"/>
<feBlend mode="normal" in="SourceGraphic" in2="effect2_dropShadow_309_5895" result="shape"/>
<feColorMatrix in="SourceAlpha" type="matrix" values="0 0 0 0 0 0 0 0 0 0 0 0 0 0 0 0 0 0 127 0" result="hardAlpha"/>
<feMorphology radius="0.2" operator="erode" in="SourceAlpha" result="effect3_innerShadow_309_5895"/>
<feOffset dx="1.5" dy="1.5"/>
<feGaussianBlur stdDeviation="3.5"/>
<feComposite in2="hardAlpha" operator="arithmetic" k2="-1" k3="1"/>
<feColorMatrix type="matrix" values="0 0 0 0 1 0 0 0 0 1 0 0 0 0 1 0 0 0 0.2 0"/>
<feBlend mode="normal" in2="shape" result="effect3_innerShadow_309_5895"/>
</filter>
<linearGradient id="paint0_linear_309_5895" x1="15.2269" y1="3.20147" x2="17.0839" y2="18.8896" gradientUnits="userSpaceOnUse">
<stop stop-color="#29214E"/>
<stop offset="1" stop-color="#4C4375" stop-opacity="0.8"/>
</linearGradient>
</defs>
</svg>
