<svg width="27" height="27" viewBox="0 0 27 27" fill="none" xmlns="http://www.w3.org/2000/svg">
<g filter="url(#filter0_ddi_309_5917)">
<path d="M13 23C18.5228 23 23 18.5228 23 13C23 7.47715 18.5228 3 13 3C7.47715 3 3 7.47715 3 13C3 18.5228 7.47715 23 13 23Z" fill="#F0F1F5"/>
<path d="M13 23C18.5228 23 23 18.5228 23 13C23 7.47715 18.5228 3 13 3C7.47715 3 3 7.47715 3 13C3 18.5228 7.47715 23 13 23Z" fill="url(#paint0_linear_309_5917)" fill-opacity="0.6" style="mix-blend-mode:soft-light"/>
<path d="M5.75629 12.0751C5.86927 10.5916 6.47415 9.18833 7.47504 8.0876C8.59453 6.79989 10.155 5.97728 11.85 5.78135C12.416 5.66458 13.004 5.72144 13.537 5.94448C14.0701 6.16753 14.5234 6.54635 14.8375 7.03135C15.1761 7.50251 15.3695 8.06239 15.3939 8.64205C15.4183 9.22172 15.2727 9.79587 14.975 10.2939C14.8525 10.4999 14.7009 10.6872 14.525 10.8501L10.8438 14.5314C10.4049 14.9646 9.84299 15.2518 9.23476 15.3536C8.62652 15.4554 8.00169 15.3669 7.44566 15.1002C6.88964 14.8334 6.42954 14.4015 6.12828 13.8634C5.82702 13.3253 5.69929 12.7073 5.76254 12.0939L5.75629 12.0751ZM10.2438 8.8501C10.0613 8.84333 9.87931 8.87366 9.70886 8.93925C9.53842 9.00484 9.38306 9.10434 9.25218 9.23171C9.1213 9.35908 9.01762 9.51169 8.94743 9.68029C8.87723 9.84889 8.84198 10.03 8.84379 10.2126C8.83965 10.3947 8.87173 10.5759 8.93819 10.7455C9.00465 10.9151 9.10416 11.0699 9.23093 11.2007C9.3577 11.3315 9.5092 11.4359 9.67664 11.5077C9.84408 11.5794 10.0241 11.6172 10.2063 11.6189C10.5744 11.6206 10.9283 11.4772 11.1915 11.2199C11.4547 10.9625 11.606 10.6119 11.6125 10.2439C11.6167 10.0615 11.5844 9.88014 11.5175 9.71045C11.4505 9.54076 11.3504 9.38616 11.2229 9.25573C11.0953 9.12531 10.943 9.02168 10.7749 8.95095C10.6068 8.88022 10.4262 8.8438 10.2438 8.84385V8.8501Z" fill="#E3498A"/>
<path d="M13.6124 20.2499C13.0344 20.2643 12.4656 20.1037 11.9804 19.7892C11.4953 19.4747 11.1165 19.0209 10.8937 18.4874C10.6429 17.9373 10.5683 17.3231 10.6802 16.729C10.7921 16.1348 11.085 15.5898 11.5187 15.1686C12.7437 13.9186 13.9708 12.6916 15.1999 11.4874C15.5807 11.088 16.0701 10.8089 16.6076 10.6845C17.1452 10.5601 17.7075 10.5959 18.2249 10.7874C18.758 10.9322 19.2358 11.2324 19.5976 11.6498C19.9593 12.0673 20.1886 12.5829 20.2562 13.1311C20.37 14.0526 20.225 14.9875 19.8374 15.8311C19.3884 17.023 18.6171 18.0667 17.6095 18.8459C16.6019 19.625 15.3977 20.1089 14.1312 20.2436H13.6124V20.2499ZM15.7687 17.1686C16.1375 17.1686 16.4912 17.0221 16.752 16.7613C17.0128 16.5005 17.1593 16.1468 17.1593 15.778C17.1593 15.4092 17.0128 15.0555 16.752 14.7947C16.4912 14.5339 16.1375 14.3874 15.7687 14.3874C15.3999 14.3874 15.0462 14.5339 14.7854 14.7947C14.5246 15.0555 14.3781 15.4092 14.3781 15.778C14.3781 16.1468 14.5246 16.5005 14.7854 16.7613C15.0462 17.0221 15.3999 17.1686 15.7687 17.1686Z" fill="#2238FF"/>
<path d="M10.2437 8.84397C10.4261 8.84311 10.6068 8.87871 10.7752 8.94868C10.9437 9.01865 11.0965 9.12159 11.2245 9.25143C11.3526 9.38128 11.4535 9.53541 11.5212 9.70479C11.5889 9.87416 11.622 10.0554 11.6187 10.2377C11.6121 10.6058 11.4609 10.9564 11.1977 11.2137C10.9345 11.4711 10.5805 11.6144 10.2124 11.6127C10.0303 11.6111 9.85022 11.5733 9.68278 11.5015C9.51534 11.4297 9.36384 11.3254 9.23707 11.1946C9.1103 11.0637 9.01079 10.909 8.94433 10.7394C8.87788 10.5697 8.84579 10.3886 8.84994 10.2065C8.84815 10.0244 8.88322 9.84384 8.95303 9.67567C9.02285 9.5075 9.12596 9.35519 9.25616 9.22791C9.38636 9.10062 9.54097 9.00099 9.71068 8.93501C9.88039 8.86903 10.0617 8.83806 10.2437 8.84397Z" fill="#FEDB55"/>
<path d="M15.7687 17.169C15.4943 17.1665 15.2268 17.0827 15 16.9282C14.7732 16.7737 14.5974 16.5554 14.4946 16.3009C14.3919 16.0465 14.3669 15.7672 14.4229 15.4986C14.4789 15.2299 14.6132 14.9839 14.809 14.7916C15.0048 14.5993 15.2532 14.4694 15.5228 14.4183C15.7924 14.3672 16.0712 14.3972 16.3237 14.5045C16.5763 14.6118 16.7914 14.7916 16.9418 15.0211C17.0922 15.2506 17.1712 15.5196 17.1687 15.794C17.1671 15.9762 17.1296 16.1563 17.0583 16.324C16.9871 16.4917 16.8835 16.6438 16.7535 16.7715C16.6235 16.8991 16.4696 17 16.3006 17.0682C16.1317 17.1364 15.9509 17.1706 15.7687 17.169Z" fill="#FEDB55"/>
</g>
<defs>
<filter id="filter0_ddi_309_5917" x="-2" y="-2" width="31" height="31" filterUnits="userSpaceOnUse" color-interpolation-filters="sRGB">
<feFlood flood-opacity="0" result="BackgroundImageFix"/>
<feColorMatrix in="SourceAlpha" type="matrix" values="0 0 0 0 0 0 0 0 0 0 0 0 0 0 0 0 0 0 127 0" result="hardAlpha"/>
<feOffset dx="2" dy="2"/>
<feGaussianBlur stdDeviation="1"/>
<feColorMatrix type="matrix" values="0 0 0 0 0.682353 0 0 0 0 0.682353 0 0 0 0 0.752941 0 0 0 0.3 0"/>
<feBlend mode="normal" in2="BackgroundImageFix" result="effect1_dropShadow_309_5917"/>
<feColorMatrix in="SourceAlpha" type="matrix" values="0 0 0 0 0 0 0 0 0 0 0 0 0 0 0 0 0 0 127 0" result="hardAlpha"/>
<feOffset dx="-1" dy="-1"/>
<feGaussianBlur stdDeviation="1"/>
<feColorMatrix type="matrix" values="0 0 0 0 1 0 0 0 0 1 0 0 0 0 1 0 0 0 1 0"/>
<feBlend mode="normal" in2="effect1_dropShadow_309_5917" result="effect2_dropShadow_309_5917"/>
<feBlend mode="normal" in="SourceGraphic" in2="effect2_dropShadow_309_5917" result="shape"/>
<feColorMatrix in="SourceAlpha" type="matrix" values="0 0 0 0 0 0 0 0 0 0 0 0 0 0 0 0 0 0 127 0" result="hardAlpha"/>
<feMorphology radius="0.2" operator="erode" in="SourceAlpha" result="effect3_innerShadow_309_5917"/>
<feOffset dx="1.5" dy="1.5"/>
<feGaussianBlur stdDeviation="3.5"/>
<feComposite in2="hardAlpha" operator="arithmetic" k2="-1" k3="1"/>
<feColorMatrix type="matrix" values="0 0 0 0 1 0 0 0 0 1 0 0 0 0 1 0 0 0 0.2 0"/>
<feBlend mode="normal" in2="shape" result="effect3_innerShadow_309_5917"/>
</filter>
<linearGradient id="paint0_linear_309_5917" x1="23" y1="23" x2="3" y2="3" gradientUnits="userSpaceOnUse">
<stop/>
<stop offset="1" stop-color="white" stop-opacity="0"/>
</linearGradient>
</defs>
</svg>
