<svg width="24" height="16" viewBox="0 0 24 16" fill="none" xmlns="http://www.w3.org/2000/svg">
<path d="M0.768828 10.7096C3.97159 13.3758 7.99926 14.8729 12.1804 14.9514C16.3615 15.0299 20.4435 13.6851 23.7458 11.1412L16.0674 1.34239C15.0252 2.14526 13.737 2.56968 12.4174 2.54489C11.0978 2.52011 9.82672 2.04763 8.81594 1.2062L0.768828 10.7096Z" fill="#3B316D"/>
<path d="M12.5407 11.9807C11.1609 12.0078 9.7988 11.6632 8.59391 10.9823C8.30722 10.8054 8.04789 10.5867 7.82428 10.3333C7.65424 10.1405 7.53392 9.90821 7.47402 9.65704C7.41412 9.40587 7.4165 9.14361 7.48095 8.8936C7.5454 8.64358 7.66993 8.41356 7.84344 8.22401C8.01696 8.03446 8.23408 7.89124 8.4755 7.80711C9.03792 7.59743 9.07739 7.4876 8.92939 6.88852C8.87744 6.4382 8.67562 6.01917 8.3571 5.70033C8.31421 5.65153 8.28141 5.59454 8.26064 5.53271C8.23986 5.47088 8.23152 5.40547 8.23612 5.34033C8.24072 5.2752 8.25816 5.21165 8.28741 5.15344C8.31666 5.09522 8.35713 5.04353 8.40643 5.00139C8.50741 4.90374 8.64171 4.84924 8.78138 4.84924C8.92105 4.84924 9.05535 4.90374 9.15633 5.00139C9.41761 5.22746 9.63227 5.50344 9.78804 5.81355C9.9438 6.12366 10.0376 6.4618 10.0641 6.80864C10.0641 6.90848 10.0641 7.01832 10.0641 7.11817C10.0641 7.80711 10.0641 7.84705 10.7449 8.00681C10.9324 8.00681 10.9916 8.11664 10.9817 8.30635C10.9688 8.86759 11.0455 9.42727 11.2087 9.96382C11.3073 10.3333 11.5737 10.533 11.8698 10.4631C11.9472 10.4465 12.0202 10.4132 12.0838 10.3656C12.1475 10.318 12.2003 10.2571 12.2386 10.187C12.277 10.117 12.3 10.0394 12.3062 9.95953C12.3123 9.87968 12.3015 9.79942 12.2743 9.72418C12.1068 9.09916 12.0798 8.44408 12.1954 7.80711C12.2834 7.27872 12.5213 6.7876 12.8801 6.39344C13.2388 5.99929 13.703 5.71908 14.2161 5.58687C14.7293 5.45467 15.2694 5.47616 15.7707 5.64875C16.272 5.82133 16.713 6.13757 17.0401 6.55902C17.4297 7.07683 17.6349 7.71273 17.6224 8.36345C17.6099 9.01418 17.3803 9.6415 16.971 10.1435C16.2419 11.0796 15.1791 11.689 14.0109 11.841C13.528 11.9461 13.0345 11.993 12.5407 11.9807Z" fill="white"/>
<path fill-rule="evenodd" clip-rule="evenodd" d="M8.28667 11.4929L8.27686 11.4868C7.93964 11.2788 7.63504 11.0218 7.37271 10.7245C7.13782 10.4582 6.97245 10.1383 6.89025 9.79368C6.80806 9.44904 6.81132 9.08933 6.89977 8.74623C6.98823 8.4031 7.15941 8.08627 7.39918 7.82434C7.63739 7.56411 7.93608 7.366 8.26959 7.24852C8.31555 7.23133 8.3539 7.21625 8.38621 7.20268C8.37685 7.15556 8.36392 7.09929 8.34675 7.0298L8.33772 6.99327L8.33342 6.95591C8.29659 6.63665 8.15368 6.34158 7.93083 6.11851L7.91736 6.10502L7.90478 6.09071C7.80948 5.98227 7.73717 5.8563 7.69153 5.72047C7.64589 5.58466 7.62767 5.4413 7.63773 5.29868C7.6478 5.15606 7.68599 5.01651 7.75047 4.88819C7.81218 4.76539 7.89692 4.65496 8.00061 4.56322C8.21086 4.36623 8.48935 4.25464 8.78107 4.25464C9.07256 4.25464 9.35085 4.36606 9.56105 4.56277C9.87697 4.83858 10.1361 5.17349 10.3244 5.54839C10.5148 5.92755 10.6293 6.34048 10.6616 6.76361L10.6633 6.78601V7.11801C10.6633 7.233 10.6636 7.31364 10.6655 7.37402C10.7074 7.38562 10.7611 7.39922 10.8311 7.41598C11.0297 7.43337 11.2622 7.51478 11.4243 7.73892C11.4942 7.83564 11.5342 7.93745 11.5564 8.03271C11.5687 7.9234 11.5846 7.81436 11.6042 7.70578C11.7114 7.06777 11.9993 6.47338 12.4347 5.99503C12.8711 5.51549 13.4372 5.17311 14.0651 5.01137C14.693 4.84961 15.3539 4.87596 15.967 5.08703C16.58 5.29805 17.1174 5.68409 17.5149 6.19637L17.5176 6.19985L17.5203 6.20338C17.9902 6.82783 18.2366 7.59301 18.2215 8.37465C18.2065 9.15406 17.9323 9.90705 17.4412 10.5119C16.622 11.5608 15.4295 12.2489 14.1143 12.4268C13.5966 12.5375 13.068 12.5873 12.5389 12.5752C11.055 12.6019 9.59116 12.2301 8.29671 11.4986L8.28667 11.4929ZM12.5404 11.9806C13.0342 11.9929 13.5277 11.946 14.0106 11.8408C15.1788 11.6889 16.2416 11.0795 16.9707 10.1434C17.38 9.64135 17.6096 9.01402 17.6221 8.3633C17.6346 7.71258 17.4294 7.07667 17.0398 6.55886C16.7127 6.13741 16.2717 5.82118 15.7704 5.64859C15.2691 5.47601 14.729 5.45452 14.2158 5.58672C13.7027 5.71892 13.2385 5.99913 12.8797 6.39329C12.521 6.78744 12.2831 7.27856 12.1951 7.80696C12.0795 8.44392 12.1064 9.099 12.274 9.72403C12.3011 9.79926 12.312 9.87953 12.3059 9.95938C12.2997 10.0392 12.2767 10.1168 12.2383 10.1869C12.1999 10.2569 12.1472 10.3178 12.0835 10.3655C12.0199 10.4131 11.9469 10.4463 11.8694 10.4629C11.5734 10.5328 11.307 10.3331 11.2084 9.96367C11.0452 9.42711 10.9685 8.86744 10.9814 8.3062C10.9913 8.11649 10.9321 8.00665 10.7446 8.00665C10.0638 7.8469 10.0638 7.80696 10.0638 7.11801V6.80848C10.0373 6.46165 9.94349 6.1235 9.78772 5.8134C9.63196 5.50329 9.41729 5.2273 9.15601 5.00124C9.05504 4.90359 8.92074 4.84909 8.78107 4.84909C8.64139 4.84909 8.5071 4.90359 8.40612 5.00124C8.35681 5.04337 8.31634 5.09507 8.28709 5.15328C8.25784 5.21149 8.24041 5.27504 8.23581 5.34018C8.23121 5.40532 8.23955 5.47073 8.26032 5.53256C8.2811 5.59438 8.3139 5.65138 8.35678 5.70017C8.6753 6.01901 8.87713 6.43804 8.92907 6.88836C9.07708 7.48745 9.03761 7.59728 8.47519 7.80696C8.23377 7.89109 8.01664 8.0343 7.84313 8.22386C7.66961 8.41341 7.54509 8.64343 7.48064 8.89344C7.41618 9.14346 7.4138 9.40572 7.4737 9.65689C7.5336 9.90806 7.65392 10.1404 7.82397 10.3331C8.04757 10.5866 8.30691 10.8053 8.59359 10.9821C9.79848 11.6631 11.1606 12.0076 12.5404 11.9806Z" fill="#736A9E"/>
</svg>
