<svg width="128" height="128" viewBox="0 0 128 128" fill="none" xmlns="http://www.w3.org/2000/svg">
<path d="M96.3617 62.3909C94.5566 60.576 92.4095 59.1343 90.0436 58.1485C87.6778 57.1627 85.1398 56.6523 82.5754 56.6466C80.011 56.6408 77.4707 57.1399 75.1004 58.1151C72.7301 59.0903 70.5765 60.5224 68.7633 62.3292L55.5111 75.5334L69.2937 89.2662C72.8004 92.7595 77.5116 94.7897 82.4679 94.9435C87.4242 95.0973 92.253 93.363 95.971 90.0938L96.3224 89.7423C99.9527 86.1125 101.994 81.1991 102.002 76.0747C102.009 70.9503 99.9815 66.0311 96.3617 62.3909Z" fill="url(#paint0_linear_1307_14248)"/>
<path d="M99.1346 86.1783C97.9455 86.889 96.6832 87.4702 95.3693 87.9119V87.9006C93.5171 88.5271 91.5811 88.8729 89.6258 88.9265C89.5433 88.9265 89.4614 88.9319 89.3789 88.9332C89.2558 88.9332 89.132 88.9332 89.0088 88.9332C88.8617 88.9332 88.7146 88.9332 88.5675 88.9265C88.4883 88.9265 88.4091 88.9219 88.3299 88.9193C88.1043 88.91 87.8793 88.8987 87.6543 88.8821H87.6304C82.9857 88.5361 78.6208 86.5377 75.3321 83.2516L61.5495 69.5189L61.5308 69.5374L58.2694 66.2878C54.6178 62.6495 49.6652 60.6055 44.5011 60.6055C39.337 60.6055 34.3844 62.6495 30.7328 66.2878L30.7029 66.3176C28.8948 68.1191 27.4606 70.2578 26.4821 72.6116C25.5036 74.9653 25 77.4881 25 80.0358C25 82.5835 25.5036 85.1062 26.4821 87.46C27.4606 89.8137 28.8948 91.9524 30.7029 93.7539L34.1733 97.2125C37.7629 100.789 42.0245 103.626 46.7146 105.562C51.4048 107.498 56.4316 108.494 61.5082 108.494C66.5848 108.494 71.6116 107.498 76.3018 105.562C80.9919 103.626 85.2535 100.789 88.8431 97.2125L96.3198 89.7403C97.3944 88.6665 98.3392 87.4711 99.1346 86.1783Z" fill="black"/>
<path d="M99.1346 86.1783C97.9455 86.889 96.6832 87.4702 95.3693 87.9119V87.9006C93.5171 88.5271 91.5811 88.8729 89.6258 88.9265C89.5433 88.9265 89.4614 88.9319 89.3789 88.9332C89.2558 88.9332 89.132 88.9332 89.0088 88.9332C88.8617 88.9332 88.7146 88.9332 88.5675 88.9265C88.4883 88.9265 88.4091 88.9219 88.3299 88.9193C88.1043 88.91 87.8793 88.8987 87.6543 88.8821H87.6304C82.9857 88.5361 78.6208 86.5377 75.3321 83.2516L61.5495 69.5189L61.5308 69.5374L58.2694 66.2878C54.6178 62.6495 49.6652 60.6055 44.5011 60.6055C39.337 60.6055 34.3844 62.6495 30.7328 66.2878L30.7029 66.3176C28.8948 68.1191 27.4606 70.2578 26.4821 72.6116C25.5036 74.9653 25 77.4881 25 80.0358C25 82.5835 25.5036 85.1062 26.4821 87.46C27.4606 89.8137 28.8948 91.9524 30.7029 93.7539L34.1733 97.2125C37.7629 100.789 42.0245 103.626 46.7146 105.562C51.4048 107.498 56.4316 108.494 61.5082 108.494C66.5848 108.494 71.6116 107.498 76.3018 105.562C80.9919 103.626 85.2535 100.789 88.8431 97.2125L96.3198 89.7403C97.3944 88.6665 98.3392 87.4711 99.1346 86.1783Z" fill="url(#paint1_linear_1307_14248)"/>
<path d="M70.362 54.0499C78.4093 46.0318 78.4093 33.0318 70.362 25.0136C62.3147 16.9955 49.2675 16.9955 41.2202 25.0136C33.173 33.0318 33.173 46.0318 41.2202 54.0499C49.2675 62.0681 62.3147 62.0681 70.362 54.0499Z" fill="url(#paint2_linear_1307_14248)"/>
<defs>
<linearGradient id="paint0_linear_1307_14248" x1="124.563" y1="-7.49029" x2="40.9561" y2="73.5931" gradientUnits="userSpaceOnUse">
<stop stop-color="#FFFF2F"/>
<stop offset="0.393" stop-color="#FF9D52"/>
<stop offset="1" stop-color="#FF008C"/>
</linearGradient>
<linearGradient id="paint1_linear_1307_14248" x1="175.769" y1="62.9417" x2="44.7883" y2="63.6042" gradientUnits="userSpaceOnUse">
<stop stop-color="#FFFF2F"/>
<stop offset="0.393" stop-color="#FF9D52"/>
<stop offset="1" stop-color="#FF008C"/>
</linearGradient>
<linearGradient id="paint2_linear_1307_14248" x1="-11.0601" y1="39.0096" x2="277.385" y2="41.2909" gradientUnits="userSpaceOnUse">
<stop stop-color="#FF008C"/>
<stop offset="0.358" stop-color="#FF526D"/>
<stop offset="1" stop-color="#FFE339"/>
</linearGradient>
</defs>
</svg>
