<svg width="118" height="45" viewBox="0 0 118 45" fill="none" xmlns="http://www.w3.org/2000/svg">
<path d="M20.6952 39.2686L22.7771 38.8682C23.3555 38.8682 23.719 39.2603 23.8677 40.0445L24.2147 41.8465C24.2312 41.9299 24.2394 42.1135 24.2394 42.3971C24.2394 42.6641 24.132 42.9561 23.9172 43.2731C23.719 43.5901 23.4463 43.8571 23.0993 44.074C22.3393 44.5578 21.3727 44.7998 20.1995 44.7998C17.8698 44.7998 15.9283 43.6568 14.3751 41.371C14.0942 40.9872 13.7803 40.4867 13.4333 39.8693L10.013 33.7625L8.52594 35.8148C6.49359 38.7013 5.27088 41.0122 4.8578 42.7475C4.74214 43.198 4.57691 43.5818 4.36211 43.8988C4.16383 44.2158 3.80858 44.3743 3.29637 44.3743H1.31359C0.950081 44.3743 0.636141 44.2241 0.371771 43.9238C0.123924 43.6068 0 43.2147 0 42.7475V1.57675C0 1.12625 0.123924 0.750834 0.371771 0.450501C0.636141 0.150167 0.950081 0 1.31359 0H4.73388C5.11391 0 5.42785 0.150167 5.6757 0.450501C5.92355 0.750834 6.04747 1.12625 6.04747 1.57675L6.12182 22.6752C6.12182 24.5106 5.97311 26.6379 5.6757 29.0573C5.3948 31.4766 5.21305 33.0617 5.13043 33.8126V33.9127C5.13043 34.0462 5.16348 34.1129 5.22957 34.1129C5.37828 34.1129 5.57656 33.896 5.82441 33.4622C9.11251 27.4388 13.235 21.6908 18.192 16.218C18.6711 15.7008 19.1173 15.4422 19.5304 15.4422C20.1582 15.4422 20.72 15.7091 21.2157 16.243L22.331 17.4944C22.8763 18.1618 23.1489 18.6541 23.1489 18.9711C23.182 19.5384 22.9672 20.0389 22.5045 20.4727L18.0433 24.9027C16.5231 26.4711 15.0774 28.1146 13.7059 29.8331L15.5648 33.0617C17.9111 37.1997 19.6212 39.2686 20.6952 39.2686Z" fill="url(#paint0_linear_1307_14249)"/>
<path d="M51.9735 43.0478C51.9735 43.9321 51.5439 44.3743 50.6847 44.3743H48.2806C47.6362 44.3743 47.2479 44.2492 47.1157 43.9989C46.9835 43.7319 46.9092 43.4983 46.8927 43.2981C46.8761 43.0812 46.8431 42.8226 46.7935 42.5222C46.6944 41.7047 46.5539 40.8204 46.3722 39.8693C45.0834 42.2553 43.0593 43.832 40.2999 44.5996C39.3251 44.8665 38.2511 45 37.0779 45C35.9048 45 34.7316 44.7998 33.5585 44.3993C32.3854 44.0156 31.3444 43.4399 30.4356 42.6724C28.3868 40.9372 27.3623 38.6596 27.3623 35.8398C27.3623 32.7531 28.4859 30.3921 30.733 28.757C32.5836 27.4388 34.963 26.7798 37.871 26.7798C40.7791 26.7798 43.2411 27.639 45.2569 29.3576C45.3064 28.7903 45.3312 28.0812 45.3312 27.2303C45.3312 26.3793 45.166 25.5284 44.8355 24.6774C44.5051 23.8265 44.0342 23.1174 43.4228 22.5501C42.1671 21.4321 40.4156 20.8732 38.1685 20.8732C36.1526 20.8732 34.1038 21.4321 32.0218 22.5501C31.6253 22.767 31.2783 22.8754 30.9809 22.8754C30.5348 22.8754 30.1052 22.4333 29.6921 21.5489C29.246 20.6479 29.0229 19.9972 29.0229 19.5968C29.0229 18.8626 29.5682 18.1535 30.6587 17.4694C32.7406 16.168 35.5247 15.5172 39.0111 15.5172C42.1836 15.5172 44.8108 16.3932 46.8927 18.1452C49.3546 20.2475 50.5856 23.2175 50.5856 27.0551C50.5856 28.757 50.313 30.901 49.7677 33.4872C51.1722 37.525 51.9074 40.7119 51.9735 43.0478ZM35.3678 32.436C34.6903 32.9366 34.2029 33.4372 33.9055 33.9377C33.6246 34.4383 33.4841 35.0306 33.4841 35.7147C33.4841 36.3821 33.5998 36.9828 33.8311 37.5167C34.079 38.0339 34.4177 38.4677 34.8473 38.8181C35.7561 39.5356 36.7722 39.8943 37.8958 39.8943C39.0359 39.8943 39.9695 39.7608 40.6965 39.4939C41.4235 39.2269 42.0514 38.8849 42.5801 38.4677C43.7202 37.5667 44.2903 36.6157 44.2903 35.6146C44.1911 34.3632 43.5054 33.3788 42.2331 32.6613C41.093 31.9939 39.7464 31.6602 38.1932 31.6602C36.987 31.6602 36.0452 31.9188 35.3678 32.436Z" fill="url(#paint1_linear_1307_14249)"/>
<path d="M59.1363 17.9449C59.1363 16.7436 59.7064 16.1429 60.8465 16.1429H62.2096C63.1349 16.1429 63.7628 16.4933 64.0933 17.1941C64.5559 18.1952 64.9525 19.5133 65.2829 21.1485C66.77 18.4121 68.9841 16.6602 71.9252 15.8927C72.8505 15.6424 73.9989 15.5172 75.3703 15.5172C76.7582 15.5172 78.0388 15.8176 79.2119 16.4182C80.3851 17.0022 81.3104 17.8115 81.9878 18.8459C83.2436 20.7314 83.8715 23.5095 83.8715 27.1802V42.7225C83.8715 43.1897 83.7227 43.5818 83.4253 43.8988C83.1279 44.2158 82.69 44.3743 82.1117 44.3743H79.6828C79.055 44.3743 78.5923 44.2158 78.2949 43.8988C77.9975 43.5818 77.8488 43.1897 77.8488 42.7225V27.1552C77.8488 22.8838 76.2956 20.7481 73.1892 20.7481C71.3717 20.7481 69.7111 21.5156 68.2075 23.0506C66.6048 24.7024 65.8034 26.6212 65.8034 28.807V42.7225C65.8034 43.1897 65.663 43.5818 65.3821 43.8988C65.1012 44.2158 64.6716 44.3743 64.0933 44.3743H61.5404C60.9621 44.3743 60.5243 44.2158 60.2268 43.8988C59.9294 43.5818 59.7807 43.1897 59.7807 42.7225V27.3554C59.7807 24.0017 59.6733 21.6657 59.4585 20.3476C59.2437 19.0128 59.1363 18.2119 59.1363 17.9449Z" fill="url(#paint2_linear_1307_14249)"/>
<path d="M118 42.6724C118 43.807 117.488 44.3743 116.463 44.3743H115.348C114.357 44.3743 113.704 43.9739 113.39 43.173C113.043 42.2553 112.671 40.9789 112.275 39.3437C111.581 41.0957 110.399 42.4805 108.731 43.4983C107.078 44.4994 105.013 45 102.534 45C99.2958 45 96.9082 43.9822 95.3716 41.9466C93.8349 39.8943 93.0666 36.8743 93.0666 32.8865V17.7948C93.0666 17.3276 93.207 16.9355 93.4879 16.6185C93.7853 16.3014 94.1984 16.1429 94.7272 16.1429H97.4535C98.544 16.1429 99.0893 16.6935 99.0893 17.7948V32.6112C99.0893 36.599 100.006 38.9016 101.84 39.5189C102.435 39.7191 103.137 39.8192 103.947 39.8192C104.773 39.8192 105.616 39.6274 106.475 39.2436C107.351 38.8598 108.136 38.3509 108.83 37.7169C110.383 36.2653 111.159 34.6051 111.159 32.7364V17.7948C111.159 17.3276 111.3 16.9355 111.581 16.6185C111.862 16.3014 112.308 16.1429 112.919 16.1429H115.522C116.1 16.1429 116.521 16.3014 116.786 16.6185C117.05 16.9355 117.182 17.3276 117.182 17.7948V33.4372C117.182 36.9577 117.43 39.7942 117.926 41.9466C117.975 42.1301 118 42.3721 118 42.6724Z" fill="url(#paint3_linear_1307_14249)"/>
<defs>
<linearGradient id="paint0_linear_1307_14249" x1="13.5208" y1="21.3926" x2="115.378" y2="52.6975" gradientUnits="userSpaceOnUse">
<stop stop-color="#F0065A"/>
<stop offset="0.463542" stop-color="#D92566"/>
<stop offset="0.958333" stop-color="#FF6C65"/>
</linearGradient>
<linearGradient id="paint1_linear_1307_14249" x1="13.5208" y1="21.3926" x2="115.378" y2="52.6975" gradientUnits="userSpaceOnUse">
<stop stop-color="#F0065A"/>
<stop offset="0.463542" stop-color="#D92566"/>
<stop offset="0.958333" stop-color="#FF6C65"/>
</linearGradient>
<linearGradient id="paint2_linear_1307_14249" x1="13.5208" y1="21.3926" x2="115.378" y2="52.6975" gradientUnits="userSpaceOnUse">
<stop stop-color="#F0065A"/>
<stop offset="0.463542" stop-color="#D92566"/>
<stop offset="0.958333" stop-color="#FF6C65"/>
</linearGradient>
<linearGradient id="paint3_linear_1307_14249" x1="13.5208" y1="21.3926" x2="115.378" y2="52.6975" gradientUnits="userSpaceOnUse">
<stop stop-color="#F0065A"/>
<stop offset="0.463542" stop-color="#D92566"/>
<stop offset="0.958333" stop-color="#FF6C65"/>
</linearGradient>
</defs>
</svg>
