<svg width="360" height="748" viewBox="0 0 360 748" fill="none" xmlns="http://www.w3.org/2000/svg">
<g clip-path="url(#clip0_921_13338)">
<rect width="360" height="748" fill="#FFEDF8"/>
<path d="M247.996 510.081L247.943 509.759C247.925 509.651 247.903 509.518 247.877 509.356C247.858 509.158 247.837 508.927 247.814 508.668C247.79 508.409 247.76 508.088 247.757 507.824L247.737 506.926C247.713 506.274 247.751 505.557 247.759 504.735C247.832 503.113 247.941 501.152 248.217 498.929C248.459 496.701 248.869 494.209 249.418 491.513C250.026 488.614 250.783 485.747 251.686 482.925C251.928 482.175 252.212 481.425 252.477 480.661C252.612 480.28 252.748 479.896 252.886 479.51L253.351 478.364C253.673 477.598 253.976 476.818 254.317 476.042L255.417 473.726C255.766 472.937 256.211 472.186 256.625 471.414L257.259 470.257L257.42 469.967L257.501 469.822L257.521 469.786L257.588 469.678L257.633 469.611L257.997 469.074L258.362 468.535C258.485 468.34 258.623 468.156 258.775 467.984L259.733 466.856C260.055 466.479 260.405 466.194 260.741 465.858C261.071 465.527 261.421 465.215 261.788 464.925C264.685 462.641 267.861 460.736 271.241 459.257C274.547 457.727 277.907 456.4 281.198 455.099C284.488 453.797 287.717 452.53 290.781 451.179C293.724 449.909 296.583 448.454 299.341 446.821C301.798 445.371 304.083 443.649 306.154 441.687C307.059 440.809 307.904 439.872 308.685 438.882L309.694 437.448C310.029 436.988 310.257 436.482 310.534 436.024C310.666 435.792 310.795 435.562 310.922 435.336C311.043 435.108 311.13 434.868 311.233 434.641L311.809 433.314C312.106 432.438 312.356 431.623 312.57 430.881L312.973 428.859C313.08 428.269 313.088 427.754 313.134 427.342C313.215 426.515 313.251 426.075 313.251 426.075L313.976 426.094C313.976 426.094 313.947 426.549 313.895 427.402C313.856 427.826 313.861 428.357 313.769 428.97L313.414 431.077C313.215 431.851 312.979 432.71 312.689 433.633L312.126 435.036C312.024 435.278 311.939 435.531 311.82 435.773L311.435 436.504C311.161 436.991 310.931 437.529 310.596 438.021L309.583 439.551C308.796 440.608 307.941 441.612 307.022 442.555C304.937 444.648 302.622 446.499 300.122 448.072C297.354 449.82 294.478 451.388 291.51 452.769C288.45 454.227 285.228 455.599 281.979 456.989C278.73 458.379 275.437 459.79 272.265 461.371C269.125 462.848 266.186 464.718 263.518 466.937C263.199 467.202 262.897 467.487 262.614 467.79C262.337 468.084 262.008 468.366 261.774 468.667L261.049 469.553C260.914 469.709 260.795 469.877 260.692 470.055L260.342 470.604L259.993 471.152L259.95 471.22C259.963 471.199 259.89 471.316 259.974 471.182L259.956 471.216L259.884 471.357L259.74 471.638L259.168 472.757C258.793 473.502 258.39 474.225 258.078 474.987L257.092 477.225C256.792 477.975 256.52 478.73 256.237 479.469C256.098 479.84 255.959 480.209 255.822 480.576C255.702 480.951 255.582 481.322 255.463 481.688C255.229 482.428 254.979 483.151 254.768 483.876C253.979 486.606 253.331 489.375 252.827 492.171C252.375 494.771 252.05 497.171 251.878 499.302C251.674 501.434 251.624 503.291 251.598 504.811C251.614 505.561 251.598 506.248 251.636 506.817C251.65 507.103 251.663 507.367 251.675 507.611C251.685 507.864 251.714 507.999 251.726 508.174C251.739 508.335 251.751 508.474 251.761 508.595C251.792 508.757 251.818 508.885 251.842 508.993L251.905 509.315L247.996 510.081Z" fill="#BD6A8D"/>
<path d="M281.181 456.212C281.181 456.212 285.932 461.36 293.663 457.43C301.394 453.5 315.864 453.897 319.932 456.141C319.932 456.141 309.339 466.541 302.762 465.181C296.186 463.821 280.689 457.128 277.193 457.873C273.697 458.617 281.181 456.212 281.181 456.212Z" fill="#BD6A8D"/>
<path d="M291.385 451.866C291.385 451.866 295.842 447.437 296.789 443.43C297.737 439.423 292.912 428.002 295.123 423.287C297.335 418.572 304.567 415 304.567 415C304.567 415 307.052 427.095 303.579 432.52C300.106 437.946 294.341 450.517 294.341 450.517L291.385 451.866Z" fill="#BD6A8D"/>
<path d="M303.973 444.473C305.607 445.145 307.405 445.313 309.134 444.954C310.864 444.595 312.447 443.726 313.679 442.46C318.127 438.006 325.161 432.845 330.843 435.143C330.48 436.939 329.731 438.635 328.647 440.113C327.564 441.591 326.171 442.815 324.567 443.701C319.076 446.74 304.243 445.201 301.746 446.136L303.973 444.473Z" fill="#BD6A8D"/>
<path d="M265.932 463.503C265.921 463.513 273.239 457.901 273.808 453.936C274.378 449.971 272.717 437.367 281.175 429.531C281.175 429.531 284.642 435.088 284.124 443.796C283.605 452.505 265.932 463.503 265.932 463.503Z" fill="#BD6A8D"/>
<path d="M254.256 479.665C254.38 479.254 260.452 467.847 266.975 467.644C273.498 467.441 289.051 473.098 296.306 470.444C296.306 470.444 288.779 480.897 279.468 480.787C270.157 480.678 270.32 467.902 264.35 470.762C258.38 473.622 253.559 482.163 253.559 482.163L254.256 479.665Z" fill="#BD6A8D"/>
<path d="M254.561 478.703C254.561 478.703 254.089 470.426 256.066 467.802C258.042 465.178 261.944 456.516 257.386 446.03C255.11 447.354 253.165 449.176 251.695 451.36C250.226 453.545 249.27 456.033 248.901 458.64C247.675 467.536 253.69 466.625 253.375 480.874L254.561 478.703Z" fill="#BD6A8D"/>
<path d="M92.9711 514.935L92.69 514.858L92.3454 514.765L91.7696 514.562C91.5642 514.482 91.2864 514.393 91.0722 514.298L90.3474 513.985C89.8159 513.764 89.253 513.471 88.5966 513.164C87.3218 512.51 85.7885 511.703 84.1062 510.667C82.4086 509.653 80.558 508.412 78.5963 506.984C76.4928 505.432 74.4706 503.774 72.538 502.014C72.0242 501.545 71.5265 501.043 71.0079 500.549L70.234 499.8L69.4858 499.005C68.9874 498.469 68.4752 497.937 67.9759 497.381L66.5191 495.649C66.015 495.08 65.5753 494.447 65.109 493.831L64.4132 492.897L64.2384 492.663L64.1515 492.545L64.1297 492.516L64.0677 492.424L64.0307 492.362L63.7335 491.874L63.4347 491.382C63.3237 491.213 63.2265 491.035 63.144 490.85L62.5932 489.669C62.408 489.273 62.3081 488.887 62.1615 488.494C62.0167 488.107 61.8949 487.712 61.7967 487.311C61.0265 484.149 60.6635 480.901 60.7168 477.647C60.6999 474.432 60.869 471.25 61.0317 468.132C61.1944 465.014 61.3619 461.959 61.3997 459.007C61.4608 456.18 61.3417 453.352 61.043 450.54C60.7808 448.037 60.237 445.572 59.4219 443.191C59.0494 442.143 58.6079 441.121 58.1004 440.131C57.8319 439.673 57.5718 439.229 57.32 438.796C57.0736 438.358 56.7563 437.991 56.4857 437.601L56.0758 437.037C55.9373 436.857 55.7762 436.698 55.6321 436.532L54.7793 435.583C54.1841 435.024 53.6204 434.524 53.105 434.08L51.6289 433.018C51.1948 432.716 50.7841 432.519 50.4725 432.329L49.498 431.77L49.7791 431.198L50.7978 431.744C51.1256 431.931 51.5524 432.122 52.0106 432.421L53.5713 433.478C54.1189 433.922 54.7213 434.427 55.3583 434.995L56.278 435.961C56.4342 436.13 56.6057 436.293 56.7571 436.477L57.2024 437.055C57.4932 437.452 57.8403 437.833 58.1116 438.284L58.9693 439.658C59.5292 440.677 60.0207 441.732 60.4406 442.816C61.3552 445.256 61.9914 447.792 62.3371 450.375C62.7235 453.237 62.9271 456.12 62.9467 459.008C62.9926 462.002 62.9137 465.086 62.8364 468.205C62.7591 471.324 62.685 474.481 62.7905 477.607C62.8235 480.668 63.2459 483.712 64.0476 486.667C64.143 487.02 64.2608 487.366 64.4003 487.705C64.5356 488.036 64.6419 488.403 64.7957 488.702L65.2419 489.608C65.3176 489.773 65.4087 489.93 65.514 490.079L65.8265 490.562L66.1382 491.045L66.1768 491.105C66.1647 491.087 66.2316 491.185 66.1543 491.072L66.176 491.099L66.263 491.208L66.4353 491.426L67.1223 492.296C67.5829 492.87 68.0145 493.459 68.513 493.987L69.9473 495.597C70.4385 496.114 70.9443 496.608 71.4331 497.107L72.1691 497.846L72.9301 498.542C73.4375 499.001 73.9255 499.467 74.4304 499.903C76.3311 501.536 78.3145 503.072 80.3728 504.502C82.2927 505.818 84.099 506.958 85.7467 507.878C87.3814 508.825 88.8543 509.545 90.0639 510.123C90.6719 510.386 91.2171 510.652 91.6866 510.828L92.3381 511.088C92.5451 511.173 92.6602 511.199 92.806 511.249L93.1571 511.375L93.5034 511.456L93.7861 511.524L92.9711 514.935Z" fill="#BD6A8D"/>
<path d="M61.9175 468.548C61.9175 468.548 67.7922 466.622 67.4741 458.978C67.156 451.334 72.7819 439.868 76.0732 437.426C76.0732 437.426 80.5322 449.741 77.0283 454.519C73.5244 459.297 62.4683 469.276 61.783 472.355C61.0977 475.434 61.9175 468.548 61.9175 468.548Z" fill="#BD6A8D"/>
<path d="M62.1752 458.765C62.1752 458.765 60.2537 453.563 57.3876 451.333C54.5215 449.103 43.5862 448.785 40.6138 445.282C37.6414 441.779 37.4288 434.666 37.4288 434.666C37.4288 434.666 48.0452 437.108 51.1239 441.885C54.2026 446.662 62.1752 455.898 62.1752 455.898V458.765Z" fill="#BD6A8D"/>
<path d="M60.8594 445.954C61.9978 444.889 62.7913 443.508 63.1377 441.988C63.484 440.468 63.3673 438.879 62.8026 437.426C60.8594 432.223 59.2995 424.686 63.2278 420.969C64.5358 421.919 65.6216 423.142 66.4098 424.554C67.198 425.965 67.6697 427.531 67.7923 429.143C68.2167 434.664 61.5406 446.001 61.3756 448.348L60.8594 445.954Z" fill="#BD6A8D"/>
<path d="M62.1752 483.458C62.1752 483.469 60.3601 475.539 57.3877 473.628C54.4153 471.717 43.6926 468.425 40.5076 458.765C40.5076 458.765 46.2406 458.022 53.035 461.632C59.8294 465.241 62.1752 483.458 62.1752 483.458Z" fill="#BD6A8D"/>
<path d="M70.8622 498.755C70.5771 498.504 63.6522 489.447 65.8813 484.139C68.1104 478.832 78.3556 468.427 78.8863 461.633C78.8863 461.633 84.5138 471.506 81.0099 478.937C77.506 486.369 67.3148 481.552 67.4203 487.393C67.5258 493.234 72.6089 500.237 72.6089 500.237L70.8622 498.755Z" fill="#BD6A8D"/>
<path d="M70.2001 498.158C70.2001 498.158 63.3864 495.5 62.0061 492.951C60.6258 490.401 55.1086 484.097 45.0197 483.905C45.2473 486.217 45.9959 488.447 47.2095 490.428C48.423 492.408 50.0697 494.088 52.0258 495.341C58.7139 499.588 60.1893 494.427 71.5071 499.906L70.2001 498.158Z" fill="#BD6A8D"/>
<path d="M-2.35997 714.668C2.34159 692.705 1.46726 669.914 -4.90314 648.376C-12.2894 623.799 -17.6464 590.292 -3.1226 566.351C22.5402 524.047 71.4773 529.084 90.576 502.693C109.675 476.303 270.812 456.284 298.86 532.537C326.907 608.791 266.035 681.165 295.279 745.838C324.522 810.511 109.076 876.158 35.0732 832.293C35.0732 832.293 -20.5922 801.783 -2.35997 714.668Z" fill="#FFE0F2"/>
<path d="M-98.0766 816.731C-93.3754 794.767 -94.2498 771.975 -100.62 750.436C-108.007 725.859 -113.364 692.352 -98.8393 668.41C-73.1773 626.107 -24.2394 631.144 -5.14148 604.753C13.9564 578.362 175.092 558.347 203.143 634.6C231.194 710.853 170.319 783.228 199.562 847.901C228.805 912.574 13.3597 978.221 -60.6442 934.356C-60.6442 934.356 -116.309 903.842 -98.0766 816.731Z" fill="#F4C7DA"/>
<path d="M257.862 481.279C255.285 481.296 253.443 483.258 252.284 485.239C251.551 481.788 248.215 477.098 246.215 480.625C244.943 482.865 245.721 485.438 246.859 487.432C243.502 486.343 237.772 486.887 239.826 490.381C241.134 492.605 243.752 493.218 246.047 493.229C243.422 495.593 241.028 500.825 245.08 500.793C247.657 500.776 249.5 498.815 250.659 496.834C251.392 500.285 254.727 504.975 256.728 501.448C257.999 499.208 257.222 496.634 256.084 494.641C259.441 495.73 265.171 495.186 263.118 491.691C261.809 489.468 259.192 488.855 256.897 488.844C259.524 486.48 261.916 481.247 257.862 481.279ZM254.134 493.019C253.742 493.546 253.203 493.944 252.584 494.165C251.966 494.385 251.295 494.417 250.659 494.256C250.022 494.095 249.447 493.75 249.007 493.262C248.567 492.775 248.281 492.168 248.186 491.518C248.09 490.869 248.19 490.205 248.472 489.612C248.753 489.019 249.205 488.522 249.769 488.186C250.332 487.849 250.983 487.687 251.639 487.72C252.295 487.754 252.926 487.981 253.453 488.373C253.803 488.633 254.098 488.96 254.322 489.334C254.546 489.708 254.693 490.123 254.757 490.555C254.82 490.986 254.797 491.426 254.691 491.849C254.584 492.271 254.395 492.669 254.134 493.019Z" fill="#FF885A"/>
<path d="M92.3356 504.259C89.8126 503.719 87.5939 505.237 86.0341 506.917C86.0647 503.388 83.8195 498.088 81.1048 501.101C79.379 503.013 79.5827 505.691 80.2624 507.885C77.2199 506.097 71.5071 505.388 72.7577 509.247C73.555 511.7 75.979 512.863 78.2169 513.371C75.1447 515.111 71.6762 519.704 75.6399 520.548C78.163 521.089 80.3816 519.571 81.9415 517.891C81.9109 521.419 84.1561 526.719 86.8708 523.707C88.5966 521.795 88.3928 519.117 87.7131 516.923C90.7556 518.711 96.4685 519.419 95.2178 515.561C94.4206 513.107 91.9966 511.944 89.7586 511.437C92.8325 509.701 96.301 505.107 92.3356 504.259ZM86.1605 514.916C85.664 515.346 85.0513 515.618 84.3998 515.7C83.7483 515.781 83.0874 515.667 82.5005 515.373C81.9136 515.079 81.4271 514.617 81.1026 514.046C80.7782 513.476 80.6302 512.822 80.6775 512.167C80.7248 511.512 80.9653 510.886 81.3684 510.368C81.7716 509.849 82.3193 509.462 82.9424 509.255C83.5655 509.049 84.236 509.031 84.869 509.205C85.502 509.379 86.0692 509.737 86.4987 510.234C86.7847 510.564 87.0029 510.946 87.1407 511.36C87.2785 511.774 87.3333 512.212 87.3019 512.647C87.2704 513.082 87.1534 513.507 86.9576 513.897C86.7617 514.287 86.4909 514.634 86.1605 514.919V514.916Z" fill="#FF855C"/>
<path d="M238.228 670.674C238.228 670.674 225.27 731.958 222.136 756.718H148.849C148.849 756.718 141.153 696.884 142.9 668.25C144.648 639.617 238.228 670.674 238.228 670.674Z" fill="#FF4872"/>
<path d="M183.655 512.311C183.655 512.311 174.487 505.639 183.655 492.368C192.824 479.096 196.727 464.784 185.537 457.237C174.348 449.69 156.652 473.11 155.092 481.96C153.531 490.81 151.969 500.696 157.434 506.421C162.898 512.146 182.415 518.131 182.415 518.131L183.655 512.311Z" fill="#D89988"/>
<path d="M217.53 466.924C217.399 468.285 217.056 469.616 216.514 470.87C214.076 476.458 213.762 482.743 215.633 488.545C215.781 488.98 215.758 489.455 215.568 489.873C215.378 490.291 215.034 490.62 214.609 490.793C213.965 491.058 213.288 491.232 212.596 491.308C211.558 491.394 211.487 491.34 210.175 493.346C208.863 495.352 210.658 495.577 210.278 496.366C209.575 497.787 208.13 497.569 208.052 498.021C207.974 498.472 208.801 499.449 208.005 500.195C207.21 500.941 203.782 502.342 203.576 503.723C203.371 505.104 202.14 507.955 197.268 507.669C188.305 506.232 169.475 496.335 167.32 474.732C167.056 472.054 167.045 469.358 167.289 466.679C167.567 463.299 168.351 459.98 169.616 456.834C177.141 438.387 199.819 434.92 210.123 449.222C212.541 451.843 214.511 454.845 215.954 458.106C217.212 460.866 217.754 463.899 217.53 466.924Z" fill="#EDB09D"/>
<path d="M217.53 466.926C209.645 471.408 197.224 477.294 187.492 476.56C179.146 475.927 172.097 475.295 167.326 474.725C167.061 472.047 167.051 469.351 167.295 466.672C167.573 463.292 168.357 459.973 169.621 456.827C177.81 456.078 203.364 453.728 204.674 453.728C205.47 453.728 210.889 455.944 215.963 458.099C217.219 460.863 217.758 463.899 217.53 466.926Z" fill="#D89988"/>
<path d="M155.872 606.077C153.617 568.738 124.223 559.496 121.043 529.835C117.863 500.174 122.303 490.269 133.232 465.33C144.162 440.39 181.374 401.183 214.166 435.468C246.958 469.753 198.033 470.273 183.46 471.314C168.887 472.354 175.317 474.303 171.237 486.946C167.158 499.588 151.969 504.862 137.916 514.618C123.864 524.373 164.46 567.461 163.68 580.734C162.899 594.006 158.125 643.415 155.872 606.077Z" fill="#0F0E49"/>
<path d="M249.438 629.279C248.668 671.846 211.503 733.88 177.685 727.587C172.027 726.531 166.208 723.997 160.309 719.727C160.309 719.727 137.035 686.036 144.195 652.958C151.355 619.879 163.442 589.269 150.014 567.336C136.587 545.404 116.444 525.593 141.51 505.898C144.515 503.548 148.033 501.944 151.778 501.216C178.249 495.901 201.448 512.088 206.942 534.252C213.208 559.532 201.934 550.948 205.962 567.062C209.991 583.175 250.333 579.595 249.438 629.279Z" fill="#FDCFBE"/>
<path d="M239.839 650.914C239.167 688.208 228.098 731.452 178.741 728.695C173.083 727.639 166.204 723.997 160.305 719.727C160.305 719.727 137.031 686.036 144.191 652.958C147.53 637.542 151.935 619.316 154.334 602.029C157.072 582.236 157.181 579.045 150.01 567.336C143.986 557.498 140.897 560.953 135.669 548.215C125.586 526.195 127.68 516.757 141.505 505.898C144.51 503.548 148.029 501.944 151.773 501.216C176.714 505.484 191.199 513.398 197.764 536.043C204.03 561.323 191.933 552.454 195.961 568.568C199.989 584.683 242.813 582.593 239.839 650.914Z" fill="#F1075B"/>
<path d="M170.817 462.117C170.817 462.117 179.268 499.419 151.163 504.884C123.057 510.349 124.446 527.605 124.446 527.605" stroke="#0F0E49" stroke-width="6.422" stroke-miterlimit="10"/>
<path d="M253.443 607.165C251.801 605.598 240.715 602.806 239.624 604.043C238.534 605.279 240.832 608.069 240.832 608.069C240.832 608.069 237.675 607.33 238.311 609.366C238.947 611.403 242.36 613.812 242.36 613.812C242.36 613.812 240.041 613.316 240.36 615.028C240.678 616.74 245.594 618.863 245.594 618.863C245.594 618.863 241.527 619.491 242.844 621.102C244.161 622.714 248.299 623.248 249.345 627.251C249.345 627.251 254.474 626.938 254.544 623.939C254.614 620.939 253.715 620.274 254.089 619.256C254.464 618.239 255.126 617.337 254.969 616.667C254.64 615.517 254.637 614.298 254.959 613.146C255.208 612.101 255.201 611.01 254.937 609.969C254.673 608.927 254.16 607.965 253.443 607.165Z" fill="url(#paint0_linear_921_13338)"/>
<path d="M228.586 655.658C238.645 624.804 231.345 594.754 212.282 588.539C193.22 582.325 169.612 602.299 159.554 633.154C149.495 664.008 156.795 694.058 175.857 700.272C194.92 706.487 218.528 686.513 228.586 655.658Z" fill="url(#paint1_linear_921_13338)"/>
<path d="M205.115 659.201C206.107 659.317 208.873 659.084 208.879 655.428C208.885 651.773 205.586 648.117 204.403 645.282C202.821 641.497 195.508 642.116 191.237 644.713C186.967 647.31 184.75 645.599 184.609 645.865C184.469 646.13 186.059 646.81 185.986 646.858C185.912 646.905 182.575 647.238 182.411 647.824C182.247 648.41 185.672 647.639 185.985 648.026C186.298 648.413 182.472 649.229 182.562 649.708C182.651 650.187 186.143 648.748 186.393 649.12C186.644 649.492 184.38 650.798 184.345 651.23C184.311 651.661 187.449 649.762 187.664 649.911C187.879 650.06 186.876 651.348 187.015 651.585C187.154 651.821 187.901 651.358 188.733 650.269C189.566 649.18 199.461 644.985 200.58 651.087C201.486 656.032 202.714 658.918 205.115 659.201Z" fill="url(#paint2_linear_921_13338)"/>
<path d="M217.887 653.885C214.765 658.206 210.707 661.766 206.017 664.3C204.141 665.351 202.045 668.127 200.626 674.974C197.666 689.263 186.387 693.866 175.119 689.176C163.851 684.486 162.337 667.801 173.605 660.079C173.605 660.079 177.119 658.164 177.335 655.794C177.551 653.424 179.227 654.157 180.36 654.495C181.085 654.711 181.388 654.575 182.398 654.122C182.543 654.058 183.075 654.006 183.232 653.928C183.474 653.806 183.506 653.651 183.776 653.479C184.312 653.183 184.866 652.922 185.434 652.696C188.479 651.356 189.838 659.389 193.542 658.292C197.246 657.196 189.612 624.269 211.672 616.559C233.732 608.849 225.471 640.223 222.368 646.618C221.054 649.147 219.556 651.576 217.887 653.885Z" fill="url(#paint3_linear_921_13338)"/>
<path d="M195.137 622.081C192.299 620.354 197.052 607.641 193.829 605.117C191.837 603.556 189.024 604.334 187.076 604.918C186.328 605.105 185.59 605.334 184.867 605.605C183.762 605.982 182.532 606.445 182.622 606.639C182.741 606.904 183.472 606.517 183.567 606.823C183.661 607.129 182.591 607.354 182.658 607.58C182.726 607.807 183.669 607.406 183.726 607.864C183.783 608.323 182.518 608.241 182.583 608.656C182.647 609.071 183.93 608.667 183.919 608.92C183.907 609.173 182.727 609.387 182.872 609.898C183.017 610.408 184.16 609.694 184.269 609.824C184.378 609.953 184.438 609.808 183.778 610.256C183.119 610.705 182.596 611.364 183.158 611.867C183.672 612.329 186.164 610.19 186.655 609.795C188.538 608.543 191.469 607.414 188.238 617.043C184.986 628.317 188.76 635.408 199.374 633.068C206.117 631.489 212.569 628.857 218.492 625.268C213.58 609.759 197.974 623.81 195.137 622.081Z" fill="url(#paint4_linear_921_13338)"/>
<path d="M205.29 611.68C203.384 608.958 212.839 599.221 210.901 595.617C209.703 593.388 206.814 592.971 204.796 592.724C204.035 592.594 203.267 592.508 202.496 592.466C201.333 592.367 200.023 592.299 200.026 592.512C200.026 592.802 200.853 592.742 200.816 593.06C200.779 593.378 199.71 593.154 199.68 593.389C199.65 593.625 200.675 593.636 200.544 594.079C200.413 594.522 199.289 593.94 199.18 594.344C199.071 594.749 200.409 594.895 200.296 595.122C200.183 595.35 199.018 595.072 198.943 595.596C198.868 596.12 200.205 595.926 200.253 596.09C200.3 596.253 200.414 596.141 199.629 596.288C198.845 596.434 198.099 596.828 198.413 597.516C198.699 598.144 201.84 597.186 202.448 597.021C204.675 596.629 207.812 596.773 200.99 604.295C193.485 613.314 194.095 621.326 204.756 623.444C220.927 625.698 220.746 632.24 224.844 632.635C227.018 632.844 226.437 626.333 226.437 626.333C228.167 610.16 207.195 614.406 205.29 611.68Z" fill="url(#paint5_linear_921_13338)"/>
<path d="M203.059 657.011C207.052 653.899 201.44 645.344 199.481 640.656C197.523 635.967 188.834 636.15 183.548 639.367C178.262 642.584 175.08 640.137 174.906 640.461C174.732 640.786 177.138 641.962 177.045 642.022C176.953 642.083 172.822 642.492 172.616 643.216C172.41 643.939 176.652 642.985 177.04 643.465C177.429 643.945 172.692 644.955 172.803 645.549C172.914 646.142 177.232 644.361 177.547 644.824C177.862 645.287 175.05 646.9 175.012 647.435C174.973 647.969 178.999 645.768 179.265 645.952C179.532 646.136 178.143 647.581 178.316 647.873C178.489 648.166 179.41 647.592 180.444 646.244C181.479 644.897 193.726 639.704 195.111 647.257C196.496 654.81 199.067 660.121 203.059 657.011Z" fill="url(#paint6_linear_921_13338)"/>
<path d="M177.027 660.147C177.027 660.147 178.35 659.589 178.871 662.04" stroke="#FDC5B1" stroke-miterlimit="10"/>
<g style="mix-blend-mode:multiply">
<path d="M232.767 586.873C233.454 587.659 234.035 588.531 234.494 589.469C232.04 587.315 229.411 585.368 226.635 583.65C227.973 583.868 229.257 584.339 230.42 585.037C231.252 585.582 232.037 586.196 232.767 586.873Z" fill="#95BCBC"/>
</g>
<g style="mix-blend-mode:multiply">
<path d="M238.066 593.014C237.529 592.414 236.983 591.832 236.419 591.276C236.801 591.534 237.147 591.841 237.448 592.19C237.672 592.467 237.878 592.745 238.066 593.014Z" fill="#95BCBC"/>
</g>
<g style="mix-blend-mode:multiply">
<path d="M238.883 594.267C238.883 594.267 237.523 593.671 232.114 593.671C223.014 594.379 223.802 599.798 218.288 600.658C218.305 600.738 218.342 600.828 218.359 600.908C219.783 606.11 191.22 628.678 175.461 624.792C170.493 623.565 162.11 614.148 154.376 601.705C156.787 586.639 156.107 577.304 150.011 567.338C140.352 551.554 131.425 545.206 132.59 526.192C138.444 518.637 147.12 517.287 152.562 523.696C160.019 532.469 178.54 590.066 183.598 592.761C188.656 595.455 196.955 585.259 202.988 584.588C203.821 584.513 204.66 584.629 205.441 584.927C205.486 582.886 205.844 579.935 207.545 579.601C210.185 579.082 210.222 584.525 212.764 584.353C214.769 584.218 221.394 582.669 226.631 583.645C229.407 585.364 232.036 587.31 234.491 589.465C234.593 589.63 234.706 589.789 234.83 589.939C235.306 590.443 235.838 590.89 236.415 591.273C236.979 591.827 237.525 592.41 238.062 593.01L238.071 593.027C239.417 594.911 238.883 594.267 238.883 594.267Z" fill="#95BCBC"/>
</g>
<path d="M234.834 589.942C234.71 589.792 234.597 589.633 234.495 589.468C235.148 590.04 235.793 590.649 236.419 591.276C235.842 590.894 235.31 590.446 234.834 589.942Z" fill="#CAE8E8"/>
<path d="M210.26 581.423C210.26 581.423 209.677 574.651 212.313 574.133C214.949 573.615 214.983 579.062 217.527 578.889C220.07 578.717 230.019 576.29 235.185 579.574C236.02 580.115 236.805 580.73 237.53 581.411C238.522 582.327 238.746 583.441 239.593 584.481C240.273 585.314 241.592 585.946 242.213 586.724C243.257 588.004 244.111 589.429 244.746 590.955C244.746 590.955 238.846 596.808 234.972 593.136C231.099 589.464 225.597 598.327 215.62 594.273C205.642 590.218 210.26 581.423 210.26 581.423Z" fill="url(#paint7_linear_921_13338)"/>
<path d="M157.33 518.232C149.875 509.455 133.354 514.185 131.53 531.249C129.706 548.312 164.477 615.438 180.23 619.325C195.984 623.213 224.551 600.642 223.125 595.445C221.699 590.247 213.791 578.453 207.753 579.122C201.716 579.791 193.419 589.994 188.362 587.297C183.306 584.601 164.784 527.009 157.33 518.232Z" fill="#FDCFBE"/>
<path d="M256.431 718.369C254.744 715.819 239.6 690.952 259.015 673.175C278.43 655.398 309.039 634.865 298.423 604.174C298.423 604.174 325.431 620.669 329.418 647.41C333.404 674.151 306.916 688.97 287.948 709.516C268.98 730.062 268.017 735.884 256.431 718.369Z" fill="#FF7362"/>
<path d="M309.65 619.061C310.218 620.69 322.454 636.567 312.9 651.182C303.346 665.798 267.898 686.563 265.499 727.736" stroke="white" stroke-width="0.934422" stroke-miterlimit="10"/>
<path d="M322.184 650.894C315.808 652.034 309.976 655.112 305.499 659.699" stroke="white" stroke-width="0.934422" stroke-miterlimit="10"/>
<path d="M279.905 704.063C274.149 707.559 269.538 712.613 266.61 718.636" stroke="white" stroke-width="0.934422" stroke-miterlimit="10"/>
<path d="M298.48 646.83C301.843 653.077 303.558 661.283 294.063 671.174" stroke="white" stroke-width="0.934422" stroke-miterlimit="10"/>
<path d="M298.173 683.875C298.173 683.875 286.206 678.912 278.867 689.635" stroke="white" stroke-width="0.934422" stroke-miterlimit="10"/>
<path d="M264.301 681.417C264.301 681.417 276.424 692.253 270.597 705.659" stroke="white" stroke-width="0.934422" stroke-miterlimit="10"/>
<path d="M264.089 727.535C263.906 733.421 264.317 739.315 265.316 745.126C265.364 745.474 265.53 745.796 265.787 746.037C266.044 746.279 266.377 746.426 266.729 746.454C267.014 746.438 267.29 746.357 267.538 746.217C267.785 746.077 267.996 745.883 268.155 745.649C268.314 745.414 268.416 745.147 268.453 744.867C268.491 744.586 268.463 744.301 268.371 744.032C267.313 740.469 265.457 735.962 266.849 729.036L264.089 727.535Z" fill="#FDC5B1"/>
<path d="M140.695 292.269L142.777 291.868C143.355 291.868 143.719 292.26 143.868 293.044L144.215 294.846C144.231 294.93 144.239 295.113 144.239 295.397C144.239 295.664 144.132 295.956 143.917 296.273C143.719 296.59 143.446 296.857 143.099 297.074C142.339 297.558 141.373 297.8 140.2 297.8C137.87 297.8 135.928 296.657 134.375 294.371C134.094 293.987 133.78 293.487 133.433 292.869L130.013 286.763L128.526 288.815C126.494 291.701 125.271 294.012 124.858 295.747C124.742 296.198 124.577 296.582 124.362 296.899C124.164 297.216 123.809 297.374 123.296 297.374H121.314C120.95 297.374 120.636 297.224 120.372 296.924C120.124 296.607 120 296.215 120 295.747V254.577C120 254.126 120.124 253.751 120.372 253.451C120.636 253.15 120.95 253 121.314 253H124.734C125.114 253 125.428 253.15 125.676 253.451C125.924 253.751 126.047 254.126 126.047 254.577L126.122 275.675C126.122 277.511 125.973 279.638 125.676 282.057C125.395 284.477 125.213 286.062 125.13 286.813V286.913C125.13 287.046 125.163 287.113 125.23 287.113C125.378 287.113 125.577 286.896 125.824 286.462C129.113 280.439 133.235 274.691 138.192 269.218C138.671 268.701 139.117 268.442 139.53 268.442C140.158 268.442 140.72 268.709 141.216 269.243L142.331 270.494C142.876 271.162 143.149 271.654 143.149 271.971C143.182 272.538 142.967 273.039 142.505 273.473L138.043 277.903C136.523 279.471 135.077 281.115 133.706 282.833L135.565 286.062C137.911 290.2 139.621 292.269 140.695 292.269Z" fill="url(#paint8_linear_921_13338)"/>
<path d="M171.974 296.048C171.974 296.932 171.544 297.374 170.685 297.374H168.281C167.636 297.374 167.248 297.249 167.116 296.999C166.984 296.732 166.909 296.498 166.893 296.298C166.876 296.081 166.843 295.823 166.794 295.522C166.694 294.705 166.554 293.82 166.372 292.869C165.083 295.255 163.059 296.832 160.3 297.6C159.325 297.867 158.251 298 157.078 298C155.905 298 154.732 297.8 153.558 297.399C152.385 297.016 151.344 296.44 150.436 295.672C148.387 293.937 147.362 291.66 147.362 288.84C147.362 285.753 148.486 283.392 150.733 281.757C152.584 280.439 154.963 279.78 157.871 279.78C160.779 279.78 163.241 280.639 165.257 282.358C165.306 281.79 165.331 281.081 165.331 280.23C165.331 279.379 165.166 278.528 164.836 277.677C164.505 276.826 164.034 276.117 163.423 275.55C162.167 274.432 160.416 273.873 158.168 273.873C156.153 273.873 154.104 274.432 152.022 275.55C151.625 275.767 151.278 275.875 150.981 275.875C150.535 275.875 150.105 275.433 149.692 274.549C149.246 273.648 149.023 272.997 149.023 272.597C149.023 271.863 149.568 271.154 150.659 270.469C152.741 269.168 155.525 268.517 159.011 268.517C162.184 268.517 164.811 269.393 166.893 271.145C169.355 273.247 170.586 276.217 170.586 280.055C170.586 281.757 170.313 283.901 169.768 286.487C171.172 290.525 171.907 293.712 171.974 296.048ZM155.368 285.436C154.69 285.937 154.203 286.437 153.905 286.938C153.625 287.438 153.484 288.031 153.484 288.715C153.484 289.382 153.6 289.983 153.831 290.517C154.079 291.034 154.418 291.468 154.847 291.818C155.756 292.536 156.772 292.894 157.896 292.894C159.036 292.894 159.969 292.761 160.696 292.494C161.424 292.227 162.051 291.885 162.58 291.468C163.72 290.567 164.29 289.616 164.29 288.615C164.191 287.363 163.505 286.379 162.233 285.661C161.093 284.994 159.746 284.66 158.193 284.66C156.987 284.66 156.045 284.919 155.368 285.436Z" fill="url(#paint9_linear_921_13338)"/>
<path d="M179.136 270.945C179.136 269.744 179.706 269.143 180.846 269.143H182.21C183.135 269.143 183.763 269.493 184.093 270.194C184.556 271.195 184.952 272.513 185.283 274.148C186.77 271.412 188.984 269.66 191.925 268.893C192.851 268.642 193.999 268.517 195.37 268.517C196.758 268.517 198.039 268.818 199.212 269.418C200.385 270.002 201.31 270.811 201.988 271.846C203.244 273.731 203.871 276.509 203.871 280.18V295.722C203.871 296.19 203.723 296.582 203.425 296.899C203.128 297.216 202.69 297.374 202.112 297.374H199.683C199.055 297.374 198.592 297.216 198.295 296.899C197.997 296.582 197.849 296.19 197.849 295.722V280.155C197.849 275.884 196.296 273.748 193.189 273.748C191.372 273.748 189.711 274.516 188.208 276.051C186.605 277.702 185.803 279.621 185.803 281.807V295.722C185.803 296.19 185.663 296.582 185.382 296.899C185.101 297.216 184.672 297.374 184.093 297.374H181.54C180.962 297.374 180.524 297.216 180.227 296.899C179.929 296.582 179.781 296.19 179.781 295.722V280.355C179.781 277.002 179.673 274.666 179.459 273.348C179.244 272.013 179.136 271.212 179.136 270.945Z" fill="url(#paint10_linear_921_13338)"/>
<path d="M238 295.672C238 296.807 237.488 297.374 236.463 297.374H235.348C234.357 297.374 233.704 296.974 233.39 296.173C233.043 295.255 232.671 293.979 232.275 292.344C231.581 294.096 230.399 295.481 228.731 296.498C227.078 297.499 225.013 298 222.534 298C219.296 298 216.908 296.982 215.372 294.947C213.835 292.894 213.067 289.874 213.067 285.887V270.795C213.067 270.328 213.207 269.935 213.488 269.618C213.785 269.301 214.198 269.143 214.727 269.143H217.453C218.544 269.143 219.089 269.694 219.089 270.795V285.611C219.089 289.599 220.006 291.902 221.84 292.519C222.435 292.719 223.137 292.819 223.947 292.819C224.773 292.819 225.616 292.627 226.475 292.244C227.351 291.86 228.136 291.351 228.83 290.717C230.383 289.265 231.159 287.605 231.159 285.736V270.795C231.159 270.328 231.3 269.935 231.581 269.618C231.862 269.301 232.308 269.143 232.919 269.143H235.522C236.1 269.143 236.521 269.301 236.786 269.618C237.05 269.935 237.182 270.328 237.182 270.795V286.437C237.182 289.958 237.43 292.794 237.926 294.947C237.975 295.13 238 295.372 238 295.672Z" fill="url(#paint11_linear_921_13338)"/>
<path d="M212.36 193.895C210.555 192.08 208.408 190.638 206.042 189.653C203.676 188.667 201.138 188.156 198.573 188.151C196.009 188.145 193.469 188.644 191.098 189.619C188.728 190.594 186.575 192.026 184.761 193.833L171.509 207.037L185.292 220.77C188.798 224.264 193.51 226.294 198.466 226.448C203.422 226.601 208.251 224.867 211.969 221.598L212.32 221.246C215.951 217.616 217.992 212.703 218 207.579C218.007 202.454 215.98 197.535 212.36 193.895Z" fill="url(#paint12_linear_921_13338)"/>
<path d="M215.133 217.682C213.944 218.393 212.681 218.974 211.367 219.416V219.405C209.515 220.031 207.579 220.377 205.624 220.431C205.541 220.431 205.459 220.436 205.377 220.437C205.254 220.437 205.13 220.437 205.007 220.437C204.86 220.437 204.713 220.437 204.566 220.431C204.486 220.431 204.407 220.426 204.328 220.423C204.102 220.414 203.877 220.403 203.652 220.386H203.628C198.984 220.04 194.619 218.042 191.33 214.756L177.548 201.023L177.529 201.041L174.267 197.792C170.616 194.154 165.663 192.11 160.499 192.11C155.335 192.11 150.382 194.154 146.731 197.792L146.701 197.822C144.893 199.623 143.459 201.762 142.48 204.116C141.502 206.469 140.998 208.992 140.998 211.54C140.998 214.088 141.502 216.61 142.48 218.964C143.459 221.318 144.893 223.456 146.701 225.258L150.171 228.716C153.761 232.293 158.023 235.131 162.713 237.066C167.403 239.002 172.43 239.998 177.506 239.998C182.583 239.998 187.61 239.002 192.3 237.066C196.99 235.131 201.252 232.293 204.841 228.716L212.318 221.244C213.392 220.171 214.337 218.975 215.133 217.682Z" fill="black"/>
<path d="M215.133 217.682C213.944 218.393 212.681 218.974 211.367 219.416V219.405C209.515 220.031 207.579 220.377 205.624 220.431C205.541 220.431 205.459 220.436 205.377 220.437C205.254 220.437 205.13 220.437 205.007 220.437C204.86 220.437 204.713 220.437 204.566 220.431C204.486 220.431 204.407 220.426 204.328 220.423C204.102 220.414 203.877 220.403 203.652 220.386H203.628C198.984 220.04 194.619 218.042 191.33 214.756L177.548 201.023L177.529 201.041L174.267 197.792C170.616 194.154 165.663 192.11 160.499 192.11C155.335 192.11 150.382 194.154 146.731 197.792L146.701 197.822C144.893 199.623 143.459 201.762 142.48 204.116C141.502 206.469 140.998 208.992 140.998 211.54C140.998 214.088 141.502 216.61 142.48 218.964C143.459 221.318 144.893 223.456 146.701 225.258L150.171 228.716C153.761 232.293 158.023 235.131 162.713 237.066C167.403 239.002 172.43 239.998 177.506 239.998C182.583 239.998 187.61 239.002 192.3 237.066C196.99 235.131 201.252 232.293 204.841 228.716L212.318 221.244C213.392 220.171 214.337 218.975 215.133 217.682Z" fill="url(#paint13_linear_921_13338)"/>
<path d="M186.36 185.554C194.407 177.536 194.407 164.536 186.36 156.518C178.313 148.499 165.266 148.499 157.218 156.518C149.171 164.536 149.171 177.536 157.218 185.554C165.266 193.572 178.313 193.572 186.36 185.554Z" fill="url(#paint14_linear_921_13338)"/>
</g>
<rect x="0.25" y="0.25" width="359.5" height="747.5" stroke="black" stroke-opacity="0.2" stroke-width="0.5"/>
<defs>
<linearGradient id="paint0_linear_921_13338" x1="238.226" y1="615.493" x2="255.141" y2="615.493" gradientUnits="userSpaceOnUse">
<stop stop-color="#F4A992"/>
<stop offset="1" stop-color="#FDC5B1"/>
</linearGradient>
<linearGradient id="paint1_linear_921_13338" x1="148.98" y1="621.548" x2="239.602" y2="657.117" gradientUnits="userSpaceOnUse">
<stop stop-color="#EAEAEA"/>
<stop offset="1" stop-color="white"/>
</linearGradient>
<linearGradient id="paint2_linear_921_13338" x1="182.405" y1="650.913" x2="208.879" y2="650.913" gradientUnits="userSpaceOnUse">
<stop stop-color="#F4A992"/>
<stop offset="1" stop-color="#FDC5B1"/>
</linearGradient>
<linearGradient id="paint3_linear_921_13338" x1="165.873" y1="653.146" x2="226.479" y2="653.146" gradientUnits="userSpaceOnUse">
<stop stop-color="#F4A992"/>
<stop offset="1" stop-color="#FDC5B1"/>
</linearGradient>
<linearGradient id="paint4_linear_921_13338" x1="182.58" y1="618.857" x2="218.492" y2="618.857" gradientUnits="userSpaceOnUse">
<stop stop-color="#F4A992"/>
<stop offset="1" stop-color="#FDC5B1"/>
</linearGradient>
<linearGradient id="paint5_linear_921_13338" x1="195.961" y1="612.506" x2="226.538" y2="612.506" gradientUnits="userSpaceOnUse">
<stop stop-color="#F4A992"/>
<stop offset="1" stop-color="#FDC5B1"/>
</linearGradient>
<linearGradient id="paint6_linear_921_13338" x1="172.609" y1="647.474" x2="204.46" y2="647.474" gradientUnits="userSpaceOnUse">
<stop stop-color="#F4A992"/>
<stop offset="1" stop-color="#FDC5B1"/>
</linearGradient>
<linearGradient id="paint7_linear_921_13338" x1="338.501" y1="602.95" x2="372.703" y2="602.95" gradientUnits="userSpaceOnUse">
<stop stop-color="#F4A992"/>
<stop offset="1" stop-color="#FDC5B1"/>
</linearGradient>
<linearGradient id="paint8_linear_921_13338" x1="133.521" y1="274.393" x2="235.378" y2="305.697" gradientUnits="userSpaceOnUse">
<stop stop-color="#F0065A"/>
<stop offset="0.463542" stop-color="#D92566"/>
<stop offset="0.958333" stop-color="#FF6C65"/>
</linearGradient>
<linearGradient id="paint9_linear_921_13338" x1="133.521" y1="274.393" x2="235.378" y2="305.697" gradientUnits="userSpaceOnUse">
<stop stop-color="#F0065A"/>
<stop offset="0.463542" stop-color="#D92566"/>
<stop offset="0.958333" stop-color="#FF6C65"/>
</linearGradient>
<linearGradient id="paint10_linear_921_13338" x1="133.521" y1="274.393" x2="235.378" y2="305.697" gradientUnits="userSpaceOnUse">
<stop stop-color="#F0065A"/>
<stop offset="0.463542" stop-color="#D92566"/>
<stop offset="0.958333" stop-color="#FF6C65"/>
</linearGradient>
<linearGradient id="paint11_linear_921_13338" x1="133.521" y1="274.393" x2="235.378" y2="305.697" gradientUnits="userSpaceOnUse">
<stop stop-color="#F0065A"/>
<stop offset="0.463542" stop-color="#D92566"/>
<stop offset="0.958333" stop-color="#FF6C65"/>
</linearGradient>
<linearGradient id="paint12_linear_921_13338" x1="240.561" y1="124.014" x2="156.954" y2="205.097" gradientUnits="userSpaceOnUse">
<stop stop-color="#FFFF2F"/>
<stop offset="0.393" stop-color="#FF9D52"/>
<stop offset="1" stop-color="#FF008C"/>
</linearGradient>
<linearGradient id="paint13_linear_921_13338" x1="291.767" y1="194.446" x2="160.786" y2="195.108" gradientUnits="userSpaceOnUse">
<stop stop-color="#FFFF2F"/>
<stop offset="0.393" stop-color="#FF9D52"/>
<stop offset="1" stop-color="#FF008C"/>
</linearGradient>
<linearGradient id="paint14_linear_921_13338" x1="104.938" y1="170.514" x2="393.383" y2="172.795" gradientUnits="userSpaceOnUse">
<stop stop-color="#FF008C"/>
<stop offset="0.358" stop-color="#FF526D"/>
<stop offset="1" stop-color="#FFE339"/>
</linearGradient>
<clipPath id="clip0_921_13338">
<rect width="360" height="748" fill="white"/>
</clipPath>
</defs>
</svg>
