<svg width="247" height="204" viewBox="0 0 247 204" fill="none" xmlns="http://www.w3.org/2000/svg">
<g clip-path="url(#clip0_921_13780)">
<path d="M147.486 188.606C151.118 191.057 155.259 203.448 155.259 203.448C155.259 203.448 142.304 204.298 138.673 201.849C137.81 201.266 137.068 200.518 136.492 199.647C135.916 198.775 135.516 197.798 135.314 196.771C135.113 195.744 135.115 194.687 135.319 193.661C135.523 192.635 135.926 191.659 136.505 190.789C137.084 189.92 137.827 189.173 138.692 188.593C139.558 188.013 140.528 187.61 141.548 187.407C142.568 187.204 143.617 187.206 144.636 187.412C145.656 187.617 146.625 188.023 147.488 188.606H147.486Z" fill="#F1F1F1"/>
<path d="M155.403 203.356L155.201 203.519C147.798 194.167 136.627 190.936 136.515 190.904L136.584 190.652C136.697 190.685 147.947 193.936 155.403 203.356Z" fill="white"/>
<path d="M166.911 183.663C166.68 189.752 155.185 203.658 155.185 203.658C155.185 203.658 144.785 188.903 145.016 182.815C145.071 181.367 145.409 179.945 146.01 178.628C146.612 177.312 147.464 176.128 148.52 175.143C149.576 174.159 150.814 173.394 152.163 172.891C153.512 172.388 154.947 172.158 156.385 172.214C157.822 172.269 159.235 172.609 160.542 173.215C161.849 173.82 163.025 174.679 164.003 175.742C164.98 176.805 165.74 178.051 166.24 179.41C166.739 180.769 166.967 182.214 166.912 183.661L166.911 183.663Z" fill="#F1F1F1"/>
<path d="M155.401 203.765L155.063 203.642C160.632 188.069 156.302 172.469 156.257 172.313L156.603 172.213C156.648 172.371 161.013 188.081 155.401 203.765Z" fill="white"/>
<path d="M125.634 149.016H27.1138C25.3584 149.014 23.6756 148.311 22.4343 147.061C21.1931 145.811 20.495 144.116 20.493 142.349V28.9691C20.495 27.2015 21.1931 25.5068 22.4343 24.2569C23.6756 23.007 25.3584 22.304 27.1138 22.3021H125.634C127.389 22.304 129.072 23.007 130.313 24.2569C131.555 25.5068 132.253 27.2015 132.255 28.9691V142.349C132.253 144.116 131.555 145.811 130.313 147.061C129.072 148.311 127.389 149.014 125.634 149.016Z" fill="#E6E6E6"/>
<path d="M121.031 143.458H31.7154C30.158 143.455 28.6652 142.831 27.564 141.722C26.4628 140.613 25.843 139.11 25.8403 137.542V33.782C25.843 32.2137 26.4628 30.7105 27.564 29.6016C28.6652 28.4926 30.158 27.8685 31.7154 27.8658H121.031C122.588 27.8685 124.081 28.4926 125.182 29.6016C126.283 30.7105 126.903 32.2137 126.906 33.782V137.542C126.903 139.11 126.283 140.613 125.182 141.722C124.081 142.831 122.588 143.455 121.031 143.458Z" fill="white"/>
<path d="M117.478 42.627H72.4205C72.0307 42.627 71.6569 42.4711 71.3812 42.1936C71.1056 41.916 70.9508 41.5396 70.9508 41.1471C70.9508 40.7546 71.1056 40.3782 71.3812 40.1006C71.6569 39.8231 72.0307 39.6671 72.4205 39.6671H117.478C117.867 39.6671 118.241 39.8231 118.517 40.1006C118.792 40.3782 118.947 40.7546 118.947 41.1471C118.947 41.5396 118.792 41.916 118.517 42.1936C118.241 42.4711 117.867 42.627 117.478 42.627Z" fill="#E4E4E4"/>
<path d="M117.478 48.474H72.4205C72.0307 48.474 71.6569 48.3181 71.3812 48.0406C71.1056 47.763 70.9508 47.3866 70.9508 46.9941C70.9508 46.6015 71.1056 46.2251 71.3812 45.9476C71.6569 45.67 72.0307 45.5141 72.4205 45.5141H117.478C117.867 45.5141 118.241 45.67 118.517 45.9476C118.792 46.2251 118.947 46.6015 118.947 46.9941C118.947 47.3866 118.792 47.763 118.517 48.0406C118.241 48.3181 117.867 48.474 117.478 48.474Z" fill="#E4E4E4"/>
<path d="M91.9519 54.3211H72.4205C72.0307 54.3211 71.6569 54.1652 71.3812 53.8877C71.1056 53.6101 70.9508 53.2337 70.9508 52.8412C70.9508 52.4487 71.1056 52.0722 71.3812 51.7947C71.6569 51.5171 72.0307 51.3612 72.4205 51.3612H91.9519C92.3416 51.3612 92.7154 51.5171 92.9911 51.7947C93.2667 52.0722 93.4215 52.4487 93.4215 52.8412C93.4215 53.2337 93.2667 53.6101 92.9911 53.8877C92.7154 54.1652 92.3416 54.3211 91.9519 54.3211Z" fill="#E4E4E4"/>
<path d="M112.044 77.9374H40.9102C40.5204 77.9374 40.1466 77.7814 39.871 77.5039C39.5954 77.2263 39.4406 76.8499 39.4406 76.4574C39.4406 76.0649 39.5954 75.6885 39.871 75.411C40.1466 75.1334 40.5204 74.9775 40.9102 74.9775H112.044C112.433 74.9775 112.807 75.1334 113.083 75.411C113.358 75.6885 113.513 76.0649 113.513 76.4574C113.513 76.8499 113.358 77.2263 113.083 77.5039C112.807 77.7814 112.433 77.9374 112.044 77.9374Z" fill="#E4E4E4"/>
<path d="M112.045 83.7843H40.9112C40.5214 83.7843 40.1476 83.6284 39.872 83.3509C39.5964 83.0733 39.4415 82.6969 39.4415 82.3044C39.4415 81.9119 39.5964 81.5354 39.872 81.2579C40.1476 80.9803 40.5214 80.8244 40.9112 80.8244H112.045C112.434 80.8244 112.808 80.9803 113.084 81.2579C113.359 81.5354 113.514 81.9119 113.514 82.3044C113.514 82.6969 113.359 83.0733 113.084 83.3509C112.808 83.6284 112.434 83.7843 112.045 83.7843Z" fill="#E4E4E4"/>
<path d="M112.044 97.0573H40.9102C40.5204 97.0573 40.1466 96.9014 39.871 96.6239C39.5954 96.3463 39.4406 95.9699 39.4406 95.5774C39.4406 95.1849 39.5954 94.8085 39.871 94.5309C40.1466 94.2534 40.5204 94.0974 40.9102 94.0974H112.044C112.433 94.0974 112.807 94.2534 113.083 94.5309C113.358 94.8085 113.513 95.1849 113.513 95.5774C113.513 95.9699 113.358 96.3463 113.083 96.6239C112.807 96.9014 112.433 97.0573 112.044 97.0573Z" fill="#E4E4E4"/>
<path d="M112.045 102.904H40.9112C40.5214 102.904 40.1476 102.748 39.872 102.471C39.5964 102.193 39.4415 101.817 39.4415 101.424C39.4415 101.032 39.5964 100.655 39.872 100.378C40.1476 100.1 40.5214 99.9444 40.9112 99.9444H112.045C112.434 99.9444 112.808 100.1 113.084 100.378C113.359 100.655 113.514 101.032 113.514 101.424C113.514 101.817 113.359 102.193 113.084 102.471C112.808 102.748 112.434 102.904 112.045 102.904Z" fill="#E4E4E4"/>
<path d="M112.044 116.177H40.9102C40.5204 116.177 40.1466 116.022 39.871 115.744C39.5954 115.466 39.4406 115.09 39.4406 114.698C39.4406 114.305 39.5954 113.929 39.871 113.651C40.1466 113.373 40.5204 113.218 40.9102 113.218H112.044C112.433 113.218 112.807 113.373 113.083 113.651C113.358 113.929 113.513 114.305 113.513 114.698C113.513 115.09 113.358 115.466 113.083 115.744C112.807 116.022 112.433 116.177 112.044 116.177Z" fill="#E4E4E4"/>
<path d="M112.045 122.024H40.9112C40.5214 122.024 40.1476 121.868 39.872 121.591C39.5964 121.313 39.4415 120.937 39.4415 120.544C39.4415 120.152 39.5964 119.775 39.872 119.498C40.1476 119.22 40.5214 119.064 40.9112 119.064H112.045C112.434 119.064 112.808 119.22 113.084 119.498C113.359 119.775 113.514 120.152 113.514 120.544C113.514 120.937 113.359 121.313 113.084 121.591C112.808 121.868 112.434 122.024 112.045 122.024Z" fill="#E4E4E4"/>
<path d="M112.032 138.221H92.5004C92.1106 138.221 91.7368 138.065 91.4612 137.787C91.1856 137.51 91.0308 137.133 91.0308 136.741C91.0308 136.348 91.1856 135.972 91.4612 135.694C91.7368 135.417 92.1106 135.261 92.5004 135.261H112.032C112.422 135.261 112.795 135.417 113.071 135.694C113.347 135.972 113.501 136.348 113.501 136.741C113.501 137.133 113.347 137.51 113.071 137.787C112.795 138.065 112.422 138.221 112.032 138.221Z" fill="#6C63FF"/>
<path d="M59.9472 47.1679C59.9516 50.3459 58.8832 53.4311 56.9175 55.9174C56.2818 56.7265 55.5582 57.4614 54.76 58.1082C52.5813 59.8878 49.9194 60.963 47.1233 61.1928C46.7428 61.2255 46.3587 61.241 45.9728 61.241C45.2057 61.2412 44.4399 61.1776 43.6833 61.0508C43.4193 61.0089 43.159 60.9598 42.8978 60.897C42.4441 60.7954 41.9961 60.6696 41.5556 60.5202C40.1257 60.0415 38.7825 59.332 37.5786 58.4195C37.2578 58.1783 36.946 57.9216 36.6495 57.6495C36.2828 57.3222 35.9355 56.9736 35.6092 56.6055C35.5188 56.509 35.4356 56.4089 35.3515 56.3097C33.8896 54.5862 32.8628 52.5324 32.3586 50.3233C31.8544 48.1142 31.8878 45.8151 32.4559 43.6217C33.024 41.4284 34.11 39.4057 35.6214 37.726C37.1328 36.0462 39.0249 34.7591 41.1366 33.9742C43.2483 33.1892 45.5171 32.9297 47.7498 33.2177C49.9825 33.5058 52.1131 34.3328 53.9601 35.6284C55.8071 36.924 57.3159 38.6499 58.358 40.6591C59.4001 42.6682 59.9447 44.9012 59.9454 47.1679H59.9472Z" fill="#E4E4E4"/>
<path d="M45.4865 51.97C48.6493 51.97 51.2133 49.3881 51.2133 46.2031C51.2133 43.0182 48.6493 40.4363 45.4865 40.4363C42.3236 40.4363 39.7596 43.0182 39.7596 46.2031C39.7596 49.3881 42.3236 51.97 45.4865 51.97Z" fill="#9E616A"/>
<path d="M51.8614 43.3917C51.8875 42.8763 51.7432 42.3667 51.451 41.9427L51.244 41.6469C50.4566 40.285 49.4877 39.038 48.3644 37.9407C48.1239 37.6337 47.8201 37.383 47.474 37.2059C47.1278 37.0288 46.7476 36.9295 46.3596 36.9149C45.8864 36.9489 45.4457 37.1701 45.134 37.5302C44.2775 37.4775 43.4244 37.6775 42.6791 38.1057C41.9339 38.534 41.3289 39.1719 40.9383 39.9412C38.196 41.3975 39.014 45.7026 39.023 45.7482L39.6855 46.8677L39.7606 46.7257C39.7606 46.7257 39.7696 46.7102 39.7813 46.6865C39.9106 46.4544 40.6111 45.1629 41.0847 44.3447C41.2576 44.0658 41.4874 43.8272 41.759 43.6447C42.2026 43.3396 42.7125 43.146 43.2458 43.0804L44.7019 42.8902L44.1506 43.723H48.1185L49.6442 43.541C50.0873 44.6921 50.5915 45.8184 51.1546 46.915L51.1663 46.9396L51.2477 47.1052L51.6996 45.8528C51.9635 45.0603 52.0193 44.2124 51.8614 43.3917Z" fill="#2F2E41"/>
<path d="M37.623 58.4495C38.7865 57.1086 40.3464 56.1787 42.0735 55.7963L43.6264 54.0552L49.8512 53.054L53.0147 54.8161L56.9139 55.9147C56.2783 56.7238 55.5546 57.4587 54.7564 58.1054C52.5777 59.8851 49.9158 60.9603 47.1198 61.19C46.7392 61.2228 46.3551 61.2383 45.9691 61.2383C45.2021 61.2385 44.4363 61.1749 43.6797 61.048C43.4158 61.0062 43.1555 60.957 42.8942 60.8942C42.4402 60.7924 41.9918 60.6663 41.5511 60.5165C40.1385 60.0437 38.8108 59.3445 37.6194 58.4459C37.604 58.4368 37.5922 58.4249 37.5778 58.4158L37.623 58.4495Z" fill="#6C63FF"/>
<path d="M1.26269 2.54303C1.96005 2.54303 2.52537 1.97375 2.52537 1.27151C2.52537 0.569276 1.96005 0 1.26269 0C0.565323 0 0 0.569276 0 1.27151C0 1.97375 0.565323 2.54303 1.26269 2.54303Z" fill="white"/>
<path d="M6.05492 2.54303C6.75228 2.54303 7.31761 1.97375 7.31761 1.27151C7.31761 0.569276 6.75228 0 6.05492 0C5.35756 0 4.79224 0.569276 4.79224 1.27151C4.79224 1.97375 5.35756 2.54303 6.05492 2.54303Z" fill="white"/>
<path d="M10.8472 2.54303C11.5445 2.54303 12.1098 1.97375 12.1098 1.27151C12.1098 0.569276 11.5445 0 10.8472 0C10.1498 0 9.58447 0.569276 9.58447 1.27151C9.58447 1.97375 10.1498 2.54303 10.8472 2.54303Z" fill="white"/>
<path d="M194.647 139.653C194.393 139.375 194.203 139.044 194.089 138.684C193.976 138.324 193.943 137.943 193.991 137.568C194.04 137.193 194.17 136.834 194.372 136.515C194.573 136.197 194.842 135.926 195.158 135.723L193.054 126.784L197.508 128.422L198.823 136.66C199.126 137.218 199.215 137.869 199.073 138.489C198.932 139.109 198.569 139.655 198.054 140.024C197.54 140.393 196.908 140.559 196.28 140.491C195.652 140.423 195.071 140.125 194.646 139.653H194.647Z" fill="#FFC2B3"/>
<path d="M183.937 102.193L185.724 106.82C185.724 106.82 184.958 111.447 186.235 112.476C187.511 113.504 187 113.504 187 114.275C187.044 114.828 187.203 115.366 187.467 115.853C187.731 116.341 188.094 116.766 188.532 117.103C189.554 117.874 194.149 133.557 194.149 133.557H198.744C198.596 132.362 198.596 131.153 198.744 129.958C198.786 127.498 198.352 125.053 197.468 122.76C196.957 121.989 197.468 120.96 197.468 119.418C197.468 117.875 196.443 117.104 196.443 114.534C196.443 111.963 193.379 91.9095 193.635 89.5949C193.89 87.2803 191.081 85.2261 191.081 85.2261H188.528L183.937 102.193Z" fill="#E4E4E4"/>
<path d="M195.69 199.968H192.293L190.678 186.776H195.691L195.69 199.968Z" fill="#FFC2B3"/>
<path d="M196.556 203.284H185.605V203.144C185.605 202.006 186.054 200.914 186.853 200.109C187.653 199.304 188.737 198.852 189.867 198.852L191.868 197.324L195.6 198.852H196.556V203.284Z" fill="#2F2E41"/>
<path d="M164.62 199.87L161.43 198.695L164.413 185.747L169.12 187.482L164.62 199.87Z" fill="#FFC2B3"/>
<path d="M164.303 203.283L154.018 199.494L154.066 199.363C154.454 198.294 155.248 197.424 156.273 196.944C157.299 196.465 158.471 196.415 159.533 196.806L161.933 196.062L164.915 198.793L165.813 199.123L164.303 203.283Z" fill="#2F2E41"/>
<path d="M188.208 138.281C188.208 138.281 185.91 149.592 189.74 148.566C193.569 147.539 192.037 137.768 192.037 137.768L188.208 138.281Z" fill="#A0616A"/>
<path d="M171.357 128.897C171.357 128.897 168.293 133.01 168.293 135.325C168.293 137.639 167.272 158.205 167.272 158.205C167.272 158.205 159.52 188.833 161.052 190.376C162.584 191.918 167.945 193.461 168.712 192.689C169.478 191.917 176.208 160.262 176.208 160.262L182.591 143.037L188.466 167.719L188.977 193.942C188.977 193.942 195.36 195.484 196.636 194.456C197.913 193.427 198.168 168.49 196.636 159.748C195.104 151.007 196.884 130.957 196.884 130.957L171.357 128.897Z" fill="#2F2E41"/>
<path d="M181.596 74.008C185.826 74.008 189.255 70.5549 189.255 66.2952C189.255 62.0355 185.826 58.5824 181.596 58.5824C177.366 58.5824 173.937 62.0355 173.937 66.2952C173.937 70.5549 177.366 74.008 181.596 74.008Z" fill="#FFC2B3"/>
<path d="M171.867 85.1914C173.821 82.4433 176.011 79.8737 178.413 77.5122C180.71 76.7413 184.692 77.1909 186.072 77.5122C192.455 85.996 192.856 85.4307 194.518 90.1728C194.955 91.2392 195.111 92.4017 194.97 93.5468C194.204 97.4032 196.629 128.639 196.884 129.668C197.139 130.696 198.927 131.982 197.139 131.982C195.351 131.982 168.289 130.953 168.799 130.182C169.31 129.411 171.867 85.1914 171.867 85.1914Z" fill="#E4E4E4"/>
<path opacity="0.1" d="M170.699 129.844L178.382 112.829L174.542 130.924L170.699 129.844Z" fill="black"/>
<path d="M179.278 73.4402C179.995 72.903 180.655 72.293 181.248 71.6198C181.844 70.9402 182.216 70.0922 182.316 69.1915C182.358 68.7431 182.288 68.2911 182.111 67.8774C181.934 67.4637 181.656 67.1017 181.303 66.825C180.939 66.5624 180.496 66.4359 180.049 66.4673C179.602 66.4987 179.18 66.686 178.856 66.9971C179.149 66.045 179.415 64.9219 178.823 64.1227C178.281 63.3946 177.278 63.2726 176.409 63.0305C174.733 62.5607 173.292 61.4792 172.365 59.9969L173.841 60.3046L173.674 59.2442L174.897 59.672L174.908 58.1966L176.173 58.9074C177.718 57.481 179.754 56.7171 181.849 56.7776C182.906 56.7953 183.941 57.0815 184.859 57.6095C185.779 58.145 186.475 58.997 186.82 60.0087C187.176 59.7006 187.626 59.5233 188.095 59.5059C188.564 59.4886 189.025 59.6322 189.402 59.9132C190.142 60.5002 190.68 61.3077 190.938 62.2205C191.556 63.9249 191.7 65.767 191.354 67.5477C190.998 69.3323 190.043 70.9392 188.649 72.0986C187.369 73.0824 185.845 73.6929 184.244 73.8634C182.649 74.0299 181.038 73.9607 179.463 73.6577" fill="#2F2E41"/>
<path d="M168.308 139.621C168.562 139.343 168.752 139.012 168.865 138.651C168.979 138.291 169.012 137.91 168.963 137.535C168.914 137.161 168.785 136.801 168.583 136.483C168.381 136.164 168.113 135.894 167.796 135.691L169.9 126.751L165.447 128.389L164.132 136.627C163.829 137.186 163.74 137.836 163.881 138.456C164.023 139.076 164.386 139.623 164.9 139.991C165.415 140.36 166.046 140.526 166.674 140.458C167.303 140.39 167.884 140.092 168.309 139.621H168.308Z" fill="#FFC2B3"/>
<path d="M174.421 85.1915H171.868C171.868 85.1915 169.06 87.2485 169.315 89.5603C169.57 91.8722 166.506 111.927 166.506 114.499C166.506 117.071 165.485 117.841 165.485 119.384C165.485 120.927 165.996 121.955 165.485 122.726C164.6 125.02 164.167 127.465 164.209 129.925C164.357 131.12 164.357 132.329 164.209 133.524H168.804C168.804 133.524 173.399 117.842 174.421 117.07C174.859 116.734 175.222 116.308 175.485 115.821C175.749 115.333 175.909 114.796 175.953 114.242C175.953 113.472 175.442 113.471 176.718 112.443C177.994 111.415 177.229 106.787 177.229 106.787L179.016 102.16L174.421 85.1915Z" fill="#E4E4E4"/>
<path d="M246.644 204H106.594C106.547 204 106.501 203.991 106.458 203.973C106.414 203.955 106.375 203.928 106.342 203.895C106.309 203.861 106.282 203.822 106.264 203.778C106.247 203.735 106.237 203.688 106.237 203.641C106.237 203.593 106.247 203.547 106.264 203.503C106.282 203.459 106.309 203.42 106.342 203.386C106.375 203.353 106.414 203.327 106.458 203.308C106.501 203.29 106.547 203.281 106.594 203.281H246.644C246.739 203.281 246.829 203.319 246.896 203.386C246.963 203.454 247.001 203.545 247.001 203.641C247.001 203.736 246.963 203.827 246.896 203.895C246.829 203.962 246.739 204 246.644 204Z" fill="#281F27"/>
</g>
<defs>
<clipPath id="clip0_921_13780">
<rect width="247" height="204" fill="white"/>
</clipPath>
</defs>
</svg>
