<svg width="25" height="23" viewBox="0 0 25 23" fill="none" xmlns="http://www.w3.org/2000/svg">
<path d="M2.99997 21.7513H0.499969C0.499969 17.6091 3.85783 14.2513 7.99997 14.2513C12.1421 14.2513 15.5 17.6091 15.5 21.7513H13C13 18.9898 10.7614 16.7513 7.99997 16.7513C5.23855 16.7513 2.99997 18.9898 2.99997 21.7513ZM20.955 17.205L19.1875 15.4375C20.8286 13.7965 21.7506 11.5708 21.7506 9.25001C21.7506 6.92921 20.8286 4.70348 19.1875 3.06251L20.955 1.29501C25.3476 5.68828 25.3476 12.8105 20.955 17.2038V17.205ZM17.4187 13.67L15.6512 11.9C17.1135 10.4359 17.1135 8.0641 15.6512 6.60001L17.4187 4.82876C19.8594 7.26953 19.8594 11.2267 17.4187 13.6675V13.67ZM7.99997 13C5.23854 13 2.99997 10.7614 2.99997 8.00001C2.99997 5.23859 5.23854 3.00001 7.99997 3.00001C10.7614 3.00001 13 5.23859 13 8.00001C13 9.3261 12.4732 10.5979 11.5355 11.5355C10.5978 12.4732 9.32605 13 7.99997 13ZM7.99997 5.50001C6.63421 5.5014 5.52233 6.59857 5.50276 7.96419C5.48319 9.32981 6.56318 10.4584 7.92833 10.4989C9.29349 10.5394 10.4385 9.47689 10.5 8.11251V8.61251V8.00001C10.5 6.6193 9.38068 5.50001 7.99997 5.50001Z" fill="#2E3A59" stroke="white" stroke-width="0.925"/>
</svg>
