<svg width="40" height="40" viewBox="0 0 40 40" fill="none" xmlns="http://www.w3.org/2000/svg">
<path d="M30.2172 20.9449C29.6299 20.3523 28.9314 19.8816 28.1617 19.5597C27.392 19.2378 26.5662 19.0712 25.7319 19.0694C24.8976 19.0675 24.0712 19.2305 23.3001 19.5489C22.5289 19.8674 21.8283 20.335 21.2384 20.925L16.9271 25.2363L21.411 29.7201C22.5518 30.8608 24.0845 31.5238 25.6969 31.574C27.3094 31.6242 28.8804 31.058 30.09 29.9905L30.2045 29.876C31.3856 28.6908 32.0499 27.0864 32.0523 25.4131C32.0547 23.7398 31.395 22.1335 30.2172 20.9449Z" fill="url(#paint0_linear_1560_877)"/>
<path opacity="0.45" d="M31.119 28.7121C30.7322 28.9443 30.3216 29.1341 29.8943 29.2784C29.2915 29.4829 28.6615 29.5958 28.0253 29.6132H27.9458H27.8257H27.6818H27.6022C27.5291 29.6132 27.4559 29.6068 27.3827 29.6013H27.3748C25.8637 29.4882 24.4436 28.8356 23.3737 27.7626L18.8906 23.2723L18.8843 23.2787L17.8241 22.2186C16.6361 21.0306 15.0248 20.3633 13.3447 20.3633C11.6646 20.3633 10.0533 21.0306 8.86519 22.2186L8.85564 22.2281C8.26734 22.8163 7.80066 23.5147 7.48227 24.2833C7.16388 25.0519 7 25.8757 7 26.7076C7 27.5395 7.16388 28.3633 7.48227 29.1319C7.80066 29.9005 8.26734 30.5988 8.85564 31.1871L9.98496 32.3164C11.1528 33.4843 12.5393 34.4108 14.0652 35.0429C15.5911 35.6749 17.2266 36.0003 18.8783 36.0003C20.5299 36.0003 22.1654 35.6749 23.6914 35.0429C25.2173 34.4108 26.6038 33.4843 27.7716 32.3164L30.2044 29.8764C30.5537 29.5254 30.8607 29.1346 31.119 28.7121Z" fill="black"/>
<path d="M31.119 28.7121C30.7322 28.9443 30.3216 29.1341 29.8943 29.2784C29.2915 29.4829 28.6615 29.5958 28.0253 29.6132H27.9458H27.8257H27.6818H27.6022C27.5291 29.6132 27.4559 29.6068 27.3827 29.6013H27.3748C25.8637 29.4882 24.4436 28.8356 23.3737 27.7626L18.8906 23.2723L18.8843 23.2787L17.8241 22.2186C16.6361 21.0306 15.0248 20.3633 13.3447 20.3633C11.6646 20.3633 10.0533 21.0306 8.86519 22.2186L8.85564 22.2281C8.26734 22.8163 7.80066 23.5147 7.48227 24.2833C7.16388 25.0519 7 25.8757 7 26.7076C7 27.5395 7.16388 28.3633 7.48227 29.1319C7.80066 29.9005 8.26734 30.5988 8.85564 31.1871L9.98496 32.3164C11.1528 33.4843 12.5393 34.4108 14.0652 35.0429C15.5911 35.6749 17.2266 36.0003 18.8783 36.0003C20.5299 36.0003 22.1654 35.6749 23.6914 35.0429C25.2173 34.4108 26.6038 33.4843 27.7716 32.3164L30.2044 29.8764C30.5537 29.5254 30.8607 29.1346 31.119 28.7121Z" fill="url(#paint1_linear_1560_877)"/>
<path d="M21.7582 18.2221C24.3764 15.6039 24.3764 11.359 21.7582 8.74079C19.14 6.1226 14.8951 6.1226 12.2769 8.74079C9.65872 11.359 9.65872 15.6039 12.2769 18.2221C14.8951 20.8403 19.14 20.8403 21.7582 18.2221Z" fill="url(#paint2_linear_1560_877)"/>
<defs>
<linearGradient id="paint0_linear_1560_877" x1="36.484" y1="15.367" x2="25.3326" y2="30.5666" gradientUnits="userSpaceOnUse">
<stop stop-color="#FFFF2F"/>
<stop offset="0.393" stop-color="#FF9D52"/>
<stop offset="1" stop-color="#FF008C"/>
</linearGradient>
<linearGradient id="paint1_linear_1560_877" x1="54.225" y1="28.041" x2="13.2005" y2="28.413" gradientUnits="userSpaceOnUse">
<stop stop-color="#FFFF2F"/>
<stop offset="0.393" stop-color="#FF9D52"/>
<stop offset="1" stop-color="#FF008C"/>
</linearGradient>
<linearGradient id="paint2_linear_1560_877" x1="-4.73256" y1="13.3108" x2="89.1134" y2="14.0503" gradientUnits="userSpaceOnUse">
<stop stop-color="#FF008C"/>
<stop offset="0.358" stop-color="#FF526D"/>
<stop offset="1" stop-color="#FFE339"/>
</linearGradient>
</defs>
</svg>
