<svg width="12" height="18" viewBox="0 0 12 18" fill="none" xmlns="http://www.w3.org/2000/svg">
<path d="M2.34106 1.10499C2.60408 1.1067 2.85707 1.20618 3.05082 1.38411L3.05077 1.38417L3.05536 1.38818L10.6814 8.05609C10.8151 8.18103 10.9218 8.33204 10.995 8.49983C11.0686 8.66873 11.1066 8.85099 11.1066 9.03523C11.1066 9.21947 11.0686 9.40174 10.995 9.57063C10.9218 9.7384 10.8151 9.88939 10.6814 10.0143L3.06899 16.6612L3.06892 16.6611L3.06349 16.6661C2.90525 16.8128 2.7057 16.9071 2.49195 16.9364C2.27871 16.9656 2.06166 16.9286 1.87015 16.8304C1.66448 16.721 1.49313 16.5567 1.37515 16.3558C1.2569 16.1545 1.19691 15.9242 1.20186 15.6908L1.20192 15.6908L1.20192 15.6853L1.18992 2.36976L1.18997 2.36976L1.18986 2.36464C1.18488 2.13155 1.24473 1.90165 1.36273 1.70057C1.48063 1.49965 1.65196 1.33539 1.85766 1.22605C2.00686 1.14778 2.17259 1.10628 2.34106 1.10499Z" fill="#00C99A" stroke="#EEDBE6" stroke-width="0.5"/>
</svg>
